<svg xmlns="http://www.w3.org/2000/svg" xmlns:xlink="http://www.w3.org/1999/xlink" width="108" height="108" viewBox="0 0 108 108">
  <defs>
    <filter id="Trazado_982547" x="0" y="0" width="108" height="108" filterUnits="userSpaceOnUse">
      <feOffset dy="3" input="SourceAlpha"/>
      <feGaussianBlur stdDeviation="3" result="blur"/>
      <feFlood flood-opacity="0.161"/>
      <feComposite operator="in" in2="blur"/>
      <feComposite in="SourceGraphic"/>
    </filter>
  </defs>
  <g id="Grupo_1206362" data-name="Grupo 1206362" transform="translate(-616 -4180)">
    <g id="Grupo_1202559" data-name="Grupo 1202559" transform="translate(294.204 1937.702)">
      <g id="Grupo_1202232" data-name="Grupo 1202232" transform="translate(330.796 2248.298)">
        <g id="Grupo_1201680" data-name="Grupo 1201680">
          <g id="Grupo_1201330" data-name="Grupo 1201330">
            <g id="Grupo_1172010" data-name="Grupo 1172010">
              <g id="Grupo_1171046" data-name="Grupo 1171046">
                <g id="Grupo_1148525" data-name="Grupo 1148525">
                  <g transform="matrix(1, 0, 0, 1, -9, -6)" filter="url(#Trazado_982547)">
                    <g id="Trazado_982547-2" data-name="Trazado 982547" transform="translate(9 6)" fill="#fdfbec">
                      <path d="M 45.00000381469727 88.5 C 39.12688064575195 88.5 33.43022918701172 87.35008239746094 28.06830406188965 85.08217620849609 C 22.88852882385254 82.89131927490234 18.23630332946777 79.75459289550781 14.24085426330566 75.7591552734375 C 10.24541664123535 71.76370239257812 7.108691215515137 67.11148071289062 4.917829036712646 61.93170547485352 C 2.64992880821228 56.56977844238281 1.500003814697266 50.87312698364258 1.500003814697266 45.00000381469727 C 1.500003814697266 39.12688064575195 2.64992880821228 33.43022918701172 4.917829036712646 28.06830406188965 C 7.108691215515137 22.88852882385254 10.24541664123535 18.23630332946777 14.24085426330566 14.24085426330566 C 18.23630332946777 10.24541664123535 22.88852882385254 7.108691215515137 28.06830406188965 4.917829036712646 C 33.43022918701172 2.64992880821228 39.12688064575195 1.500003814697266 45.00000381469727 1.500003814697266 C 50.87312698364258 1.500003814697266 56.56977844238281 2.64992880821228 61.93170547485352 4.917829036712646 C 67.11148071289062 7.108691215515137 71.76370239257812 10.24541664123535 75.7591552734375 14.24085426330566 C 79.75459289550781 18.23630332946777 82.89131927490234 22.88852882385254 85.08217620849609 28.06830406188965 C 87.35008239746094 33.43022918701172 88.5 39.12688064575195 88.5 45.00000381469727 C 88.5 50.87312698364258 87.35008239746094 56.56977844238281 85.08217620849609 61.93170547485352 C 82.89131927490234 67.11148071289062 79.75459289550781 71.76370239257812 75.7591552734375 75.7591552734375 C 71.76370239257812 79.75459289550781 67.11148071289062 82.89131927490234 61.93170547485352 85.08217620849609 C 56.56977844238281 87.35008239746094 50.87312698364258 88.5 45.00000381469727 88.5 Z" stroke="none"/>
                      <path d="M 45.00000381469727 3.000007629394531 C 39.32871627807617 3.000007629394531 33.82865905761719 4.110061645507812 28.65263366699219 6.299346923828125 C 23.65166473388672 8.414573669433594 19.15969085693359 11.44334411621094 15.30152130126953 15.30152130126953 C 11.44334411621094 19.15969085693359 8.414573669433594 23.65166473388672 6.299346923828125 28.65263366699219 C 4.110061645507812 33.82865905761719 3.000007629394531 39.32871627807617 3.000007629394531 45.00000381469727 C 3.000007629394531 50.67129135131836 4.110061645507812 56.17134857177734 6.299346923828125 61.34737396240234 C 8.414573669433594 66.34834289550781 11.44334411621094 70.84031677246094 15.30152130126953 74.698486328125 C 19.15969085693359 78.55666351318359 23.65166473388672 81.58543395996094 28.65263366699219 83.70066070556641 C 33.82865905761719 85.88994598388672 39.32871627807617 87 45.00000381469727 87 C 50.67129135131836 87 56.17134857177734 85.88994598388672 61.34737396240234 83.70066070556641 C 66.34834289550781 81.58543395996094 70.84031677246094 78.55666351318359 74.698486328125 74.698486328125 C 78.55666351318359 70.84031677246094 81.58543395996094 66.34834289550781 83.70066070556641 61.34737396240234 C 85.88994598388672 56.17134857177734 87 50.67129135131836 87 45.00000381469727 C 87 39.32871627807617 85.88994598388672 33.82865905761719 83.70066070556641 28.65263366699219 C 81.58543395996094 23.65166473388672 78.55666351318359 19.15969085693359 74.698486328125 15.30152130126953 C 70.84031677246094 11.44334411621094 66.34834289550781 8.414573669433594 61.34737396240234 6.299346923828125 C 56.17134857177734 4.110061645507812 50.67129135131836 3.000007629394531 45.00000381469727 3.000007629394531 M 45.00000381469727 7.62939453125e-06 C 69.85281372070312 7.62939453125e-06 90 20.14718627929688 90 45.00000381469727 C 90 69.85281372070312 69.85281372070312 90 45.00000381469727 90 C 20.14718627929688 90 7.62939453125e-06 69.85281372070312 7.62939453125e-06 45.00000381469727 C 7.62939453125e-06 20.14718627929688 20.14718627929688 7.62939453125e-06 45.00000381469727 7.62939453125e-06 Z" stroke="none" fill="#83793c"/>
                    </g>
                  </g>
                </g>
              </g>
            </g>
          </g>
        </g>
      </g>
    </g>
    <g id="parental_5443218_2_" data-name="parental_5443218 (2)" transform="translate(645 4198)">
      <g id="Grupo_1206360" data-name="Grupo 1206360">
        <g id="Grupo_1206347" data-name="Grupo 1206347">
          <path id="Trazado_1048965" data-name="Trazado 1048965" d="M7,51H27V61H7V51Z" fill="#d3a06c"/>
        </g>
        <g id="Grupo_1206348" data-name="Grupo 1206348">
          <path id="Trazado_1048966" data-name="Trazado 1048966" d="M26.97,36a2.828,2.828,0,0,1,.03.41V51H7V49H1V36.28a9,9,0,0,1,8.25-8.97L13,27l4,4,4-4a43.292,43.292,0,0,1,13.64,2.21l1.42.48a4.162,4.162,0,0,0,.6,1.51,6.289,6.289,0,0,0-3.34,2.19,6.215,6.215,0,0,0-1.31,3.45L27,36Z" fill="#b4dd7f"/>
        </g>
        <g id="Grupo_1206349" data-name="Grupo 1206349">
          <path id="Trazado_1048967" data-name="Trazado 1048967" d="M25,11l-.84-.17A13.859,13.859,0,0,1,19.2,8.79a4.832,4.832,0,0,1-6.61-.2L11,7,9.59,8.41A2.006,2.006,0,0,0,9,9.83V13H8a3,3,0,0,0-3,3l-.59-.59a4.828,4.828,0,0,1,0-6.82L5,8V7A3.995,3.995,0,0,1,9,3l.2-.2a6.151,6.151,0,0,1,7.1-1.15L17,2l.7-.35A6.151,6.151,0,0,1,24.8,2.8L25,3a4,4,0,0,1,4,4V8l.59.59a4.828,4.828,0,0,1,0,6.82L29,16a3,3,0,0,0-3-3H25Z" fill="#656d78"/>
        </g>
        <g id="Grupo_1206350" data-name="Grupo 1206350">
          <path id="Trazado_1048968" data-name="Trazado 1048968" d="M47,40a17.742,17.742,0,0,1-4.82-.66,18.148,18.148,0,0,1-4.47-1.91L37,37l-1.12,1.12A3.015,3.015,0,0,0,35,40.24V41H33a1.948,1.948,0,0,0-.25.02l-.56-2.28A5.9,5.9,0,0,1,32,37.23c0-.13,0-.26.01-.39a6.215,6.215,0,0,1,1.31-3.45,6.289,6.289,0,0,1,3.34-2.19A3.982,3.982,0,0,0,40,33h2a4.025,4.025,0,0,0,2.83-1.17,3.9,3.9,0,0,0,.51-.63A6.235,6.235,0,0,1,50,37.23a5.9,5.9,0,0,1-.19,1.51L49.25,41v.02A1.948,1.948,0,0,0,49,41H47Z" fill="#b27946"/>
        </g>
        <g id="Grupo_1206351" data-name="Grupo 1206351">
          <path id="Trazado_1048969" data-name="Trazado 1048969" d="M46,61H31V59a6,6,0,0,1,6-6h1l.11.21a3.228,3.228,0,0,0,5.78,0L44,53h1a6,6,0,0,1,6,6v2Z" fill="#75b1f2"/>
        </g>
        <g id="Grupo_1206352" data-name="Grupo 1206352">
          <path id="Trazado_1048970" data-name="Trazado 1048970" d="M49.25,41.02A2,2,0,0,1,51,43a2.015,2.015,0,0,1-2,2H47V41h2A1.948,1.948,0,0,1,49.25,41.02Z" fill="#f0d0b4"/>
        </g>
        <g id="Grupo_1206353" data-name="Grupo 1206353">
          <path id="Trazado_1048971" data-name="Trazado 1048971" d="M47,41v4.39A6.768,6.768,0,0,1,44,51v2l-.11.21a3.228,3.228,0,0,1-5.78,0L38,53V51l-.03-.02A6.663,6.663,0,0,1,35,45.43V40.24a3.015,3.015,0,0,1,.88-2.12L37,37l.71.43a18.148,18.148,0,0,0,4.47,1.91A17.742,17.742,0,0,0,47,40Z" fill="#f0d0b4"/>
        </g>
        <g id="Grupo_1206354" data-name="Grupo 1206354">
          <path id="Trazado_1048972" data-name="Trazado 1048972" d="M35,41v4H33a2.015,2.015,0,0,1-2-2,2,2,0,0,1,1.75-1.98A1.948,1.948,0,0,1,33,41Z" fill="#f0d0b4"/>
        </g>
        <g id="Grupo_1206355" data-name="Grupo 1206355">
          <path id="Trazado_1048973" data-name="Trazado 1048973" d="M7,51v4a6,6,0,0,1-6-6H7Z" fill="#f0d0b4"/>
        </g>
        <g id="Grupo_1206356" data-name="Grupo 1206356">
          <path id="Trazado_1048974" data-name="Trazado 1048974" d="M44,27a2.006,2.006,0,0,1,2,2,3.957,3.957,0,0,1-.66,2.2,3.9,3.9,0,0,1-.51.63A4.025,4.025,0,0,1,42,33H40a3.982,3.982,0,0,1-3.34-1.8,4.162,4.162,0,0,1-.6-1.51A3.852,3.852,0,0,1,36,29a2.015,2.015,0,0,1,2-2Z" fill="#f0d0b4"/>
        </g>
        <g id="Grupo_1206357" data-name="Grupo 1206357">
          <path id="Trazado_1048975" data-name="Trazado 1048975" d="M24.99,19h-.01c.01-.16.02-.31.02-.47V13h1a3,3,0,0,1,0,6Z" fill="#f0d0b4"/>
        </g>
        <g id="Grupo_1206358" data-name="Grupo 1206358">
          <path id="Trazado_1048976" data-name="Trazado 1048976" d="M25,13v5.53c0,.16-.01.31-.02.47A7.23,7.23,0,0,1,21,25v2l-4,4-4-4V25a7.23,7.23,0,0,1-3.98-6c-.01-.16-.02-.31-.02-.47V9.83a2.006,2.006,0,0,1,.59-1.42L11,7l1.59,1.59a4.832,4.832,0,0,0,6.61.2,13.859,13.859,0,0,0,4.96,2.04L25,11Z" fill="#f0d0b4"/>
        </g>
        <g id="Grupo_1206359" data-name="Grupo 1206359">
          <path id="Trazado_1048977" data-name="Trazado 1048977" d="M9,18.53c0,.16.01.31.02.47H8a3,3,0,0,1,0-6H9Z" fill="#f0d0b4"/>
        </g>
      </g>
      <g id="Grupo_1206361" data-name="Grupo 1206361">
        <circle id="Elipse_12930" data-name="Elipse 12930" cx="1" cy="1" r="1" transform="translate(12 12)"/>
        <circle id="Elipse_12931" data-name="Elipse 12931" cx="1" cy="1" r="1" transform="translate(20 12)"/>
        <path id="Trazado_1048978" data-name="Trazado 1048978" d="M15,18.764l-.1-.211-1.789.9.1.211a4.236,4.236,0,0,0,7.578,0l.1-.211-1.789-.9-.1.212a2.236,2.236,0,0,1-4,0Z"/>
        <path id="Trazado_1048979" data-name="Trazado 1048979" d="M18.447,16.1l-1.224-.611.726-2.178-1.9-.632-1.274,3.822L17.553,17.9Z"/>
        <path id="Trazado_1048980" data-name="Trazado 1048980" d="M38.586,48a3.414,3.414,0,0,0,4.828,0l.293-.293-1.414-1.414L42,46.586a1.465,1.465,0,0,1-2,0l-.293-.293-1.414,1.414Z"/>
        <path id="Trazado_1048981" data-name="Trazado 1048981" d="M45,52v-.488A7.711,7.711,0,0,0,47.965,46H49a2.99,2.99,0,0,0,1.435-5.618l.349-1.4a7.232,7.232,0,0,0-4.078-8.363A4.946,4.946,0,0,0,47,29a3,3,0,0,0-3-3H38a3,3,0,0,0-2.912,2.309l-.132-.044A44.045,44.045,0,0,0,22,26.012v-.419A8.164,8.164,0,0,0,25.853,20H26a3.991,3.991,0,0,0,3.953-3.539l.34-.34a5.829,5.829,0,0,0,0-8.243L30,7.586V7a5.006,5.006,0,0,0-4.568-4.981A7.1,7.1,0,0,0,20.452,0a7.181,7.181,0,0,0-3.2.755L17,.882,16.746.755A7.181,7.181,0,0,0,13.548,0a7.1,7.1,0,0,0-4.98,2.019A5.006,5.006,0,0,0,4,7v.586l-.293.293a5.828,5.828,0,0,0,0,8.242l.34.34A3.991,3.991,0,0,0,8,20h.146A8.166,8.166,0,0,0,12,25.592v.488l-2.831.236A10.059,10.059,0,0,0,0,36.281V49a7,7,0,0,0,6,6.92V62H28V37.18l3.028.505a7.325,7.325,0,0,0,.188,1.3l.349,1.4A2.99,2.99,0,0,0,33,46h1.033A7.653,7.653,0,0,0,37,51.513V52a7.008,7.008,0,0,0-7,7v3H52V59A7.008,7.008,0,0,0,45,52Zm4-8H48V42h1a1,1,0,0,1,0,2ZM38,28h6a1,1,0,0,1,1,1,3,3,0,0,1-3,3H40a3,3,0,0,1-3-3A1,1,0,0,1,38,28ZM26,18V14a2,2,0,0,1,0,4ZM5.121,9.293,6,8.414V7A3,3,0,0,1,9,4h.414L9.9,3.509A5.119,5.119,0,0,1,13.548,2a5.176,5.176,0,0,1,2.3.544L17,3.118l1.148-.574A5.176,5.176,0,0,1,20.452,2a5.12,5.12,0,0,1,3.643,1.509L24.586,4H25a3,3,0,0,1,3,3V8.414l.879.879a3.8,3.8,0,0,1,.555,4.69A3.985,3.985,0,0,0,26,12V10.236a4.592,4.592,0,0,0-2.553-4.13l-.9,1.789a2.6,2.6,0,0,1,1.405,1.871,12.965,12.965,0,0,1-6.251-3.473L16.292,7.707c.355.355.73.682,1.115,1a3.928,3.928,0,0,1-4.115-.826L11,5.586,8.879,7.707A2.978,2.978,0,0,0,8,9.829V12a3.985,3.985,0,0,0-3.434,1.983,3.8,3.8,0,0,1,.555-4.69ZM6,16a2,2,0,0,1,2-2v4a2,2,0,0,1-2-2Zm4,2.528v-8.7a1,1,0,0,1,.293-.708L11,8.414l.879.879a5.781,5.781,0,0,0,7.365.7,14.968,14.968,0,0,0,4.72,1.821L24,11.82v6.708a6.2,6.2,0,0,1-3.447,5.578L20,24.382v2.2l-3,3-3-3v-2.2l-.553-.276A6.2,6.2,0,0,1,10,18.528Zm-.665,9.781,3.285-.274L17,32.414l4.406-4.406a42.045,42.045,0,0,1,12.918,2.154l.922.307c.016.052.031.1.048.155a7.219,7.219,0,0,0-4.106,5.06l-3.4-.567a4.374,4.374,0,0,0-1.078-1.824l-1.414,1.414A2.436,2.436,0,0,1,26,36.414V50H8V36.414a2.432,2.432,0,0,1,.707-1.707L7.293,33.293A4.382,4.382,0,0,0,6,36.414V48H2V36.281a8.047,8.047,0,0,1,7.335-7.972ZM2.1,50H6v3.9A5.016,5.016,0,0,1,2.1,50ZM18,60V55.618l1.447-.724-.9-1.789L17,53.882l-1.553-.776-.9,1.789L16,55.618V60H8V52H26v8ZM32,43a1,1,0,0,1,1-1h1v2H33A1,1,0,0,1,32,43Zm2.024-3h-.493l-.375-1.5a5.215,5.215,0,0,1,3.176-6.129A4.973,4.973,0,0,0,40,34h2a4.973,4.973,0,0,0,3.668-1.628A5.222,5.222,0,0,1,49,37.233a5.274,5.274,0,0,1-.156,1.269L48.469,40H48v-.764a4.592,4.592,0,0,0-2.553-4.13l-.9,1.789a2.6,2.6,0,0,1,1.434,2.075,17.064,17.064,0,0,1-7.76-2.4l-1.382-.83-1.673,1.673A3.957,3.957,0,0,0,34.024,40ZM36,45.432V40.243a1.989,1.989,0,0,1,.586-1.415l.569-.569.043.026A19.057,19.057,0,0,0,46,40.973v4.421a5.724,5.724,0,0,1-2.555,4.773l-.445.3v2.3a2.236,2.236,0,0,1-4,0V51l-.031-.556-.445-.3A5.653,5.653,0,0,1,36,45.432ZM50,60H47v-.586a2.432,2.432,0,0,1,.707-1.707l-1.414-1.414A4.382,4.382,0,0,0,45,59.414V60H37v-.586a4.382,4.382,0,0,0-1.293-3.121l-1.414,1.414A2.432,2.432,0,0,1,35,59.414V60H32V59a5.006,5.006,0,0,1,5-5h.412a4.218,4.218,0,0,0,7.176,0H45a5.006,5.006,0,0,1,5,5Z"/>
        <circle id="Elipse_12932" data-name="Elipse 12932" cx="1" cy="1" r="1" transform="translate(37 42)"/>
        <circle id="Elipse_12933" data-name="Elipse 12933" cx="1" cy="1" r="1" transform="translate(43 42)"/>
      </g>
    </g>
  </g>
</svg>
