<svg xmlns="http://www.w3.org/2000/svg" xmlns:xlink="http://www.w3.org/1999/xlink" width="108" height="108" viewBox="0 0 108 108">
  <defs>
    <filter id="Trazado_982547" x="0" y="0" width="108" height="108" filterUnits="userSpaceOnUse">
      <feOffset dy="3" input="SourceAlpha"/>
      <feGaussianBlur stdDeviation="3" result="blur"/>
      <feFlood flood-opacity="0.161"/>
      <feComposite operator="in" in2="blur"/>
      <feComposite in="SourceGraphic"/>
    </filter>
  </defs>
  <g id="Grupo_1206511" data-name="Grupo 1206511" transform="translate(-1035.5 -4180)">
    <g id="Grupo_1202560" data-name="Grupo 1202560" transform="translate(713.704 1937.702)">
      <g id="Grupo_1202232" data-name="Grupo 1202232" transform="translate(330.796 2248.298)">
        <g id="Grupo_1201680" data-name="Grupo 1201680">
          <g id="Grupo_1201330" data-name="Grupo 1201330">
            <g id="Grupo_1172010" data-name="Grupo 1172010">
              <g id="Grupo_1171046" data-name="Grupo 1171046">
                <g id="Grupo_1148525" data-name="Grupo 1148525">
                  <g transform="matrix(1, 0, 0, 1, -9, -6)" filter="url(#Trazado_982547)">
                    <g id="Trazado_982547-2" data-name="Trazado 982547" transform="translate(9 6)" fill="#fdfbec">
                      <path d="M 45.00000381469727 88.5 C 39.12688064575195 88.5 33.43022918701172 87.35008239746094 28.06830406188965 85.08217620849609 C 22.88852882385254 82.89131927490234 18.23630332946777 79.75459289550781 14.24085426330566 75.7591552734375 C 10.24541664123535 71.76370239257812 7.108691215515137 67.11148071289062 4.917829036712646 61.93170547485352 C 2.64992880821228 56.56977844238281 1.500003814697266 50.87312698364258 1.500003814697266 45.00000381469727 C 1.500003814697266 39.12688064575195 2.64992880821228 33.43022918701172 4.917829036712646 28.06830406188965 C 7.108691215515137 22.88852882385254 10.24541664123535 18.23630332946777 14.24085426330566 14.24085426330566 C 18.23630332946777 10.24541664123535 22.88852882385254 7.108691215515137 28.06830406188965 4.917829036712646 C 33.43022918701172 2.64992880821228 39.12688064575195 1.500003814697266 45.00000381469727 1.500003814697266 C 50.87312698364258 1.500003814697266 56.56977844238281 2.64992880821228 61.93170547485352 4.917829036712646 C 67.11148071289062 7.108691215515137 71.76370239257812 10.24541664123535 75.7591552734375 14.24085426330566 C 79.75459289550781 18.23630332946777 82.89131927490234 22.88852882385254 85.08217620849609 28.06830406188965 C 87.35008239746094 33.43022918701172 88.5 39.12688064575195 88.5 45.00000381469727 C 88.5 50.87312698364258 87.35008239746094 56.56977844238281 85.08217620849609 61.93170547485352 C 82.89131927490234 67.11148071289062 79.75459289550781 71.76370239257812 75.7591552734375 75.7591552734375 C 71.76370239257812 79.75459289550781 67.11148071289062 82.89131927490234 61.93170547485352 85.08217620849609 C 56.56977844238281 87.35008239746094 50.87312698364258 88.5 45.00000381469727 88.5 Z" stroke="none"/>
                      <path d="M 45.00000381469727 3.000007629394531 C 39.32871627807617 3.000007629394531 33.82865905761719 4.110061645507812 28.65263366699219 6.299346923828125 C 23.65166473388672 8.414573669433594 19.15969085693359 11.44334411621094 15.30152130126953 15.30152130126953 C 11.44334411621094 19.15969085693359 8.414573669433594 23.65166473388672 6.299346923828125 28.65263366699219 C 4.110061645507812 33.82865905761719 3.000007629394531 39.32871627807617 3.000007629394531 45.00000381469727 C 3.000007629394531 50.67129135131836 4.110061645507812 56.17134857177734 6.299346923828125 61.34737396240234 C 8.414573669433594 66.34834289550781 11.44334411621094 70.84031677246094 15.30152130126953 74.698486328125 C 19.15969085693359 78.55666351318359 23.65166473388672 81.58543395996094 28.65263366699219 83.70066070556641 C 33.82865905761719 85.88994598388672 39.32871627807617 87 45.00000381469727 87 C 50.67129135131836 87 56.17134857177734 85.88994598388672 61.34737396240234 83.70066070556641 C 66.34834289550781 81.58543395996094 70.84031677246094 78.55666351318359 74.698486328125 74.698486328125 C 78.55666351318359 70.84031677246094 81.58543395996094 66.34834289550781 83.70066070556641 61.34737396240234 C 85.88994598388672 56.17134857177734 87 50.67129135131836 87 45.00000381469727 C 87 39.32871627807617 85.88994598388672 33.82865905761719 83.70066070556641 28.65263366699219 C 81.58543395996094 23.65166473388672 78.55666351318359 19.15969085693359 74.698486328125 15.30152130126953 C 70.84031677246094 11.44334411621094 66.34834289550781 8.414573669433594 61.34737396240234 6.299346923828125 C 56.17134857177734 4.110061645507812 50.67129135131836 3.000007629394531 45.00000381469727 3.000007629394531 M 45.00000381469727 7.62939453125e-06 C 69.85281372070312 7.62939453125e-06 90 20.14718627929688 90 45.00000381469727 C 90 69.85281372070312 69.85281372070312 90 45.00000381469727 90 C 20.14718627929688 90 7.62939453125e-06 69.85281372070312 7.62939453125e-06 45.00000381469727 C 7.62939453125e-06 20.14718627929688 20.14718627929688 7.62939453125e-06 45.00000381469727 7.62939453125e-06 Z" stroke="none" fill="#83793c"/>
                    </g>
                  </g>
                </g>
              </g>
            </g>
          </g>
        </g>
      </g>
    </g>
    <g id="Layer_66" transform="translate(1060.772 4198.272)">
      <g id="Grupo_1206510" data-name="Grupo 1206510" transform="translate(0 0)">
        <g id="Grupo_1206364" data-name="Grupo 1206364" transform="translate(4.367 28.354)">
          <g id="Grupo_1206363" data-name="Grupo 1206363">
            <path id="Trazado_1048982" data-name="Trazado 1048982" d="M23.032,126.821a2.608,2.608,0,0,1-2.012-.49,7.455,7.455,0,0,0,.536,4.3c.855,2.138-2.367,3.914-2.083,6.895l3.216-.812a5.589,5.589,0,0,0,1.1-.406l1.577-.778a1.774,1.774,0,0,0,.989-1.591V132A6.4,6.4,0,0,1,23.032,126.821Z" transform="translate(-19.456 -126.331)" fill="#fcdd86"/>
          </g>
        </g>
        <g id="Grupo_1206366" data-name="Grupo 1206366" transform="translate(0.561 38.787)">
          <g id="Grupo_1206365" data-name="Grupo 1206365">
            <path id="Trazado_1048983" data-name="Trazado 1048983" d="M25.09,176.083a2.3,2.3,0,0,1-2.626-1.835c-2.343,4.112-4.722,2.19-5.735,1.019a.5.5,0,0,1-.122-.322h-.723a.5.5,0,0,1-.122.322c-1.115,1.289-3.884,3.49-6.441-2.45l-4.342,1.1A2.616,2.616,0,0,0,3.005,176.3l-.5,13.853a.727.727,0,0,0,.726.768H7.266a.492.492,0,0,0,.492-.492v-8.66l.713,2.285a15.486,15.486,0,0,1,.7,4.615v1.76a.492.492,0,0,0,.492.492h9.753l.214-3.911a2.175,2.175,0,0,1,1.64-1.988l2.658-.669c.148-.511.268-.871.8-2.583v2.382l.822-.207,1.275-.629a1.989,1.989,0,0,0,1.3-1.825v-.856A5.53,5.53,0,0,1,25.09,176.083Z" transform="translate(-2.5 -172.817)" fill="#fc657e"/>
          </g>
        </g>
        <g id="Grupo_1206368" data-name="Grupo 1206368" transform="translate(14.664 37.732)">
          <g id="Grupo_1206367" data-name="Grupo 1206367">
            <path id="Trazado_1048984" data-name="Trazado 1048984" d="M71.447,169.048a13.949,13.949,0,0,1-2.072-.934,8.484,8.484,0,0,1-3.657,2.665.523.523,0,0,0-.255.84c1.013,1.171,3.392,3.093,5.735-1.019A2.284,2.284,0,0,1,71.447,169.048Z" transform="translate(-65.337 -168.114)" fill="#edf4fc"/>
          </g>
        </g>
        <g id="Grupo_1206370" data-name="Grupo 1206370" transform="translate(7.382 37.732)">
          <g id="Grupo_1206369" data-name="Grupo 1206369">
            <path id="Trazado_1048985" data-name="Trazado 1048985" d="M39.077,170.779a8.482,8.482,0,0,1-3.657-2.665l-1.205.594a5.584,5.584,0,0,1-1.1.406l-.219.055c2.556,5.939,5.325,3.739,6.441,2.45A.523.523,0,0,0,39.077,170.779Z" transform="translate(-32.891 -168.114)" fill="#edf4fc"/>
          </g>
        </g>
        <g id="Grupo_1206372" data-name="Grupo 1206372" transform="translate(9.91 34.023)">
          <g id="Grupo_1206371" data-name="Grupo 1206371">
            <path id="Trazado_1048986" data-name="Trazado 1048986" d="M52.576,155.115a1.774,1.774,0,0,1-.989-1.591v-1.935a6.343,6.343,0,0,1-6.069,0v1.935a1.774,1.774,0,0,1-.989,1.591l-.372.183a8.483,8.483,0,0,0,3.657,2.665.53.53,0,0,1,.377.518h.723a.53.53,0,0,1,.377-.518,8.482,8.482,0,0,0,3.657-2.665Z" transform="translate(-44.156 -151.589)" fill="#f9d0b4"/>
          </g>
        </g>
        <g id="Grupo_1206377" data-name="Grupo 1206377" transform="translate(0 38.226)">
          <g id="Grupo_1206374" data-name="Grupo 1206374" transform="translate(21.468 8.957)">
            <g id="Grupo_1206373" data-name="Grupo 1206373">
              <path id="Trazado_1048987" data-name="Trazado 1048987" d="M97.061,210.232a.56.56,0,0,0-.62.388c-.2.659-.348,1.118-.456,1.462-.15.479-.231.738-.31,1a1.012,1.012,0,0,0,1.863-.036v-2.264a.561.561,0,0,0-.477-.555Z" transform="translate(-95.652 -210.225)"/>
            </g>
          </g>
          <g id="Grupo_1206376" data-name="Grupo 1206376">
            <g id="Grupo_1206375" data-name="Grupo 1206375">
              <path id="Trazado_1048988" data-name="Trazado 1048988" d="M17.481,188.426H7.8v-1.69a16.031,16.031,0,0,0-.729-4.782l-.713-2.285a.561.561,0,0,0-1.1.167v8.59H1.289a.166.166,0,0,1-.121-.052.173.173,0,0,1-.045-.134l.5-13.843a2.046,2.046,0,0,1,1.55-1.878l4.342-1.1a.561.561,0,1,0-.275-1.088l-4.342,1.1a3.166,3.166,0,0,0-2.4,2.915L0,188.188a1.288,1.288,0,0,0,1.286,1.36H5.328A1.054,1.054,0,0,0,6.381,188.5v-4.711a14.9,14.9,0,0,1,.295,2.951v1.76a1.054,1.054,0,0,0,1.053,1.053h9.753a.561.561,0,1,0,0-1.122Z" transform="translate(0 -170.318)"/>
            </g>
          </g>
        </g>
        <g id="Grupo_1206379" data-name="Grupo 1206379" transform="translate(17.341 28.354)">
          <g id="Grupo_1206378" data-name="Grupo 1206378">
            <path id="Trazado_1048989" data-name="Trazado 1048989" d="M82.6,126.33a2.608,2.608,0,0,1-2.012.49A6.4,6.4,0,0,1,77.261,132v1.935a1.774,1.774,0,0,0,.989,1.591l1.577.778a5.571,5.571,0,0,0,.867.339,2.314,2.314,0,0,1,.575-.678h0v-2a7.347,7.347,0,0,1,.8-3.332v0a7.454,7.454,0,0,0,.536-4.3Z" transform="translate(-77.261 -126.33)" fill="#fcdd86"/>
          </g>
        </g>
        <g id="Grupo_1206381" data-name="Grupo 1206381" transform="translate(20.67 23.554)">
          <g id="Grupo_1206380" data-name="Grupo 1206380">
            <path id="Trazado_1048990" data-name="Trazado 1048990" d="M92.521,104.944a2.647,2.647,0,0,0-.409.033v4.83c0,.144-.007.286-.016.428a2.662,2.662,0,1,0,.426-5.29Z" transform="translate(-92.095 -104.944)" fill="#f9d0b4"/>
          </g>
        </g>
        <g id="Grupo_1206383" data-name="Grupo 1206383" transform="translate(7.926 21.323)">
          <g id="Grupo_1206382" data-name="Grupo 1206382">
            <path id="Trazado_1048991" data-name="Trazado 1048991" d="M47.683,96.459a5.288,5.288,0,0,1-2.328-1.34.424.424,0,0,0-.608.034c-.972,1.134-4.417,4.575-9.431,3.147v3.8a6.38,6.38,0,0,0,12.759,0V96.945A.5.5,0,0,0,47.683,96.459Z" transform="translate(-35.316 -95.007)" fill="#f9d0b4"/>
          </g>
        </g>
        <g id="Grupo_1206385" data-name="Grupo 1206385" transform="translate(4.853 24.058)">
          <g id="Grupo_1206384" data-name="Grupo 1206384">
            <path id="Trazado_1048992" data-name="Trazado 1048992" d="M24.7,111.549v-3.8a10.368,10.368,0,0,1-1.349-.49.812.812,0,0,0-.882.151,2.655,2.655,0,0,0,2.248,4.566c-.009-.142-.016-.284-.016-.428Z" transform="translate(-21.624 -107.191)" fill="#f9d0b4"/>
          </g>
        </g>
        <g id="Grupo_1206387" data-name="Grupo 1206387" transform="translate(5.631 14.101)">
          <g id="Grupo_1206386" data-name="Grupo 1206386">
            <path id="Trazado_1048993" data-name="Trazado 1048993" d="M33.764,62.829A8.7,8.7,0,0,0,25.089,71.5v1.568c.022-.022.042-.045.064-.066a.811.811,0,0,1,.882-.152,10.367,10.367,0,0,0,1.349.49c5.014,1.428,8.46-2.013,9.431-3.147a.423.423,0,0,1,.608-.034,5.288,5.288,0,0,0,2.328,1.34.5.5,0,0,1,.392.486v.325a2.652,2.652,0,0,1,2.3.751V71.5A8.7,8.7,0,0,0,33.764,62.829Z" transform="translate(-25.089 -62.829)" fill="#fcdd86"/>
          </g>
        </g>
        <g id="Grupo_1206389" data-name="Grupo 1206389" transform="translate(20.276 22.993)">
          <g id="Grupo_1206388" data-name="Grupo 1206388">
            <path id="Trazado_1048994" data-name="Trazado 1048994" d="M91.16,102.444c-.1,0-.2,0-.3.014a.561.561,0,1,0,.1,1.117c.063-.006.127-.009.191-.009a2.1,2.1,0,1,1,0,4.2,1.853,1.853,0,0,1-.2-.011.561.561,0,1,0-.121,1.116,2.94,2.94,0,0,0,.319.018,3.225,3.225,0,0,0,0-6.45Z" transform="translate(-90.34 -102.444)"/>
          </g>
        </g>
        <g id="Grupo_1206391" data-name="Grupo 1206391" transform="translate(11.986 29.964)">
          <g id="Grupo_1206390" data-name="Grupo 1206390">
            <path id="Trazado_1048995" data-name="Trazado 1048995" d="M58.029,133.635a.561.561,0,0,0-.79.07,2,2,0,0,1-2.844,0,.561.561,0,0,0-.86.721,3.116,3.116,0,0,0,4.564,0A.561.561,0,0,0,58.029,133.635Z" transform="translate(-53.403 -133.504)"/>
          </g>
        </g>
        <g id="Grupo_1206394" data-name="Grupo 1206394" transform="translate(7.365 20.762)">
          <g id="Grupo_1206393" data-name="Grupo 1206393">
            <g id="Grupo_1206392" data-name="Grupo 1206392">
              <path id="Trazado_1048996" data-name="Trazado 1048996" d="M45.871,93.974a4.818,4.818,0,0,1-2.077-1.209,1,1,0,0,0-.728-.256.972.972,0,0,0-.683.341c-.887,1.036-4.148,4.312-8.852,2.972a.561.561,0,0,0-.715.54v3.8a6.941,6.941,0,1,0,13.882,0V95.006A1.058,1.058,0,0,0,45.871,93.974Zm-.3,6.187a5.819,5.819,0,1,1-11.637,0V97.076c4.806.99,8.137-2.182,9.2-3.389a5.842,5.842,0,0,0,2.435,1.37Z" transform="translate(-32.816 -92.507)"/>
            </g>
          </g>
        </g>
        <g id="Grupo_1206396" data-name="Grupo 1206396" transform="translate(4.292 23.496)">
          <g id="Grupo_1206395" data-name="Grupo 1206395">
            <path id="Trazado_1048997" data-name="Trazado 1048997" d="M21.183,105.831a10.993,10.993,0,0,0,1.423.516.561.561,0,1,0,.307-1.079,9.839,9.839,0,0,1-1.276-.464,1.368,1.368,0,0,0-1.493.256,3.222,3.222,0,0,0,2.206,5.573c.09,0,.179,0,.267-.013a.561.561,0,0,0-.1-1.117c-.054,0-.108.008-.163.008a2.1,2.1,0,0,1-2.1-2.1,2.078,2.078,0,0,1,.664-1.53A.25.25,0,0,1,21.183,105.831Z" transform="translate(-19.125 -104.687)"/>
          </g>
        </g>
        <g id="Grupo_1206398" data-name="Grupo 1206398" transform="translate(5.07 13.54)">
          <g id="Grupo_1206397" data-name="Grupo 1206397">
            <path id="Trazado_1048998" data-name="Trazado 1048998" d="M31.825,60.329a9.247,9.247,0,0,0-9.236,9.236V71a.561.561,0,1,0,1.122,0V69.565a8.114,8.114,0,1,1,16.228,0v1.4a.561.561,0,1,0,1.122,0v-1.4a9.247,9.247,0,0,0-9.236-9.236Z" transform="translate(-22.589 -60.329)"/>
          </g>
        </g>
        <g id="Grupo_1206400" data-name="Grupo 1206400" transform="translate(21.583 27.928)">
          <g id="Grupo_1206399" data-name="Grupo 1206399">
            <path id="Trazado_1048999" data-name="Trazado 1048999" d="M97.839,124.9a.561.561,0,0,0-1.1.2,7.152,7.152,0,0,1-.531,3.853l-.009.024a.561.561,0,0,0,1.05.4l0-.011A8.146,8.146,0,0,0,97.839,124.9Z" transform="translate(-96.162 -124.434)"/>
          </g>
        </g>
        <g id="Grupo_1206402" data-name="Grupo 1206402" transform="translate(3.806 27.927)">
          <g id="Grupo_1206401" data-name="Grupo 1206401">
            <path id="Trazado_1049000" data-name="Trazado 1049000" d="M20.139,128.941a7.149,7.149,0,0,1-.531-3.854.561.561,0,1,0-1.1-.2,8.146,8.146,0,0,0,.593,4.468c.31.775-.1,1.512-.8,2.651a6.638,6.638,0,0,0-1.334,3.938.561.561,0,0,0,.56.527h.035a.561.561,0,0,0,.525-.595,5.68,5.68,0,0,1,1.172-3.283C19.954,131.456,20.674,130.278,20.139,128.941Z" transform="translate(-16.956 -124.427)"/>
          </g>
        </g>
        <g id="Grupo_1206405" data-name="Grupo 1206405" transform="translate(14.103 37.171)">
          <g id="Grupo_1206404" data-name="Grupo 1206404">
            <g id="Grupo_1206403" data-name="Grupo 1206403">
              <path id="Trazado_1049001" data-name="Trazado 1049001" d="M70.027,166.9a.562.562,0,0,0-.359-.327,5.068,5.068,0,0,1-.78-.305l-1.205-.594a.561.561,0,0,0-.675.139,7.959,7.959,0,0,1-3.4,2.494,1.1,1.1,0,0,0-.734.746,1.069,1.069,0,0,0,.221,1,4.253,4.253,0,0,0,3.038,1.68q.136,0,.276-.013c1.231-.121,2.352-1.054,3.333-2.775a.561.561,0,0,0,.064-.383A1.718,1.718,0,0,1,70,167.383.56.56,0,0,0,70.027,166.9Zm-1.353,1.652c-.761,1.279-1.558,1.967-2.371,2.047a3.068,3.068,0,0,1-2.314-1.236,8.729,8.729,0,0,0,3.582-2.494l.821.405q.182.09.372.167A2.821,2.821,0,0,0,68.674,168.551Z" transform="translate(-62.836 -165.615)"/>
            </g>
          </g>
        </g>
        <g id="Grupo_1206408" data-name="Grupo 1206408" transform="translate(6.821 37.171)">
          <g id="Grupo_1206407" data-name="Grupo 1206407">
            <g id="Grupo_1206406" data-name="Grupo 1206406">
              <path id="Trazado_1049002" data-name="Trazado 1049002" d="M38.038,169.051a1.1,1.1,0,0,0-.733-.746,7.959,7.959,0,0,1-3.4-2.494.561.561,0,0,0-.675-.139l-1.205.594a5.025,5.025,0,0,1-.993.365l-.219.055a.561.561,0,0,0-.378.766c1.113,2.586,2.429,4.014,3.912,4.243a2.708,2.708,0,0,0,.415.032,4.193,4.193,0,0,0,3.053-1.68A1.07,1.07,0,0,0,38.038,169.051Zm-3.518,1.536c-.961-.149-1.918-1.179-2.786-2.991a6.126,6.126,0,0,0,.789-.323l.821-.4a8.727,8.727,0,0,0,3.582,2.494,2.983,2.983,0,0,1-2.406,1.225Z" transform="translate(-30.391 -165.615)"/>
            </g>
          </g>
        </g>
        <g id="Grupo_1206410" data-name="Grupo 1206410" transform="translate(16.78 33.652)">
          <g id="Grupo_1206409" data-name="Grupo 1206409">
            <path id="Trazado_1049003" data-name="Trazado 1049003" d="M76.933,153.514l-.372-.183a1.2,1.2,0,0,1-.676-1.088V150.5a.561.561,0,0,0-1.122,0v1.744a2.32,2.32,0,0,0,1.3,2.094l.372.183a.561.561,0,0,0,.5-1.006Z" transform="translate(-74.762 -149.938)"/>
          </g>
        </g>
        <g id="Grupo_1206412" data-name="Grupo 1206412" transform="translate(13.423 40.354)">
          <g id="Grupo_1206411" data-name="Grupo 1206411">
            <path id="Trazado_1049004" data-name="Trazado 1049004" d="M61.012,179.8h-.644a.561.561,0,0,0,0,1.122h.644a.561.561,0,0,0,0-1.122Z" transform="translate(-59.807 -179.797)"/>
          </g>
        </g>
        <g id="Grupo_1206414" data-name="Grupo 1206414" transform="translate(9.349 33.666)">
          <g id="Grupo_1206413" data-name="Grupo 1206413">
            <path id="Trazado_1049005" data-name="Trazado 1049005" d="M43.578,150a.561.561,0,0,0-.561.561v1.73a1.2,1.2,0,0,1-.676,1.088l-.372.183a.561.561,0,1,0,.5,1.007l.372-.183a2.32,2.32,0,0,0,1.3-2.094v-1.73A.561.561,0,0,0,43.578,150Z" transform="translate(-41.655 -150)"/>
          </g>
        </g>
        <g id="Grupo_1206416" data-name="Grupo 1206416" transform="translate(35.717 20.213)">
          <g id="Grupo_1206415" data-name="Grupo 1206415">
            <path id="Trazado_1049006" data-name="Trazado 1049006" d="M172.682,92.277a.363.363,0,0,0-.35-.356,7.049,7.049,0,0,1-4.865-1.756.365.365,0,0,0-.542.034,7.34,7.34,0,0,1-7.349,2.415.361.361,0,0,0-.437.349v5.452a6.772,6.772,0,0,0,13.544,0V92.383C172.682,92.347,172.682,92.312,172.682,92.277Z" transform="translate(-159.139 -90.06)" fill="#f9c1a8"/>
          </g>
        </g>
        <g id="Grupo_1206418" data-name="Grupo 1206418" transform="translate(33.519 13.905)">
          <g id="Grupo_1206417" data-name="Grupo 1206417">
            <path id="Trazado_1049007" data-name="Trazado 1049007" d="M163.613,63.3a3.828,3.828,0,0,0-1.976.552,3.872,3.872,0,0,0-3.317-1.893h-1.986a7.011,7.011,0,0,0-6.99,6.99v3.132a2.807,2.807,0,0,1,2.2-.585v-.325a.362.362,0,0,1,.437-.349,7.34,7.34,0,0,0,7.349-2.415.365.365,0,0,1,.542-.034,7.05,7.05,0,0,0,4.865,1.756.363.363,0,0,1,.35.356c0,.035,0,.07,0,.106v.906a2.808,2.808,0,0,1,2.4.759V67.164a3.88,3.88,0,0,0-3.868-3.868Z" transform="translate(-149.343 -61.954)" fill="#414344"/>
          </g>
        </g>
        <g id="Grupo_1206420" data-name="Grupo 1206420" transform="translate(49.244 23.407)">
          <g id="Grupo_1206419" data-name="Grupo 1206419">
            <path id="Trazado_1049008" data-name="Trazado 1049008" d="M219.859,104.29a2.8,2.8,0,0,0-.435.035v5.127c0,.153-.007.3-.017.454a2.826,2.826,0,1,0,.452-5.615Z" transform="translate(-219.407 -104.29)" fill="#f9c1a8"/>
          </g>
        </g>
        <g id="Grupo_1206422" data-name="Grupo 1206422" transform="translate(32.455 23.407)">
          <g id="Grupo_1206421" data-name="Grupo 1206421">
            <path id="Trazado_1049009" data-name="Trazado 1049009" d="M147.867,109.45v-5.127a2.828,2.828,0,1,0,.017,5.581C147.874,109.754,147.867,109.6,147.867,109.45Z" transform="translate(-144.605 -104.289)" fill="#f9c1a8"/>
          </g>
        </g>
        <g id="Grupo_1206424" data-name="Grupo 1206424" transform="translate(31.267 34.521)">
          <g id="Grupo_1206423" data-name="Grupo 1206423">
            <path id="Trazado_1049010" data-name="Trazado 1049010" d="M164.191,161.742a2.672,2.672,0,0,0-2.016-2.443l-5.259-1.324-1.859-.916a2.339,2.339,0,0,1-1.3-2.1v-1.153a6.725,6.725,0,0,1-6.239.1v1.051a2.34,2.34,0,0,1-1.3,2.1l-1.68.828a2.3,2.3,0,0,1-2.337,3.453h0a5.531,5.531,0,0,1-2.878,4.475v.938a1.99,1.99,0,0,0,1.3,1.825l1.275.629,4.28,1.077a2.175,2.175,0,0,1,1.64,1.988l.214,3.911H164.2a.743.743,0,0,0,.742-.784Z" transform="translate(-139.312 -153.808)" fill="#70d6f9"/>
          </g>
        </g>
        <g id="Grupo_1206426" data-name="Grupo 1206426" transform="translate(37.871 34.521)">
          <g id="Grupo_1206425" data-name="Grupo 1206425">
            <path id="Trazado_1049011" data-name="Trazado 1049011" d="M177.875,157.059a2.339,2.339,0,0,1-1.3-2.1v-1.153a6.725,6.725,0,0,1-6.239.1v1.051a2.34,2.34,0,0,1-1.3,2.1l-.292.144a5.294,5.294,0,0,0,9.433,0Z" transform="translate(-168.734 -153.808)" fill="#f9c1a8"/>
          </g>
        </g>
        <g id="Grupo_1206429" data-name="Grupo 1206429" transform="translate(35.156 19.653)">
          <g id="Grupo_1206428" data-name="Grupo 1206428">
            <g id="Grupo_1206427" data-name="Grupo 1206427">
              <path id="Trazado_1049012" data-name="Trazado 1049012" d="M171.3,90.329a.922.922,0,0,0-.894-.906,6.533,6.533,0,0,1-4.489-1.6.926.926,0,0,0-1.374.086,6.731,6.731,0,0,1-6.795,2.215.926.926,0,0,0-.774.188.915.915,0,0,0-.34.716v5.447a7.333,7.333,0,0,0,14.666,0v-6.15Zm-1.121,6.149a6.211,6.211,0,1,1-12.421,0V91.272a7.911,7.911,0,0,0,7.53-2.5,7.646,7.646,0,0,0,4.891,1.763Z" transform="translate(-156.637 -87.563)"/>
            </g>
          </g>
        </g>
        <g id="Grupo_1206433" data-name="Grupo 1206433" transform="translate(32.957 13.344)">
          <g id="Grupo_1206432" data-name="Grupo 1206432">
            <g id="Grupo_1206431" data-name="Grupo 1206431">
              <g id="Grupo_1206430" data-name="Grupo 1206430">
                <path id="Trazado_1049013" data-name="Trazado 1049013" d="M161.673,60.8a4.385,4.385,0,0,0-1.794.386,4.452,4.452,0,0,0-3.5-1.728h-1.986a7.56,7.56,0,0,0-7.551,7.551v3.132a.561.561,0,0,0,.912.438,2.24,2.24,0,0,1,1.414-.5,2.3,2.3,0,0,1,.349.028.561.561,0,0,0,.647-.554v-.079a7.913,7.913,0,0,0,7.53-2.5,7.646,7.646,0,0,0,4.891,1.763v.814a.561.561,0,0,0,.647.554,2.3,2.3,0,0,1,.349-.028,2.254,2.254,0,0,1,1.572.636.561.561,0,0,0,.951-.4V65.226a4.434,4.434,0,0,0-4.429-4.429Zm3.307,8.463a3.365,3.365,0,0,0-1.273-.3v-.43a.922.922,0,0,0-.894-.906,6.533,6.533,0,0,1-4.489-1.6.926.926,0,0,0-1.374.086,6.731,6.731,0,0,1-6.795,2.215.926.926,0,0,0-.774.188.913.913,0,0,0-.3.442,3.387,3.387,0,0,0-1.117.221V67.006a6.436,6.436,0,0,1,6.429-6.429h1.986a3.33,3.33,0,0,1,2.836,1.621.561.561,0,0,0,.77.193,3.3,3.3,0,0,1,4.995,2.835Z" transform="translate(-146.842 -59.455)"/>
              </g>
            </g>
          </g>
        </g>
        <g id="Grupo_1206435" data-name="Grupo 1206435" transform="translate(51.406 45.107)">
          <g id="Grupo_1206434" data-name="Grupo 1206434">
            <path id="Trazado_1049014" data-name="Trazado 1049014" d="M229.6,200.974a.561.561,0,0,0-.561.561v11.053a.561.561,0,0,0,1.122,0V201.535A.561.561,0,0,0,229.6,200.974Z" transform="translate(-229.039 -200.974)"/>
          </g>
        </g>
        <g id="Grupo_1206437" data-name="Grupo 1206437" transform="translate(32.647 45.107)">
          <g id="Grupo_1206436" data-name="Grupo 1206436">
            <path id="Trazado_1049015" data-name="Trazado 1049015" d="M146.02,200.974a.561.561,0,0,0-.561.561v3.84a.561.561,0,0,0,1.122,0v-3.84A.561.561,0,0,0,146.02,200.974Z" transform="translate(-145.459 -200.974)"/>
          </g>
        </g>
        <g id="Grupo_1206440" data-name="Grupo 1206440" transform="translate(48.683 22.846)">
          <g id="Grupo_1206439" data-name="Grupo 1206439">
            <g id="Grupo_1206438" data-name="Grupo 1206438">
              <path id="Trazado_1049016" data-name="Trazado 1049016" d="M217.919,101.79a3.423,3.423,0,0,0-.52.041.561.561,0,0,0-.475.555v5.127c0,.123,0,.256-.016.416a.561.561,0,0,0,.471.592,3.387,3.387,0,1,0,.54-6.731Zm.127,5.651v-4.525a2.266,2.266,0,0,1,0,4.525Z" transform="translate(-216.906 -101.79)"/>
            </g>
          </g>
        </g>
        <g id="Grupo_1206443" data-name="Grupo 1206443" transform="translate(31.894 22.846)">
          <g id="Grupo_1206442" data-name="Grupo 1206442">
            <g id="Grupo_1206441" data-name="Grupo 1206441">
              <path id="Trazado_1049017" data-name="Trazado 1049017" d="M146.489,107.511v-5.127a.561.561,0,0,0-.475-.555,3.388,3.388,0,1,0-.52,6.736,3.38,3.38,0,0,0,.541-.046.561.561,0,0,0,.471-.592C146.494,107.767,146.489,107.635,146.489,107.511Zm-1.122-.071a2.266,2.266,0,0,1,0-4.525Z" transform="translate(-142.105 -101.789)"/>
            </g>
          </g>
        </g>
        <g id="Grupo_1206448" data-name="Grupo 1206448" transform="translate(36.001 34.19)">
          <g id="Grupo_1206445" data-name="Grupo 1206445" transform="translate(0 0.031)">
            <g id="Grupo_1206444" data-name="Grupo 1206444">
              <path id="Trazado_1049018" data-name="Trazado 1049018" d="M163.87,152.469a.561.561,0,0,0-.561.561v.892a1.767,1.767,0,0,1-.992,1.595l-1.6.789a.561.561,0,1,0,.5,1.007l1.6-.789a2.883,2.883,0,0,0,1.618-2.6v-.892A.562.562,0,0,0,163.87,152.469Z" transform="translate(-160.404 -152.469)"/>
            </g>
          </g>
          <g id="Grupo_1206447" data-name="Grupo 1206447" transform="translate(3.414)">
            <g id="Grupo_1206446" data-name="Grupo 1206446">
              <path id="Trazado_1049019" data-name="Trazado 1049019" d="M193.656,174.224l-.749-13.657a3.22,3.22,0,0,0-2.439-2.956l-5.2-1.309-1.805-.89a1.767,1.767,0,0,1-.992-1.595v-.923a.561.561,0,0,0-1.122,0v.923a2.883,2.883,0,0,0,1.618,2.6l1.859.916a.56.56,0,0,0,.111.041l5.259,1.324a2.1,2.1,0,0,1,1.593,1.93l.749,13.657a.182.182,0,0,1-.182.192H176.178a.561.561,0,1,0,0,1.122h16.176a1.3,1.3,0,0,0,1.3-1.376Z" transform="translate(-175.617 -152.333)"/>
            </g>
          </g>
        </g>
        <g id="Grupo_1206450" data-name="Grupo 1206450" transform="translate(37.385 37.496)">
          <g id="Grupo_1206449" data-name="Grupo 1206449">
            <path id="Trazado_1049020" data-name="Trazado 1049020" d="M176.671,167.169a.561.561,0,0,0-.764.213,4.731,4.731,0,0,1-8.284-.03.561.561,0,0,0-.981.544,5.853,5.853,0,0,0,10.243.037A.561.561,0,0,0,176.671,167.169Z" transform="translate(-166.571 -167.063)"/>
          </g>
        </g>
        <g id="Grupo_1206452" data-name="Grupo 1206452" transform="translate(40.204 29.985)">
          <g id="Grupo_1206451" data-name="Grupo 1206451">
            <path id="Trazado_1049021" data-name="Trazado 1049021" d="M183.787,133.731a.561.561,0,0,0-.79.07,2.025,2.025,0,0,1-2.878,0,.561.561,0,0,0-.86.72,3.139,3.139,0,0,0,4.6,0A.561.561,0,0,0,183.787,133.731Z" transform="translate(-179.128 -133.6)"/>
          </g>
        </g>
        <g id="Grupo_1206454" data-name="Grupo 1206454" transform="translate(44.532 25.6)">
          <g id="Grupo_1206453" data-name="Grupo 1206453">
            <path id="Trazado_1049022" data-name="Trazado 1049022" d="M199.3,114.06a.891.891,0,1,0,.891.891A.891.891,0,0,0,199.3,114.06Z" transform="translate(-198.411 -114.06)"/>
          </g>
        </g>
        <g id="Grupo_1206456" data-name="Grupo 1206456" transform="translate(38.974 25.6)">
          <g id="Grupo_1206455" data-name="Grupo 1206455">
            <path id="Trazado_1049023" data-name="Trazado 1049023" d="M174.54,114.06a.891.891,0,1,0,.891.891A.891.891,0,0,0,174.54,114.06Z" transform="translate(-173.649 -114.06)"/>
          </g>
        </g>
        <g id="Grupo_1206458" data-name="Grupo 1206458" transform="translate(16.252 26.049)">
          <g id="Grupo_1206457" data-name="Grupo 1206457">
            <path id="Trazado_1049024" data-name="Trazado 1049024" d="M73.3,116.06a.891.891,0,1,0,.891.891A.891.891,0,0,0,73.3,116.06Z" transform="translate(-72.411 -116.06)"/>
          </g>
        </g>
        <g id="Grupo_1206460" data-name="Grupo 1206460" transform="translate(10.694 26.049)">
          <g id="Grupo_1206459" data-name="Grupo 1206459">
            <path id="Trazado_1049025" data-name="Trazado 1049025" d="M48.54,116.06a.891.891,0,1,0,.891.891A.891.891,0,0,0,48.54,116.06Z" transform="translate(-47.649 -116.06)"/>
          </g>
        </g>
        <g id="Grupo_1206462" data-name="Grupo 1206462" transform="translate(23.138 34.454)">
          <g id="Grupo_1206461" data-name="Grupo 1206461">
            <path id="Trazado_1049026" data-name="Trazado 1049026" d="M113.507,155.947H113.5a5.234,5.234,0,0,1-4.22-2.132.742.742,0,0,0-1.2,0,5.235,5.235,0,0,1-4.22,2.132l-.164,0a.59.59,0,0,0-.608.591v4.2a5.511,5.511,0,1,0,11.022,0v-4.2A.6.6,0,0,0,113.507,155.947Z" transform="translate(-103.09 -153.51)" fill="#f9c1a8"/>
          </g>
        </g>
        <g id="Grupo_1206464" data-name="Grupo 1206464" transform="translate(21.348 28.604)">
          <g id="Grupo_1206463" data-name="Grupo 1206463">
            <path id="Trazado_1049027" data-name="Trazado 1049027" d="M102.5,127.447a7.38,7.38,0,0,0-7.38,7.38v2a2.285,2.285,0,0,1,1.789-.476v-.032a.59.59,0,0,1,.608-.591l.164,0a5.234,5.234,0,0,0,4.22-2.132.742.742,0,0,1,1.2,0,5.235,5.235,0,0,0,4.22,2.132h.006a.6.6,0,0,1,.6.593v.028a2.287,2.287,0,0,1,1.949.617v-2.145A7.379,7.379,0,0,0,102.5,127.447Z" transform="translate(-95.117 -127.447)" fill="#414344"/>
          </g>
        </g>
        <g id="Grupo_1206466" data-name="Grupo 1206466" transform="translate(34.145 37.484)">
          <g id="Grupo_1206465" data-name="Grupo 1206465">
            <path id="Trazado_1049028" data-name="Trazado 1049028" d="M152.5,167.009a2.3,2.3,0,0,0-.354.028v4.172c0,.124-.006.247-.014.37a2.3,2.3,0,1,0,.368-4.57Z" transform="translate(-152.134 -167.009)" fill="#f9c1a8"/>
          </g>
        </g>
        <g id="Grupo_1206468" data-name="Grupo 1206468" transform="translate(20.483 37.484)">
          <g id="Grupo_1206467" data-name="Grupo 1206467">
            <path id="Trazado_1049029" data-name="Trazado 1049029" d="M93.916,171.209v-4.172a2.3,2.3,0,1,0,.014,4.541c-.008-.122-.014-.245-.014-.369Z" transform="translate(-91.262 -167.009)" fill="#f9c1a8"/>
          </g>
        </g>
        <g id="Grupo_1206470" data-name="Grupo 1206470" transform="translate(17.48 46.528)">
          <g id="Grupo_1206469" data-name="Grupo 1206469">
            <path id="Trazado_1049030" data-name="Trazado 1049030" d="M100.166,213.763a2.175,2.175,0,0,0-1.64-1.988l-4.28-1.077-1.513-.746a1.9,1.9,0,0,1-1.062-1.708v-.938a5.472,5.472,0,0,1-5.078.082v.856a1.9,1.9,0,0,1-1.062,1.708l-1.513.746-4.28,1.077a2.175,2.175,0,0,0-1.64,1.988l-.214,3.911h22.5Z" transform="translate(-77.884 -207.306)" fill="#f5c84c"/>
          </g>
        </g>
        <g id="Grupo_1206472" data-name="Grupo 1206472" transform="translate(24.89 46.528)">
          <g id="Grupo_1206471" data-name="Grupo 1206471">
            <path id="Trazado_1049031" data-name="Trazado 1049031" d="M118.337,209.952a1.9,1.9,0,0,1-1.062-1.708v-.938a5.472,5.472,0,0,1-5.078.082v.856a1.9,1.9,0,0,1-1.062,1.708l-.238.117a4.308,4.308,0,0,0,7.677,0Z" transform="translate(-110.898 -207.306)" fill="#f9c1a8"/>
          </g>
        </g>
        <g id="Grupo_1206474" data-name="Grupo 1206474" transform="translate(35.8 53.526)">
          <g id="Grupo_1206473" data-name="Grupo 1206473">
            <path id="Trazado_1049032" data-name="Trazado 1049032" d="M160.069,238.487a.561.561,0,0,0-.561.561V241.8a.561.561,0,0,0,1.122,0v-2.749A.561.561,0,0,0,160.069,238.487Z" transform="translate(-159.508 -238.487)"/>
          </g>
        </g>
        <g id="Grupo_1206476" data-name="Grupo 1206476" transform="translate(20.535 53.526)">
          <g id="Grupo_1206475" data-name="Grupo 1206475">
            <path id="Trazado_1049033" data-name="Trazado 1049033" d="M92.053,238.487a.561.561,0,0,0-.561.561V241.8a.561.561,0,0,0,1.122,0v-2.749A.561.561,0,0,0,92.053,238.487Z" transform="translate(-91.492 -238.487)"/>
          </g>
        </g>
        <g id="Grupo_1206478" data-name="Grupo 1206478" transform="translate(33.689 36.923)">
          <g id="Grupo_1206477" data-name="Grupo 1206477">
            <path id="Trazado_1049034" data-name="Trazado 1049034" d="M150.926,164.509a2.79,2.79,0,0,0-.324.019.561.561,0,1,0,.129,1.115,1.681,1.681,0,0,1,.194-.012,1.74,1.74,0,0,1,0,3.48,1.56,1.56,0,0,1-.193-.013.561.561,0,1,0-.139,1.113,2.662,2.662,0,0,0,.332.022,2.862,2.862,0,0,0,0-5.724Z" transform="translate(-150.103 -164.509)"/>
          </g>
        </g>
        <g id="Grupo_1206480" data-name="Grupo 1206480" transform="translate(19.922 36.923)">
          <g id="Grupo_1206479" data-name="Grupo 1206479">
            <path id="Trazado_1049035" data-name="Trazado 1049035" d="M92.394,169.6a.56.56,0,0,0-.615-.5c-.051,0-.1.008-.154.008a1.74,1.74,0,0,1,0-3.479c.046,0,.092,0,.138.006a.561.561,0,1,0,.1-1.118c-.077-.007-.155-.01-.234-.01a2.862,2.862,0,0,0,0,5.724,2.564,2.564,0,0,0,.267-.014A.561.561,0,0,0,92.394,169.6Z" transform="translate(-88.763 -164.509)"/>
          </g>
        </g>
        <g id="Grupo_1206482" data-name="Grupo 1206482" transform="translate(16.919 46.151)">
          <g id="Grupo_1206481" data-name="Grupo 1206481">
            <path id="Trazado_1049036" data-name="Trazado 1049036" d="M98.786,212.429a2.724,2.724,0,0,0-2.064-2.5L92.5,208.865l-1.459-.72a1.334,1.334,0,0,1-.749-1.2v-.754a.561.561,0,0,0-1.122,0v.754a2.449,2.449,0,0,0,1.375,2.211l1.513.746a.573.573,0,0,0,.111.041l4.28,1.077a1.606,1.606,0,0,1,1.217,1.474l.182,3.319H76.536l.182-3.319a1.606,1.606,0,0,1,1.217-1.475l4.28-1.077a.559.559,0,0,0,.111-.041l1.513-.746a2.449,2.449,0,0,0,1.375-2.211v-.661a.561.561,0,1,0-1.122,0v.661a1.334,1.334,0,0,1-.749,1.2l-1.459.72-4.222,1.063a2.724,2.724,0,0,0-2.064,2.5l-.215,3.911a.561.561,0,0,0,.561.592h22.5a.561.561,0,0,0,.56-.592Z" transform="translate(-75.382 -205.626)"/>
          </g>
        </g>
        <g id="Grupo_1206484" data-name="Grupo 1206484" transform="translate(24.422 48.856)">
          <g id="Grupo_1206483" data-name="Grupo 1206483">
            <path id="Trazado_1049037" data-name="Trazado 1049037" d="M117.164,217.748a.561.561,0,0,0-.763.217,3.746,3.746,0,0,1-6.539.039.561.561,0,0,0-.973.558,4.868,4.868,0,0,0,8.492-.051A.562.562,0,0,0,117.164,217.748Z" transform="translate(-108.814 -217.677)"/>
          </g>
        </g>
        <g id="Grupo_1206486" data-name="Grupo 1206486" transform="translate(26.684 42.732)">
          <g id="Grupo_1206485" data-name="Grupo 1206485">
            <path id="Trazado_1049038" data-name="Trazado 1049038" d="M122.855,190.526a.561.561,0,0,0-.79.07,1.544,1.544,0,0,1-2.182,0,.561.561,0,0,0-.86.721,2.659,2.659,0,0,0,3.9,0A.561.561,0,0,0,122.855,190.526Z" transform="translate(-118.892 -190.395)"/>
          </g>
        </g>
        <g id="Grupo_1206488" data-name="Grupo 1206488" transform="translate(30.311 39.268)">
          <g id="Grupo_1206487" data-name="Grupo 1206487">
            <path id="Trazado_1049039" data-name="Trazado 1049039" d="M135.774,174.96a.725.725,0,1,0,.725.725A.725.725,0,0,0,135.774,174.96Z" transform="translate(-135.049 -174.96)"/>
          </g>
        </g>
        <g id="Grupo_1206490" data-name="Grupo 1206490" transform="translate(25.788 39.268)">
          <g id="Grupo_1206489" data-name="Grupo 1206489">
            <path id="Trazado_1049040" data-name="Trazado 1049040" d="M115.623,174.96a.725.725,0,1,0,.725.725A.725.725,0,0,0,115.623,174.96Z" transform="translate(-114.898 -174.96)"/>
          </g>
        </g>
        <g id="Grupo_1206492" data-name="Grupo 1206492" transform="translate(22.576 33.893)">
          <g id="Grupo_1206491" data-name="Grupo 1206491">
            <path id="Trazado_1049041" data-name="Trazado 1049041" d="M112.4,153.79a1.143,1.143,0,0,0-.83-.341,4.765,4.765,0,0,1-3.774-1.9,1.3,1.3,0,0,0-2.1,0,4.7,4.7,0,0,1-3.769,1.9l-.145,0a1.151,1.151,0,0,0-1.187,1.152v4.2a6.072,6.072,0,0,0,12.144,0v-4.2A1.14,1.14,0,0,0,112.4,153.79Zm-.785,5.013a4.95,4.95,0,1,1-9.9,0v-4.2s0-.014.029-.03q.091,0,.182,0a5.831,5.831,0,0,0,4.671-2.359.181.181,0,0,1,.3,0,5.831,5.831,0,0,0,4.671,2.359h.007c.018,0,.029.007.043.032Z" transform="translate(-100.589 -151.012)"/>
          </g>
        </g>
        <g id="Grupo_1206494" data-name="Grupo 1206494" transform="translate(20.787 28.043)">
          <g id="Grupo_1206493" data-name="Grupo 1206493">
            <path id="Trazado_1049042" data-name="Trazado 1049042" d="M100.558,124.947a7.95,7.95,0,0,0-7.941,7.941v1.89a.561.561,0,1,0,1.122,0v-1.89a6.819,6.819,0,0,1,13.638,0v1.918a.561.561,0,0,0,1.122,0v-1.918A7.95,7.95,0,0,0,100.558,124.947Z" transform="translate(-92.617 -124.947)"/>
          </g>
        </g>
        <g id="Grupo_1206496" data-name="Grupo 1206496" transform="translate(22.278 5.644)">
          <g id="Grupo_1206495" data-name="Grupo 1206495">
            <path id="Trazado_1049043" data-name="Trazado 1049043" d="M111.012,26.089a3.658,3.658,0,0,0-5.059.152.342.342,0,0,1-.484,0,3.658,3.658,0,0,0-5.059-.152,3.6,3.6,0,0,0-.094,5.184l4.652,4.652a1.052,1.052,0,0,0,1.488,0l4.652-4.652a3.6,3.6,0,0,0-.094-5.184Z" transform="translate(-99.261 -25.146)" fill="#fc657e"/>
          </g>
        </g>
        <g id="Grupo_1206499" data-name="Grupo 1206499" transform="translate(21.717 5.092)">
          <g id="Grupo_1206498" data-name="Grupo 1206498">
            <g id="Grupo_1206497" data-name="Grupo 1206497">
              <path id="Trazado_1049044" data-name="Trazado 1049044" d="M109.454,23.772a4.239,4.239,0,0,0-5.684.019,4.239,4.239,0,0,0-5.684-.019,4.162,4.162,0,0,0-.109,5.991l4.652,4.652a1.614,1.614,0,0,0,2.282,0l4.652-4.652a4.163,4.163,0,0,0-.108-5.991Zm-.685,5.2-4.652,4.652a.5.5,0,0,1-.695,0L98.772,28.97a3.04,3.04,0,0,1,.08-4.377,2.977,2.977,0,0,1,2.039-.787,3.17,3.17,0,0,1,2.241.926.9.9,0,0,0,1.277,0,3.111,3.111,0,0,1,4.28-.138,3.041,3.041,0,0,1,.081,4.377Z" transform="translate(-96.759 -22.687)"/>
            </g>
          </g>
        </g>
      </g>
    </g>
  </g>
</svg>
