<svg xmlns="http://www.w3.org/2000/svg" xmlns:xlink="http://www.w3.org/1999/xlink" width="113" height="113" viewBox="0 0 113 113">
  <defs>
    <filter id="Trazado_982547" x="0" y="0" width="113" height="113" filterUnits="userSpaceOnUse">
      <feOffset dy="3" input="SourceAlpha"/>
      <feGaussianBlur stdDeviation="3" result="blur"/>
      <feFlood flood-opacity="0.161"/>
      <feComposite operator="in" in2="blur"/>
      <feComposite in="SourceGraphic"/>
    </filter>
  </defs>
  <g id="Grupo_1206512" data-name="Grupo 1206512" transform="translate(-272 -6351.825)">
    <g id="Grupo_1204076" data-name="Grupo 1204076" transform="translate(0 2511.489)">
      <g id="Grupo_1203962" data-name="Grupo 1203962" transform="translate(0 1899.461)">
        <g id="Grupo_1203498" data-name="Grupo 1203498" transform="translate(0 -197.72)">
          <g id="Grupo_1202589" data-name="Grupo 1202589" transform="translate(281 2144.596)">
            <g id="Grupo_1172010" data-name="Grupo 1172010" transform="translate(0)">
              <g id="Grupo_1171046" data-name="Grupo 1171046">
                <g id="Grupo_1148525" data-name="Grupo 1148525">
                  <g transform="matrix(1, 0, 0, 1, -9, -6)" filter="url(#Trazado_982547)">
                    <g id="Trazado_982547-2" data-name="Trazado 982547" transform="translate(9 6)" fill="#edf3fc">
                      <path d="M 47.5 93.5 C 41.28937149047852 93.5 35.26533508300781 92.28397369384766 29.59518623352051 89.88570404052734 C 24.11771965026855 87.56893157958984 19.19813346862793 84.25196075439453 14.97309303283691 80.02691650390625 C 10.74804019927979 75.80186462402344 7.431066513061523 70.88229370117188 5.114293098449707 65.40481567382812 C 2.716026782989502 59.73468017578125 1.5 53.71062850952148 1.5 47.5 C 1.5 41.28937149047852 2.716026782989502 35.26533508300781 5.114293098449707 29.59518623352051 C 7.431066513061523 24.11771965026855 10.74804019927979 19.19813346862793 14.97309303283691 14.97309303283691 C 19.19813346862793 10.74804019927979 24.11771965026855 7.431066513061523 29.59518623352051 5.114293098449707 C 35.26533508300781 2.716026782989502 41.28937149047852 1.5 47.5 1.5 C 53.71062850952148 1.5 59.73468017578125 2.716026782989502 65.40481567382812 5.114293098449707 C 70.88229370117188 7.431066513061523 75.80186462402344 10.74804019927979 80.02691650390625 14.97309303283691 C 84.25196075439453 19.19813346862793 87.56893157958984 24.11771965026855 89.88570404052734 29.59518623352051 C 92.28397369384766 35.26533508300781 93.5 41.28937149047852 93.5 47.5 C 93.5 53.71062850952148 92.28397369384766 59.73468017578125 89.88570404052734 65.40481567382812 C 87.56893157958984 70.88229370117188 84.25196075439453 75.80186462402344 80.02691650390625 80.02691650390625 C 75.80186462402344 84.25196075439453 70.88229370117188 87.56893157958984 65.40481567382812 89.88570404052734 C 59.73468017578125 92.28397369384766 53.71062850952148 93.5 47.5 93.5 Z" stroke="none"/>
                      <path d="M 47.5 3 C 41.49121475219727 3 35.66376876831055 4.176155090332031 30.17950439453125 6.495796203613281 C 24.88084411621094 8.736953735351562 20.12152099609375 11.94598388671875 16.03375244140625 16.03375244140625 C 11.94598388671875 20.12152099609375 8.736953735351562 24.88084411621094 6.495796203613281 30.17950439453125 C 4.176155090332031 35.66376876831055 3 41.49121475219727 3 47.5 C 3 53.50878524780273 4.176155090332031 59.33623123168945 6.495796203613281 64.82049560546875 C 8.736953735351562 70.11915588378906 11.94598388671875 74.87847900390625 16.03375244140625 78.96624755859375 C 20.12152099609375 83.05401611328125 24.88084411621094 86.26304626464844 30.17950439453125 88.50419616699219 C 35.66376876831055 90.82384490966797 41.49121475219727 92 47.5 92 C 53.50878524780273 92 59.33623123168945 90.82384490966797 64.82049560546875 88.50419616699219 C 70.11915588378906 86.26304626464844 74.87847900390625 83.05401611328125 78.96624755859375 78.96624755859375 C 83.05401611328125 74.87847900390625 86.26304626464844 70.11915588378906 88.50419616699219 64.82049560546875 C 90.82384490966797 59.33623123168945 92 53.50878524780273 92 47.5 C 92 41.49121475219727 90.82384490966797 35.66376876831055 88.50419616699219 30.17950439453125 C 86.26304626464844 24.88084411621094 83.05401611328125 20.12152099609375 78.96624755859375 16.03375244140625 C 74.87847900390625 11.94598388671875 70.11915588378906 8.736953735351562 64.82049560546875 6.495796203613281 C 59.33623123168945 4.176155090332031 53.50878524780273 3 47.5 3 M 47.5 0 C 73.7335205078125 0 95 21.2664794921875 95 47.5 C 95 73.7335205078125 73.7335205078125 95 47.5 95 C 21.2664794921875 95 0 73.7335205078125 0 47.5 C 0 21.2664794921875 21.2664794921875 0 47.5 0 Z" stroke="none" fill="#5692e8"/>
                    </g>
                  </g>
                </g>
              </g>
            </g>
          </g>
        </g>
      </g>
    </g>
    <g id="_44_House_Rules" data-name="44 House Rules" transform="translate(289.421 6326.392)">
      <path id="Trazado_1049045" data-name="Trazado 1049045" d="M160.75,160.851V177.04a5.9,5.9,0,0,1-5.9,5.9H117.2a6.815,6.815,0,0,0,6.075-3.724c3.134-1.508,5.2-4.081,5.2-7a6.248,6.248,0,0,0-.326-1.981l3.111-4.78a2.8,2.8,0,1,0-4.7-3.061l-2.217,3.4q-.37-.227-.767-.432v-8.257a2.231,2.231,0,0,0-4.46,0v6.859c-.114-.017-.228-.032-.343-.046v-9.686l15.076-12.65a3.067,3.067,0,0,1,3.94,0Z" transform="translate(-97.164 -77.381)" fill="#f7f5fb"/>
      <path id="Trazado_1049046" data-name="Trazado 1049046" d="M75.7,88.644a4.45,4.45,0,0,1-6.269.549L45.842,69.4a3.067,3.067,0,0,0-3.94,0L26.827,82.051v-.958a2.231,2.231,0,0,0-4.46,0v4.7l-.343.288V84.918a2.23,2.23,0,1,0-4.459,0V89.7a4.356,4.356,0,0,1-1.095.415l-.109-.7a2.23,2.23,0,0,0-4.2-.648l-.113-.134a4.45,4.45,0,0,1,.547-6.269L41,58.541A4.455,4.455,0,0,1,43.86,57.5h.025a4.455,4.455,0,0,1,2.86,1.041l28.4,23.834A4.45,4.45,0,0,1,75.7,88.644Z" transform="translate(-5.216 -5.195)" fill="#f46969"/>
      <path id="Trazado_1049047" data-name="Trazado 1049047" d="M212.721,303.836v18.2H196.85v-8.08a6.214,6.214,0,0,0,.268-4.627l3.106-4.778a2.8,2.8,0,0,0,.017-3.037h10.151a2.326,2.326,0,0,1,2.329,2.326Z" transform="translate(-166.129 -216.471)" fill="#cfdce5"/>
      <circle id="Elipse_12934" data-name="Elipse 12934" cx="4.251" cy="4.251" r="4.251" transform="translate(34.404 73.031)" fill="#cfdce5"/>
      <path id="Trazado_1049048" data-name="Trazado 1049048" d="M45.193,231.5,42.08,236.28a6.247,6.247,0,0,1,.326,1.981c0,2.92-2.065,5.493-5.2,7a6.816,6.816,0,1,0-11.888.463c-3.735-1.4-6.284-4.22-6.284-7.465a6.16,6.16,0,0,1,.134-1.3l-1.341-8.624a2.189,2.189,0,0,1-.027-.347,2.23,2.23,0,0,1,4.434-.339L22.9,232q.258-.165.527-.321v-8.524a2.23,2.23,0,1,1,4.459,0v6.938c.114-.02.229-.039.343-.056V219.324a2.231,2.231,0,0,1,4.46,0v10.643c.115.013.229.028.343.046v-6.859a2.231,2.231,0,0,1,4.46,0v8.257q.4.205.767.432l2.232-3.4a2.8,2.8,0,1,1,4.7,3.061Z" transform="translate(-11.099 -143.426)" fill="#ffeab7"/>
      <circle id="Elipse_12935" data-name="Elipse 12935" cx="6.815" cy="6.815" r="6.815" transform="translate(13.219 91.933)" fill="#f46969"/>
      <path id="Trazado_1049049" data-name="Trazado 1049049" d="M127.083,433.926H117.2a6.808,6.808,0,0,0,5.768-3.186Q124.961,432.413,127.083,433.926Z" transform="translate(-97.164 -328.365)" fill="#e3e2e7"/>
      <path id="Trazado_1049050" data-name="Trazado 1049050" d="M14.791,249.311a2.23,2.23,0,0,0-2.683,1.134l-.113-.134a4.448,4.448,0,0,1,.347-6.09Q13.464,246.827,14.791,249.311Z" transform="translate(-5.17 -166.867)" fill="#de5555"/>
      <path id="Trazado_1049051" data-name="Trazado 1049051" d="M24.32,297.789a6.779,6.779,0,0,0,1,3.555c-3.737-1.4-6.286-4.22-6.286-7.465a6.16,6.16,0,0,1,.134-1.3l-1.341-8.624a2.189,2.189,0,0,1-.027-.347,2.231,2.231,0,0,1,2.91-2.121q.82,1.539,1.718,3.029l.5,3.1q.258-.165.527-.321v-1.152a67.126,67.126,0,0,0,4.168,5.806A6.808,6.808,0,0,0,24.32,297.789Z" transform="translate(-11.099 -199.043)" fill="#ebd9af"/>
      <path id="Trazado_1049052" data-name="Trazado 1049052" d="M79,369.62a6.815,6.815,0,1,1-9.283-9.47A67.3,67.3,0,0,0,79,369.62Z" transform="translate(-53.194 -267.245)" fill="#de5555"/>
      <path id="Trazado_1049053" data-name="Trazado 1049053" d="M149.654,178.51H112a.8.8,0,1,1,0-1.61,5.99,5.99,0,0,0,5.357-3.285.8.8,0,0,1,.368-.36c2.971-1.43,4.745-3.778,4.745-6.278a5.448,5.448,0,0,0-.286-1.727.8.8,0,0,1,.09-.694l3.115-4.776a2,2,0,1,0-3.354-2.183L119.825,161a.8.8,0,0,1-1.095.247c-.223-.134-.464-.268-.716-.4a.8.8,0,0,1-.435-.715v-8.262a1.425,1.425,0,0,0-2.851,0v6.859a.8.8,0,0,1-.927.8l-.314-.042a.8.8,0,0,1-.712-.8v-9.686a.8.8,0,0,1,.287-.616l15.076-12.65a3.865,3.865,0,0,1,4.974,0L156.072,155a.8.8,0,0,1,.288.616V171.8a6.707,6.707,0,0,1-6.7,6.706ZM116.7,176.9h32.957a5.1,5.1,0,0,0,5.1-5.1V155.99L132.08,136.967a2.259,2.259,0,0,0-2.906,0l-14.787,12.409v.029a3.036,3.036,0,0,1,4.8,2.467v7.158l1.507-2.31a3.609,3.609,0,1,1,6.037,3.94l-2.908,4.465a7.051,7.051,0,0,1,.252,1.855c0,3.063-2.02,5.892-5.417,7.61a7.638,7.638,0,0,1-1.964,2.31Z" transform="translate(-91.969 -72.144)"/>
      <path id="Trazado_1049054" data-name="Trazado 1049054" d="M67.071,85.844a5.265,5.265,0,0,1-3.377-1.229L40.108,64.822a2.259,2.259,0,0,0-2.906,0L22.127,77.473a.8.8,0,0,1-1.321-.617V75.9a1.425,1.425,0,0,0-2.433-1.006,1.409,1.409,0,0,0-.417,1.006v4.7a.8.8,0,0,1-.288.617l-.341.294A.8.8,0,0,1,16,80.887V79.728a1.426,1.426,0,0,0-2.852,0v4.78a.8.8,0,0,1-.421.708,5.142,5.142,0,0,1-1.3.491.8.8,0,0,1-.977-.66l-.107-.7a1.425,1.425,0,0,0-2.683-.416.8.8,0,0,1-1.319.184l-.134-.149a5.253,5.253,0,0,1,.644-7.405L35.266,52.73a5.267,5.267,0,0,1,3.378-1.23h.025a5.272,5.272,0,0,1,3.377,1.229l28.4,23.836a5.255,5.255,0,0,1-3.378,9.279ZM38.656,62.683a3.857,3.857,0,0,1,2.487.907L64.729,83.382A3.645,3.645,0,0,0,69.416,77.8l-28.4-23.836a3.654,3.654,0,0,0-2.342-.853h-.025a3.656,3.656,0,0,0-2.344.853L7.9,77.8A3.649,3.649,0,0,0,7,82.244a3.033,3.033,0,0,1,4.553.762V79.728a3.033,3.033,0,0,1,4.8-2.464V75.9a3.034,3.034,0,0,1,5.988-.7L36.175,63.59A3.859,3.859,0,0,1,38.656,62.683Z" transform="translate(0 0)"/>
      <path id="Trazado_1049055" data-name="Trazado 1049055" d="M207.526,317.642H191.655a.8.8,0,0,1-.8-.8v-8.08a.8.8,0,0,1,.072-.335,5.4,5.4,0,0,0,.231-4.037.8.8,0,0,1,.09-.694l3.115-4.778a2,2,0,0,0,.012-2.166.8.8,0,0,1,.68-1.237H205.2a3.135,3.135,0,0,1,3.131,3.131v18.2a.8.8,0,0,1-.806.8Zm-15.066-1.61h14.261V298.641a1.524,1.524,0,0,0-1.521-1.521h-8.979a3.607,3.607,0,0,1-.522,2.672l-2.908,4.464a7,7,0,0,1-.337,4.672Z" transform="translate(-160.934 -211.276)"/>
      <path id="Trazado_1049056" data-name="Trazado 1049056" d="M223.357,216.1a5.057,5.057,0,1,1,5.057-5.057A5.057,5.057,0,0,1,223.357,216.1Zm0-8.5a3.448,3.448,0,1,0,3.448,3.446A3.448,3.448,0,0,0,223.357,207.6Z" transform="translate(-184.702 -133.765)"/>
      <path id="Trazado_1049057" data-name="Trazado 1049057" d="M20.193,240.984a.806.806,0,0,1-.283-.051c-3.652-1.375-6.153-3.987-6.691-6.988a.8.8,0,0,1,1.584-.283,7.436,7.436,0,0,0,3.833,4.892,7.618,7.618,0,1,1,14.891-.636,6.614,6.614,0,0,0,2.958-5.205,5.454,5.454,0,0,0-.286-1.727.8.8,0,0,1,.09-.694l3.108-4.778a2,2,0,1,0-3.354-2.183l-2.215,3.406a.8.8,0,0,1-1.095.247c-.223-.134-.464-.268-.716-.4a.8.8,0,0,1-.435-.715v-8.262a1.425,1.425,0,0,0-2.851,0v6.859a.8.8,0,0,1-.927.8c-.1-.016-.209-.03-.314-.043a.8.8,0,0,1-.712-.8V213.776a1.425,1.425,0,0,0-2.433-1.006,1.409,1.409,0,0,0-.417,1.006v10.712a.8.8,0,0,1-.684.8l-.325.054a.8.8,0,0,1-.939-.793v-6.938a1.427,1.427,0,0,0-2.855,0v8.524a.8.8,0,0,1-.4.7c-.161.093-.327.193-.494.3a.8.8,0,0,1-1.236-.554l-.671-4.348a1.426,1.426,0,0,0-2.817.436l.736,4.738a.8.8,0,1,1-1.59.247l-.736-4.734a2.941,2.941,0,0,1-.036-.471,3.036,3.036,0,0,1,5.634-1.559v-3.279a3.033,3.033,0,0,1,4.8-2.464v-1.366a3.035,3.035,0,1,1,6.071,0v1.363a3.036,3.036,0,0,1,4.8,2.467v7.158l1.511-2.31a3.609,3.609,0,1,1,6.037,3.94l-2.908,4.464a7.051,7.051,0,0,1,.252,1.855c0,3.135-2.114,6.023-5.656,7.728a.8.8,0,0,1-1.073-1.091,5.944,5.944,0,0,0,.665-2.727,6.01,6.01,0,1,0-11.134,3.135.8.8,0,0,1-.687,1.225Z" transform="translate(-5.973 -137.878)"/>
      <path id="Trazado_1049058" data-name="Trazado 1049058" d="M21.488,351.413a.8.8,0,0,1-.791-.68l-.188-1.207a.8.8,0,1,1,1.59-.248l.188,1.207a.8.8,0,0,1-.671.919.785.785,0,0,1-.127.009Z" transform="translate(-13.432 -257.219)"/>
      <path id="Trazado_1049059" data-name="Trazado 1049059" d="M68.018,362.139a7.62,7.62,0,1,1,7.621-7.62A7.619,7.619,0,0,1,68.018,362.139Zm0-13.63a6.01,6.01,0,1,0,6.011,6.01A6.01,6.01,0,0,0,68.018,348.51Z" transform="translate(-47.984 -255.772)"/>
      <path id="Trazado_1049060" data-name="Trazado 1049060" d="M282.577,373.61H280.1a.8.8,0,1,1,0-1.61h2.472a.8.8,0,1,1,0,1.61Z" transform="translate(-237.519 -277.505)"/>
      <path id="Trazado_1049061" data-name="Trazado 1049061" d="M95.248,382.554a.8.8,0,0,1-.569-.236l-6.141-6.141a.805.805,0,0,1,1.139-1.139l6.141,6.141a.8.8,0,0,1-.57,1.375Z" transform="translate(-72.143 -279.931)"/>
      <path id="Trazado_1049062" data-name="Trazado 1049062" d="M89.1,382.554a.8.8,0,0,1-.569-1.375l6.141-6.141a.805.805,0,1,1,1.139,1.139l-6.141,6.141A.8.8,0,0,1,89.1,382.554Z" transform="translate(-72.137 -279.931)"/>
    </g>
  </g>
</svg>
