<svg xmlns="http://www.w3.org/2000/svg" xmlns:xlink="http://www.w3.org/1999/xlink" width="113" height="113" viewBox="0 0 113 113">
  <defs>
    <filter id="Trazado_982547" x="0" y="0" width="113" height="113" filterUnits="userSpaceOnUse">
      <feOffset dy="3" input="SourceAlpha"/>
      <feGaussianBlur stdDeviation="3" result="blur"/>
      <feFlood flood-opacity="0.161"/>
      <feComposite operator="in" in2="blur"/>
      <feComposite in="SourceGraphic"/>
    </filter>
  </defs>
  <g id="Grupo_1206543" data-name="Grupo 1206543" transform="translate(-1217 -6351.825)">
    <g id="Grupo_1204080" data-name="Grupo 1204080" transform="translate(0 2511.489)">
      <g id="Grupo_1203961" data-name="Grupo 1203961" transform="translate(0.44 1899.461)">
        <g id="Grupo_1203500" data-name="Grupo 1203500" transform="translate(0 -197.72)">
          <g id="Grupo_1202592" data-name="Grupo 1202592" transform="translate(1225.561 2144.596)">
            <g id="Grupo_1172010" data-name="Grupo 1172010" transform="translate(0)">
              <g id="Grupo_1171046" data-name="Grupo 1171046">
                <g id="Grupo_1148525" data-name="Grupo 1148525">
                  <g transform="matrix(1, 0, 0, 1, -9, -6)" filter="url(#Trazado_982547)">
                    <g id="Trazado_982547-2" data-name="Trazado 982547" transform="translate(9 6)" fill="#edf3fc">
                      <path d="M 47.5 93.5 C 41.28937149047852 93.5 35.26533508300781 92.28397369384766 29.59518623352051 89.88570404052734 C 24.11771965026855 87.56893157958984 19.19813346862793 84.25196075439453 14.97309303283691 80.02691650390625 C 10.74804019927979 75.80186462402344 7.431066513061523 70.88229370117188 5.114293098449707 65.40481567382812 C 2.716026782989502 59.73468017578125 1.5 53.71062850952148 1.5 47.5 C 1.5 41.28937149047852 2.716026782989502 35.26533508300781 5.114293098449707 29.59518623352051 C 7.431066513061523 24.11771965026855 10.74804019927979 19.19813346862793 14.97309303283691 14.97309303283691 C 19.19813346862793 10.74804019927979 24.11771965026855 7.431066513061523 29.59518623352051 5.114293098449707 C 35.26533508300781 2.716026782989502 41.28937149047852 1.5 47.5 1.5 C 53.71062850952148 1.5 59.73468017578125 2.716026782989502 65.40481567382812 5.114293098449707 C 70.88229370117188 7.431066513061523 75.80186462402344 10.74804019927979 80.02691650390625 14.97309303283691 C 84.25196075439453 19.19813346862793 87.56893157958984 24.11771965026855 89.88570404052734 29.59518623352051 C 92.28397369384766 35.26533508300781 93.5 41.28937149047852 93.5 47.5 C 93.5 53.71062850952148 92.28397369384766 59.73468017578125 89.88570404052734 65.40481567382812 C 87.56893157958984 70.88229370117188 84.25196075439453 75.80186462402344 80.02691650390625 80.02691650390625 C 75.80186462402344 84.25196075439453 70.88229370117188 87.56893157958984 65.40481567382812 89.88570404052734 C 59.73468017578125 92.28397369384766 53.71062850952148 93.5 47.5 93.5 Z" stroke="none"/>
                      <path d="M 47.5 3 C 41.49121475219727 3 35.66376876831055 4.176155090332031 30.17950439453125 6.495796203613281 C 24.88084411621094 8.736953735351562 20.12152099609375 11.94598388671875 16.03375244140625 16.03375244140625 C 11.94598388671875 20.12152099609375 8.736953735351562 24.88084411621094 6.495796203613281 30.17950439453125 C 4.176155090332031 35.66376876831055 3 41.49121475219727 3 47.5 C 3 53.50878524780273 4.176155090332031 59.33623123168945 6.495796203613281 64.82049560546875 C 8.736953735351562 70.11915588378906 11.94598388671875 74.87847900390625 16.03375244140625 78.96624755859375 C 20.12152099609375 83.05401611328125 24.88084411621094 86.26304626464844 30.17950439453125 88.50419616699219 C 35.66376876831055 90.82384490966797 41.49121475219727 92 47.5 92 C 53.50878524780273 92 59.33623123168945 90.82384490966797 64.82049560546875 88.50419616699219 C 70.11915588378906 86.26304626464844 74.87847900390625 83.05401611328125 78.96624755859375 78.96624755859375 C 83.05401611328125 74.87847900390625 86.26304626464844 70.11915588378906 88.50419616699219 64.82049560546875 C 90.82384490966797 59.33623123168945 92 53.50878524780273 92 47.5 C 92 41.49121475219727 90.82384490966797 35.66376876831055 88.50419616699219 30.17950439453125 C 86.26304626464844 24.88084411621094 83.05401611328125 20.12152099609375 78.96624755859375 16.03375244140625 C 74.87847900390625 11.94598388671875 70.11915588378906 8.736953735351562 64.82049560546875 6.495796203613281 C 59.33623123168945 4.176155090332031 53.50878524780273 3 47.5 3 M 47.5 0 C 73.7335205078125 0 95 21.2664794921875 95 47.5 C 95 73.7335205078125 73.7335205078125 95 47.5 95 C 21.2664794921875 95 0 73.7335205078125 0 47.5 C 0 21.2664794921875 21.2664794921875 0 47.5 0 Z" stroke="none" fill="#5692e8"/>
                    </g>
                  </g>
                </g>
              </g>
            </g>
          </g>
        </g>
      </g>
    </g>
    <g id="respect_2452201" transform="translate(1241 6373)">
      <g id="Grupo_1206541" data-name="Grupo 1206541">
        <g id="Grupo_1206529" data-name="Grupo 1206529">
          <path id="Trazado_1049109" data-name="Trazado 1049109" d="M49.28,6.38A10.969,10.969,0,0,0,40.53,2,10.933,10.933,0,0,0,32.8,5.2L32,6l-.8-.8A10.929,10.929,0,0,0,23.47,2a10.969,10.969,0,0,0-8.75,4.38,13.778,13.778,0,0,0-2.02,3.85,13.592,13.592,0,0,0-.7,4.3v.08A13.872,13.872,0,0,0,14.14,22H18.5A3.5,3.5,0,0,1,22,25.5v.08a3.458,3.458,0,0,1-1.03,2.39,3.9,3.9,0,0,1-.38.33L32,38l11.41-9.7a3.9,3.9,0,0,1-.38-.33A3.458,3.458,0,0,1,42,25.58V25.5A3.5,3.5,0,0,1,45.5,22h4.36A13.872,13.872,0,0,0,52,14.61v-.08a13.539,13.539,0,0,0-2.72-8.15Z" fill="#ff826e"/>
        </g>
        <g id="Grupo_1206530" data-name="Grupo 1206530">
          <path id="Trazado_1049110" data-name="Trazado 1049110" d="M19.9,62H6V48a8.129,8.129,0,0,0,3.17,6.44l9.12,7.01A2.614,2.614,0,0,0,19.9,62Z" fill="#fcd770"/>
        </g>
        <g id="Grupo_1206531" data-name="Grupo 1206531">
          <path id="Trazado_1049111" data-name="Trazado 1049111" d="M20,55l5-5,4,4-7.22,7.22A2.665,2.665,0,0,1,19.9,62a2.614,2.614,0,0,1-1.61-.55L9.17,54.44A8.129,8.129,0,0,1,6,48a2.993,2.993,0,0,1,.88-2.12A2.838,2.838,0,0,1,8,45.18,2.772,2.772,0,0,1,9,45h5a10.843,10.843,0,0,1,6,9.71Z" fill="#fcd770"/>
        </g>
        <g id="Grupo_1206532" data-name="Grupo 1206532">
          <path id="Trazado_1049112" data-name="Trazado 1049112" d="M58,48V62H44.1a2.614,2.614,0,0,0,1.61-.55l9.12-7.01A8.129,8.129,0,0,0,58,48Z" fill="#b4dd7f"/>
        </g>
        <g id="Grupo_1206533" data-name="Grupo 1206533">
          <path id="Trazado_1049113" data-name="Trazado 1049113" d="M44,55v-.29A10.843,10.843,0,0,1,50,45h5a2.772,2.772,0,0,1,1,.18,2.838,2.838,0,0,1,1.12.7A2.993,2.993,0,0,1,58,48a8.129,8.129,0,0,1-3.17,6.44l-9.12,7.01A2.614,2.614,0,0,1,44.1,62a2.665,2.665,0,0,1-1.88-.78L35,54l4-4Z" fill="#b4dd7f"/>
        </g>
        <g id="Grupo_1206534" data-name="Grupo 1206534">
          <path id="Trazado_1049114" data-name="Trazado 1049114" d="M18.5,22A3.5,3.5,0,0,1,22,25.5v.08a3.458,3.458,0,0,1-1.03,2.39,3.9,3.9,0,0,1-.38.33,4.377,4.377,0,0,1-.42.28A3.477,3.477,0,0,1,18.5,29H14a2.006,2.006,0,0,0-2,2v2.76a2,2,0,0,1-1.11,1.79l-1.78.9A2,2,0,0,0,8,38.24V41l-.53-.27A9.888,9.888,0,0,1,11.89,22H18.5Z" fill="#b27946"/>
        </g>
        <g id="Grupo_1206535" data-name="Grupo 1206535">
          <path id="Trazado_1049115" data-name="Trazado 1049115" d="M62,31.89a9.886,9.886,0,0,1-5.47,8.84L56,41V38.24a2,2,0,0,0-1.11-1.79l-1.78-.9A2,2,0,0,1,52,33.76V31a2.006,2.006,0,0,0-2-2H45.5a3.477,3.477,0,0,1-1.67-.42,4.377,4.377,0,0,1-.42-.28,3.9,3.9,0,0,1-.38-.33A3.458,3.458,0,0,1,42,25.58V25.5A3.5,3.5,0,0,1,45.5,22h6.61A9.9,9.9,0,0,1,62,31.89Z" fill="#656d78"/>
        </g>
        <g id="Grupo_1206536" data-name="Grupo 1206536">
          <path id="Trazado_1049116" data-name="Trazado 1049116" d="M42,18v4H40.91a1.657,1.657,0,0,0-1.51,1.05.035.035,0,0,0-.01.02.488.488,0,0,0-.03.07,1.663,1.663,0,0,0,.36,1.75l.77.77-2.83,2.83-.77-.77a1.656,1.656,0,0,0-1.82-.33.035.035,0,0,0-.02.01A1.657,1.657,0,0,0,34,28.91V30H30V28.91a1.657,1.657,0,0,0-1.05-1.51.035.035,0,0,0-.02-.01,1.656,1.656,0,0,0-1.82.33l-.77.77-2.83-2.83.77-.77a1.656,1.656,0,0,0,.33-1.82.035.035,0,0,0-.01-.02A1.657,1.657,0,0,0,23.09,22H22V18h1.09a1.657,1.657,0,0,0,1.51-1.05.035.035,0,0,0,.01-.02,1.656,1.656,0,0,0-.33-1.82l-.77-.77,2.83-2.83.77.77a1.656,1.656,0,0,0,1.82.33.035.035,0,0,0,.02-.01A1.657,1.657,0,0,0,30,11.09V10h4v1.09a1.657,1.657,0,0,0,1.05,1.51.035.035,0,0,0,.02.01,1.656,1.656,0,0,0,1.82-.33l.77-.77,2.83,2.83-.77.77a1.656,1.656,0,0,0-.33,1.82.035.035,0,0,0,.01.02A1.657,1.657,0,0,0,40.91,18Zm-6,2a4,4,0,1,0-4,4A4,4,0,0,0,36,20Z" fill="#fcd770"/>
        </g>
        <g id="Grupo_1206537" data-name="Grupo 1206537">
          <path id="Trazado_1049117" data-name="Trazado 1049117" d="M39,50l-4,4-2.17-2.17a2.828,2.828,0,1,1,4-4Z" fill="#f0d0b4"/>
        </g>
        <g id="Grupo_1206538" data-name="Grupo 1206538">
          <path id="Trazado_1049118" data-name="Trazado 1049118" d="M32,49.83a2.831,2.831,0,0,1-.83,2L29,54l-4-4,2.17-2.17a2.83,2.83,0,0,1,4.83,2Z" fill="#f0d0b4"/>
        </g>
        <g id="Grupo_1206539" data-name="Grupo 1206539">
          <path id="Trazado_1049119" data-name="Trazado 1049119" d="M14,41.5V45H9a2.772,2.772,0,0,0-1,.18V38.24a2,2,0,0,1,1.11-1.79l1.78-.9A2,2,0,0,0,12,33.76V31a2.006,2.006,0,0,1,2-2h4.5a3.477,3.477,0,0,0,1.67-.42L22,35l-2,1v2.44A3.555,3.555,0,0,1,16.44,42a3.7,3.7,0,0,1-.87-.11Z" fill="#f0d0b4"/>
        </g>
        <g id="Grupo_1206540" data-name="Grupo 1206540">
          <path id="Trazado_1049120" data-name="Trazado 1049120" d="M56,41v4.18A2.772,2.772,0,0,0,55,45H50V41.5l-1.57.39a3.7,3.7,0,0,1-.87.11A3.555,3.555,0,0,1,44,38.44V36l-2-1,1.83-6.42A3.477,3.477,0,0,0,45.5,29H50a2.006,2.006,0,0,1,2,2v2.76a2,2,0,0,0,1.11,1.79l1.78.9A2,2,0,0,1,56,38.24Z" fill="#f0d0b4"/>
        </g>
      </g>
      <g id="Grupo_1206542" data-name="Grupo 1206542">
        <path id="Trazado_1049121" data-name="Trazado 1049121" d="M32,25a5,5,0,1,0-5-5A5.006,5.006,0,0,0,32,25Zm0-8a3,3,0,1,1-3,3A3,3,0,0,1,32,17Z"/>
        <path id="Trazado_1049122" data-name="Trazado 1049122" d="M63,31.889A10.9,10.9,0,0,0,52.111,21h-.569A14.933,14.933,0,0,0,53,14.531a14.689,14.689,0,0,0-2.918-8.755A11.994,11.994,0,0,0,40.531,1,11.857,11.857,0,0,0,32.09,4.5L32,4.586,31.911,4.5A11.861,11.861,0,0,0,23.469,1a12,12,0,0,0-9.551,4.775A14.792,14.792,0,0,0,12.458,21h-.569A10.889,10.889,0,0,0,7,41.618v2.939A3.988,3.988,0,0,0,5,48V63H19.9a3.631,3.631,0,0,0,2.582-1.069l9.4-9.4c.046-.046.078-.1.122-.148.043.048.076.1.122.148l9.4,9.4A3.623,3.623,0,0,0,44.1,63H59V48a3.987,3.987,0,0,0-2-3.444V41.617a10.825,10.825,0,0,0,6-9.728Zm-2,0a8.832,8.832,0,0,1-4,7.425V38.236a2.984,2.984,0,0,0-1.658-2.683l-1.789-.9A.994.994,0,0,1,53,33.764V31a3,3,0,0,0-3-3H45.5a2.5,2.5,0,0,1,0-5h6.611A8.9,8.9,0,0,1,61,31.889ZM43,36.618v1.82a4.562,4.562,0,0,0,5.668,4.426L49,42.781v1.643a11.759,11.759,0,0,0-5.84,8.322l-5.625-5.625a3.8,3.8,0,0,0-5.535.15,3.8,3.8,0,0,0-5.536-.149l-5.625,5.625A11.759,11.759,0,0,0,15,44.425V42.78l.332.083A4.56,4.56,0,0,0,21,38.438v-1.82l2.189-1.1-1.4-4.887L32,39.313l10.207-8.676-1.4,4.887ZM24.991,14.407l-.067-.067,1.416-1.416.067.067A2.721,2.721,0,0,0,31,11.088V11h2v.088a2.721,2.721,0,0,0,4.593,1.9l.067-.067,1.416,1.416-.067.067A2.722,2.722,0,0,0,40.912,19H41v2h-.088a2.646,2.646,0,0,0-2.436,1.666l-.05.125a2.626,2.626,0,0,0,.583,2.8l.067.067L37.66,27.076l-.067-.067A2.721,2.721,0,0,0,33,28.912V29H31v-.088a2.721,2.721,0,0,0-4.593-1.9l-.067.067-1.416-1.416.067-.067A2.722,2.722,0,0,0,23.088,21H23V19h.088a2.722,2.722,0,0,0,1.9-4.593Zm-2.1,12.05L26.34,29.9l1.481-1.481a.664.664,0,0,1,.749-.1.648.648,0,0,1,.43.588V31h6V28.912a.66.66,0,0,1,.454-.6.652.652,0,0,1,.726.11l1.481,1.481,3.447-3.447a4.459,4.459,0,0,0,.841,1.774L32,36.688l-9.949-8.456a4.472,4.472,0,0,0,.842-1.775Zm18.175-1.633-.645-.645a.663.663,0,0,1-.114-.716l.016-.037A.648.648,0,0,1,40.912,23h.85a4.482,4.482,0,0,0-.694,1.824ZM23.088,23a.66.66,0,0,1,.6.454.653.653,0,0,1-.11.726l-.645.645A4.461,4.461,0,0,0,22.238,23h.85ZM13,14.531a12.675,12.675,0,0,1,2.518-7.555A9.986,9.986,0,0,1,23.469,3,9.872,9.872,0,0,1,30.5,5.911l1.5,1.5,1.5-1.5A9.874,9.874,0,0,1,40.531,3a9.986,9.986,0,0,1,7.951,3.976A12.8,12.8,0,0,1,49.284,21H45.5a4.474,4.474,0,0,0-2.5.762V17H40.912a.66.66,0,0,1-.6-.454.653.653,0,0,1,.11-.726l1.481-1.481-4.244-4.244L36.18,11.576a.664.664,0,0,1-.749.1.648.648,0,0,1-.43-.588V9H29v2.088a.66.66,0,0,1-.454.6.651.651,0,0,1-.726-.11L26.34,10.095,22.1,14.339l1.481,1.481a.664.664,0,0,1,.1.749.648.648,0,0,1-.588.43H21v4.762A4.481,4.481,0,0,0,18.5,21H14.716A12.882,12.882,0,0,1,13,14.531ZM3,31.889A8.9,8.9,0,0,1,11.889,23H18.5a2.5,2.5,0,0,1,0,5H14a3,3,0,0,0-3,3v2.764a.994.994,0,0,1-.553.894l-1.789.9A2.983,2.983,0,0,0,7,38.236v1.078a8.833,8.833,0,0,1-4-7.425Zm6,6.347a.994.994,0,0,1,.553-.894l1.789-.9A2.983,2.983,0,0,0,13,33.764V31a1,1,0,0,1,1-1h4.5a4.489,4.489,0,0,0,1-.12l1.313,4.6-1.81.9v3.057a2.56,2.56,0,0,1-3.183,2.484l-3.575-.894-.485,1.94L13,42.281V44H9ZM7,53.686A9.042,9.042,0,0,0,8.559,55.23L16.06,61H7Zm14.069,6.831a1.694,1.694,0,0,1-2.174.141L9.779,53.646A7.169,7.169,0,0,1,7,48a2,2,0,0,1,2-2h4.758a9.789,9.789,0,0,1,5.086,6.945l-5.263-3.759-1.162,1.628,7.689,5.492L25,51.414,27.586,54Zm9.4-9.4L29,52.586,26.414,50l1.464-1.464a1.829,1.829,0,1,1,2.586,2.586ZM33,49.829a1.829,1.829,0,0,1,3.122-1.293L37.586,50,35,52.586l-1.464-1.464A1.816,1.816,0,0,1,33,49.829Zm9.931,10.688L36.414,54,39,51.414l4.892,4.892,7.689-5.492-1.162-1.628-5.263,3.759A9.787,9.787,0,0,1,50.242,46H55a2,2,0,0,1,2,2,7.167,7.167,0,0,1-2.779,5.644L45.1,60.657a1.693,1.693,0,0,1-2.174-.14ZM57,61H47.94l7.5-5.77A9.042,9.042,0,0,0,57,53.686ZM51,44V42.281l1.243-.311-.485-1.94-3.575.894a2.6,2.6,0,0,1-.621.076A2.565,2.565,0,0,1,45,38.438V35.381l-1.811-.9,1.313-4.6a4.447,4.447,0,0,0,1,.121H50a1,1,0,0,1,1,1v2.764a2.984,2.984,0,0,0,1.658,2.683l1.789.9a.994.994,0,0,1,.553.894V44Z"/>
      </g>
    </g>
  </g>
</svg>
