<svg xmlns="http://www.w3.org/2000/svg" xmlns:xlink="http://www.w3.org/1999/xlink" width="113" height="113" viewBox="0 0 113 113">
  <defs>
    <filter id="Trazado_982547" x="0" y="0" width="113" height="113" filterUnits="userSpaceOnUse">
      <feOffset dy="3" input="SourceAlpha"/>
      <feGaussianBlur stdDeviation="3" result="blur"/>
      <feFlood flood-opacity="0.161"/>
      <feComposite operator="in" in2="blur"/>
      <feComposite in="SourceGraphic"/>
    </filter>
  </defs>
  <g id="Grupo_1206592" data-name="Grupo 1206592" transform="translate(-272 -10824.826)">
    <g id="Grupo_1204125" data-name="Grupo 1204125" transform="translate(0 6984.49)">
      <g id="Grupo_1203962" data-name="Grupo 1203962" transform="translate(0 1899.461)">
        <g id="Grupo_1203498" data-name="Grupo 1203498" transform="translate(0 -197.72)">
          <g id="Grupo_1202589" data-name="Grupo 1202589" transform="translate(281 2144.596)">
            <g id="Grupo_1172010" data-name="Grupo 1172010" transform="translate(0)">
              <g id="Grupo_1171046" data-name="Grupo 1171046">
                <g id="Grupo_1148525" data-name="Grupo 1148525">
                  <g transform="matrix(1, 0, 0, 1, -9, -6)" filter="url(#Trazado_982547)">
                    <g id="Trazado_982547-2" data-name="Trazado 982547" transform="translate(9 6)" fill="#edf3fc">
                      <path d="M 47.5 93.5 C 41.28937149047852 93.5 35.26533508300781 92.28397369384766 29.59518623352051 89.88570404052734 C 24.11771965026855 87.56893157958984 19.19813346862793 84.25196075439453 14.97309303283691 80.02691650390625 C 10.74804019927979 75.80186462402344 7.431066513061523 70.88229370117188 5.114293098449707 65.40481567382812 C 2.716026782989502 59.73468017578125 1.5 53.71062850952148 1.5 47.5 C 1.5 41.28937149047852 2.716026782989502 35.26533508300781 5.114293098449707 29.59518623352051 C 7.431066513061523 24.11771965026855 10.74804019927979 19.19813346862793 14.97309303283691 14.97309303283691 C 19.19813346862793 10.74804019927979 24.11771965026855 7.431066513061523 29.59518623352051 5.114293098449707 C 35.26533508300781 2.716026782989502 41.28937149047852 1.5 47.5 1.5 C 53.71062850952148 1.5 59.73468017578125 2.716026782989502 65.40481567382812 5.114293098449707 C 70.88229370117188 7.431066513061523 75.80186462402344 10.74804019927979 80.02691650390625 14.97309303283691 C 84.25196075439453 19.19813346862793 87.56893157958984 24.11771965026855 89.88570404052734 29.59518623352051 C 92.28397369384766 35.26533508300781 93.5 41.28937149047852 93.5 47.5 C 93.5 53.71062850952148 92.28397369384766 59.73468017578125 89.88570404052734 65.40481567382812 C 87.56893157958984 70.88229370117188 84.25196075439453 75.80186462402344 80.02691650390625 80.02691650390625 C 75.80186462402344 84.25196075439453 70.88229370117188 87.56893157958984 65.40481567382812 89.88570404052734 C 59.73468017578125 92.28397369384766 53.71062850952148 93.5 47.5 93.5 Z" stroke="none"/>
                      <path d="M 47.5 3 C 41.49121475219727 3 35.66376876831055 4.176155090332031 30.17950439453125 6.495796203613281 C 24.88084411621094 8.736953735351562 20.12152099609375 11.94598388671875 16.03375244140625 16.03375244140625 C 11.94598388671875 20.12152099609375 8.736953735351562 24.88084411621094 6.495796203613281 30.17950439453125 C 4.176155090332031 35.66376876831055 3 41.49121475219727 3 47.5 C 3 53.50878524780273 4.176155090332031 59.33623123168945 6.495796203613281 64.82049560546875 C 8.736953735351562 70.11915588378906 11.94598388671875 74.87847900390625 16.03375244140625 78.96624755859375 C 20.12152099609375 83.05401611328125 24.88084411621094 86.26304626464844 30.17950439453125 88.50419616699219 C 35.66376876831055 90.82384490966797 41.49121475219727 92 47.5 92 C 53.50878524780273 92 59.33623123168945 90.82384490966797 64.82049560546875 88.50419616699219 C 70.11915588378906 86.26304626464844 74.87847900390625 83.05401611328125 78.96624755859375 78.96624755859375 C 83.05401611328125 74.87847900390625 86.26304626464844 70.11915588378906 88.50419616699219 64.82049560546875 C 90.82384490966797 59.33623123168945 92 53.50878524780273 92 47.5 C 92 41.49121475219727 90.82384490966797 35.66376876831055 88.50419616699219 30.17950439453125 C 86.26304626464844 24.88084411621094 83.05401611328125 20.12152099609375 78.96624755859375 16.03375244140625 C 74.87847900390625 11.94598388671875 70.11915588378906 8.736953735351562 64.82049560546875 6.495796203613281 C 59.33623123168945 4.176155090332031 53.50878524780273 3 47.5 3 M 47.5 0 C 73.7335205078125 0 95 21.2664794921875 95 47.5 C 95 73.7335205078125 73.7335205078125 95 47.5 95 C 21.2664794921875 95 0 73.7335205078125 0 47.5 C 0 21.2664794921875 21.2664794921875 0 47.5 0 Z" stroke="none" fill="#5692e8"/>
                    </g>
                  </g>
                </g>
              </g>
            </g>
          </g>
        </g>
      </g>
    </g>
    <g id="meeting_11325074" transform="translate(289.848 10842.005)">
      <g id="Grupo_1206588" data-name="Grupo 1206588" transform="translate(7.502 7.5)">
        <path id="Trazado_1049264" data-name="Trazado 1049264" d="M421.768,412.064h0a2.765,2.765,0,0,0,2.737-3.156l-1.411-9.879h-5.586l1.523,10.661A2.765,2.765,0,0,0,421.768,412.064Z" transform="translate(-366.808 -350.614)" fill="#c8866a"/>
        <path id="Trazado_1049265" data-name="Trazado 1049265" d="M318.974,412.064h0a2.765,2.765,0,0,1-2.737-3.156l1.411-9.879h5.586l-1.523,10.661A2.765,2.765,0,0,1,318.974,412.064Z" transform="translate(-278.034 -350.614)" fill="#c8866a"/>
        <path id="Trazado_1049266" data-name="Trazado 1049266" d="M296.413,366.969H316.9a2.793,2.793,0,0,0,2.793-2.793h0a2.793,2.793,0,0,0-2.793-2.793H296.413a2.793,2.793,0,0,0-2.793,2.793h0A2.793,2.793,0,0,0,296.413,366.969Z" transform="translate(-258.24 -317.623)" fill="#db9e82"/>
        <path id="Trazado_1049267" data-name="Trazado 1049267" d="M44.987,191.767l-14.9-1.862v-8.38a8.38,8.38,0,0,1,8.38-8.38h0a8.38,8.38,0,0,1,8.38,8.38v3.724Z" transform="translate(-27.297 -152.663)" fill="#bed6f1"/>
        <path id="Trazado_1049268" data-name="Trazado 1049268" d="M348.187,191.767l14.9-1.862v-8.38a8.38,8.38,0,0,0-8.38-8.38h0a8.38,8.38,0,0,0-8.38,8.38v3.724Z" transform="translate(-304.427 -152.663)" fill="#ff97c1"/>
        <path id="Trazado_1049269" data-name="Trazado 1049269" d="M54.413,29.5c0,.2,0,.391-.015.584a11,11,0,0,1-.25,1.84,11.176,11.176,0,0,1-10.3,8.733l-2.4-.889-2.322.122a11.153,11.153,0,0,1-3.591-2.3l2.22-8.5,1.922-7.359.488-1.872.738.127,10.417,1.8h0A11.14,11.14,0,0,1,54.413,29.5Z" transform="translate(-32.067 -18.332)" fill="#ffd4bd"/>
        <path id="Trazado_1049270" data-name="Trazado 1049270" d="M43.846,106.08c-.2.012-.4.017-.607.017a11.13,11.13,0,0,1-7.706-3.085l2.22-8.5C37.953,97.846,39.573,101.755,43.846,106.08Z" transform="translate(-32.067 -83.752)" fill="#ffbf9d"/>
        <path id="Trazado_1049271" data-name="Trazado 1049271" d="M26.754,10.955c-2.309-.134-5.986.1-8.6,2.442a3.707,3.707,0,0,0-1.224,2.921c.079,1.9-.079,5.375-1.962,7.857l-2.542.861-1.457,1.725h0A11.173,11.173,0,0,1,17.821,7.532q.423-.032.854-.032A11.137,11.137,0,0,1,26.754,10.955Z" transform="translate(-7.503 -7.5)" fill="#db9e82"/>
        <path id="Trazado_1049272" data-name="Trazado 1049272" d="M14.968,24.4a6.97,6.97,0,0,1-4,2.586h0A11.173,11.173,0,0,1,17.821,7.76C15.229,10.264,10.6,16.284,14.968,24.4Z" transform="translate(-7.503 -7.728)" fill="#c8866a"/>
        <path id="Trazado_1049273" data-name="Trazado 1049273" d="M308.678,316.129h13.967a7.448,7.448,0,0,0,7.448-7.448H308.678Z" transform="translate(-271.435 -271.438)" fill="#6e768f"/>
        <path id="Trazado_1049274" data-name="Trazado 1049274" d="M40.386,412.064h0a2.765,2.765,0,0,1-2.737-3.156l1.411-9.879h5.586L43.123,409.69A2.765,2.765,0,0,1,40.386,412.064Z" transform="translate(-33.896 -350.614)" fill="#b07058"/>
        <path id="Trazado_1049275" data-name="Trazado 1049275" d="M143.179,412.064h0a2.765,2.765,0,0,0,2.737-3.156l-1.411-9.879h-5.586l1.523,10.661A2.765,2.765,0,0,0,143.179,412.064Z" transform="translate(-122.668 -350.614)" fill="#b07058"/>
        <path id="Trazado_1049276" data-name="Trazado 1049276" d="M30.779,366.969H10.3A2.793,2.793,0,0,1,7.5,364.176h0a2.793,2.793,0,0,1,2.793-2.793H30.779a2.793,2.793,0,0,1,2.793,2.793h0A2.793,2.793,0,0,1,30.779,366.969Z" transform="translate(-7.502 -317.623)" fill="#c8866a"/>
        <path id="Trazado_1049277" data-name="Trazado 1049277" d="M51.5,316.129H37.538a7.448,7.448,0,0,1-7.448-7.448H51.5v7.448Z" transform="translate(-27.297 -271.438)" fill="#565e75"/>
        <path id="Trazado_1049278" data-name="Trazado 1049278" d="M199.3,316.21v21.421a1.855,1.855,0,0,1-1.855,1.855H182.538a1.849,1.849,0,0,1-1.232-.467l.006,0,1.232-17.227-1.861-3.725V316.21H199.3Z" transform="translate(-159.268 -278.036)" fill="#e8ecf9"/>
        <path id="Trazado_1049279" data-name="Trazado 1049279" d="M190.01,339.487h-7.473a1.855,1.855,0,0,1-1.855-1.855V316.211h3.5c2.358,1.03,4.236,1.861,4.236,1.861v18.513A3.332,3.332,0,0,0,190.01,339.487Z" transform="translate(-159.268 -278.037)" fill="#d7ddf5"/>
        <path id="Trazado_1049280" data-name="Trazado 1049280" d="M159.629,274.756a3.724,3.724,0,0,1-3.725,3.723H142.223l-13.841-2.028h0a3.724,3.724,0,0,1,3.316-5.42H155.9A3.724,3.724,0,0,1,159.629,274.756Z" transform="translate(-113.076 -238.444)" fill="#f3f5fc"/>
        <path id="Trazado_1049281" data-name="Trazado 1049281" d="M142.223,278.479H131.7a3.724,3.724,0,1,1,0-7.448h10.5A6.141,6.141,0,0,0,142.223,278.479Z" transform="translate(-113.076 -238.444)" fill="#e8ecf9"/>
        <path id="Trazado_1049282" data-name="Trazado 1049282" d="M178.923,247.029l-2.633.933-1.459-2.226-.407-3.039,2.633-.933a2.793,2.793,0,0,1,3.566,1.7h0A2.793,2.793,0,0,1,178.923,247.029Z" transform="translate(-153.783 -212.654)" fill="#ffd4bd"/>
        <path id="Trazado_1049283" data-name="Trazado 1049283" d="M74.208,222.3l1.866,5.265-4.683,2.077a7.419,7.419,0,0,1-9.612-3.4l-1.306-2.551a3.683,3.683,0,0,1,2.048-5.15h0a3.683,3.683,0,0,1,4.828,2.681l.265,1.2a1.855,1.855,0,0,0,2.431,1.35Z" transform="translate(-53.567 -192.254)" fill="#93bce8"/>
        <path id="Trazado_1049284" data-name="Trazado 1049284" d="M351.747,25.271a10.241,10.241,0,0,1-10,10.239l-2.571-.833-.573.42a10.26,10.26,0,0,1-7.05-7.39,10.03,10.03,0,0,1-.276-1.842c-.011-.2-.017-.394-.017-.594a10.242,10.242,0,0,1,9.252-10.193q.49-.048.99-.048A10.241,10.241,0,0,1,351.747,25.271Z" transform="translate(-291.228 -14.099)" fill="#db9e82"/>
        <path id="Trazado_1049285" data-name="Trazado 1049285" d="M341.749,35.853c-.082,0-.162,0-.244,0a10.245,10.245,0,0,1-9.949-7.806,10.025,10.025,0,0,1-.276-1.842c-.011-.2-.017-.394-.017-.594a10.242,10.242,0,0,1,9.252-10.193C337.629,18.948,333.14,26.94,341.749,35.853Z" transform="translate(-291.228 -14.442)" fill="#c8866a"/>
        <path id="Trazado_1049286" data-name="Trazado 1049286" d="M342.546,18.017v9.974a1.856,1.856,0,0,1-1.855,1.855h-5.6a1.856,1.856,0,0,1-1.855-1.855V18.327a4.309,4.309,0,0,0-4.309-4.309h-1.65l-3.387-1.232-1.642,1.232h-1.62a.93.93,0,0,1-.79-1.415,10.512,10.512,0,0,1,9.018-5.1h3.173A10.517,10.517,0,0,1,342.546,18.017Z" transform="translate(-281.096 -7.5)" fill="#6e768f"/>
        <path id="Trazado_1049287" data-name="Trazado 1049287" d="M331.241,7.5a18.061,18.061,0,0,0-3.963,6.518h-6.649a.93.93,0,0,1-.79-1.415,10.512,10.512,0,0,1,9.018-5.1Z" transform="translate(-281.096 -7.5)" fill="#565e75"/>
        <path id="Trazado_1049288" data-name="Trazado 1049288" d="M287.951,247.029l2.633.933,1.459-2.35.407-2.915-2.633-.933a2.793,2.793,0,0,0-3.566,1.7h0A2.793,2.793,0,0,0,287.951,247.029Z" transform="translate(-251.641 -212.654)" fill="#c8866a"/>
        <path id="Trazado_1049289" data-name="Trazado 1049289" d="M324.295,222.3l-1.867,5.265,4.683,2.077a7.419,7.419,0,0,0,9.612-3.4l1.306-2.551a3.683,3.683,0,0,0-2.048-5.15h0a3.683,3.683,0,0,0-4.828,2.681l-.265,1.2a1.855,1.855,0,0,1-2.431,1.35Z" transform="translate(-283.485 -192.254)" fill="#ff71a8"/>
      </g>
      <g id="Grupo_1206591" data-name="Grupo 1206591" transform="translate(7.502 7.5)">
        <path id="Trazado_1049290" data-name="Trazado 1049290" d="M424.31,407.561l1.26,8.824a2.765,2.765,0,1,1-5.474.781l-1.373-9.606" transform="translate(-367.873 -358.091)" fill="none" stroke="#000" stroke-linecap="round" stroke-linejoin="round" stroke-miterlimit="10" stroke-width="1.5"/>
        <path id="Trazado_1049291" data-name="Trazado 1049291" d="M326.6,419.112a2.769,2.769,0,0,0,4.218-1.945l1.371-9.606" transform="translate(-287.144 -358.091)" fill="none" stroke="#000" stroke-linecap="round" stroke-linejoin="round" stroke-miterlimit="10" stroke-width="1.5"/>
        <path id="Trazado_1049292" data-name="Trazado 1049292" d="M346.9,361.381h3.626a2.793,2.793,0,1,1,0,5.587H331.993" transform="translate(-291.867 -317.621)" fill="none" stroke="#000" stroke-linecap="round" stroke-linejoin="round" stroke-miterlimit="10" stroke-width="1.5"/>
        <path id="Trazado_1049293" data-name="Trazado 1049293" d="M30.143,189.4a8.374,8.374,0,0,1,4.131-6.925" transform="translate(-27.343 -160.835)" fill="none" stroke="#000" stroke-linecap="round" stroke-linejoin="round" stroke-miterlimit="10" stroke-width="1.5"/>
        <line id="Línea_1067" data-name="Línea 1067" y1="4.354" transform="translate(2.794 32.889)" fill="none" stroke="#000" stroke-linecap="round" stroke-linejoin="round" stroke-miterlimit="10" stroke-width="1.5"/>
        <path id="Trazado_1049294" data-name="Trazado 1049294" d="M132.153,182.461a8.376,8.376,0,0,1,4.139,7.228v1.442" transform="translate(-116.739 -160.826)" fill="none" stroke="#000" stroke-linecap="round" stroke-linejoin="round" stroke-miterlimit="10" stroke-width="1.5"/>
        <path id="Trazado_1049295" data-name="Trazado 1049295" d="M346.323,187.108v-1.442a8.384,8.384,0,0,1,5.3-7.8" transform="translate(-304.425 -156.803)" fill="none" stroke="#000" stroke-linecap="round" stroke-linejoin="round" stroke-miterlimit="10" stroke-width="1.5"/>
        <path id="Trazado_1049296" data-name="Trazado 1049296" d="M457.883,189.211a8.359,8.359,0,0,1,2.964,6.393v8.38" transform="translate(-402.19 -166.741)" fill="none" stroke="#000" stroke-linecap="round" stroke-linejoin="round" stroke-miterlimit="10" stroke-width="1.5"/>
        <circle id="Elipse_12957" data-name="Elipse 12957" cx="11.173" cy="11.173" r="11.173" transform="translate(0 0)" fill="none" stroke="#000" stroke-linecap="round" stroke-linejoin="round" stroke-miterlimit="10" stroke-width="1.5"/>
        <path id="Trazado_1049297" data-name="Trazado 1049297" d="M52.056,35.223h0c-2.316-.113-5.882.163-8.433,2.451A3.707,3.707,0,0,0,42.4,40.594c.116,2.777-.278,8.935-5.834,10.409" transform="translate(-32.969 -31.776)" fill="none" stroke="#000" stroke-linecap="round" stroke-linejoin="round" stroke-miterlimit="10" stroke-width="1.5"/>
        <path id="Trazado_1049298" data-name="Trazado 1049298" d="M333.678,316.129h10.875A7.448,7.448,0,0,0,352,308.681h-8.554" transform="translate(-293.344 -271.438)" fill="none" stroke="#000" stroke-linecap="round" stroke-linejoin="round" stroke-miterlimit="10" stroke-width="1.5"/>
        <path id="Trazado_1049299" data-name="Trazado 1049299" d="M44.5,407.561l-1.373,9.606a2.765,2.765,0,1,1-5.474-.781l1.26-8.824" transform="translate(-33.898 -358.091)" fill="none" stroke="#000" stroke-linecap="round" stroke-linejoin="round" stroke-miterlimit="10" stroke-width="1.5"/>
        <path id="Trazado_1049300" data-name="Trazado 1049300" d="M140.143,407.561l1.371,9.606a2.769,2.769,0,0,0,4.218,1.945" transform="translate(-123.741 -358.091)" fill="none" stroke="#000" stroke-linecap="round" stroke-linejoin="round" stroke-miterlimit="10" stroke-width="1.5"/>
        <path id="Trazado_1049301" data-name="Trazado 1049301" d="M13.922,361.381H10.3a2.793,2.793,0,1,0,0,5.587H28.828" transform="translate(-7.503 -317.621)" fill="none" stroke="#000" stroke-linecap="round" stroke-linejoin="round" stroke-miterlimit="10" stroke-width="1.5"/>
        <path id="Trazado_1049302" data-name="Trazado 1049302" d="M48.289,316.129H37.538a7.448,7.448,0,0,1-7.448-7.448h8.43" transform="translate(-27.297 -271.438)" fill="none" stroke="#000" stroke-linecap="round" stroke-linejoin="round" stroke-miterlimit="10" stroke-width="1.5"/>
        <path id="Trazado_1049303" data-name="Trazado 1049303" d="M199.3,335.206v19.072a1.855,1.855,0,0,1-1.855,1.855H182.533a1.855,1.855,0,0,1-1.855-1.855V335.206" transform="translate(-159.264 -294.683)" fill="none" stroke="#000" stroke-linecap="round" stroke-linejoin="round" stroke-miterlimit="10" stroke-width="1.5"/>
        <path id="Trazado_1049304" data-name="Trazado 1049304" d="M307.883,317.792h5.685a3.72,3.72,0,0,0,3.247-1.9" transform="translate(-270.739 -277.756)" fill="none" stroke="#000" stroke-linecap="round" stroke-linejoin="round" stroke-miterlimit="10" stroke-width="1.5"/>
        <path id="Trazado_1049305" data-name="Trazado 1049305" d="M131.833,315.891a3.72,3.72,0,0,0,3.247,1.9h14.195" transform="translate(-116.459 -277.756)" fill="none" stroke="#000" stroke-linecap="round" stroke-linejoin="round" stroke-miterlimit="10" stroke-width="1.5"/>
        <line id="Línea_1068" data-name="Línea 1068" x1="7.395" transform="translate(27.028 32.587)" fill="none" stroke="#000" stroke-linecap="round" stroke-linejoin="round" stroke-miterlimit="10" stroke-width="1.5"/>
        <path id="Trazado_1049306" data-name="Trazado 1049306" d="M74.208,222.3l1.866,5.265-4.683,2.077a7.419,7.419,0,0,1-9.612-3.4l-1.306-2.551a3.683,3.683,0,1,1,6.876-2.469l.265,1.2a1.855,1.855,0,0,0,2.431,1.35Z" transform="translate(-53.567 -192.254)" fill="none" stroke="#000" stroke-linecap="round" stroke-linejoin="round" stroke-miterlimit="10" stroke-width="1.5"/>
        <path id="Trazado_1049307" data-name="Trazado 1049307" d="M174.423,242.7l2.633-.933a2.793,2.793,0,0,1,1.866,5.265l-2.633.933" transform="translate(-153.782 -212.654)" fill="none" stroke="#000" stroke-linecap="round" stroke-linejoin="round" stroke-miterlimit="10" stroke-width="1.5"/>
        <path id="Trazado_1049308" data-name="Trazado 1049308" d="M332.318,61.211a10.246,10.246,0,0,0,11.038,14.606" transform="translate(-291.228 -54.569)" fill="none" stroke="#000" stroke-linecap="round" stroke-linejoin="round" stroke-miterlimit="10" stroke-width="1.5"/>
        <path id="Trazado_1049309" data-name="Trazado 1049309" d="M342.546,23.693v4.3a1.856,1.856,0,0,1-1.855,1.855h-5.6a1.856,1.856,0,0,1-1.855-1.855V18.328a4.309,4.309,0,0,0-4.309-4.309h-8.3a.93.93,0,0,1-.79-1.415,10.512,10.512,0,0,1,9.018-5.1h3.173a10.517,10.517,0,0,1,10.517,10.517v1.347" transform="translate(-281.096 -7.501)" fill="none" stroke="#000" stroke-linecap="round" stroke-linejoin="round" stroke-miterlimit="10" stroke-width="1.5"/>
        <path id="Trazado_1049310" data-name="Trazado 1049310" d="M324.295,222.3l-1.867,5.265,4.683,2.077a7.419,7.419,0,0,0,9.612-3.4l1.306-2.551a3.683,3.683,0,1,0-6.876-2.469l-.265,1.2a1.855,1.855,0,0,1-2.431,1.35Z" transform="translate(-283.485 -192.254)" fill="none" stroke="#000" stroke-linecap="round" stroke-linejoin="round" stroke-miterlimit="10" stroke-width="1.5"/>
        <path id="Trazado_1049311" data-name="Trazado 1049311" d="M292.451,242.7l-2.633-.933a2.793,2.793,0,1,0-1.866,5.265l2.633.933" transform="translate(-251.641 -212.654)" fill="none" stroke="#000" stroke-linecap="round" stroke-linejoin="round" stroke-miterlimit="10" stroke-width="1.5"/>
        <g id="Grupo_1206589" data-name="Grupo 1206589" transform="translate(13.252 10.242)">
          <line id="Línea_1069" data-name="Línea 1069" y2="1.484" fill="none" stroke="#000" stroke-linecap="round" stroke-linejoin="round" stroke-miterlimit="10" stroke-width="1.5"/>
          <path id="Trazado_1049312" data-name="Trazado 1049312" d="M162.972,102.248a2.82,2.82,0,0,0,2.079.972" transform="translate(-156.999 -100.774)" fill="none" stroke="#000" stroke-linecap="round" stroke-linejoin="round" stroke-miterlimit="10" stroke-width="1.5"/>
        </g>
        <g id="Grupo_1206590" data-name="Grupo 1206590" transform="translate(40.147 10.242)">
          <line id="Línea_1070" data-name="Línea 1070" y2="1.484" transform="translate(8.052)" fill="none" stroke="#000" stroke-linecap="round" stroke-linejoin="round" stroke-miterlimit="10" stroke-width="1.5"/>
          <path id="Trazado_1049313" data-name="Trazado 1049313" d="M332.163,103.22a2.82,2.82,0,0,0,2.079-.972" transform="translate(-332.163 -100.774)" fill="none" stroke="#000" stroke-linecap="round" stroke-linejoin="round" stroke-miterlimit="10" stroke-width="1.5"/>
        </g>
      </g>
    </g>
  </g>
</svg>
