<svg xmlns="http://www.w3.org/2000/svg" xmlns:xlink="http://www.w3.org/1999/xlink" width="113" height="113" viewBox="0 0 113 113">
  <defs>
    <filter id="Trazado_982547" x="0" y="0" width="113" height="113" filterUnits="userSpaceOnUse">
      <feOffset dy="3" input="SourceAlpha"/>
      <feGaussianBlur stdDeviation="3" result="blur"/>
      <feFlood flood-opacity="0.161"/>
      <feComposite operator="in" in2="blur"/>
      <feComposite in="SourceGraphic"/>
    </filter>
  </defs>
  <g id="Grupo_1206595" data-name="Grupo 1206595" transform="translate(-586.06 -10824.826)">
    <g id="Grupo_1204126" data-name="Grupo 1204126" transform="translate(0 6984.49)">
      <g id="Grupo_1203959" data-name="Grupo 1203959" transform="translate(0 1899.461)">
        <g id="Grupo_1203497" data-name="Grupo 1203497" transform="translate(595.061 1946.875)">
          <g id="Grupo_1172010" data-name="Grupo 1172010" transform="translate(0)">
            <g id="Grupo_1171046" data-name="Grupo 1171046">
              <g id="Grupo_1148525" data-name="Grupo 1148525">
                <g transform="matrix(1, 0, 0, 1, -9, -6)" filter="url(#Trazado_982547)">
                  <g id="Trazado_982547-2" data-name="Trazado 982547" transform="translate(9 6)" fill="#edf3fc">
                    <path d="M 47.5 93.5 C 41.28937149047852 93.5 35.26533508300781 92.28397369384766 29.59518623352051 89.88570404052734 C 24.11771965026855 87.56893157958984 19.19813346862793 84.25196075439453 14.97309303283691 80.02691650390625 C 10.74804019927979 75.80186462402344 7.431066513061523 70.88229370117188 5.114293098449707 65.40481567382812 C 2.716026782989502 59.73468017578125 1.5 53.71062850952148 1.5 47.5 C 1.5 41.28937149047852 2.716026782989502 35.26533508300781 5.114293098449707 29.59518623352051 C 7.431066513061523 24.11771965026855 10.74804019927979 19.19813346862793 14.97309303283691 14.97309303283691 C 19.19813346862793 10.74804019927979 24.11771965026855 7.431066513061523 29.59518623352051 5.114293098449707 C 35.26533508300781 2.716026782989502 41.28937149047852 1.5 47.5 1.5 C 53.71062850952148 1.5 59.73468017578125 2.716026782989502 65.40481567382812 5.114293098449707 C 70.88229370117188 7.431066513061523 75.80186462402344 10.74804019927979 80.02691650390625 14.97309303283691 C 84.25196075439453 19.19813346862793 87.56893157958984 24.11771965026855 89.88570404052734 29.59518623352051 C 92.28397369384766 35.26533508300781 93.5 41.28937149047852 93.5 47.5 C 93.5 53.71062850952148 92.28397369384766 59.73468017578125 89.88570404052734 65.40481567382812 C 87.56893157958984 70.88229370117188 84.25196075439453 75.80186462402344 80.02691650390625 80.02691650390625 C 75.80186462402344 84.25196075439453 70.88229370117188 87.56893157958984 65.40481567382812 89.88570404052734 C 59.73468017578125 92.28397369384766 53.71062850952148 93.5 47.5 93.5 Z" stroke="none"/>
                    <path d="M 47.5 3 C 41.49121475219727 3 35.66376876831055 4.176155090332031 30.17950439453125 6.495796203613281 C 24.88084411621094 8.736953735351562 20.12152099609375 11.94598388671875 16.03375244140625 16.03375244140625 C 11.94598388671875 20.12152099609375 8.736953735351562 24.88084411621094 6.495796203613281 30.17950439453125 C 4.176155090332031 35.66376876831055 3 41.49121475219727 3 47.5 C 3 53.50878524780273 4.176155090332031 59.33623123168945 6.495796203613281 64.82049560546875 C 8.736953735351562 70.11915588378906 11.94598388671875 74.87847900390625 16.03375244140625 78.96624755859375 C 20.12152099609375 83.05401611328125 24.88084411621094 86.26304626464844 30.17950439453125 88.50419616699219 C 35.66376876831055 90.82384490966797 41.49121475219727 92 47.5 92 C 53.50878524780273 92 59.33623123168945 90.82384490966797 64.82049560546875 88.50419616699219 C 70.11915588378906 86.26304626464844 74.87847900390625 83.05401611328125 78.96624755859375 78.96624755859375 C 83.05401611328125 74.87847900390625 86.26304626464844 70.11915588378906 88.50419616699219 64.82049560546875 C 90.82384490966797 59.33623123168945 92 53.50878524780273 92 47.5 C 92 41.49121475219727 90.82384490966797 35.66376876831055 88.50419616699219 30.17950439453125 C 86.26304626464844 24.88084411621094 83.05401611328125 20.12152099609375 78.96624755859375 16.03375244140625 C 74.87847900390625 11.94598388671875 70.11915588378906 8.736953735351562 64.82049560546875 6.495796203613281 C 59.33623123168945 4.176155090332031 53.50878524780273 3 47.5 3 M 47.5 0 C 73.7335205078125 0 95 21.2664794921875 95 47.5 C 95 73.7335205078125 73.7335205078125 95 47.5 95 C 21.2664794921875 95 0 73.7335205078125 0 47.5 C 0 21.2664794921875 21.2664794921875 0 47.5 0 Z" stroke="none" fill="#5692e8"/>
                  </g>
                </g>
              </g>
            </g>
          </g>
        </g>
      </g>
    </g>
    <g id="ecology_1552684" transform="translate(609.038 10844.038)">
      <g id="Grupo_1206594" data-name="Grupo 1206594" transform="translate(2.063 2.063)">
        <g id="Grupo_1206593" data-name="Grupo 1206593" transform="translate(0 0)">
          <path id="Trazado_1049314" data-name="Trazado 1049314" d="M23.077,40.259a2.323,2.323,0,0,0-2.318,2.318v.681a2.324,2.324,0,0,0,.032.383l1.1,6.582a25.613,25.613,0,0,1-6.061-4.338c.872-1.1,1.659-2.073,2.18-2.722a2.834,2.834,0,0,0,.627-1.786v-.351a2.868,2.868,0,0,0-2.86-2.86h-.021A2.856,2.856,0,0,0,13.5,39.3l-1.489,1.946A25.4,25.4,0,0,1,8,27.5c0-.362.011-.712.021-1.063h.84a4.5,4.5,0,0,1,4.328,3.254,5.765,5.765,0,0,0,10.346,1.616l1.574-2.35a5.8,5.8,0,0,0,.968-3.2V23.247a3.186,3.186,0,0,0-3.19-3.19,3.186,3.186,0,0,1-3.19-3.19V15.272A3.188,3.188,0,0,0,18.42,12.72l-3.53-2.648A25.371,25.371,0,0,1,29.542,2.3a6.232,6.232,0,0,0-.276,1.85,4.644,4.644,0,0,1-2.924,4.317,3.806,3.806,0,0,0,.213,7.145l.6.191a4.667,4.667,0,0,1,3.179,4.413,5.155,5.155,0,0,0,5.157,5.157h.532a5.136,5.136,0,0,0,4.944-3.732,5.114,5.114,0,0,1,4.923-3.711h.808a6.208,6.208,0,0,0,4.625-2.073l2.9-3.275a25.31,25.31,0,0,1,2.552,4.423l-6.2,6.2a3.76,3.76,0,0,0-1.106,2.658A3.757,3.757,0,0,1,45.7,29.626H44.79a3.747,3.747,0,0,0-2.828,1.287l-.712.819a22.485,22.485,0,0,0-3.477,5.359V36.006a2.142,2.142,0,0,0-2.127-2.127,2.133,2.133,0,0,0-2.127,2.127V31.753a2.142,2.142,0,0,0-2.127-2.127,2.133,2.133,0,0,0-2.127,2.127v20.2a2.553,2.553,0,0,1-2.509-2.095l-1.744-9.6Z" transform="translate(-1.62 -1.981)" fill="#69d6f4"/>
          <path id="Trazado_1049315" data-name="Trazado 1049315" d="M53.272,12.6l-2.9,3.275a6.208,6.208,0,0,1-4.625,2.073h-.808a5.114,5.114,0,0,0-4.923,3.711,5.136,5.136,0,0,1-4.944,3.732h-.532a5.155,5.155,0,0,1-5.157-5.157A4.667,4.667,0,0,0,26.2,15.823l-.6-.191a3.806,3.806,0,0,1-.213-7.145,4.644,4.644,0,0,0,2.924-4.317,6.232,6.232,0,0,1,.276-1.85A24.575,24.575,0,0,1,32.57,2,25.487,25.487,0,0,1,53.272,12.6Z" transform="translate(-0.671 -2)" fill="#b4dd7f"/>
          <path id="Trazado_1049316" data-name="Trazado 1049316" d="M47.26,42.287c.521.649,1.3,1.627,2.18,2.722a25.245,25.245,0,0,1-4.934,3.722V39.384a2.142,2.142,0,0,0-2.127-2.127,2.133,2.133,0,0,0-2.127,2.127V37.258a2.142,2.142,0,0,0-2.127-2.127A2.133,2.133,0,0,0,36,37.258V36.215a22.485,22.485,0,0,1,3.477-5.359l.712-.819a3.747,3.747,0,0,1,2.828-1.287h.914A3.757,3.757,0,0,0,47.7,24.987,3.76,3.76,0,0,1,48.8,22.329l6.2-6.2a24.266,24.266,0,0,1,1.531,4.434,25.528,25.528,0,0,1-3.275,19.809l-1.489-1.946a2.856,2.856,0,0,0-2.254-1.138h-.021a2.868,2.868,0,0,0-2.86,2.86V40.5A2.834,2.834,0,0,0,47.26,42.287Z" transform="translate(0.152 -1.106)" fill="#b4dd7f"/>
          <path id="Trazado_1049317" data-name="Trazado 1049317" d="M8.86,25.974H8.02a24.838,24.838,0,0,1,.712-5A25.23,25.23,0,0,1,14.889,9.61l3.53,2.648a3.188,3.188,0,0,1,1.276,2.552V16.4a3.186,3.186,0,0,0,3.19,3.19,3.186,3.186,0,0,1,3.19,3.19v2.509a5.8,5.8,0,0,1-.968,3.2l-1.574,2.35a5.765,5.765,0,0,1-10.346-1.616A4.5,4.5,0,0,0,8.86,25.974Z" transform="translate(-1.619 -1.518)" fill="#b4dd7f"/>
          <path id="Trazado_1049318" data-name="Trazado 1049318" d="M57.367,20a2.606,2.606,0,0,1,2.18,1.17l1.34,2.01a12.768,12.768,0,0,1,2.127,7.05v23.8H54.528A6.058,6.058,0,0,0,53.2,50.24c-1.17-1.457-2.913-3.626-4.391-5.476-.883-1.1-1.659-2.073-2.18-2.722A2.834,2.834,0,0,1,46,40.256V39.9a2.868,2.868,0,0,1,2.86-2.86h.021a2.856,2.856,0,0,1,2.254,1.138l1.489,1.946A25.528,25.528,0,0,0,55.9,20.319,2.691,2.691,0,0,1,57.165,20Z" transform="translate(0.785 -0.861)" fill="#f0d0b4"/>
          <path id="Trazado_1049319" data-name="Trazado 1049319" d="M41.266,38.633a2.133,2.133,0,0,1,2.127-2.127,2.142,2.142,0,0,1,2.127,2.127V53.094a4.242,4.242,0,0,1-.936,2.658L42.2,58.729a4.242,4.242,0,0,0-.936,2.658v2.765H26.38V61.387a4.242,4.242,0,0,0-.936-2.658l-2.626-3.286a4.141,4.141,0,0,1-.872-1.956L21.127,48.6l-1.1-6.582A2.325,2.325,0,0,1,20,41.631v-.681a2.323,2.323,0,0,1,2.318-2.318h1.935L26,48.234a2.553,2.553,0,0,0,2.509,2.095v-20.2A2.133,2.133,0,0,1,30.633,28a2.142,2.142,0,0,1,2.127,2.127V34.38a2.133,2.133,0,0,1,2.127-2.127,2.142,2.142,0,0,1,2.127,2.127v2.127a2.133,2.133,0,0,1,2.127-2.127,2.142,2.142,0,0,1,2.127,2.127Z" transform="translate(-0.861 -0.355)" fill="#f0d0b4"/>
          <path id="Trazado_1049320" data-name="Trazado 1049320" d="M12.388,40.128l1.489-1.946a2.856,2.856,0,0,1,2.254-1.138h.021a2.868,2.868,0,0,1,2.86,2.86v.351a2.834,2.834,0,0,1-.627,1.786c-.521.649-1.308,1.627-2.18,2.722-1.478,1.85-3.222,4.019-4.391,5.476a6.058,6.058,0,0,0-1.329,3.785H2v-23.8a12.768,12.768,0,0,1,2.127-7.05l1.34-2.01A2.606,2.606,0,0,1,7.646,20h.2a2.617,2.617,0,0,1,1.255.319h.011a24.838,24.838,0,0,0-.712,5c-.011.351-.021.7-.021,1.063A25.4,25.4,0,0,0,12.388,40.128Z" transform="translate(-2 -0.861)" fill="#f0d0b4"/>
        </g>
      </g>
      <path id="Trazado_1049321" data-name="Trazado 1049321" d="M64.614,23.788l-1.331-2a3.68,3.68,0,0,0-3.071-1.646h-.2a3.641,3.641,0,0,0-.515.065,26.576,26.576,0,0,0-51.067,0,3.641,3.641,0,0,0-.515-.065h-.2a3.683,3.683,0,0,0-3.072,1.646l-1.331,2A13.757,13.757,0,0,0,1,31.431v24.86H11.611V55.228a5.008,5.008,0,0,1,1.1-3.121l3.687-4.6a26.536,26.536,0,0,0,4.972,3.47l.733,4.394A5.337,5.337,0,0,0,23.19,57.82l2.63,3.287a3.2,3.2,0,0,1,.7,1.993v3.825H43.532V63.1a3.194,3.194,0,0,1,.7-1.993l2.388-2.987A5.338,5.338,0,0,0,47.785,54.8v-4.52a26.633,26.633,0,0,0,3.749-2.763l3.683,4.59a5.013,5.013,0,0,1,1.1,3.122v1.063H66.924V31.431A13.757,13.757,0,0,0,64.614,23.788Zm-9.259,15.64-.522-.69a3.951,3.951,0,0,0-3.1-1.555,4,4,0,0,0-2.793,1.138,3.9,3.9,0,0,0-1.16,2.785v-.765a3.179,3.179,0,0,0-4.376-2.956A3.179,3.179,0,0,0,40.59,35.05a21.331,21.331,0,0,1,1.9-2.537l.718-.82a2.7,2.7,0,0,1,2.03-.921h.914a4.827,4.827,0,0,0,4.823-4.822,2.681,2.681,0,0,1,.789-1.906l5.08-5.08a24.422,24.422,0,0,1-1.489,20.465Zm-2.07-26.811L50.963,15.23a5.128,5.128,0,0,1-3.829,1.719h-.811a6.2,6.2,0,0,0-5.936,4.479,4.1,4.1,0,0,1-3.93,2.964h-.532A4.1,4.1,0,0,1,31.835,20.3a5.712,5.712,0,0,0-3.911-5.425l-.6-.2a2.739,2.739,0,0,1-.15-5.143,5.69,5.69,0,0,0,3.593-5.308,5.32,5.32,0,0,1,.084-.9,24.335,24.335,0,0,1,22.429,9.287ZM23.329,21.2a2.129,2.129,0,0,1,2.127,2.127v2.505a4.687,4.687,0,0,1-.791,2.611L23.094,30.8a4.708,4.708,0,0,1-8.445-1.318,5.566,5.566,0,0,0-5.046-4A24.346,24.346,0,0,1,15.48,11.594l2.744,2.059a2.137,2.137,0,0,1,.852,1.7v1.595A4.257,4.257,0,0,0,23.329,21.2ZM11.047,50.776a7.134,7.134,0,0,0-1.482,3.389H3.127V31.431a11.642,11.642,0,0,1,1.954-6.466l1.331-2a1.556,1.556,0,0,1,1.3-.7h.2a26.558,26.558,0,0,0,3.2,18.883,1.636,1.636,0,0,1-1.709-.02L6.9,39.448,5.715,41.216,8.227,42.9a3.816,3.816,0,0,0,5.023-.845l1.535-2.028a1.808,1.808,0,0,1,1.417-.711,1.659,1.659,0,0,1,1.279.521,1.785,1.785,0,0,1,.531,1.274v.356a1.761,1.761,0,0,1-.392,1.12Zm6.679-4.926,1.552-1.936a3.926,3.926,0,0,0,.861-2.452v-.356a3.923,3.923,0,0,0-3.953-3.921,3.949,3.949,0,0,0-3.1,1.555l-.523.69A24.38,24.38,0,0,1,9.506,27.6a3.435,3.435,0,0,1,3.1,2.468,6.836,6.836,0,0,0,12.261,1.915l1.57-2.356a6.808,6.808,0,0,0,1.148-3.791V23.329a4.257,4.257,0,0,0-4.253-4.253A2.129,2.129,0,0,1,21.2,16.949V15.354a4.272,4.272,0,0,0-1.7-3.4l-2.552-1.914A24.423,24.423,0,0,1,28.685,3.706c-.013.174-.039.348-.039.523a3.573,3.573,0,0,1-2.256,3.333,4.867,4.867,0,0,0,.269,9.137l.6.2A3.584,3.584,0,0,1,29.71,20.3a6.221,6.221,0,0,0,6.215,6.215h.532a6.24,6.24,0,0,0,5.976-4.507,4.064,4.064,0,0,1,3.891-2.936h.811a7.254,7.254,0,0,0,5.417-2.433L54.545,14.4a24.429,24.429,0,0,1,1.393,2.463l-5.677,5.677a4.792,4.792,0,0,0-1.413,3.411,2.7,2.7,0,0,1-2.7,2.7h-.914a4.826,4.826,0,0,0-3.63,1.647l-.719.821a23.288,23.288,0,0,0-2.256,3.071,3.115,3.115,0,0,0-3.608-1.09V31.835a3.19,3.19,0,0,0-6.38,0v18.69a1.487,1.487,0,0,1-.4-.771l-1.9-10.477H23.521a3.386,3.386,0,0,0-3.382,3.382v.679a3.459,3.459,0,0,0,.046.555l.727,4.361A24.5,24.5,0,0,1,17.726,45.849ZM45.658,54.8a3.194,3.194,0,0,1-.7,1.993L42.57,59.779A5.338,5.338,0,0,0,41.4,63.1v1.7H28.645V63.1a5.343,5.343,0,0,0-1.165-3.322L24.85,56.491a3.191,3.191,0,0,1-.654-1.467L22.282,43.546a1.341,1.341,0,0,1-.016-.207V42.66A1.256,1.256,0,0,1,23.521,41.4h1.046l1.587,8.731A3.61,3.61,0,0,0,29.709,53.1h1.063V31.835a1.063,1.063,0,0,1,2.127,0V50.975h2.127V36.088a1.063,1.063,0,1,1,2.127,0V50.975h2.127V38.215a1.063,1.063,0,1,1,2.127,0V50.975h2.127V40.342a1.063,1.063,0,1,1,2.127,0Zm2.127-7.051V41.461a3.926,3.926,0,0,0,.859,2.451L50.2,45.854A24.384,24.384,0,0,1,47.785,47.749ZM64.8,54.164H58.359a7.145,7.145,0,0,0-1.483-3.389L50.3,42.581a1.771,1.771,0,0,1-.39-1.12v-.356A1.8,1.8,0,0,1,51.7,39.31h.015a1.808,1.808,0,0,1,1.417.711l1.535,2.029a3.816,3.816,0,0,0,5.023.844l2.513-1.68-1.181-1.767-2.513,1.68a1.634,1.634,0,0,1-1.709.021,26.54,26.54,0,0,0,3.2-18.883h.2a1.559,1.559,0,0,1,1.3.7l1.331,2A11.642,11.642,0,0,1,64.8,31.431Z" transform="translate(0 0)"/>
    </g>
  </g>
</svg>
