<svg xmlns="http://www.w3.org/2000/svg" width="295" height="113.247" viewBox="0 0 295 113.247">
  <g id="Grupo_1206306" data-name="Grupo 1206306" transform="translate(-1125 -765.753)">
    <g id="Grupo_1202448" data-name="Grupo 1202448" transform="translate(105.204 -3075)">
      <g id="Grupo_1202236" data-name="Grupo 1202236" transform="translate(1019.796 3850)">
        <rect id="Rect치ngulo_417636" data-name="Rect치ngulo 417636" width="295" height="82" rx="3" transform="translate(0 11)" fill="#2f4f7e"/>
        <rect id="Rect치ngulo_417637" data-name="Rect치ngulo 417637" width="215" height="104" rx="3" transform="translate(40)" fill="#5692e8"/>
      </g>
    </g>
    <g id="pediatrician_5745350" transform="translate(1219.683 765.753)">
      <path id="Trazado_1048850" data-name="Trazado 1048850" d="M192.732,256.207A7.351,7.351,0,0,1,189.317,250v-4.043H169.278V250a7.351,7.351,0,0,1-3.414,6.208L179.2,281.121Z" transform="translate(-128.549 -190.908)" fill="#ffa78f"/>
      <path id="Trazado_1048851" data-name="Trazado 1048851" d="M127.6,328.89l-1.821-18.441A17.841,17.841,0,0,0,112.388,294.9l-8.8-2.221a7.336,7.336,0,0,1-2.153-.922L88,310.568,74.563,291.761a7.339,7.339,0,0,1-2.153.922l-8.959,2.24a17.841,17.841,0,0,0-13.427,15.555l-1.785,18.078a.3.3,0,0,0,.3.334H63.568v9.161h48.855V328.89Z" transform="translate(-37.249 -226.462)" fill="#d6e5ea"/>
      <path id="Trazado_1048852" data-name="Trazado 1048852" d="M122.957,133.429h-5.19a4.24,4.24,0,0,0-4.24,4.24A8.331,8.331,0,0,0,121.858,146h.16Z" transform="translate(-87.926 -103.566)" fill="#ffb09e"/>
      <path id="Trazado_1048853" data-name="Trazado 1048853" d="M296.113,133.429h5.19a4.24,4.24,0,0,1,4.24,4.24A8.331,8.331,0,0,1,297.212,146h-.16Z" transform="translate(-229.647 -103.566)" fill="#ffa78f"/>
      <path id="Trazado_1048854" data-name="Trazado 1048854" d="M302.59,292.354h-3.108a3.821,3.821,0,0,0-3.821,3.821,7.507,7.507,0,0,0,7.507,7.507h.144Z" transform="translate(-229.296 -226.922)" fill="#ffe5c2"/>
      <path id="Trazado_1048855" data-name="Trazado 1048855" d="M449.317,292.354h-3.108l-.723,11.328h.144a7.507,7.507,0,0,0,7.508-7.508,3.821,3.821,0,0,0-3.821-3.821Z" transform="translate(-345.589 -226.922)" fill="#fed2a4"/>
      <path id="Trazado_1048856" data-name="Trazado 1048856" d="M160.68,74.495a17.725,17.725,0,0,1-17.689-16.6l-1.075-16.843a18.8,18.8,0,1,1,37.527,0L178.369,57.9A17.725,17.725,0,0,1,160.68,74.495Z" transform="translate(-109.932 -16.344)" fill="#ffcebf"/>
      <path id="Trazado_1048857" data-name="Trazado 1048857" d="M173.031,21.056a18.763,18.763,0,0,0-15.241,7.791h7.339a3.257,3.257,0,0,1,2.913,1.8l.261.523a6.957,6.957,0,0,0,6.169,3.784A2.772,2.772,0,0,1,177,36.7l3.649,9.123A17.7,17.7,0,0,1,164.183,70.07,17.81,17.81,0,0,1,161,69.785,17.724,17.724,0,0,0,190.72,57.9l1.075-16.843a18.8,18.8,0,0,0-18.763-20Z" transform="translate(-122.282 -16.343)" fill="#ffb09e"/>
      <path id="Trazado_1048858" data-name="Trazado 1048858" d="M162.313,476.3H116.434v4.424h48.855v-5.152A6.411,6.411,0,0,1,162.313,476.3Z" transform="translate(-90.182 -369.132)" fill="#96a8ae"/>
      <path id="Trazado_1048859" data-name="Trazado 1048859" d="M44.221,424.456H13.868a.242.242,0,0,1-.233-.176L7.666,403.39a.242.242,0,0,1,.233-.309H38.114Z" transform="translate(-5.75 -312.868)" fill="#fd6930"/>
      <path id="Trazado_1048860" data-name="Trazado 1048860" d="M54.638,403.081H47.054l2.579,9.027a6.216,6.216,0,0,1-5.977,7.924H28.945l1.214,4.248a.242.242,0,0,0,.233.176H60.745Z" transform="translate(-22.274 -312.868)" fill="#fd5426"/>
      <path id="Trazado_1048861" data-name="Trazado 1048861" d="M52.927,389.437H41.034a.242.242,0,0,0-.233.309l1.607,5.623a.242.242,0,0,0,.233.176H54.672Z" transform="translate(-31.469 -302.277)" fill="#b4d2e2"/>
      <path id="Trazado_1048862" data-name="Trazado 1048862" d="M350.186,376.735c4.69,0,8.762-4.679,10.809-8.557L360.37,368a3.8,3.8,0,0,1-2.754-3.651v-4.391a13.148,13.148,0,0,1-14.861,0v4.391A3.8,3.8,0,0,1,340,368l-.626.179C341.424,372.057,345.5,376.735,350.186,376.735Z" transform="translate(-263.228 -279.397)" fill="#fed2a4"/>
      <path id="Trazado_1048863" data-name="Trazado 1048863" d="M316.15,397.7l-3.566-1.019a12.219,12.219,0,0,1-21.618,0L287.4,397.7a14.331,14.331,0,0,0-10.394,13.78v8.008h49.37a.165.165,0,0,0,.165-.165v-7.843A14.33,14.33,0,0,0,316.15,397.7Z" transform="translate(-214.818 -307.903)" fill="#fed402"/>
      <path id="Trazado_1048864" data-name="Trazado 1048864" d="M316.152,397.7l-3.566-1.019q-.272.515-.591,1a14.316,14.316,0,0,1,3.491,9.374v2.917a5.092,5.092,0,0,1-5.092,5.092H277.01v4.424h49.37a.165.165,0,0,0,.165-.165v-7.843a14.331,14.331,0,0,0-10.394-13.78Z" transform="translate(-214.82 -307.903)" fill="#fac600"/>
      <path id="Trazado_1048865" data-name="Trazado 1048865" d="M348.236,220.509l.368-5.144a15.813,15.813,0,1,0-31.545,0l.388,5.433Z" transform="translate(-245.873 -154.016)" fill="#855151"/>
      <path id="Trazado_1048866" data-name="Trazado 1048866" d="M344.957,245.293l-4.172-8.345-.085.113a34.048,34.048,0,0,1-16.471,11.872l-5.294,1.765.224,3.139a15.2,15.2,0,0,0,30.32,0l.245-3.427A12.383,12.383,0,0,1,344.957,245.293Z" transform="translate(-247.361 -183.917)" fill="#fff3de"/>
      <path id="Trazado_1048867" data-name="Trazado 1048867" d="M360.685,245.293l-4.172-8.345-.085.113a34.042,34.042,0,0,1-4.156,4.6,12.371,12.371,0,0,0,2.134,2.666,6.367,6.367,0,0,1,1.953,5.085A15.208,15.208,0,0,1,339.2,263.4a15.2,15.2,0,0,0,26.01-9.56l.245-3.427A12.38,12.38,0,0,1,360.685,245.293Z" transform="translate(-263.089 -183.917)" fill="#ffe5c2"/>
      <g id="Grupo_1206305" data-name="Grupo 1206305" transform="translate(35.481 29.141)">
        <path id="Trazado_1048868" data-name="Trazado 1048868" d="M168.666,139.367h-9.781a1.217,1.217,0,0,1-1.217-1.217v-6.728a1.217,1.217,0,0,1,1.217-1.217h9.781a1.217,1.217,0,0,1,1.217,1.217v6.728A1.217,1.217,0,0,1,168.666,139.367Z" transform="translate(-157.668 -130.206)" fill="#c8effe"/>
        <path id="Trazado_1048869" data-name="Trazado 1048869" d="M240.748,139.367h9.781a1.217,1.217,0,0,0,1.217-1.217v-6.728a1.217,1.217,0,0,0-1.217-1.217h-9.781a1.217,1.217,0,0,0-1.217,1.217v6.728A1.217,1.217,0,0,0,240.748,139.367Z" transform="translate(-221.209 -130.206)" fill="#c8effe"/>
        <path id="Trazado_1048870" data-name="Trazado 1048870" d="M168.666,139.367h-9.781a1.217,1.217,0,0,1-1.217-1.217v-6.728a1.217,1.217,0,0,1,1.217-1.217h9.781a1.217,1.217,0,0,1,1.217,1.217v6.728A1.217,1.217,0,0,1,168.666,139.367Z" transform="translate(-157.668 -130.206)" fill="#c8effe"/>
      </g>
      <path id="Trazado_1048871" data-name="Trazado 1048871" d="M265.9,130.206h-6.567l.134.334a17.593,17.593,0,0,1,1.223,7.655q-.038.592-.113,1.171h5.324a1.217,1.217,0,0,0,1.217-1.217v-6.728A1.216,1.216,0,0,0,265.9,130.206Z" transform="translate(-201.095 -101.065)" fill="#99e6fc"/>
      <path id="Trazado_1048872" data-name="Trazado 1048872" d="M161.849,7.413H151.757a5.359,5.359,0,0,0-5.36,5.36v.02a1.177,1.177,0,0,1-.651,1.053l-3.1,1.552a5.983,5.983,0,0,0-3.3,5.732l1.391,21.8L146.4,28.788V26.753a4.072,4.072,0,0,1,4.072-4.072h9.183a3.257,3.257,0,0,1,2.913,1.8l.261.523A6.957,6.957,0,0,0,169,28.788a2.772,2.772,0,0,1,2.528,1.742l5.125,12.812,1.2-18.873a16.036,16.036,0,0,0-16-17.057Z" transform="translate(-107.958 -5.754)" fill="#0681af"/>
      <path id="Trazado_1048873" data-name="Trazado 1048873" d="M52.927,389.437H41.034a.242.242,0,0,0-.233.309l1.607,5.623a.242.242,0,0,0,.233.176H54.672Z" transform="translate(-31.469 -302.277)" fill="#b4d2e2"/>
      <path id="Trazado_1048874" data-name="Trazado 1048874" d="M197.668,212.313a10.749,10.749,0,0,0,7.651-3.169,1.659,1.659,0,1,0-2.346-2.346,7.5,7.5,0,0,1-10.609,0,1.659,1.659,0,1,0-2.346,2.346A10.751,10.751,0,0,0,197.668,212.313Z" transform="translate(-146.919 -160.137)"/>
      <path id="Trazado_1048875" data-name="Trazado 1048875" d="M101.788,88.206l-4.19-1.2a2.147,2.147,0,0,1-1.55-2.055v-1.94a17.072,17.072,0,0,0,4.784-4.629,9.179,9.179,0,0,0,8.376-9.133,5.487,5.487,0,0,0-4.989-5.458l.166-2.327a17.472,17.472,0,0,0-29.651-13.73,1.659,1.659,0,1,0,2.322,2.37,14.154,14.154,0,0,1,24.019,11.124l-.145,2.03a10.718,10.718,0,0,1-1.851-2.627l-4.172-8.345a1.659,1.659,0,0,0-2.811-.253l-.085.114A32.241,32.241,0,0,1,76.343,63.443l-3.267,1.089-.236-3.3a14.1,14.1,0,0,1,.562-5.1,1.659,1.659,0,0,0-3.177-.959,17.41,17.41,0,0,0-.695,6.293l.166,2.328a5.446,5.446,0,0,0-2.572.915l-.387-.1a5.679,5.679,0,0,1-4.311-5.521V55.88a19.4,19.4,0,0,0,7.4-12.044A9.941,9.941,0,0,0,77.555,34.1a5.905,5.905,0,0,0-5.9-5.9h-.7l.6-9.381A17.7,17.7,0,0,0,53.891,0H43.8a7.03,7.03,0,0,0-7.012,6.738L33.943,8.16a7.627,7.627,0,0,0-4.209,7.321l.213,3.341a1.659,1.659,0,1,0,3.311-.211l-.213-3.341a4.316,4.316,0,0,1,2.381-4.143l3.1-1.552A2.829,2.829,0,0,0,40.1,7.018a3.7,3.7,0,0,1,3.7-3.7H53.89A14.378,14.378,0,0,1,68.239,18.611L67.544,29.5a2.882,2.882,0,0,0-.81-1.266L65.105,24.16a4.42,4.42,0,0,0-4.041-2.785,5.3,5.3,0,0,1-4.712-2.868l-.261-.523a4.889,4.889,0,0,0-4.4-2.717H42.511A5.738,5.738,0,0,0,36.78,21v1.716l-2.35,5.876a2.874,2.874,0,0,0-.477.907l-.2-3.068a1.659,1.659,0,1,0-3.311.211l.1,1.563h-.7a5.905,5.905,0,0,0-5.9,5.9,9.941,9.941,0,0,0,7.725,9.733,19.4,19.4,0,0,0,7.4,12.044V59.09a5.679,5.679,0,0,1-4.311,5.521L25.8,66.851a19.543,19.543,0,0,0-14.676,17L10.961,85.5h-1.4a1.9,1.9,0,0,0-1.828,2.424l.18.63H2.149A1.9,1.9,0,0,0,.321,90.977l5.969,20.89a1.909,1.909,0,0,0,1.828,1.38H111.561a1.826,1.826,0,0,0,1.824-1.824v-7.843a16.056,16.056,0,0,0-11.6-15.373Zm-6.5,1.368a10.562,10.562,0,0,1-16.662,0,5.483,5.483,0,0,0,2.56-4.621v-.284a16.733,16.733,0,0,0,11.543,0v.284a5.483,5.483,0,0,0,2.559,4.621Zm10.6-20.321a5.853,5.853,0,0,1-3.01,5.112,16.7,16.7,0,0,0,.893-4.325l.21-2.934a2.165,2.165,0,0,1,1.907,2.147Zm-28.5-2.662A35.521,35.521,0,0,0,93.1,56.088l3.015,6.03a14.014,14.014,0,0,0,4.526,5.237l-.175,2.447a13.54,13.54,0,0,1-27.011,0l-.132-1.854ZM64.7,67.427q.139.057.28.109a5.457,5.457,0,0,0-.275,1.716,9.142,9.142,0,0,0,.342,2.485L53.645,87.7H50.22L64.7,67.427Zm3.322,1.825a2.165,2.165,0,0,1,1.91-2.147l.209,2.933a16.7,16.7,0,0,0,.893,4.327,5.853,5.853,0,0,1-3.012-5.113ZM55.461,30.8h8.9v5.843h-8.9Zm16.2.721A2.584,2.584,0,0,1,74.237,34.1a6.642,6.642,0,0,1-4.054,6.145c.164-2.571.374-5.858.557-8.726h.917ZM39.98,23.65a1.66,1.66,0,0,0,.119-.616V21a2.416,2.416,0,0,1,2.413-2.413h9.183a1.589,1.589,0,0,1,1.429.884l.261.523a8.609,8.609,0,0,0,7.625,4.7,1.11,1.11,0,0,1,1.015.7l.836,2.09H55.019a2.879,2.879,0,0,0-2.876,2.876v.178H49.354v-.178a2.879,2.879,0,0,0-2.876-2.876H38.447ZM37.14,30.8h8.9v5.843h-8.9ZM27.26,34.1a2.584,2.584,0,0,1,2.581-2.581h.917l.557,8.726A6.642,6.642,0,0,1,27.26,34.1Zm7.455,7.347-.156-2.442a2.869,2.869,0,0,0,2.138.954h9.781a2.879,2.879,0,0,0,2.876-2.876V33.854h2.789v.553a1.659,1.659,0,0,0-1.482,1.649v3.567A1.062,1.062,0,0,1,49.6,40.685h-.423a1.659,1.659,0,0,0,0,3.318H49.6a4.384,4.384,0,0,0,4.377-4.237,2.862,2.862,0,0,0,1.042.2H64.8a2.869,2.869,0,0,0,2.137-.954l-.156,2.442a16.066,16.066,0,0,1-32.066,0ZM14.426,84.179A16.217,16.217,0,0,1,26.605,70.071l8.959-2.24a9.028,9.028,0,0,0,1.232-.4l2.916,4.083a1.659,1.659,0,1,0,2.7-1.929l-2.826-3.957a8.96,8.96,0,0,0,2.8-6.534V57.907a19.316,19.316,0,0,0,16.721,0V59.09a8.961,8.961,0,0,0,2.8,6.534L50.748,81.252,46.91,75.878a1.659,1.659,0,0,0-2.7,1.929l4.5,6.3L47,86.506,36.269,71.489a1.659,1.659,0,0,0-2.7,1.929c12.957,18.14,12.1,16.944,12.166,17.022a1.658,1.658,0,0,0,1.2.579c.041,0,.061,0,.085,0H54.5a1.659,1.659,0,0,0,1.35-.695L66.767,75.039a9.159,9.159,0,0,0,6.316,3.347,17.07,17.07,0,0,0,4.785,4.629v1.939a2.147,2.147,0,0,1-1.55,2.055l-4.19,1.2a16.074,16.074,0,0,0-11.346,12.564H56.761a1.659,1.659,0,0,0-1.659,1.659v3.054a1.659,1.659,0,0,0,3.318,0v-1.395h2.111v5.843H39.722L33.959,89.758a1.659,1.659,0,0,0-1.6-1.2H23.582l-.529-1.85a1.659,1.659,0,0,0-1.6-1.2H14.3ZM21,91.608H12.24l-.8-2.789h8.764ZM9.186,109.93,4.027,91.872H8.865l.479,1.676a1.91,1.91,0,0,0,1.828,1.378H23.2a1.659,1.659,0,0,0,1.6-2.115l-.268-.939h6.583l5.159,18.057Zm100.881,0h-6.182v-4.448a1.659,1.659,0,1,0-3.318,0v4.448H73.349v-4.448a1.659,1.659,0,1,0-3.318,0v4.448H63.85v-6.349A12.726,12.726,0,0,1,73.041,91.4l2.334-.667a13.878,13.878,0,0,0,23.166,0l2.336.667h0a12.725,12.725,0,0,1,9.191,12.184Z" transform="translate(0 0)"/>
      <path id="Trazado_1048876" data-name="Trazado 1048876" d="M375.6,296.3h.381a4.113,4.113,0,0,0,4.108-4.108v-3.211a1.659,1.659,0,0,0-3.318,0v3.211a.791.791,0,0,1-.79.79H375.6a1.659,1.659,0,0,0,0,3.318Z" transform="translate(-290.057 -223.017)"/>
      <path id="Trazado_1048877" data-name="Trazado 1048877" d="M369.183,333.041a1.659,1.659,0,1,0-2.346-2.346,6.316,6.316,0,0,1-8.923,0,1.659,1.659,0,1,0-2.346,2.346A9.639,9.639,0,0,0,369.183,333.041Z" transform="translate(-275.418 -256.305)"/>
    </g>
  </g>
</svg>
