<svg xmlns="http://www.w3.org/2000/svg" xmlns:xlink="http://www.w3.org/1999/xlink" width="98" height="98" viewBox="0 0 98 98">
  <defs>
    <filter id="Trazado_982547" x="0" y="0" width="98" height="98" filterUnits="userSpaceOnUse">
      <feOffset dy="3" input="SourceAlpha"/>
      <feGaussianBlur stdDeviation="3" result="blur"/>
      <feFlood flood-opacity="0.161"/>
      <feComposite operator="in" in2="blur"/>
      <feComposite in="SourceGraphic"/>
    </filter>
  </defs>
  <g id="Grupo_1206696" data-name="Grupo 1206696" transform="translate(-505.561 -1950)">
    <g id="Grupo_1204570" data-name="Grupo 1204570" transform="translate(233.561 -1890.336)">
      <g id="Grupo_1203962" data-name="Grupo 1203962" transform="translate(281 3846.336)">
        <g id="Grupo_1203498" data-name="Grupo 1203498" transform="translate(0)">
          <g id="Grupo_1202589" data-name="Grupo 1202589">
            <g id="Grupo_1172010" data-name="Grupo 1172010">
              <g id="Grupo_1171046" data-name="Grupo 1171046">
                <g id="Grupo_1148525" data-name="Grupo 1148525">
                  <g transform="matrix(1, 0, 0, 1, -9, -6)" filter="url(#Trazado_982547)">
                    <g id="Trazado_982547-2" data-name="Trazado 982547" transform="translate(9 6)" fill="#fdfbec">
                      <path d="M 39.99999237060547 78.49998474121094 C 34.8018684387207 78.49998474121094 29.76002502441406 77.48226165771484 25.0145263671875 75.47508239746094 C 20.43014717102051 73.53604888916016 16.31264877319336 70.75984954833984 12.77639198303223 67.22359466552734 C 9.240137100219727 63.68733596801758 6.463936805725098 59.5698356628418 4.524903297424316 54.98546981811523 C 2.517725706100464 50.23995971679688 1.500003457069397 45.19811630249023 1.500003457069397 39.99999237060547 C 1.500003457069397 34.8018684387207 2.517725706100464 29.76002502441406 4.524903297424316 25.0145263671875 C 6.463936805725098 20.43014717102051 9.240137100219727 16.31264877319336 12.77639198303223 12.77639198303223 C 16.31264877319336 9.240137100219727 20.43014717102051 6.463936805725098 25.0145263671875 4.524903297424316 C 29.76002502441406 2.517725706100464 34.8018684387207 1.500003457069397 39.99999237060547 1.500003457069397 C 45.19811630249023 1.500003457069397 50.23995971679688 2.517725706100464 54.98546981811523 4.524903297424316 C 59.5698356628418 6.463936805725098 63.68733596801758 9.240137100219727 67.22359466552734 12.77639198303223 C 70.75984954833984 16.31264877319336 73.53604888916016 20.43014717102051 75.47508239746094 25.0145263671875 C 77.48226165771484 29.76002502441406 78.49998474121094 34.8018684387207 78.49998474121094 39.99999237060547 C 78.49998474121094 45.19812393188477 77.48226165771484 50.23995971679688 75.47508239746094 54.98546981811523 C 73.53604888916016 59.5698356628418 70.75984954833984 63.68733596801758 67.22359466552734 67.22359466552734 C 63.68733596801758 70.75984954833984 59.5698356628418 73.53604888916016 54.98546981811523 75.47508239746094 C 50.23995971679688 77.48226165771484 45.19812393188477 78.49998474121094 39.99999237060547 78.49998474121094 Z" stroke="none"/>
                      <path d="M 39.99999237060547 2.999992370605469 C 35.00370025634766 2.999992370605469 30.1584587097168 3.97784423828125 25.59884643554688 5.906402587890625 C 21.19327163696289 7.769805908203125 17.23603057861328 10.43805694580078 13.83704376220703 13.83704376220703 C 10.43805694580078 17.23603057861328 7.769805908203125 21.19327163696289 5.906402587890625 25.59884643554688 C 3.97784423828125 30.1584587097168 2.999992370605469 35.00370025634766 2.999992370605469 39.99999237060547 C 2.999992370605469 44.99628448486328 3.97784423828125 49.84152603149414 5.906402587890625 54.40113830566406 C 7.769805908203125 58.80671310424805 10.43805694580078 62.76395416259766 13.83704376220703 66.16294097900391 C 17.23603057861328 69.56191253662109 21.19327163696289 72.23016357421875 25.59884643554688 74.09356689453125 C 30.1584587097168 76.02212524414062 35.00370025634766 76.99997711181641 39.99999237060547 76.99997711181641 C 44.99628448486328 76.99997711181641 49.84152603149414 76.02212524414062 54.40113830566406 74.09356689453125 C 58.80671310424805 72.23016357421875 62.76395416259766 69.56191253662109 66.16294097900391 66.16294097900391 C 69.56191253662109 62.76395416259766 72.23016357421875 58.80671310424805 74.09356689453125 54.40113830566406 C 76.02212524414062 49.84152603149414 76.99997711181641 44.99628448486328 76.99997711181641 39.99999237060547 C 76.99997711181641 35.00370025634766 76.02212524414062 30.1584587097168 74.09356689453125 25.59884643554688 C 72.23016357421875 21.19327163696289 69.56191253662109 17.23603057861328 66.16294097900391 13.83704376220703 C 62.76395416259766 10.43805694580078 58.80671310424805 7.769805908203125 54.40113830566406 5.906402587890625 C 49.84152603149414 3.97784423828125 44.99628448486328 2.999992370605469 39.99999237060547 2.999992370605469 M 39.99999237060547 -7.62939453125e-06 C 62.09137725830078 -7.62939453125e-06 79.99997711181641 17.90860748291016 79.99997711181641 39.99999237060547 C 79.99997711181641 62.09137725830078 62.09137725830078 79.99997711181641 39.99999237060547 79.99997711181641 C 17.90860748291016 79.99997711181641 -7.62939453125e-06 62.09137725830078 -7.62939453125e-06 39.99999237060547 C -7.62939453125e-06 17.90860748291016 17.90860748291016 -7.62939453125e-06 39.99999237060547 -7.62939453125e-06 Z" stroke="none" fill="#83793c"/>
                    </g>
                  </g>
                </g>
              </g>
            </g>
          </g>
        </g>
      </g>
    </g>
    <g id="fight_7408185_1_" data-name="fight_7408185 (1)" transform="translate(485.188 1961.257)">
      <g id="Grupo_1206694" data-name="Grupo 1206694" transform="translate(44.46 7.5)">
        <path id="Trazado_1049541" data-name="Trazado 1049541" d="M94.082,220.937a2.437,2.437,0,0,1,2.437-2.437h0a2.437,2.437,0,0,1,2.437,2.437l.011,12.8a4.341,4.341,0,0,1-1.936,3.617h0a.54.54,0,0,0-.241.45v3.545H83.253a0,0,0,0,1,0,0v-3.03a3.25,3.25,0,0,0-1.044-2.386L79.46,233.4V220.937A2.437,2.437,0,0,1,81.9,218.5h0a2.437,2.437,0,0,1,2.437,2.437,2.437,2.437,0,0,1,2.437-2.437h0a2.437,2.437,0,0,1,2.437,2.437,2.437,2.437,0,0,1,2.437-2.437h0A2.437,2.437,0,0,1,94.082,220.937Z" transform="translate(-75.669 -195.646)" fill="#fef0ae"/>
        <path id="Trazado_1049542" data-name="Trazado 1049542" d="M214.886,233.742a4.343,4.343,0,0,1-1.936,3.618.539.539,0,0,0-.242.449v3.545H209.46v-3.545a.539.539,0,0,1,.242-.449,4.343,4.343,0,0,0,1.936-3.618l-.011-12.8a2.429,2.429,0,0,0-.714-1.723c-.031-.031-.065-.063-.1-.092a2.436,2.436,0,0,1,4.062,1.815Z" transform="translate(-191.589 -195.646)" fill="#ffe270"/>
        <path id="Trazado_1049543" data-name="Trazado 1049543" d="M48.251,266.209l-3.09-2.839a2.166,2.166,0,0,1-.7-1.6v-3.338a2.166,2.166,0,0,1,1.271-1.973L48.3,255.3Z" transform="translate(-44.46 -228.458)" fill="#ffe270"/>
        <path id="Trazado_1049544" data-name="Trazado 1049544" d="M115.635,429.5H101.121a1.083,1.083,0,0,0-1.083,1.083v5.957a1.083,1.083,0,0,0,1.083,1.083h14.514a1.083,1.083,0,0,0,1.083-1.083v-5.957A1.083,1.083,0,0,0,115.635,429.5Z" transform="translate(-94.018 -383.792)" fill="#9ff497"/>
        <path id="Trazado_1049545" data-name="Trazado 1049545" d="M218.372,430.583v5.957a1.084,1.084,0,0,1-1.083,1.083H214.04a1.084,1.084,0,0,0,1.083-1.083v-5.957a1.084,1.084,0,0,0-1.083-1.083h3.249A1.084,1.084,0,0,1,218.372,430.583Z" transform="translate(-195.672 -383.792)" fill="#6ce79a"/>
        <path id="Trazado_1049546" data-name="Trazado 1049546" d="M293.082,9.937A2.437,2.437,0,0,1,295.519,7.5h0a2.437,2.437,0,0,1,2.437,2.437l.011,12.8a4.341,4.341,0,0,1-1.936,3.618h0a.54.54,0,0,0-.241.45v3.545H282.253a0,0,0,0,1,0,0v-3.03a3.25,3.25,0,0,0-1.044-2.386L278.46,22.4V9.937A2.437,2.437,0,0,1,280.9,7.5h0a2.437,2.437,0,0,1,2.437,2.437A2.437,2.437,0,0,1,285.771,7.5h0a2.437,2.437,0,0,1,2.437,2.437A2.437,2.437,0,0,1,290.645,7.5h0A2.437,2.437,0,0,1,293.082,9.937Z" transform="translate(-253.115 -7.5)" fill="#bd8580"/>
        <path id="Trazado_1049547" data-name="Trazado 1049547" d="M413.886,22.742a4.343,4.343,0,0,1-1.936,3.618.539.539,0,0,0-.242.449v3.545H408.46V26.809a.539.539,0,0,1,.242-.449,4.343,4.343,0,0,0,1.936-3.618l-.011-12.8a2.429,2.429,0,0,0-.714-1.723c-.031-.031-.065-.063-.1-.092a2.436,2.436,0,0,1,4.062,1.815Z" transform="translate(-369.034 -7.5)" fill="#a4766e"/>
        <path id="Trazado_1049548" data-name="Trazado 1049548" d="M247.251,55.208l-3.09-2.839a2.166,2.166,0,0,1-.7-1.6V47.436a2.166,2.166,0,0,1,1.271-1.973L247.3,44.3Z" transform="translate(-221.906 -40.311)" fill="#a4766e"/>
        <path id="Trazado_1049549" data-name="Trazado 1049549" d="M314.635,218.5H300.121a1.083,1.083,0,0,0-1.083,1.083v28.811a1.083,1.083,0,0,0,1.083,1.083h14.514a1.083,1.083,0,0,0,1.083-1.083V219.583A1.083,1.083,0,0,0,314.635,218.5Z" transform="translate(-271.464 -195.646)" fill="#b0a8d9"/>
        <path id="Trazado_1049550" data-name="Trazado 1049550" d="M417.373,219.583v28.811a1.084,1.084,0,0,1-1.083,1.083H413.04a1.084,1.084,0,0,0,1.083-1.083V219.583a1.084,1.084,0,0,0-1.083-1.083h3.249A1.084,1.084,0,0,1,417.373,219.583Z" transform="translate(-373.118 -195.646)" fill="#9c8fce"/>
        <path id="Trazado_1049551" data-name="Trazado 1049551" d="M409.082,266.249h5.307a.542.542,0,0,0,.542-.542v-2.166a.542.542,0,0,0-.542-.542h-5.307a.542.542,0,0,0-.542.542v2.166A.542.542,0,0,0,409.082,266.249Z" transform="translate(-369.106 -235.326)" fill="#e6f6ff"/>
        <path id="Trazado_1049552" data-name="Trazado 1049552" d="M436.331,263.542v2.166a.542.542,0,0,1-.542.542H432.54a.542.542,0,0,0,.542-.542v-2.166a.542.542,0,0,0-.542-.542h3.249A.542.542,0,0,1,436.331,263.542Z" transform="translate(-390.506 -235.326)" fill="#d1edff"/>
        <path id="Trazado_1049553" data-name="Trazado 1049553" d="M73.46,73.068A4.043,4.043,0,0,1,77.5,69.025h0a4.035,4.035,0,0,1,3.237,1.621.376.376,0,0,0,.6,0,4.035,4.035,0,0,1,3.237-1.621h0a4.043,4.043,0,0,1,4.043,4.043h0A6.446,6.446,0,0,1,86.2,78.1l-4.687,3.75a.757.757,0,0,1-.947,0L75.879,78.1a6.446,6.446,0,0,1-2.419-5.034Z" transform="translate(-70.319 -62.361)" fill="#ff9aa2"/>
        <path id="Trazado_1049554" data-name="Trazado 1049554" d="M137.644,73.072a6.444,6.444,0,0,1-2.419,5.033l-4.688,3.75a.756.756,0,0,1-.947,0l-1.151-.921,3.536-2.829a6.444,6.444,0,0,0,2.419-5.033,4.043,4.043,0,0,0-2.419-3.7,4.043,4.043,0,0,1,5.668,3.7Z" transform="translate(-119.344 -62.366)" fill="#ff8188"/>
        <path id="Trazado_1049555" data-name="Trazado 1049555" d="M210.582,477.749h5.307a.542.542,0,0,0,.542-.542v-2.166a.542.542,0,0,0-.542-.542h-5.307a.542.542,0,0,0-.542.542v2.166A.542.542,0,0,0,210.582,477.749Z" transform="translate(-192.106 -423.918)" fill="#f5f0f3"/>
        <path id="Trazado_1049556" data-name="Trazado 1049556" d="M237.831,475.042v2.166a.542.542,0,0,1-.542.542H234.04a.542.542,0,0,0,.542-.542v-2.166a.542.542,0,0,0-.542-.542h3.249A.542.542,0,0,1,237.831,475.042Z" transform="translate(-213.506 -423.918)" fill="#e4dfe3"/>
      </g>
      <g id="Grupo_1206695" data-name="Grupo 1206695" transform="translate(44.46 7.5)">
        <path id="Trazado_1049557" data-name="Trazado 1049557" d="M83.251,241.184v-2.862a3.25,3.25,0,0,0-1.044-2.386L79.46,233.4V220.937A2.437,2.437,0,0,1,81.9,218.5h0a2.437,2.437,0,0,1,2.437,2.437,2.437,2.437,0,0,1,2.437-2.437h0a2.437,2.437,0,0,1,2.437,2.437,2.437,2.437,0,0,1,2.437-2.437h0a2.437,2.437,0,0,1,2.437,2.437,2.437,2.437,0,0,1,2.437-2.437h0a2.437,2.437,0,0,1,2.437,2.437l.011,12.8a4.341,4.341,0,0,1-1.936,3.617h0a.541.541,0,0,0-.241.45v3.271" transform="translate(-75.669 -195.646)" fill="none" stroke="#000" stroke-linecap="round" stroke-linejoin="round" stroke-miterlimit="10" stroke-width="1.5"/>
        <path id="Trazado_1049558" data-name="Trazado 1049558" d="M48.251,266.561l-3.09-2.839a2.166,2.166,0,0,1-.7-1.6v-3.338a2.166,2.166,0,0,1,1.271-1.973l2.475-1.123" transform="translate(-44.46 -228.811)" fill="none" stroke="#000" stroke-linecap="round" stroke-linejoin="round" stroke-miterlimit="10" stroke-width="1.5"/>
        <path id="Trazado_1049559" data-name="Trazado 1049559" d="M103.525,429.5h-2.4a1.083,1.083,0,0,0-1.083,1.083v5.957a1.083,1.083,0,0,0,1.083,1.083h11.373" transform="translate(-94.018 -383.792)" fill="none" stroke="#000" stroke-linecap="round" stroke-linejoin="round" stroke-miterlimit="10" stroke-width="1.5"/>
        <path id="Trazado_1049560" data-name="Trazado 1049560" d="M176.638,434.281v-3.7a1.083,1.083,0,0,0-1.083-1.083h-8.319" transform="translate(-153.938 -383.792)" fill="none" stroke="#000" stroke-linecap="round" stroke-linejoin="round" stroke-miterlimit="10" stroke-width="1.5"/>
        <path id="Trazado_1049561" data-name="Trazado 1049561" d="M282.251,30.259V27.322a3.25,3.25,0,0,0-1.044-2.386L278.46,22.4V9.937A2.437,2.437,0,0,1,280.9,7.5h0a2.437,2.437,0,0,1,2.437,2.437A2.437,2.437,0,0,1,285.771,7.5h0a2.437,2.437,0,0,1,2.437,2.437A2.437,2.437,0,0,1,290.645,7.5h0a2.437,2.437,0,0,1,2.437,2.437A2.437,2.437,0,0,1,295.519,7.5h0a2.437,2.437,0,0,1,2.437,2.437l.011,12.8a4.341,4.341,0,0,1-1.936,3.618h0a.54.54,0,0,0-.241.45v3.4" transform="translate(-253.115 -7.5)" fill="none" stroke="#000" stroke-linecap="round" stroke-linejoin="round" stroke-miterlimit="10" stroke-width="1.5"/>
        <path id="Trazado_1049562" data-name="Trazado 1049562" d="M247.251,56.132l-3.09-2.839a2.166,2.166,0,0,1-.7-1.6V48.359a2.166,2.166,0,0,1,1.271-1.973l2.322-1.054" transform="translate(-221.906 -41.235)" fill="none" stroke="#000" stroke-linecap="round" stroke-linejoin="round" stroke-miterlimit="10" stroke-width="1.5"/>
        <path id="Trazado_1049563" data-name="Trazado 1049563" d="M315.718,223.149v-3.566a1.083,1.083,0,0,0-1.083-1.083H300.121a1.083,1.083,0,0,0-1.083,1.083v28.811a1.083,1.083,0,0,0,1.083,1.083h14.514a1.083,1.083,0,0,0,1.083-1.083V230.36" transform="translate(-271.464 -195.646)" fill="none" stroke="#000" stroke-linecap="round" stroke-linejoin="round" stroke-miterlimit="10" stroke-width="1.5"/>
        <path id="Trazado_1049564" data-name="Trazado 1049564" d="M409.082,266.249h5.307a.542.542,0,0,0,.542-.542v-2.166a.542.542,0,0,0-.542-.542h-5.307a.542.542,0,0,0-.542.542v2.166A.542.542,0,0,0,409.082,266.249Z" transform="translate(-369.106 -235.326)" fill="none" stroke="#000" stroke-linecap="round" stroke-linejoin="round" stroke-miterlimit="10" stroke-width="1.5"/>
        <path id="Trazado_1049565" data-name="Trazado 1049565" d="M73.46,73.068A4.043,4.043,0,0,1,77.5,69.025h0a4.035,4.035,0,0,1,3.237,1.621.376.376,0,0,0,.6,0,4.035,4.035,0,0,1,3.237-1.621h0a4.043,4.043,0,0,1,4.043,4.043h0A6.446,6.446,0,0,1,86.2,78.1l-4.687,3.75a.757.757,0,0,1-.947,0L75.879,78.1a6.446,6.446,0,0,1-2.419-5.034Z" transform="translate(-70.319 -62.361)" fill="none" stroke="#000" stroke-linecap="round" stroke-linejoin="round" stroke-miterlimit="10" stroke-width="1.5"/>
        <path id="Trazado_1049566" data-name="Trazado 1049566" d="M210.582,477.749h5.307a.542.542,0,0,0,.542-.542v-2.166a.542.542,0,0,0-.542-.542h-5.307a.542.542,0,0,0-.542.542v2.166A.542.542,0,0,0,210.582,477.749Z" transform="translate(-192.106 -423.918)" fill="none" stroke="#000" stroke-linecap="round" stroke-linejoin="round" stroke-miterlimit="10" stroke-width="1.5"/>
      </g>
    </g>
  </g>
</svg>
