<svg xmlns="http://www.w3.org/2000/svg" xmlns:xlink="http://www.w3.org/1999/xlink" width="98" height="98" viewBox="0 0 98 98">
  <defs>
    <filter id="Trazado_982547" x="0" y="0" width="98" height="98" filterUnits="userSpaceOnUse">
      <feOffset dy="3" input="SourceAlpha"/>
      <feGaussianBlur stdDeviation="3" result="blur"/>
      <feFlood flood-opacity="0.161"/>
      <feComposite operator="in" in2="blur"/>
      <feComposite in="SourceGraphic"/>
    </filter>
  </defs>
  <g id="Grupo_1206701" data-name="Grupo 1206701" transform="translate(-820.561 -1950)">
    <g id="Grupo_1204571" data-name="Grupo 1204571" transform="translate(548.561 -1890.336)">
      <g id="Grupo_1203962" data-name="Grupo 1203962" transform="translate(281 3846.336)">
        <g id="Grupo_1203498" data-name="Grupo 1203498" transform="translate(0)">
          <g id="Grupo_1202589" data-name="Grupo 1202589">
            <g id="Grupo_1172010" data-name="Grupo 1172010">
              <g id="Grupo_1171046" data-name="Grupo 1171046">
                <g id="Grupo_1148525" data-name="Grupo 1148525">
                  <g transform="matrix(1, 0, 0, 1, -9, -6)" filter="url(#Trazado_982547)">
                    <g id="Trazado_982547-2" data-name="Trazado 982547" transform="translate(9 6)" fill="#fdfbec">
                      <path d="M 39.99999237060547 78.49998474121094 C 34.8018684387207 78.49998474121094 29.76002502441406 77.48226165771484 25.0145263671875 75.47508239746094 C 20.43014717102051 73.53604888916016 16.31264877319336 70.75984954833984 12.77639198303223 67.22359466552734 C 9.240137100219727 63.68733596801758 6.463936805725098 59.5698356628418 4.524903297424316 54.98546981811523 C 2.517725706100464 50.23995971679688 1.500003457069397 45.19811630249023 1.500003457069397 39.99999237060547 C 1.500003457069397 34.8018684387207 2.517725706100464 29.76002502441406 4.524903297424316 25.0145263671875 C 6.463936805725098 20.43014717102051 9.240137100219727 16.31264877319336 12.77639198303223 12.77639198303223 C 16.31264877319336 9.240137100219727 20.43014717102051 6.463936805725098 25.0145263671875 4.524903297424316 C 29.76002502441406 2.517725706100464 34.8018684387207 1.500003457069397 39.99999237060547 1.500003457069397 C 45.19811630249023 1.500003457069397 50.23995971679688 2.517725706100464 54.98546981811523 4.524903297424316 C 59.5698356628418 6.463936805725098 63.68733596801758 9.240137100219727 67.22359466552734 12.77639198303223 C 70.75984954833984 16.31264877319336 73.53604888916016 20.43014717102051 75.47508239746094 25.0145263671875 C 77.48226165771484 29.76002502441406 78.49998474121094 34.8018684387207 78.49998474121094 39.99999237060547 C 78.49998474121094 45.19812393188477 77.48226165771484 50.23995971679688 75.47508239746094 54.98546981811523 C 73.53604888916016 59.5698356628418 70.75984954833984 63.68733596801758 67.22359466552734 67.22359466552734 C 63.68733596801758 70.75984954833984 59.5698356628418 73.53604888916016 54.98546981811523 75.47508239746094 C 50.23995971679688 77.48226165771484 45.19812393188477 78.49998474121094 39.99999237060547 78.49998474121094 Z" stroke="none"/>
                      <path d="M 39.99999237060547 2.999992370605469 C 35.00370025634766 2.999992370605469 30.1584587097168 3.97784423828125 25.59884643554688 5.906402587890625 C 21.19327163696289 7.769805908203125 17.23603057861328 10.43805694580078 13.83704376220703 13.83704376220703 C 10.43805694580078 17.23603057861328 7.769805908203125 21.19327163696289 5.906402587890625 25.59884643554688 C 3.97784423828125 30.1584587097168 2.999992370605469 35.00370025634766 2.999992370605469 39.99999237060547 C 2.999992370605469 44.99628448486328 3.97784423828125 49.84152603149414 5.906402587890625 54.40113830566406 C 7.769805908203125 58.80671310424805 10.43805694580078 62.76395416259766 13.83704376220703 66.16294097900391 C 17.23603057861328 69.56191253662109 21.19327163696289 72.23016357421875 25.59884643554688 74.09356689453125 C 30.1584587097168 76.02212524414062 35.00370025634766 76.99997711181641 39.99999237060547 76.99997711181641 C 44.99628448486328 76.99997711181641 49.84152603149414 76.02212524414062 54.40113830566406 74.09356689453125 C 58.80671310424805 72.23016357421875 62.76395416259766 69.56191253662109 66.16294097900391 66.16294097900391 C 69.56191253662109 62.76395416259766 72.23016357421875 58.80671310424805 74.09356689453125 54.40113830566406 C 76.02212524414062 49.84152603149414 76.99997711181641 44.99628448486328 76.99997711181641 39.99999237060547 C 76.99997711181641 35.00370025634766 76.02212524414062 30.1584587097168 74.09356689453125 25.59884643554688 C 72.23016357421875 21.19327163696289 69.56191253662109 17.23603057861328 66.16294097900391 13.83704376220703 C 62.76395416259766 10.43805694580078 58.80671310424805 7.769805908203125 54.40113830566406 5.906402587890625 C 49.84152603149414 3.97784423828125 44.99628448486328 2.999992370605469 39.99999237060547 2.999992370605469 M 39.99999237060547 -7.62939453125e-06 C 62.09137725830078 -7.62939453125e-06 79.99997711181641 17.90860748291016 79.99997711181641 39.99999237060547 C 79.99997711181641 62.09137725830078 62.09137725830078 79.99997711181641 39.99999237060547 79.99997711181641 C 17.90860748291016 79.99997711181641 -7.62939453125e-06 62.09137725830078 -7.62939453125e-06 39.99999237060547 C -7.62939453125e-06 17.90860748291016 17.90860748291016 -7.62939453125e-06 39.99999237060547 -7.62939453125e-06 Z" stroke="none" fill="#83793c"/>
                    </g>
                  </g>
                </g>
              </g>
            </g>
          </g>
        </g>
      </g>
    </g>
    <g id="discussion_12984084" transform="translate(835.826 1959.984)">
      <path id="Trazado_1049567" data-name="Trazado 1049567" d="M142.206,7.516H119.354A3.364,3.364,0,0,0,116,10.87v6.862a3.365,3.365,0,0,0,1.9,3.023,1.346,1.346,0,0,1,.777,1.206v.1a1.325,1.325,0,0,0,2.136,1.047l1.459-1.131a4.24,4.24,0,0,1,2.6-.888h11.813a4.24,4.24,0,0,1,2.6.888l1.459,1.131a1.325,1.325,0,0,0,2.136-1.047v-.1a1.346,1.346,0,0,1,.777-1.206,3.365,3.365,0,0,0,1.9-3.023V10.87A3.364,3.364,0,0,0,142.206,7.516Z" transform="translate(-97.045)" fill="#efedff"/>
      <path id="Trazado_1049568" data-name="Trazado 1049568" d="M126.639,17.755V10.87a3.354,3.354,0,0,1,3.354-3.354H119.354A3.364,3.364,0,0,0,116,10.87v6.862a3.365,3.365,0,0,0,1.9,3.023,1.346,1.346,0,0,1,.777,1.206v.1a1.325,1.325,0,0,0,2.136,1.047l1.459-1.13a4.24,4.24,0,0,1,2.6-.888h4.736A3.354,3.354,0,0,1,126.639,17.755Z" transform="translate(-97.045 0)" fill="#d4d4ff"/>
      <circle id="Elipse_12960" data-name="Elipse 12960" cx="2.111" cy="2.111" r="2.111" transform="translate(31.623 12.19)" fill="#5b778f"/>
      <circle id="Elipse_12961" data-name="Elipse 12961" cx="2.111" cy="2.111" r="2.111" transform="translate(23.178 12.19)" fill="#4e6a7f"/>
      <circle id="Elipse_12962" data-name="Elipse 12962" cx="2.111" cy="2.111" r="2.111" transform="translate(40.069 12.19)" fill="#5b778f"/>
      <path id="Trazado_1049569" data-name="Trazado 1049569" d="M270.336,394.575a11.653,11.653,0,0,0-14.22,7.807,2.657,2.657,0,0,0,2.548,3.425H264l.157-.087Z" transform="translate(-222.264 -345.825)" fill="#d4d4ff"/>
      <path id="Trazado_1049570" data-name="Trazado 1049570" d="M330.645,405.907a11.667,11.667,0,0,0-8.055-7.806,11.67,11.67,0,0,0-8.048,7.806,2.654,2.654,0,0,0,1.871,3.338l3.1-1.713,3.253,1.8H328.1A2.657,2.657,0,0,0,330.645,405.907Z" transform="translate(-274.522 -349.35)" fill="#efedff"/>
      <path id="Trazado_1049571" data-name="Trazado 1049571" d="M333.113,436.715l-1.334,7.155h6.505l-1.334-7.155Z" transform="translate(-290.044 -383.887)" fill="#00c140"/>
      <path id="Trazado_1049572" data-name="Trazado 1049572" d="M337.754,414.811h0a2.931,2.931,0,0,1-2.931-2.931h0a2.931,2.931,0,0,1,2.931-2.931h0a2.931,2.931,0,0,1,2.931,2.931h0A2.931,2.931,0,0,1,337.754,414.811Z" transform="translate(-292.767 -359.052)" fill="#55d47b"/>
      <path id="Trazado_1049573" data-name="Trazado 1049573" d="M304.745,182.81c-.208,0-.414.007-.62.016-3.073,1.759-6.208,4.839-6.208,8.034,0,2.771,2.39,5.9,5.374,7.2h14.845a13.487,13.487,0,0,0-13.391-15.254Z" transform="translate(-259.757 -156.788)" fill="#5b778f"/>
      <path id="Trazado_1049574" data-name="Trazado 1049574" d="M243.934,190.984a10.733,10.733,0,0,1,3.6-8.035,13.486,13.486,0,0,0-12.773,15.24H246.7A10.721,10.721,0,0,1,243.934,190.984Z" transform="translate(-203.168 -156.912)" fill="#4e6a7f"/>
      <circle id="Elipse_12963" data-name="Elipse 12963" cx="2.843" cy="2.843" r="2.843" transform="translate(54.283 39.366)" fill="#af6d56"/>
      <path id="Trazado_1049575" data-name="Trazado 1049575" d="M301.781,271.972a1.4,1.4,0,0,0-2.292-.364,4.032,4.032,0,0,1-5.4.383,1.392,1.392,0,0,0-1.253-.244,3.259,3.259,0,0,1-1.836,0,1.392,1.392,0,0,0-1.253.244,4.015,4.015,0,0,1-1.874.813c-1.82,1.82-4.058,3.435-4.058,5.4,0,3.98,3.973,7.288,7.975,9.321l.056,0a10.907,10.907,0,0,0,9.936-15.558Z" transform="translate(-247.143 -235.817)" fill="#c8866a"/>
      <path id="Trazado_1049576" data-name="Trazado 1049576" d="M262.67,278.21a10.722,10.722,0,0,1,1.452-5.4,4.027,4.027,0,0,1-3.528-1.2,1.4,1.4,0,0,0-2.292.364,10.906,10.906,0,0,0,9.738,15.557A10.768,10.768,0,0,1,262.67,278.21Z" transform="translate(-223.393 -235.819)" fill="#af6d56"/>
      <g id="Grupo_1206697" data-name="Grupo 1206697" transform="translate(43.11 41.087)">
        <line id="Línea_1084" data-name="Línea 1084" y2="1.213" transform="translate(7.977)" fill="none" stroke="#000" stroke-linecap="round" stroke-linejoin="round" stroke-miterlimit="10" stroke-width="1"/>
        <path id="Trazado_1049577" data-name="Trazado 1049577" d="M344.8,336.649a2.206,2.206,0,0,0,3.328,0" transform="translate(-344.8 -335.472)" fill="none" stroke="#000" stroke-linecap="round" stroke-linejoin="round" stroke-miterlimit="10" stroke-width="1"/>
      </g>
      <path id="Trazado_1049578" data-name="Trazado 1049578" d="M57.157,394.575a11.653,11.653,0,0,0-14.22,7.807,2.657,2.657,0,0,0,2.548,3.425H50.82l.157-.087Z" transform="translate(-31.591 -345.825)" fill="#d4d4ff"/>
      <path id="Trazado_1049579" data-name="Trazado 1049579" d="M117.466,405.907a11.667,11.667,0,0,0-8.055-7.806,11.67,11.67,0,0,0-8.048,7.806,2.654,2.654,0,0,0,1.871,3.338l3.1-1.713,3.253,1.8h5.335A2.657,2.657,0,0,0,117.466,405.907Z" transform="translate(-83.849 -349.35)" fill="#efedff"/>
      <path id="Trazado_1049580" data-name="Trazado 1049580" d="M119.934,436.715,118.6,443.87h6.506l-1.334-7.155Z" transform="translate(-99.371 -383.887)" fill="#d34459"/>
      <path id="Trazado_1049581" data-name="Trazado 1049581" d="M124.574,414.811h0a2.931,2.931,0,0,1-2.931-2.931h0a2.931,2.931,0,0,1,2.931-2.931h0a2.931,2.931,0,0,1,2.931,2.931h0A2.931,2.931,0,0,1,124.574,414.811Z" transform="translate(-102.093 -359.052)" fill="#ea5b70"/>
      <path id="Trazado_1049582" data-name="Trazado 1049582" d="M91.566,182.81c-.208,0-.414.007-.619.016-3.073,1.759-6.208,4.839-6.208,8.034,0,2.771,2.39,5.9,5.374,7.2h14.845A13.487,13.487,0,0,0,91.566,182.81Z" transform="translate(-69.084 -156.788)" fill="#f8ea69"/>
      <path id="Trazado_1049583" data-name="Trazado 1049583" d="M30.755,190.984a10.733,10.733,0,0,1,3.6-8.035,13.486,13.486,0,0,0-12.773,15.24H33.523A10.721,10.721,0,0,1,30.755,190.984Z" transform="translate(-12.495 -156.912)" fill="#ffcf6b"/>
      <circle id="Elipse_12964" data-name="Elipse 12964" cx="2.843" cy="2.843" r="2.843" transform="translate(7.5 39.366)" fill="#f9bbaf"/>
      <circle id="Elipse_12965" data-name="Elipse 12965" cx="2.843" cy="2.843" r="2.843" transform="translate(31.777 39.366)" fill="#ffccbf"/>
      <path id="Trazado_1049584" data-name="Trazado 1049584" d="M112.078,243.1a10.872,10.872,0,0,0-5.156-9.253,1.292,1.292,0,0,0-1.908.728l0,.016c-1.022,3.195-3.981,5.1-6.61,4.261a4.142,4.142,0,0,1-.559-.225l-.014-.006c-1.794,1.711-2.086,2.783-2.086,4.31,0,4.871,2.034,8.947,8.669,10.567-.1.029-.191.057-.288.084A10.884,10.884,0,0,0,112.078,243.1Z" transform="translate(-78.925 -202.269)" fill="#ffddcf"/>
      <path id="Trazado_1049585" data-name="Trazado 1049585" d="M50.978,283.852a11.186,11.186,0,0,1,.859-4.31,1.344,1.344,0,0,0-1.529.246A4.867,4.867,0,0,1,45.42,281.2l-.007,0a.641.641,0,0,0-.83.462,10.881,10.881,0,0,0,13.837,12.76A11.224,11.224,0,0,1,50.978,283.852Z" transform="translate(-32.936 -243.186)" fill="#ffcbbe"/>
      <g id="Grupo_1206699" data-name="Grupo 1206699" transform="translate(15.936 41.266)">
        <g id="Grupo_1206698" data-name="Grupo 1206698" transform="translate(4.326 0.503)">
          <path id="Trazado_1049586" data-name="Trazado 1049586" d="M132.4,333.329c0-1.241-.9-1.358-2.008-1.358s-2.008.117-2.008,1.358a2.021,2.021,0,1,0,4.017,0Z" transform="translate(-128.382 -331.971)" fill="#495560"/>
        </g>
        <line id="Línea_1085" data-name="Línea 1085" y2="1.017" fill="none" stroke="#000" stroke-linecap="round" stroke-linejoin="round" stroke-miterlimit="10" stroke-width="1"/>
        <path id="Trazado_1049587" data-name="Trazado 1049587" d="M132.4,333.328c0-1.241-.9-1.358-2.008-1.358s-2.008.117-2.008,1.358a2.021,2.021,0,1,0,4.017,0Z" transform="translate(-124.056 -331.467)" fill="none" stroke="#000" stroke-linecap="round" stroke-linejoin="round" stroke-miterlimit="10" stroke-width="1"/>
        <line id="Línea_1086" data-name="Línea 1086" y2="1.017" transform="translate(12.669)" fill="none" stroke="#000" stroke-linecap="round" stroke-linejoin="round" stroke-miterlimit="10" stroke-width="1"/>
      </g>
      <g id="Grupo_1206700" data-name="Grupo 1206700" transform="translate(7.5 7.516)">
        <path id="Trazado_1049588" data-name="Trazado 1049588" d="M142.206,7.516H119.354A3.364,3.364,0,0,0,116,10.87v6.862a3.365,3.365,0,0,0,1.9,3.023,1.346,1.346,0,0,1,.777,1.206v.1a1.325,1.325,0,0,0,2.136,1.047l1.459-1.131a4.24,4.24,0,0,1,2.6-.888h11.813a4.24,4.24,0,0,1,2.6.888l1.459,1.131a1.325,1.325,0,0,0,2.136-1.047v-.1a1.346,1.346,0,0,1,.777-1.206,3.365,3.365,0,0,0,1.9-3.023V10.87A3.364,3.364,0,0,0,142.206,7.516Z" transform="translate(-104.545 -7.516)" fill="none" stroke="#000" stroke-linecap="round" stroke-linejoin="round" stroke-miterlimit="10" stroke-width="1"/>
        <circle id="Elipse_12966" data-name="Elipse 12966" cx="2.111" cy="2.111" r="2.111" transform="translate(24.123 4.674)" fill="none" stroke="#000" stroke-linecap="round" stroke-linejoin="round" stroke-miterlimit="10" stroke-width="1"/>
        <circle id="Elipse_12967" data-name="Elipse 12967" cx="2.111" cy="2.111" r="2.111" transform="translate(15.678 4.674)" fill="none" stroke="#000" stroke-linecap="round" stroke-linejoin="round" stroke-miterlimit="10" stroke-width="1"/>
        <circle id="Elipse_12968" data-name="Elipse 12968" cx="2.111" cy="2.111" r="2.111" transform="translate(32.569 4.674)" fill="none" stroke="#000" stroke-linecap="round" stroke-linejoin="round" stroke-miterlimit="10" stroke-width="1"/>
        <path id="Trazado_1049589" data-name="Trazado 1049589" d="M420.839,411.244a11.7,11.7,0,0,0-2.445-1.914" transform="translate(-375.015 -366.909)" fill="none" stroke="#000" stroke-linecap="round" stroke-linejoin="round" stroke-miterlimit="10" stroke-width="1"/>
        <path id="Trazado_1049590" data-name="Trazado 1049590" d="M261.078,410.916a11.676,11.676,0,0,0-4.962,6.453,2.657,2.657,0,0,0,2.548,3.425h17.175a2.657,2.657,0,0,0,2.548-3.425,11.546,11.546,0,0,0-.682-1.718" transform="translate(-229.764 -368.328)" fill="none" stroke="#000" stroke-linecap="round" stroke-linejoin="round" stroke-miterlimit="10" stroke-width="1"/>
        <line id="Línea_1087" data-name="Línea 1087" x1="0.951" y1="5.1" transform="translate(39.77 47.26)" fill="none" stroke="#000" stroke-linecap="round" stroke-linejoin="round" stroke-miterlimit="10" stroke-width="1"/>
        <line id="Línea_1088" data-name="Línea 1088" x1="0.953" y2="5.109" transform="translate(34.256 47.247)" fill="none" stroke="#000" stroke-linecap="round" stroke-linejoin="round" stroke-miterlimit="10" stroke-width="1"/>
        <path id="Trazado_1049591" data-name="Trazado 1049591" d="M340.32,423.3a2.919,2.919,0,0,1,.364,1.417h0a2.931,2.931,0,0,1-2.931,2.931h0a2.931,2.931,0,0,1-2.931-2.931h0a2.92,2.92,0,0,1,.313-1.32" transform="translate(-300.266 -379.4)" fill="none" stroke="#000" stroke-linecap="round" stroke-linejoin="round" stroke-miterlimit="10" stroke-width="1"/>
        <path id="Trazado_1049592" data-name="Trazado 1049592" d="M281.268,196.317a13.507,13.507,0,0,0-13.507-13.507c-.208,0-.414.007-.62.016h0l0,0a13.5,13.5,0,0,0-10.575,5.93" transform="translate(-230.273 -164.304)" fill="none" stroke="#000" stroke-linecap="round" stroke-linejoin="round" stroke-miterlimit="10" stroke-width="1"/>
        <path id="Trazado_1049593" data-name="Trazado 1049593" d="M459.663,309.6a2.843,2.843,0,1,1-.5,4.524" transform="translate(-411.483 -277.352)" fill="none" stroke="#000" stroke-linecap="round" stroke-linejoin="round" stroke-miterlimit="10" stroke-width="1"/>
        <path id="Trazado_1049594" data-name="Trazado 1049594" d="M265.723,280.94a10.946,10.946,0,0,0,9.886,6.59h0l.056,0a10.907,10.907,0,0,0,9.935-15.558,1.4,1.4,0,0,0-2.292-.364,4.032,4.032,0,0,1-5.4.382,1.392,1.392,0,0,0-1.253-.244,3.26,3.26,0,0,1-1.836,0,1.392,1.392,0,0,0-1.253.244,4.013,4.013,0,0,1-1.874.813h0a4.027,4.027,0,0,1-3.528-1.2,1.41,1.41,0,0,0-1.71-.262" transform="translate(-238.462 -243.333)" fill="none" stroke="#000" stroke-linecap="round" stroke-linejoin="round" stroke-miterlimit="10" stroke-width="1"/>
        <path id="Trazado_1049595" data-name="Trazado 1049595" d="M47.963,409.46a11.676,11.676,0,0,0-5.026,6.493,2.657,2.657,0,0,0,2.548,3.425H62.66a2.657,2.657,0,0,0,2.548-3.425,11.667,11.667,0,0,0-5.243-6.62" transform="translate(-39.091 -366.912)" fill="none" stroke="#000" stroke-linecap="round" stroke-linejoin="round" stroke-miterlimit="10" stroke-width="1"/>
        <line id="Línea_1089" data-name="Línea 1089" x1="0.949" y1="5.091" transform="translate(17.263 47.254)" fill="none" stroke="#000" stroke-linecap="round" stroke-linejoin="round" stroke-miterlimit="10" stroke-width="1"/>
        <line id="Línea_1090" data-name="Línea 1090" x1="0.95" y2="5.096" transform="translate(11.752 47.245)" fill="none" stroke="#000" stroke-linecap="round" stroke-linejoin="round" stroke-miterlimit="10" stroke-width="1"/>
        <path id="Trazado_1049596" data-name="Trazado 1049596" d="M127.142,423.286a2.918,2.918,0,0,1,.365,1.418h0a2.932,2.932,0,0,1-2.931,2.932h0a2.932,2.932,0,0,1-2.931-2.932h0a2.919,2.919,0,0,1,.312-1.317" transform="translate(-109.593 -379.392)" fill="none" stroke="#000" stroke-linecap="round" stroke-linejoin="round" stroke-miterlimit="10" stroke-width="1"/>
        <path id="Trazado_1049597" data-name="Trazado 1049597" d="M39.4,183.551a13.486,13.486,0,0,0-4.422-.741c-.208,0-.414.007-.62.016h0l0,0a13.507,13.507,0,0,0-12.889,13.492" transform="translate(-19.994 -164.304)" fill="none" stroke="#000" stroke-linecap="round" stroke-linejoin="round" stroke-miterlimit="10" stroke-width="1"/>
        <path id="Trazado_1049598" data-name="Trazado 1049598" d="M228.285,216.812a13.492,13.492,0,0,0-5.792-11.088" transform="translate(-199.796 -184.799)" fill="none" stroke="#000" stroke-linecap="round" stroke-linejoin="round" stroke-miterlimit="10" stroke-width="1"/>
        <path id="Trazado_1049599" data-name="Trazado 1049599" d="M11.978,314.372a2.843,2.843,0,1,1-.59-4.972" transform="translate(-7.5 -277.352)" fill="none" stroke="#000" stroke-linecap="round" stroke-linejoin="round" stroke-miterlimit="10" stroke-width="1"/>
        <path id="Trazado_1049600" data-name="Trazado 1049600" d="M246.329,309.61a2.843,2.843,0,1,1-.491,4.5" transform="translate(-220.676 -277.352)" fill="none" stroke="#000" stroke-linecap="round" stroke-linejoin="round" stroke-miterlimit="10" stroke-width="1"/>
        <path id="Trazado_1049601" data-name="Trazado 1049601" d="M66.09,243.1a10.872,10.872,0,0,0-5.156-9.253,1.292,1.292,0,0,0-1.908.728l0,.016c-1.022,3.195-3.981,5.1-6.61,4.261a4.116,4.116,0,0,1-.559-.225l-.014-.006h0a1.344,1.344,0,0,0-1.529.246,4.867,4.867,0,0,1-4.888,1.411l-.007,0a.641.641,0,0,0-.83.462,10.876,10.876,0,0,0,13.661,12.811l-.111.033c.1-.027.192-.054.287-.084h0A10.883,10.883,0,0,0,66.09,243.1Z" transform="translate(-40.438 -209.785)" fill="none" stroke="#000" stroke-linecap="round" stroke-linejoin="round" stroke-miterlimit="10" stroke-width="1"/>
      </g>
    </g>
  </g>
</svg>
