<svg xmlns="http://www.w3.org/2000/svg" xmlns:xlink="http://www.w3.org/1999/xlink" width="98" height="98" viewBox="0 0 98 98">
  <defs>
    <filter id="Trazado_982547" x="0" y="0" width="98" height="98" filterUnits="userSpaceOnUse">
      <feOffset dy="3" input="SourceAlpha"/>
      <feGaussianBlur stdDeviation="3" result="blur"/>
      <feFlood flood-opacity="0.161"/>
      <feComposite operator="in" in2="blur"/>
      <feComposite in="SourceGraphic"/>
    </filter>
  </defs>
  <g id="Grupo_1206704" data-name="Grupo 1206704" transform="translate(-1135.561 -1950)">
    <g id="Grupo_1204572" data-name="Grupo 1204572" transform="translate(863.561 -1890.336)">
      <g id="Grupo_1203962" data-name="Grupo 1203962" transform="translate(281 3846.336)">
        <g id="Grupo_1203498" data-name="Grupo 1203498" transform="translate(0)">
          <g id="Grupo_1202589" data-name="Grupo 1202589">
            <g id="Grupo_1172010" data-name="Grupo 1172010">
              <g id="Grupo_1171046" data-name="Grupo 1171046">
                <g id="Grupo_1148525" data-name="Grupo 1148525">
                  <g transform="matrix(1, 0, 0, 1, -9, -6)" filter="url(#Trazado_982547)">
                    <g id="Trazado_982547-2" data-name="Trazado 982547" transform="translate(9 6)" fill="#fdfbec">
                      <path d="M 39.99999237060547 78.49998474121094 C 34.8018684387207 78.49998474121094 29.76002502441406 77.48226165771484 25.0145263671875 75.47508239746094 C 20.43014717102051 73.53604888916016 16.31264877319336 70.75984954833984 12.77639198303223 67.22359466552734 C 9.240137100219727 63.68733596801758 6.463936805725098 59.5698356628418 4.524903297424316 54.98546981811523 C 2.517725706100464 50.23995971679688 1.500003457069397 45.19811630249023 1.500003457069397 39.99999237060547 C 1.500003457069397 34.8018684387207 2.517725706100464 29.76002502441406 4.524903297424316 25.0145263671875 C 6.463936805725098 20.43014717102051 9.240137100219727 16.31264877319336 12.77639198303223 12.77639198303223 C 16.31264877319336 9.240137100219727 20.43014717102051 6.463936805725098 25.0145263671875 4.524903297424316 C 29.76002502441406 2.517725706100464 34.8018684387207 1.500003457069397 39.99999237060547 1.500003457069397 C 45.19811630249023 1.500003457069397 50.23995971679688 2.517725706100464 54.98546981811523 4.524903297424316 C 59.5698356628418 6.463936805725098 63.68733596801758 9.240137100219727 67.22359466552734 12.77639198303223 C 70.75984954833984 16.31264877319336 73.53604888916016 20.43014717102051 75.47508239746094 25.0145263671875 C 77.48226165771484 29.76002502441406 78.49998474121094 34.8018684387207 78.49998474121094 39.99999237060547 C 78.49998474121094 45.19812393188477 77.48226165771484 50.23995971679688 75.47508239746094 54.98546981811523 C 73.53604888916016 59.5698356628418 70.75984954833984 63.68733596801758 67.22359466552734 67.22359466552734 C 63.68733596801758 70.75984954833984 59.5698356628418 73.53604888916016 54.98546981811523 75.47508239746094 C 50.23995971679688 77.48226165771484 45.19812393188477 78.49998474121094 39.99999237060547 78.49998474121094 Z" stroke="none"/>
                      <path d="M 39.99999237060547 2.999992370605469 C 35.00370025634766 2.999992370605469 30.1584587097168 3.97784423828125 25.59884643554688 5.906402587890625 C 21.19327163696289 7.769805908203125 17.23603057861328 10.43805694580078 13.83704376220703 13.83704376220703 C 10.43805694580078 17.23603057861328 7.769805908203125 21.19327163696289 5.906402587890625 25.59884643554688 C 3.97784423828125 30.1584587097168 2.999992370605469 35.00370025634766 2.999992370605469 39.99999237060547 C 2.999992370605469 44.99628448486328 3.97784423828125 49.84152603149414 5.906402587890625 54.40113830566406 C 7.769805908203125 58.80671310424805 10.43805694580078 62.76395416259766 13.83704376220703 66.16294097900391 C 17.23603057861328 69.56191253662109 21.19327163696289 72.23016357421875 25.59884643554688 74.09356689453125 C 30.1584587097168 76.02212524414062 35.00370025634766 76.99997711181641 39.99999237060547 76.99997711181641 C 44.99628448486328 76.99997711181641 49.84152603149414 76.02212524414062 54.40113830566406 74.09356689453125 C 58.80671310424805 72.23016357421875 62.76395416259766 69.56191253662109 66.16294097900391 66.16294097900391 C 69.56191253662109 62.76395416259766 72.23016357421875 58.80671310424805 74.09356689453125 54.40113830566406 C 76.02212524414062 49.84152603149414 76.99997711181641 44.99628448486328 76.99997711181641 39.99999237060547 C 76.99997711181641 35.00370025634766 76.02212524414062 30.1584587097168 74.09356689453125 25.59884643554688 C 72.23016357421875 21.19327163696289 69.56191253662109 17.23603057861328 66.16294097900391 13.83704376220703 C 62.76395416259766 10.43805694580078 58.80671310424805 7.769805908203125 54.40113830566406 5.906402587890625 C 49.84152603149414 3.97784423828125 44.99628448486328 2.999992370605469 39.99999237060547 2.999992370605469 M 39.99999237060547 -7.62939453125e-06 C 62.09137725830078 -7.62939453125e-06 79.99997711181641 17.90860748291016 79.99997711181641 39.99999237060547 C 79.99997711181641 62.09137725830078 62.09137725830078 79.99997711181641 39.99999237060547 79.99997711181641 C 17.90860748291016 79.99997711181641 -7.62939453125e-06 62.09137725830078 -7.62939453125e-06 39.99999237060547 C -7.62939453125e-06 17.90860748291016 17.90860748291016 -7.62939453125e-06 39.99999237060547 -7.62939453125e-06 Z" stroke="none" fill="#83793c"/>
                    </g>
                  </g>
                </g>
              </g>
            </g>
          </g>
        </g>
      </g>
    </g>
    <g id="ecology_1552684_1_" data-name="ecology_1552684 (1)" transform="translate(1155.296 1966.5)">
      <g id="Grupo_1206703" data-name="Grupo 1206703" transform="translate(1.919 1.919)">
        <g id="Grupo_1206702" data-name="Grupo 1206702" transform="translate(0 0)">
          <path id="Trazado_1049602" data-name="Trazado 1049602" d="M21.036,35.121a2.009,2.009,0,0,0-2,2v.588a2.01,2.01,0,0,0,.028.331l.947,5.691a22.146,22.146,0,0,1-5.24-3.751c.754-.947,1.434-1.793,1.885-2.354a2.45,2.45,0,0,0,.542-1.545v-.3A2.48,2.48,0,0,0,14.72,33.31H14.7a2.469,2.469,0,0,0-1.949.984l-1.287,1.682A21.962,21.962,0,0,1,8,24.089c0-.313.009-.616.018-.919h.726a3.892,3.892,0,0,1,3.742,2.813,4.984,4.984,0,0,0,8.945,1.4l1.361-2.032a5.019,5.019,0,0,0,.837-2.767v-2.17a2.754,2.754,0,0,0-2.758-2.758A2.754,2.754,0,0,1,18.113,14.9V13.516a2.756,2.756,0,0,0-1.1-2.206L13.957,9.02A21.937,21.937,0,0,1,26.626,2.3a5.388,5.388,0,0,0-.239,1.6,4.016,4.016,0,0,1-2.528,3.733,3.291,3.291,0,0,0,.184,6.178l.515.165a4.035,4.035,0,0,1,2.749,3.815,4.457,4.457,0,0,0,4.459,4.459h.46A4.441,4.441,0,0,0,36.5,19.023a4.421,4.421,0,0,1,4.257-3.209h.7a5.368,5.368,0,0,0,4-1.793l2.51-2.832a21.884,21.884,0,0,1,2.206,3.825l-5.36,5.36a3.251,3.251,0,0,0-.956,2.3A3.249,3.249,0,0,1,40.6,25.927H39.81a3.24,3.24,0,0,0-2.445,1.112l-.616.708a19.441,19.441,0,0,0-3.006,4.634v-.938A1.852,1.852,0,0,0,31.9,29.6a1.844,1.844,0,0,0-1.839,1.839V27.766a1.852,1.852,0,0,0-1.839-1.839,1.844,1.844,0,0,0-1.839,1.839V45.234a2.207,2.207,0,0,1-2.17-1.811l-1.508-8.3Z" transform="translate(-2.484 -2.024)" fill="#69d6f4"/>
          <path id="Trazado_1049603" data-name="Trazado 1049603" d="M49.174,11.166,46.664,14a5.368,5.368,0,0,1-4,1.793h-.7A4.421,4.421,0,0,0,37.71,19a4.441,4.441,0,0,1-4.275,3.227h-.46a4.457,4.457,0,0,1-4.459-4.459,4.035,4.035,0,0,0-2.749-3.815l-.515-.165a3.291,3.291,0,0,1-.184-6.178A4.016,4.016,0,0,0,27.6,3.875a5.388,5.388,0,0,1,.239-1.6A21.248,21.248,0,0,1,31.274,2,22.037,22.037,0,0,1,49.174,11.166Z" transform="translate(-3.694 -2)" fill="#b4dd7f"/>
          <path id="Trazado_1049604" data-name="Trazado 1049604" d="M45.736,38.746c.45.561,1.122,1.407,1.885,2.354a21.827,21.827,0,0,1-4.266,3.218V36.236A1.852,1.852,0,0,0,41.516,34.4a1.844,1.844,0,0,0-1.839,1.839V34.4a1.852,1.852,0,0,0-1.839-1.839A1.844,1.844,0,0,0,36,34.4v-.9a19.441,19.441,0,0,1,3.006-4.634l.616-.708a3.24,3.24,0,0,1,2.445-1.112h.791a3.249,3.249,0,0,0,3.255-3.255,3.251,3.251,0,0,1,.956-2.3l5.36-5.36a20.981,20.981,0,0,1,1.324,3.834,22.072,22.072,0,0,1-2.832,17.128l-1.287-1.682a2.469,2.469,0,0,0-1.949-.984h-.018A2.48,2.48,0,0,0,45.194,36.9v.3A2.45,2.45,0,0,0,45.736,38.746Z" transform="translate(-4.742 -3.14)" fill="#b4dd7f"/>
          <path id="Trazado_1049605" data-name="Trazado 1049605" d="M8.746,23.759H8.02a21.476,21.476,0,0,1,.616-4.321A21.815,21.815,0,0,1,13.959,9.61L17.011,11.9a2.756,2.756,0,0,1,1.1,2.206v1.379a2.754,2.754,0,0,0,2.758,2.758A2.754,2.754,0,0,1,23.631,21v2.17a5.019,5.019,0,0,1-.837,2.767L21.433,27.97a4.984,4.984,0,0,1-8.945-1.4A3.892,3.892,0,0,0,8.746,23.759Z" transform="translate(-2.485 -2.614)" fill="#b4dd7f"/>
          <path id="Trazado_1049606" data-name="Trazado 1049606" d="M55.828,20a2.253,2.253,0,0,1,1.885,1.011l1.158,1.738a11.04,11.04,0,0,1,1.839,6.1V49.419H53.373a5.238,5.238,0,0,0-1.149-3.273c-1.011-1.26-2.519-3.135-3.8-4.735-.763-.947-1.434-1.793-1.885-2.354A2.45,2.45,0,0,1,46,37.514v-.3a2.48,2.48,0,0,1,2.473-2.473h.018a2.469,2.469,0,0,1,1.949.984L51.728,37.4a22.072,22.072,0,0,0,2.832-17.128A2.327,2.327,0,0,1,55.653,20Z" transform="translate(-5.548 -3.452)" fill="#f0d0b4"/>
          <path id="Trazado_1049607" data-name="Trazado 1049607" d="M38.387,37.194a1.844,1.844,0,0,1,1.839-1.839,1.852,1.852,0,0,1,1.839,1.839V49.7a3.668,3.668,0,0,1-.809,2.3L39.2,54.569a3.668,3.668,0,0,0-.809,2.3v2.39H25.516v-2.39a3.668,3.668,0,0,0-.809-2.3l-2.271-2.841a3.58,3.58,0,0,1-.754-1.692l-.708-4.229-.947-5.691A2.01,2.01,0,0,1,20,39.786V39.2a2.009,2.009,0,0,1,2-2h1.673l1.508,8.3a2.207,2.207,0,0,0,2.17,1.811V29.839A1.844,1.844,0,0,1,29.194,28a1.852,1.852,0,0,1,1.839,1.839v3.677a1.844,1.844,0,0,1,1.839-1.839,1.852,1.852,0,0,1,1.839,1.839v1.839a1.844,1.844,0,0,1,1.839-1.839,1.852,1.852,0,0,1,1.839,1.839Z" transform="translate(-3.452 -4.097)" fill="#f0d0b4"/>
          <path id="Trazado_1049608" data-name="Trazado 1049608" d="M10.982,37.4l1.287-1.682a2.469,2.469,0,0,1,1.949-.984h.018A2.48,2.48,0,0,1,16.71,37.21v.3a2.45,2.45,0,0,1-.542,1.545c-.45.561-1.131,1.407-1.885,2.354-1.278,1.6-2.786,3.475-3.8,4.735a5.238,5.238,0,0,0-1.149,3.273H2V28.844a11.04,11.04,0,0,1,1.839-6.1L5,21.011A2.253,2.253,0,0,1,6.882,20h.175a2.263,2.263,0,0,1,1.085.276H8.15A21.476,21.476,0,0,0,7.535,24.6c-.009.3-.018.607-.018.919A21.962,21.962,0,0,0,10.982,37.4Z" transform="translate(-2 -3.452)" fill="#f0d0b4"/>
        </g>
      </g>
      <path id="Trazado_1049609" data-name="Trazado 1049609" d="M56,20.7l-1.151-1.732A3.182,3.182,0,0,0,52.2,17.548h-.175a3.148,3.148,0,0,0-.445.056,22.979,22.979,0,0,0-44.154,0,3.148,3.148,0,0,0-.445-.056H6.8a3.184,3.184,0,0,0-2.656,1.423L3,20.7a11.9,11.9,0,0,0-2,6.608V48.806h9.174v-.919a4.33,4.33,0,0,1,.948-2.7l3.188-3.975a22.944,22.944,0,0,0,4.3,3l.633,3.8a4.615,4.615,0,0,0,.943,2.116L22.46,52.97a2.766,2.766,0,0,1,.6,1.723V58h14.71V54.693a2.762,2.762,0,0,1,.6-1.723l2.065-2.582a4.615,4.615,0,0,0,1.008-2.871V43.608a23.028,23.028,0,0,0,3.242-2.389l3.185,3.969a4.335,4.335,0,0,1,.948,2.7v.919H58V27.312A11.9,11.9,0,0,0,56,20.7ZM48,34.226l-.451-.6a3.416,3.416,0,0,0-2.676-1.344,3.454,3.454,0,0,0-2.415.984,3.372,3.372,0,0,0-1,2.408v-.661a2.749,2.749,0,0,0-3.784-2.556,2.748,2.748,0,0,0-2.436-2.02,18.443,18.443,0,0,1,1.642-2.194l.621-.709a2.334,2.334,0,0,1,1.755-.8h.791a4.174,4.174,0,0,0,4.17-4.169,2.318,2.318,0,0,1,.682-1.648l4.393-4.393A21.116,21.116,0,0,1,48,34.226Zm-1.79-23.182L44.2,13.3a4.434,4.434,0,0,1-3.311,1.487h-.7a5.361,5.361,0,0,0-5.133,3.872,3.548,3.548,0,0,1-3.4,2.563H31.2a3.541,3.541,0,0,1-3.536-3.536A4.939,4.939,0,0,0,24.28,13l-.515-.171a2.369,2.369,0,0,1-.13-4.447,4.92,4.92,0,0,0,3.107-4.589,4.6,4.6,0,0,1,.073-.777,21.041,21.041,0,0,1,19.393,8.03Zm-25.9,7.423a1.841,1.841,0,0,1,1.839,1.839v2.166a4.053,4.053,0,0,1-.684,2.258L20.1,26.768a4.071,4.071,0,0,1-7.3-1.14,4.813,4.813,0,0,0-4.363-3.461A21.05,21.05,0,0,1,13.52,10.16l2.373,1.78a1.848,1.848,0,0,1,.736,1.472V14.79A3.681,3.681,0,0,0,20.306,18.468ZM9.687,44.038a6.168,6.168,0,0,0-1.282,2.93H2.839V27.312a10.066,10.066,0,0,1,1.69-5.591L5.68,19.989a1.345,1.345,0,0,1,1.123-.6h.175a22.963,22.963,0,0,0,2.77,16.327A1.414,1.414,0,0,1,8.27,35.7L6.1,34.244,5.076,35.772l2.172,1.453a3.3,3.3,0,0,0,4.343-.731l1.328-1.753a1.563,1.563,0,0,1,1.226-.615,1.435,1.435,0,0,1,1.106.45,1.544,1.544,0,0,1,.459,1.1v.308a1.522,1.522,0,0,1-.339.968Zm5.774-4.259L16.8,38.1a3.4,3.4,0,0,0,.745-2.12v-.308a3.392,3.392,0,0,0-3.418-3.391,3.415,3.415,0,0,0-2.676,1.344l-.452.6A21.08,21.08,0,0,1,8.355,24a2.97,2.97,0,0,1,2.678,2.134,5.911,5.911,0,0,0,10.6,1.656l1.358-2.037a5.886,5.886,0,0,0,.993-3.278V20.306a3.681,3.681,0,0,0-3.677-3.677,1.841,1.841,0,0,1-1.839-1.839V13.411A3.694,3.694,0,0,0,17,10.469L14.79,8.815A21.117,21.117,0,0,1,24.937,3.34c-.011.151-.034.3-.034.452a3.089,3.089,0,0,1-1.951,2.882,4.208,4.208,0,0,0,.233,7.9l.515.172a3.1,3.1,0,0,1,2.124,2.945A5.378,5.378,0,0,0,31.2,23.065h.46a5.4,5.4,0,0,0,5.167-3.9,3.514,3.514,0,0,1,3.364-2.538h.7a6.272,6.272,0,0,0,4.684-2.1l1.724-1.94a21.123,21.123,0,0,1,1.2,2.129l-4.908,4.908a4.143,4.143,0,0,0-1.222,2.949A2.334,2.334,0,0,1,40.04,24.9H39.25a4.173,4.173,0,0,0-3.139,1.424l-.621.71a20.136,20.136,0,0,0-1.951,2.655,2.693,2.693,0,0,0-3.119-.942V27.661a2.758,2.758,0,1,0-5.516,0v16.16a1.286,1.286,0,0,1-.344-.667L22.913,34.1h-2.44a2.928,2.928,0,0,0-2.924,2.924v.587a2.991,2.991,0,0,0,.04.48l.629,3.77A21.182,21.182,0,0,1,15.461,39.778Zm24.151,7.738a2.762,2.762,0,0,1-.6,1.723l-2.065,2.582a4.615,4.615,0,0,0-1.008,2.871v1.468H24.9V54.693A4.62,4.62,0,0,0,23.9,51.821l-2.274-2.842a2.759,2.759,0,0,1-.565-1.269L19.4,37.787a1.159,1.159,0,0,1-.014-.179V37.02a1.086,1.086,0,0,1,1.086-1.085h.9l1.373,7.549a3.121,3.121,0,0,0,3.072,2.564h.919V27.661a.919.919,0,1,1,1.839,0V44.21h1.839V31.339a.919.919,0,0,1,1.839,0V44.21H34.1V33.177a.919.919,0,0,1,1.839,0V44.21h1.839V35.016a.919.919,0,1,1,1.839,0Zm1.839-6.1V35.984a3.394,3.394,0,0,0,.743,2.119l1.347,1.679A21.083,21.083,0,0,1,41.452,41.42Zm14.71,5.547H50.595a6.178,6.178,0,0,0-1.283-2.93l-5.685-7.085a1.531,1.531,0,0,1-.337-.968v-.308a1.552,1.552,0,0,1,1.552-1.552h.013a1.563,1.563,0,0,1,1.225.615l1.328,1.754a3.3,3.3,0,0,0,4.343.73l2.172-1.453L52.9,34.243,50.729,35.7a1.413,1.413,0,0,1-1.477.018,22.947,22.947,0,0,0,2.77-16.327H52.2a1.348,1.348,0,0,1,1.124.6l1.151,1.732a10.066,10.066,0,0,1,1.69,5.591Z"/>
    </g>
  </g>
</svg>
