<svg xmlns="http://www.w3.org/2000/svg" xmlns:xlink="http://www.w3.org/1999/xlink" width="113" height="113" viewBox="0 0 113 113">
  <defs>
    <filter id="Trazado_982547" x="0" y="0" width="113" height="113" filterUnits="userSpaceOnUse">
      <feOffset dy="3" input="SourceAlpha"/>
      <feGaussianBlur stdDeviation="3" result="blur"/>
      <feFlood flood-opacity="0.161"/>
      <feComposite operator="in" in2="blur"/>
      <feComposite in="SourceGraphic"/>
    </filter>
  </defs>
  <g id="Grupo_1206709" data-name="Grupo 1206709" transform="translate(-794.796 -3870)">
    <g id="Grupo_1206200" data-name="Grupo 1206200" transform="translate(1.306 2814.658)">
      <g id="Grupo_1202717" data-name="Grupo 1202717" transform="translate(0 -1644.681)">
        <g id="Grupo_1202072" data-name="Grupo 1202072" transform="translate(0 324.215)">
          <g id="Grupo_1178713" data-name="Grupo 1178713" transform="translate(0 886.374)">
            <g id="Grupo_1176922" data-name="Grupo 1176922" transform="translate(802.49 1495.435)">
              <g id="Grupo_1172322" data-name="Grupo 1172322" transform="translate(0 0)">
                <g id="Grupo_1164700" data-name="Grupo 1164700">
                  <g id="Grupo_1160931" data-name="Grupo 1160931">
                    <g id="Grupo_1160749" data-name="Grupo 1160749">
                      <g id="Grupo_1158891" data-name="Grupo 1158891">
                        <g id="Grupo_1157406" data-name="Grupo 1157406">
                          <g id="Grupo_1155793" data-name="Grupo 1155793">
                            <g id="Grupo_1154704" data-name="Grupo 1154704">
                              <g id="Grupo_1150790" data-name="Grupo 1150790">
                                <g id="Grupo_1154214" data-name="Grupo 1154214">
                                  <g id="Grupo_1152583" data-name="Grupo 1152583">
                                    <g id="Grupo_1146973" data-name="Grupo 1146973">
                                      <g id="Grupo_1146954" data-name="Grupo 1146954">
                                        <g transform="matrix(1, 0, 0, 1, -9, -6)" filter="url(#Trazado_982547)">
                                          <g id="Trazado_982547-2" data-name="Trazado 982547" transform="translate(9 6)" fill="#edf3fc">
                                            <path d="M 47.5000114440918 93.49987030029297 C 41.28938293457031 93.49987030029297 35.26534652709961 92.28384399414062 29.5951976776123 89.88558959960938 C 24.11773109436035 87.56881713867188 19.19814491271973 84.25183868408203 14.97310447692871 80.02680206298828 C 10.74805164337158 75.80176544189453 7.43107795715332 70.88218688964844 5.114304542541504 65.40472412109375 C 2.716038227081299 59.73458862304688 1.500011444091797 53.71054840087891 1.500011444091797 47.49993515014648 C 1.500011444091797 41.28932189941406 2.716038227081299 35.26528167724609 5.114304542541504 29.59514808654785 C 7.43107795715332 24.1176815032959 10.74805164337158 19.1981086730957 14.97310447692871 14.97306823730469 C 19.19814491271973 10.74802875518799 24.11773109436035 7.431055068969727 29.5951976776123 5.11428165435791 C 35.26534652709961 2.716028451919556 41.28938293457031 1.500001788139343 47.5000114440918 1.500001788139343 C 53.71063995361328 1.500001788139343 59.73467636108398 2.716028451919556 65.40482330322266 5.11428165435791 C 70.88229370117188 7.431055068969727 75.8018798828125 10.74802875518799 80.02691650390625 14.97306823730469 C 84.25196838378906 19.1981086730957 87.56894683837891 24.1176815032959 89.88571929931641 29.59514808654785 C 92.28398132324219 35.26528167724609 93.50001525878906 41.28932189941406 93.50001525878906 47.49993515014648 C 93.50001525878906 53.71054840087891 92.28398132324219 59.73458862304688 89.88571929931641 65.40472412109375 C 87.56894683837891 70.88218688964844 84.25196838378906 75.80176544189453 80.02691650390625 80.02680206298828 C 75.8018798828125 84.25183868408203 70.88229370117188 87.56881713867188 65.40482330322266 89.88558959960938 C 59.73467636108398 92.28384399414062 53.71063995361328 93.49987030029297 47.5000114440918 93.49987030029297 Z" stroke="none"/>
                                            <path d="M 47.5000114440918 3 C 41.49122619628906 3 35.66378021240234 4.1761474609375 30.17951965332031 6.495796203613281 C 24.880859375 8.7369384765625 20.12153625488281 11.94596862792969 16.03376770019531 16.03373718261719 C 11.94598388671875 20.12149047851562 8.736968994140625 24.88081359863281 6.495811462402344 30.17947387695312 C 4.176162719726562 35.66371917724609 3.000007629394531 41.49116516113281 3.000007629394531 47.49993515014648 C 3.000007629394531 53.50870513916016 4.176162719726562 59.33615112304688 6.495811462402344 64.82039642333984 C 8.736968994140625 70.11905670166016 11.94598388671875 74.87837982177734 16.03376770019531 78.96613311767578 C 20.12153625488281 83.05390167236328 24.880859375 86.26293182373047 30.17951965332031 88.50407409667969 C 35.66378021240234 90.82372283935547 41.49122619628906 91.99987030029297 47.5000114440918 91.99987030029297 C 53.50879669189453 91.99987030029297 59.33624267578125 90.82372283935547 64.82050323486328 88.50407409667969 C 70.11916351318359 86.26293182373047 74.87848663330078 83.05390167236328 78.96625518798828 78.96613311767578 C 83.05403900146484 74.87837982177734 86.2630615234375 70.11905670166016 88.50421142578125 64.82039642333984 C 90.82386016845703 59.33615112304688 92.00001525878906 53.50870513916016 92.00001525878906 47.49993515014648 C 92.00001525878906 41.49116516113281 90.82386016845703 35.66371917724609 88.50421142578125 30.17947387695312 C 86.2630615234375 24.88081359863281 83.05403900146484 20.12149047851562 78.96625518798828 16.03373718261719 C 74.87848663330078 11.94596862792969 70.11916351318359 8.7369384765625 64.82050323486328 6.495796203613281 C 59.33624267578125 4.1761474609375 53.50879669189453 3 47.5000114440918 3 M 47.5000114440918 0 C 73.73353576660156 0 95.00001525878906 21.26644134521484 95.00001525878906 47.49993515014648 C 95.00001525878906 73.73342895507812 73.73353576660156 94.99987030029297 47.5000114440918 94.99987030029297 C 21.26648712158203 94.99987030029297 7.62939453125e-06 73.73342895507812 7.62939453125e-06 47.49993515014648 C 7.62939453125e-06 21.26644134521484 21.26648712158203 0 47.5000114440918 0 Z" stroke="none" fill="#5692e8"/>
                                          </g>
                                        </g>
                                      </g>
                                    </g>
                                  </g>
                                </g>
                              </g>
                            </g>
                          </g>
                        </g>
                      </g>
                    </g>
                  </g>
                </g>
              </g>
            </g>
          </g>
        </g>
      </g>
    </g>
    <g id="bullying_9895576" transform="translate(803.805 3887.5)">
      <g id="Grupo_1206706" data-name="Grupo 1206706" transform="translate(14.664 7.5)">
        <g id="Grupo_1206705" data-name="Grupo 1206705" transform="translate(0 0)">
          <path id="Trazado_1049610" data-name="Trazado 1049610" d="M337.55,18.817c6.635.871,16.09-.251,16.09-3.381a11.945,11.945,0,0,0-10.616-7.8C335.015,8.461,333.8,17.152,337.55,18.817Z" transform="translate(-296.078 -7.617)" fill="#fdcd64"/>
          <path id="Trazado_1049611" data-name="Trazado 1049611" d="M300.427,15.326c-.254,1.758,2.592,2.883,6.334,3.375a15.071,15.071,0,0,1,5.474-11.184c-.2-.01-.4-.016-.595-.016A11.946,11.946,0,0,0,300.427,15.326Z" transform="translate(-265.289 -7.5)" fill="#fdb245"/>
          <path id="Trazado_1049612" data-name="Trazado 1049612" d="M29.5,76.619a3.245,3.245,0,0,1,3.244-3.244H30.893a3.244,3.244,0,1,1,0-6.488,3.241,3.241,0,0,1-2.932-1.857,3.244,3.244,0,0,0,3.4-3.24V55.642a3.584,3.584,0,0,0-3.584-3.584c-2.835,0-3.152-.011-3.8.026a15.855,15.855,0,0,0-9.006,3.449l-.29.232-.01,19.453a15.861,15.861,0,0,0,10.744,4.636c.156,0,.312.008.468.008h6.871A3.243,3.243,0,0,1,29.5,76.619Z" transform="translate(-14.664 -46.58)" fill="#f9bbaf"/>
          <path id="Trazado_1049613" data-name="Trazado 1049613" d="M142.343,225.5a3.244,3.244,0,1,1,0,6.488h-3.707a3.244,3.244,0,0,1,0-6.488Z" transform="translate(-120.553 -198.706)" fill="#ffcbbe"/>
          <path id="Trazado_1049614" data-name="Trazado 1049614" d="M134.118,119.934a3.244,3.244,0,0,1,0,6.488h-8.341a3.241,3.241,0,0,1-2.932-1.857,3.244,3.244,0,0,0,3.4-3.24v-1.39Z" transform="translate(-109.547 -106.114)" fill="#ffcbbe"/>
          <path id="Trazado_1049615" data-name="Trazado 1049615" d="M131.9,172.718a3.244,3.244,0,0,1,0,6.488h-8.341a3.244,3.244,0,0,1,0-6.488Z" transform="translate(-107.325 -152.411)" fill="#ffddcf"/>
          <path id="Trazado_1049616" data-name="Trazado 1049616" d="M152.4,67.15a3.244,3.244,0,1,1,0,6.488h-5.1V68.88a3.557,3.557,0,0,0-.445-1.73Z" transform="translate(-130.606 -59.818)" fill="#ffddcf"/>
          <path id="Trazado_1049617" data-name="Trazado 1049617" d="M399.184,453.257v1.24a3.707,3.707,0,0,1-7.415,0v-2.781h7.415Z" transform="translate(-345.418 -397.116)" fill="#d5d4ff"/>
          <path id="Trazado_1049618" data-name="Trazado 1049618" d="M338.86,451.716V454.5a3.707,3.707,0,0,1-7.415,0v-2.781Z" transform="translate(-292.509 -397.116)" fill="#d5d4ff"/>
          <path id="Trazado_1049619" data-name="Trazado 1049619" d="M331.445,339.283V323.527h14.829v15.756Z" transform="translate(-292.508 -284.683)" fill="#544575"/>
          <path id="Trazado_1049620" data-name="Trazado 1049620" d="M306.345,180.258H292.01a5.808,5.808,0,0,0-5.808,5.808v11.8h25.951v-11.8A5.808,5.808,0,0,0,306.345,180.258Z" transform="translate(-252.826 -159.024)" fill="#727beb"/>
          <path id="Trazado_1049621" data-name="Trazado 1049621" d="M457.654,323.528v1.854a2.781,2.781,0,0,1-5.561,0v-1.854Z" transform="translate(-398.327 -284.684)" fill="#d79b8c"/>
          <path id="Trazado_1049622" data-name="Trazado 1049622" d="M291.762,323.528v1.854a2.781,2.781,0,0,1-5.561,0v-1.854Z" transform="translate(-252.826 -284.684)" fill="#d79b8c"/>
          <path id="Trazado_1049623" data-name="Trazado 1049623" d="M368.968,177.2a3.706,3.706,0,1,1-7.345,0C361.623,174.573,368.968,174.573,368.968,177.2Z" transform="translate(-318.945 -154.615)" fill="#c98b7f"/>
          <path id="Trazado_1049624" data-name="Trazado 1049624" d="M347.829,51.972a11.894,11.894,0,0,0-.732-4.121c-2.9,1.135-6.481-.026-7.322-2.285a.468.468,0,0,0-.585-.289,4.631,4.631,0,0,1-4.1-.6.466.466,0,0,0-.68.157,6.249,6.249,0,0,1-2.744,2.517c-5.659,3.617-4.986,14.284,4.314,15.768C342.546,63.075,347.829,58.523,347.829,51.972Z" transform="translate(-289.536 -40.03)" fill="#e0aea2"/>
          <path id="Trazado_1049625" data-name="Trazado 1049625" d="M302.328,67.046a9.521,9.521,0,0,1-6.992.507,11.892,11.892,0,0,0-.729,4.115c0,6.584,5.334,11.147,11.942,11.147h.093C301.981,79.234,300.686,72.641,302.328,67.046Z" transform="translate(-260.198 -59.727)" fill="#d79b8c"/>
        </g>
      </g>
      <g id="Grupo_1206708" data-name="Grupo 1206708" transform="translate(14.664 7.5)">
        <g id="Grupo_1206707" data-name="Grupo 1206707" transform="translate(0)">
          <line id="Línea_1091" data-name="Línea 1091" x1="0.001" y2="1.468" transform="translate(38.527 11.966)" fill="none" stroke="#000" stroke-linecap="round" stroke-linejoin="round" stroke-miterlimit="10" stroke-width="1"/>
          <line id="Línea_1092" data-name="Línea 1092" x1="0.001" y2="1.468" transform="translate(54.172 11.981)" fill="none" stroke="#000" stroke-linecap="round" stroke-linejoin="round" stroke-miterlimit="10" stroke-width="1"/>
          <line id="Línea_1093" data-name="Línea 1093" x2="4.125" y2="0.004" transform="translate(44.287 14.091)" fill="none" stroke="#000" stroke-linecap="round" stroke-linejoin="round" stroke-miterlimit="10" stroke-width="1"/>
          <path id="Trazado_1049626" data-name="Trazado 1049626" d="M245.928,25.406h-2.621l.655,3.277h-2.621" transform="translate(-213.479 -23.205)" fill="none" stroke="#000" stroke-linecap="round" stroke-linejoin="round" stroke-miterlimit="10" stroke-width="1"/>
          <path id="Trazado_1049627" data-name="Trazado 1049627" d="M195.716,315.987h2.621l-.655,3.277H200.3" transform="translate(-173.462 -278.07)" fill="none" stroke="#000" stroke-linecap="round" stroke-linejoin="round" stroke-miterlimit="10" stroke-width="1"/>
          <path id="Trazado_1049628" data-name="Trazado 1049628" d="M318.492,19.441c0,6.583-5.333,11.147-11.943,11.147-6.647,0-11.942-4.595-11.942-11.147a11.942,11.942,0,0,1,23.885,0Z" transform="translate(-260.198 -7.5)" fill="none" stroke="#000" stroke-linecap="round" stroke-linejoin="round" stroke-miterlimit="10" stroke-width="1"/>
          <path id="Trazado_1049629" data-name="Trazado 1049629" d="M138.636,231.989a3.244,3.244,0,0,1,0-6.488" transform="translate(-120.553 -198.706)" fill="none" stroke="#000" stroke-linecap="round" stroke-linejoin="round" stroke-miterlimit="10" stroke-width="1"/>
          <path id="Trazado_1049630" data-name="Trazado 1049630" d="M168.8,225.5a3.244,3.244,0,1,1,0,6.488h-3.244" transform="translate(-147.008 -198.706)" fill="none" stroke="#000" stroke-linecap="round" stroke-linejoin="round" stroke-miterlimit="10" stroke-width="1"/>
          <path id="Trazado_1049631" data-name="Trazado 1049631" d="M131.9,172.718a3.244,3.244,0,0,1,0,6.488h-8.341a3.244,3.244,0,0,1,0-6.488" transform="translate(-107.325 -152.411)" fill="none" stroke="#000" stroke-linecap="round" stroke-linejoin="round" stroke-miterlimit="10" stroke-width="1"/>
          <path id="Trazado_1049632" data-name="Trazado 1049632" d="M131.338,119.934h2.781a3.244,3.244,0,0,1,0,6.488h-8.341a3.241,3.241,0,0,1-2.932-1.857" transform="translate(-109.548 -106.114)" fill="none" stroke="#000" stroke-linecap="round" stroke-linejoin="round" stroke-miterlimit="10" stroke-width="1"/>
          <path id="Trazado_1049633" data-name="Trazado 1049633" d="M146.854,67.15H152.4a3.244,3.244,0,1,1,0,6.488h-5.1" transform="translate(-130.606 -59.818)" fill="none" stroke="#000" stroke-linecap="round" stroke-linejoin="round" stroke-miterlimit="10" stroke-width="1"/>
          <path id="Trazado_1049634" data-name="Trazado 1049634" d="M66.474,52.069h1.05a3.584,3.584,0,0,1,3.584,3.584V61.8a3.244,3.244,0,0,1-3.244,3.244q-.076,0-.152,0A3.244,3.244,0,0,1,64.62,61.8V57.63a4.634,4.634,0,0,1-4.634,4.634" transform="translate(-54.415 -46.591)" fill="none" stroke="#000" stroke-linecap="round" stroke-linejoin="round" stroke-miterlimit="10" stroke-width="1"/>
          <path id="Trazado_1049635" data-name="Trazado 1049635" d="M14.668,185.119l0,6.807a15.86,15.86,0,0,0,11.212,4.644H33.21" transform="translate(-14.664 -163.287)" fill="none" stroke="#000" stroke-linecap="round" stroke-linejoin="round" stroke-miterlimit="10" stroke-width="1"/>
          <path id="Trazado_1049636" data-name="Trazado 1049636" d="M14.714,64.093l0-8.322.29-.232a15.854,15.854,0,0,1,9.9-3.475h1.854" transform="translate(-14.708 -46.586)" fill="none" stroke="#000" stroke-linecap="round" stroke-linejoin="round" stroke-miterlimit="10" stroke-width="1"/>
          <path id="Trazado_1049637" data-name="Trazado 1049637" d="M300.539,45.97c4.114,1.3,8.728-.41,9.975-3.532a4.629,4.629,0,0,0,5,.775c.492,2.559,4.359,3.962,7.453,2.751" transform="translate(-265.401 -38.144)" fill="none" stroke="#000" stroke-linecap="round" stroke-linejoin="round" stroke-miterlimit="10" stroke-width="1"/>
          <line id="Línea_1094" data-name="Línea 1094" x2="14.829" transform="translate(38.937 38.844)" fill="none" stroke="#000" stroke-linecap="round" stroke-linejoin="round" stroke-miterlimit="10" stroke-width="1"/>
          <path id="Trazado_1049638" data-name="Trazado 1049638" d="M331.445,241.509v-.927" transform="translate(-292.509 -211.933)" fill="none" stroke="#000" stroke-linecap="round" stroke-linejoin="round" stroke-miterlimit="10" stroke-width="1"/>
          <path id="Trazado_1049639" data-name="Trazado 1049639" d="M331.445,344.763V338.6" transform="translate(-292.509 -297.907)" fill="none" stroke="#000" stroke-linecap="round" stroke-linejoin="round" stroke-miterlimit="10" stroke-width="1"/>
          <path id="Trazado_1049640" data-name="Trazado 1049640" d="M331.445,423.9v6.2a3.707,3.707,0,0,0,7.415,0" transform="translate(-292.508 -372.721)" fill="none" stroke="#000" stroke-linecap="round" stroke-linejoin="round" stroke-miterlimit="10" stroke-width="1"/>
          <path id="Trazado_1049641" data-name="Trazado 1049641" d="M399.184,338.609v16.683a3.707,3.707,0,0,1-7.415,0v-13.9" transform="translate(-345.418 -297.911)" fill="none" stroke="#000" stroke-linecap="round" stroke-linejoin="round" stroke-miterlimit="10" stroke-width="1"/>
          <path id="Trazado_1049642" data-name="Trazado 1049642" d="M331.445,451.716h14.829" transform="translate(-292.508 -397.116)" fill="none" stroke="#000" stroke-linecap="round" stroke-linejoin="round" stroke-miterlimit="10" stroke-width="1"/>
          <line id="Línea_1095" data-name="Línea 1095" x2="0.101" transform="translate(33.376 38.844)" fill="none" stroke="#000" stroke-linecap="round" stroke-linejoin="round" stroke-miterlimit="10" stroke-width="1"/>
          <line id="Línea_1096" data-name="Línea 1096" x2="5.46" transform="translate(33.477 38.844)" fill="none" stroke="#000" stroke-linecap="round" stroke-linejoin="round" stroke-miterlimit="10" stroke-width="1"/>
          <path id="Trazado_1049643" data-name="Trazado 1049643" d="M291.762,188.6v11.122a2.781,2.781,0,0,1-5.561,0V186.066a5.808,5.808,0,0,1,5.808-5.808h.382" transform="translate(-252.826 -159.024)" fill="none" stroke="#000" stroke-linecap="round" stroke-linejoin="round" stroke-miterlimit="10" stroke-width="1"/>
          <line id="Línea_1097" data-name="Línea 1097" x1="0.101" transform="translate(59.225 38.844)" fill="none" stroke="#000" stroke-linecap="round" stroke-linejoin="round" stroke-miterlimit="10" stroke-width="1"/>
          <line id="Línea_1098" data-name="Línea 1098" x1="5.46" transform="translate(53.766 38.844)" fill="none" stroke="#000" stroke-linecap="round" stroke-linejoin="round" stroke-miterlimit="10" stroke-width="1"/>
          <path id="Trazado_1049644" data-name="Trazado 1049644" d="M446.976,180.258h.382a5.808,5.808,0,0,1,5.808,5.808v13.655a2.781,2.781,0,0,1-5.561,0V187.673" transform="translate(-393.839 -159.024)" fill="none" stroke="#000" stroke-linecap="round" stroke-linejoin="round" stroke-miterlimit="10" stroke-width="1"/>
          <path id="Trazado_1049645" data-name="Trazado 1049645" d="M368.968,191.287a3.706,3.706,0,1,1-7.345,0" transform="translate(-318.945 -168.697)" fill="none" stroke="#000" stroke-linecap="round" stroke-linejoin="round" stroke-miterlimit="10" stroke-width="1"/>
        </g>
      </g>
    </g>
  </g>
</svg>
