<svg xmlns="http://www.w3.org/2000/svg" xmlns:xlink="http://www.w3.org/1999/xlink" width="113" height="113" viewBox="0 0 113 113">
  <defs>
    <filter id="Trazado_982547" x="0" y="0" width="113" height="113" filterUnits="userSpaceOnUse">
      <feOffset dy="3" input="SourceAlpha"/>
      <feGaussianBlur stdDeviation="3" result="blur"/>
      <feFlood flood-opacity="0.161"/>
      <feComposite operator="in" in2="blur"/>
      <feComposite in="SourceGraphic"/>
    </filter>
  </defs>
  <g id="Grupo_1206738" data-name="Grupo 1206738" transform="translate(-4777 -3870.467)">
    <g id="Grupo_1206225" data-name="Grupo 1206225" transform="translate(3983.51 2815.125)">
      <g id="Grupo_1202717" data-name="Grupo 1202717" transform="translate(0 -1644.681)">
        <g id="Grupo_1202072" data-name="Grupo 1202072" transform="translate(0 324.215)">
          <g id="Grupo_1178713" data-name="Grupo 1178713" transform="translate(0 886.374)">
            <g id="Grupo_1176922" data-name="Grupo 1176922" transform="translate(802.49 1495.435)">
              <g id="Grupo_1172322" data-name="Grupo 1172322" transform="translate(0 0)">
                <g id="Grupo_1164700" data-name="Grupo 1164700">
                  <g id="Grupo_1160931" data-name="Grupo 1160931">
                    <g id="Grupo_1160749" data-name="Grupo 1160749">
                      <g id="Grupo_1158891" data-name="Grupo 1158891">
                        <g id="Grupo_1157406" data-name="Grupo 1157406">
                          <g id="Grupo_1155793" data-name="Grupo 1155793">
                            <g id="Grupo_1154704" data-name="Grupo 1154704">
                              <g id="Grupo_1150790" data-name="Grupo 1150790">
                                <g id="Grupo_1154214" data-name="Grupo 1154214">
                                  <g id="Grupo_1152583" data-name="Grupo 1152583">
                                    <g id="Grupo_1146973" data-name="Grupo 1146973">
                                      <g id="Grupo_1146954" data-name="Grupo 1146954">
                                        <g transform="matrix(1, 0, 0, 1, -9, -6)" filter="url(#Trazado_982547)">
                                          <g id="Trazado_982547-2" data-name="Trazado 982547" transform="translate(9 6)" fill="#edf3fc">
                                            <path d="M 47.5000114440918 93.49987030029297 C 41.28938293457031 93.49987030029297 35.26534652709961 92.28384399414062 29.5951976776123 89.88558959960938 C 24.11773109436035 87.56881713867188 19.19814491271973 84.25183868408203 14.97310447692871 80.02680206298828 C 10.74805164337158 75.80176544189453 7.43107795715332 70.88218688964844 5.114304542541504 65.40472412109375 C 2.716038227081299 59.73458862304688 1.500011444091797 53.71054840087891 1.500011444091797 47.49993515014648 C 1.500011444091797 41.28932189941406 2.716038227081299 35.26528167724609 5.114304542541504 29.59514808654785 C 7.43107795715332 24.1176815032959 10.74805164337158 19.1981086730957 14.97310447692871 14.97306823730469 C 19.19814491271973 10.74802875518799 24.11773109436035 7.431055068969727 29.5951976776123 5.11428165435791 C 35.26534652709961 2.716028451919556 41.28938293457031 1.500001788139343 47.5000114440918 1.500001788139343 C 53.71063995361328 1.500001788139343 59.73467636108398 2.716028451919556 65.40482330322266 5.11428165435791 C 70.88229370117188 7.431055068969727 75.8018798828125 10.74802875518799 80.02691650390625 14.97306823730469 C 84.25196838378906 19.1981086730957 87.56894683837891 24.1176815032959 89.88571929931641 29.59514808654785 C 92.28398132324219 35.26528167724609 93.50001525878906 41.28932189941406 93.50001525878906 47.49993515014648 C 93.50001525878906 53.71054840087891 92.28398132324219 59.73458862304688 89.88571929931641 65.40472412109375 C 87.56894683837891 70.88218688964844 84.25196838378906 75.80176544189453 80.02691650390625 80.02680206298828 C 75.8018798828125 84.25183868408203 70.88229370117188 87.56881713867188 65.40482330322266 89.88558959960938 C 59.73467636108398 92.28384399414062 53.71063995361328 93.49987030029297 47.5000114440918 93.49987030029297 Z" stroke="none"/>
                                            <path d="M 47.5000114440918 3 C 41.49122619628906 3 35.66378021240234 4.1761474609375 30.17951965332031 6.495796203613281 C 24.880859375 8.7369384765625 20.12153625488281 11.94596862792969 16.03376770019531 16.03373718261719 C 11.94598388671875 20.12149047851562 8.736968994140625 24.88081359863281 6.495811462402344 30.17947387695312 C 4.176162719726562 35.66371917724609 3.000007629394531 41.49116516113281 3.000007629394531 47.49993515014648 C 3.000007629394531 53.50870513916016 4.176162719726562 59.33615112304688 6.495811462402344 64.82039642333984 C 8.736968994140625 70.11905670166016 11.94598388671875 74.87837982177734 16.03376770019531 78.96613311767578 C 20.12153625488281 83.05390167236328 24.880859375 86.26293182373047 30.17951965332031 88.50407409667969 C 35.66378021240234 90.82372283935547 41.49122619628906 91.99987030029297 47.5000114440918 91.99987030029297 C 53.50879669189453 91.99987030029297 59.33624267578125 90.82372283935547 64.82050323486328 88.50407409667969 C 70.11916351318359 86.26293182373047 74.87848663330078 83.05390167236328 78.96625518798828 78.96613311767578 C 83.05403900146484 74.87837982177734 86.2630615234375 70.11905670166016 88.50421142578125 64.82039642333984 C 90.82386016845703 59.33615112304688 92.00001525878906 53.50870513916016 92.00001525878906 47.49993515014648 C 92.00001525878906 41.49116516113281 90.82386016845703 35.66371917724609 88.50421142578125 30.17947387695312 C 86.2630615234375 24.88081359863281 83.05403900146484 20.12149047851562 78.96625518798828 16.03373718261719 C 74.87848663330078 11.94596862792969 70.11916351318359 8.7369384765625 64.82050323486328 6.495796203613281 C 59.33624267578125 4.1761474609375 53.50879669189453 3 47.5000114440918 3 M 47.5000114440918 0 C 73.73353576660156 0 95.00001525878906 21.26644134521484 95.00001525878906 47.49993515014648 C 95.00001525878906 73.73342895507812 73.73353576660156 94.99987030029297 47.5000114440918 94.99987030029297 C 21.26648712158203 94.99987030029297 7.62939453125e-06 73.73342895507812 7.62939453125e-06 47.49993515014648 C 7.62939453125e-06 21.26644134521484 21.26648712158203 0 47.5000114440918 0 Z" stroke="none" fill="#5692e8"/>
                                          </g>
                                        </g>
                                      </g>
                                    </g>
                                  </g>
                                </g>
                              </g>
                            </g>
                          </g>
                        </g>
                      </g>
                    </g>
                  </g>
                </g>
              </g>
            </g>
          </g>
        </g>
      </g>
    </g>
    <g id="treatment_17791813" transform="translate(4802.494 3888.689)">
      <g id="Grupo_1206737" data-name="Grupo 1206737" transform="translate(1.537 11.817)">
        <g id="Grupo_1206730" data-name="Grupo 1206730" transform="translate(42.603 26.089)">
          <path id="Trazado_1049697" data-name="Trazado 1049697" d="M366,290.054l2.929-9.709a3.3,3.3,0,0,1,4.1-2.2,3.259,3.259,0,0,1,1.255.708c-.054.094-.1.191-.148.3-.9,2.033-2.328,7.4-3.184,9.87-.2.58-.614,1.815-1.228,1.771l-3.623-.255A3.141,3.141,0,0,0,366,290.054Z" transform="translate(-365.999 -278.001)" fill="#f2a183" fill-rule="evenodd"/>
        </g>
        <g id="Grupo_1206731" data-name="Grupo 1206731" transform="translate(5.338 25.268)">
          <path id="Trazado_1049698" data-name="Trazado 1049698" d="M105.322,275.751c-6.894,15.6-5.3,12.326-20.29,20.991-11.152,4.277-18.4-2.573-31.143,0l.138-16.026,10.172.456c3.778.168,7.21-6,16.019.456h7.777a3.308,3.308,0,0,1,3.264,2.848l2.966-1.2a1.991,1.991,0,0,0,1.117-1.084c.966-2.2,3.63-8.374,3.952-9.105a3.295,3.295,0,1,1,6.029,2.66Z" transform="translate(-53.889 -271.127)" fill="#f7c5b8" fill-rule="evenodd"/>
        </g>
        <g id="Grupo_1206732" data-name="Grupo 1206732" transform="translate(0 32.868)">
          <path id="Trazado_1049699" data-name="Trazado 1049699" d="M9.186,334.776H20v20.005H9.186Z" transform="translate(-9.186 -334.776)" fill="#365f7f" fill-rule="evenodd"/>
        </g>
        <g id="Grupo_1206733" data-name="Grupo 1206733" transform="translate(2.922 1.285)">
          <path id="Trazado_1049700" data-name="Trazado 1049700" d="M36.417,70.264H68.573a2.763,2.763,0,0,1,2.758,2.754v24a2.766,2.766,0,0,1-2.758,2.758H36.417a2.766,2.766,0,0,1-2.758-2.758v-24A2.763,2.763,0,0,1,36.417,70.264Z" transform="translate(-33.659 -70.264)" fill="#5c85da" fill-rule="evenodd"/>
        </g>
        <g id="Grupo_1206734" data-name="Grupo 1206734" transform="translate(9.394 3.677)">
          <path id="Trazado_1049701" data-name="Trazado 1049701" d="M100.223,115.029A12.366,12.366,0,1,0,87.86,102.663,12.388,12.388,0,0,0,100.223,115.029Z" transform="translate(-87.86 -90.297)" fill="#dbe2ec" fill-rule="evenodd"/>
        </g>
        <g id="Grupo_1206735" data-name="Grupo 1206735" transform="translate(12.134 6.418)">
          <path id="Trazado_1049702" data-name="Trazado 1049702" d="M119.256,113.253h2.365a1.692,1.692,0,0,1,1.684,1.687v5.069h5.069a1.69,1.69,0,0,1,1.687,1.684v2.365a1.691,1.691,0,0,1-1.687,1.687h-5.069v5.069a1.69,1.69,0,0,1-1.684,1.684h-2.365a1.692,1.692,0,0,1-1.687-1.684v-5.069H112.5a1.691,1.691,0,0,1-1.687-1.687v-2.365a1.69,1.69,0,0,1,1.687-1.684h5.066V114.94A1.7,1.7,0,0,1,119.256,113.253Z" transform="translate(-110.815 -113.253)" fill="#e83d62" fill-rule="evenodd"/>
        </g>
        <g id="Grupo_1206736" data-name="Grupo 1206736" transform="translate(37.775 0)">
          <path id="Trazado_1049703" data-name="Trazado 1049703" d="M338.113,60.592l8.159,14.114a3.274,3.274,0,0,1-2.838,4.911H328.847a3.274,3.274,0,0,1-2.821-4.938l8.317-14.1a2.184,2.184,0,0,1,3.771.017Z" transform="translate(-325.559 -59.502)" fill="#ffd06c" fill-rule="evenodd"/>
        </g>
      </g>
      <path id="Trazado_1049704" data-name="Trazado 1049704" d="M57.138,36.1a4.164,4.164,0,0,0-4.751,1.009,4.152,4.152,0,0,0-6.006,2.418L43.965,47.53a4.144,4.144,0,0,0-2.917-1.21h-7.56c-6.476-4.642-10.4-2.791-13.27-1.435a7.089,7.089,0,0,1-3.092.977l-4.073-.184V44.23a.833.833,0,0,0-.833-.833H1.333A.833.833,0,0,0,.5,44.23V64.373a.833.833,0,0,0,.833.833H12.22a.833.833,0,0,0,.833-.833V62.6a52.12,52.12,0,0,1,8.856,1.061,46.441,46.441,0,0,0,8.336.993,22.167,22.167,0,0,0,8.118-1.511.826.826,0,0,0,.119-.057c2.54-1.469,4.637-2.613,6.323-3.532,8.491-4.633,8.624-4.8,14.192-17.4l.261-.59A4.159,4.159,0,0,0,57.138,36.1ZM47.976,40a2.478,2.478,0,0,1,3.549-1.472l-.873,2.016c-.984,2.275-2.332,5.391-2.97,6.841a1.178,1.178,0,0,1-.674.653l-1.662.671ZM11.387,63.54H2.165V45.063h9.222V63.54ZM57.733,40.9l-.26.589c-5.392,12.2-5.392,12.2-13.466,16.61-1.68.917-3.768,2.056-6.3,3.519-5.73,2.177-10.477,1.319-15.5.411a53.226,53.226,0,0,0-9.152-1.088V47.344l4,.18a8.354,8.354,0,0,0,3.878-1.134c2.806-1.324,5.987-2.825,11.8,1.434a.833.833,0,0,0,.492.161h7.83a2.5,2.5,0,0,1,2.462,2.149.492.492,0,0,1,.023.335,2.487,2.487,0,0,1-2.485,2.484h-14.7a.833.833,0,1,0,0,1.665h14.7A4.154,4.154,0,0,0,45.2,50.571l2.439-.985a2.822,2.822,0,0,0,1.574-1.527c.639-1.453,1.988-4.571,2.973-6.849.5-1.165.9-2.069,1.005-2.32a2.494,2.494,0,0,1,3.28-1.268A2.494,2.494,0,0,1,57.733,40.9ZM23.239,14.006A13.284,13.284,0,1,0,36.523,27.289,13.3,13.3,0,0,0,23.239,14.006Zm0,24.9A11.619,11.619,0,1,1,34.858,27.289,11.63,11.63,0,0,1,23.239,38.908ZM26.96,23.568V19.3a2.533,2.533,0,0,0-2.528-2.532H22.05A2.535,2.535,0,0,0,19.518,19.3v4.271H15.25A2.533,2.533,0,0,0,12.718,26.1v2.382A2.535,2.535,0,0,0,15.25,31.01h4.268v4.272A2.533,2.533,0,0,0,22.05,37.81h2.382a2.531,2.531,0,0,0,2.528-2.528V31.01h4.272a2.535,2.535,0,0,0,2.532-2.532V26.1a2.533,2.533,0,0,0-2.532-2.529ZM32.1,26.1v2.382a.867.867,0,0,1-.866.866h-5.1a.833.833,0,0,0-.833.833v5.1a.864.864,0,0,1-.863.863H22.05a.876.876,0,0,1-.866-.863v-5.1a.833.833,0,0,0-.833-.833h-5.1a.867.867,0,0,1-.866-.866V26.1a.866.866,0,0,1,.866-.863h5.1a.833.833,0,0,0,.833-.833V19.3a.878.878,0,0,1,.866-.866h2.382a.876.876,0,0,1,.863.866v5.1a.833.833,0,0,0,.833.833h5.1A.866.866,0,0,1,32.1,26.1Zm28.848-.069L52.73,11.817a3.031,3.031,0,0,0-5.235-.023l-4.456,7.554V15.2A3.612,3.612,0,0,0,39.43,11.6H33.094V8.035A2.687,2.687,0,0,0,30.41,5.351H16.071a2.687,2.687,0,0,0-2.684,2.684V11.6H7.052A3.612,3.612,0,0,0,3.442,15.2v24.17a3.613,3.613,0,0,0,3.609,3.609H39.43a3.613,3.613,0,0,0,3.609-3.609v-7.15H57.367a4.129,4.129,0,0,0,3.579-6.195ZM15.052,8.035a1.02,1.02,0,0,1,1.018-1.018H30.41a1.02,1.02,0,0,1,1.018,1.018V11.6H15.052ZM39.43,41.316H7.052a1.946,1.946,0,0,1-1.944-1.944V15.2a1.945,1.945,0,0,1,1.944-1.941H39.43A1.945,1.945,0,0,1,41.374,15.2v6.968L39.117,26a4.149,4.149,0,0,0,2.257,6.026v7.35A1.946,1.946,0,0,1,39.43,41.316ZM59.5,29.326a2.376,2.376,0,0,1-2.136,1.231H42.676a2.467,2.467,0,0,1-2.124-3.717l2.342-3.971a.841.841,0,0,0,.051-.087L48.93,12.64a1.311,1.311,0,0,1,1.168-.672h.013a1.319,1.319,0,0,1,1.178.682h0L59.5,26.861A2.383,2.383,0,0,1,59.5,29.326ZM50.856,17.9v4.4a.833.833,0,1,1-1.665,0V17.9a.833.833,0,0,1,1.665,0Zm0,7.7v.054a.833.833,0,0,1-1.665,0V25.6a.833.833,0,0,1,1.665,0Z"/>
    </g>
  </g>
</svg>
