<svg xmlns="http://www.w3.org/2000/svg" xmlns:xlink="http://www.w3.org/1999/xlink" width="108" height="108" viewBox="0 0 108 108">
  <defs>
    <filter id="Trazado_904820" x="0" y="0" width="108" height="108" filterUnits="userSpaceOnUse">
      <feOffset dy="3" input="SourceAlpha"/>
      <feGaussianBlur stdDeviation="3" result="blur"/>
      <feFlood flood-opacity="0.161"/>
      <feComposite operator="in" in2="blur"/>
      <feComposite in="SourceGraphic"/>
    </filter>
  </defs>
  <g id="Grupo_1206321" data-name="Grupo 1206321" transform="translate(-200 -2673.368)">
    <g id="Grupo_1202547" data-name="Grupo 1202547" transform="translate(209 2679.368)">
      <g id="Grupo_1173585" data-name="Grupo 1173585" transform="translate(0 0)">
        <g id="Grupo_1173428" data-name="Grupo 1173428">
          <g id="Grupo_1171958" data-name="Grupo 1171958">
            <g id="Grupo_1167341" data-name="Grupo 1167341">
              <g id="Grupo_1166792" data-name="Grupo 1166792">
                <g transform="matrix(1, 0, 0, 1, -9, -6)" filter="url(#Trazado_904820)">
                  <g id="Trazado_904820-2" data-name="Trazado 904820" transform="translate(9 6)" fill="#e0f9fd">
                    <path d="M 44.99999618530273 88.5 C 39.12687301635742 88.5 33.43022155761719 87.35008239746094 28.06829643249512 85.08217620849609 C 22.88852119445801 82.89131927490234 18.23629570007324 79.75459289550781 14.24084663391113 75.7591552734375 C 10.24540901184082 71.76370239257812 7.108683586120605 67.11148071289062 4.917821407318115 61.93170547485352 C 2.649921178817749 56.56977844238281 1.499996185302734 50.87312698364258 1.499996185302734 45.00000381469727 C 1.499996185302734 39.12688064575195 2.649921178817749 33.43022918701172 4.917821407318115 28.06830406188965 C 7.108683586120605 22.88852882385254 10.24540901184082 18.23630332946777 14.24084663391113 14.24085426330566 C 18.23629570007324 10.24541664123535 22.88852119445801 7.108691215515137 28.06829643249512 4.917829036712646 C 33.43022155761719 2.64992880821228 39.12687301635742 1.500003814697266 44.99999618530273 1.500003814697266 C 50.87311935424805 1.500003814697266 56.56977081298828 2.64992880821228 61.93169784545898 4.917829036712646 C 67.11147308349609 7.108691215515137 71.76369476318359 10.24541664123535 75.75914764404297 14.24085426330566 C 79.75458526611328 18.23630332946777 82.89131164550781 22.88852882385254 85.08216857910156 28.06830406188965 C 87.35007476806641 33.43022918701172 88.5 39.12688064575195 88.5 45.00000381469727 C 88.5 50.87312698364258 87.35007476806641 56.56977844238281 85.08216857910156 61.93170547485352 C 82.89131164550781 67.11148071289062 79.75458526611328 71.76370239257812 75.75914764404297 75.7591552734375 C 71.76369476318359 79.75459289550781 67.11147308349609 82.89131927490234 61.93169784545898 85.08217620849609 C 56.56977081298828 87.35008239746094 50.87311935424805 88.5 44.99999618530273 88.5 Z" stroke="none"/>
                    <path d="M 44.99999618530273 3.000007629394531 C 39.32870864868164 3.000007629394531 33.82865142822266 4.110061645507812 28.65262603759766 6.299346923828125 C 23.65165710449219 8.414573669433594 19.15968322753906 11.44334411621094 15.301513671875 15.30152130126953 C 11.44333648681641 19.15969085693359 8.414566040039062 23.65166473388672 6.299339294433594 28.65263366699219 C 4.110054016113281 33.82865905761719 2.999992370605469 39.32871627807617 2.999992370605469 45.00000381469727 C 2.999992370605469 50.67129135131836 4.110054016113281 56.17134857177734 6.299339294433594 61.34737396240234 C 8.414566040039062 66.34834289550781 11.44333648681641 70.84031677246094 15.301513671875 74.698486328125 C 19.15968322753906 78.55666351318359 23.65165710449219 81.58543395996094 28.65262603759766 83.70066070556641 C 33.82865142822266 85.88994598388672 39.32870864868164 87 44.99999618530273 87 C 50.67128372192383 87 56.17134094238281 85.88994598388672 61.34736633300781 83.70066070556641 C 66.34834289550781 81.58543395996094 70.84030914306641 78.55666351318359 74.69847869873047 74.698486328125 C 78.55665588378906 70.84031677246094 81.58542633056641 66.34834289550781 83.70065307617188 61.34737396240234 C 85.88993835449219 56.17134857177734 87 50.67129135131836 87 45.00000381469727 C 87 39.32871627807617 85.88993835449219 33.82865905761719 83.70065307617188 28.65263366699219 C 81.58542633056641 23.65166473388672 78.55665588378906 19.15969085693359 74.69847869873047 15.30152130126953 C 70.84030914306641 11.44334411621094 66.34834289550781 8.414573669433594 61.34736633300781 6.299346923828125 C 56.17134094238281 4.110061645507812 50.67128372192383 3.000007629394531 44.99999618530273 3.000007629394531 M 44.99999618530273 7.62939453125e-06 C 69.85281372070312 7.62939453125e-06 90 20.14718627929688 90 45.00000381469727 C 90 69.85281372070312 69.85281372070312 90 44.99999618530273 90 C 20.14717864990234 90 -7.62939453125e-06 69.85281372070312 -7.62939453125e-06 45.00000381469727 C -7.62939453125e-06 20.14718627929688 20.14717864990234 7.62939453125e-06 44.99999618530273 7.62939453125e-06 Z" stroke="none" fill="#497f88"/>
                  </g>
                </g>
              </g>
            </g>
          </g>
        </g>
      </g>
    </g>
    <g id="teaching_769658" transform="translate(225 2668.875)">
      <path id="Trazado_1048878" data-name="Trazado 1048878" d="M229.224,273.407h-4.441a5.9,5.9,0,0,1-5.727-4.513H218.6a7.706,7.706,0,0,1,1.583,4.688v2.242a9.436,9.436,0,0,0,4.6,1.19h6.175A7.266,7.266,0,0,1,229.224,273.407Z" transform="translate(-192.321 -213.447)" fill="#ffc12e"/>
      <path id="Trazado_1048879" data-name="Trazado 1048879" d="M323.283,347.668a7.154,7.154,0,0,1-7.538,0,6.484,6.484,0,0,0-2.595,3.909h3.794a4.1,4.1,0,0,1,2.92,1.223,4.1,4.1,0,0,1,2.92-1.223h3.1A6.486,6.486,0,0,0,323.283,347.668Z" transform="translate(-275.501 -282.75)" fill="#89c947"/>
      <g id="Grupo_1206307" data-name="Grupo 1206307" transform="translate(37.65 64.92)" opacity="0.1">
        <path id="Trazado_1048880" data-name="Trazado 1048880" d="M315.745,347.685a6.484,6.484,0,0,0-2.595,3.909h2.492a6.457,6.457,0,0,1,1.721-3.166A7.164,7.164,0,0,1,315.745,347.685Z" transform="translate(-313.15 -347.685)" fill="#37005e"/>
      </g>
      <path id="Trazado_1048881" data-name="Trazado 1048881" d="M290.01,183.623h.946v-.132a.551.551,0,0,1,.552-.55l.056,0a11.518,11.518,0,0,0,1.157.059,11.187,11.187,0,0,0,6.738-2.271.555.555,0,0,1,.649-.015,11.179,11.179,0,0,0,4.806,1.853.55.55,0,0,1,.477.543c0,.142,0,.316,0,.511h.946a1.791,1.791,0,0,1,1.117.392v-2.136a9.282,9.282,0,0,0-18.563,0v2.136A1.792,1.792,0,0,1,290.01,183.623Z" transform="translate(-254.16 -128.768)" fill="#0481bf"/>
      <g id="Grupo_1206308" data-name="Grupo 1206308" transform="translate(34.733 43.875)" opacity="0.1">
        <path id="Trazado_1048882" data-name="Trazado 1048882" d="M290.01,183.623h.946v-.132a.545.545,0,0,1,.426-.533v-1.079a9.251,9.251,0,0,1,8.037-9.151,9.4,9.4,0,0,0-1.245-.085,9.259,9.259,0,0,0-9.282,9.236v2.136A1.792,1.792,0,0,1,290.01,183.623Z" transform="translate(-288.893 -172.643)" fill="#37005e"/>
      </g>
      <path id="Trazado_1048883" data-name="Trazado 1048883" d="M78.171,33.778A12.155,12.155,0,0,0,66,45.889V61.346a.7.7,0,0,0,.7.7h5.2a7.834,7.834,0,0,1,2.407-2.088,9.272,9.272,0,0,1-4.833-8.147v-5.1a.7.7,0,0,1,.232-.519.7.7,0,0,1,.471-.181.68.68,0,0,1,.071,0,14.674,14.674,0,0,0,1.474.074A14.249,14.249,0,0,0,80.308,43.2a.706.706,0,0,1,.827-.02,14.235,14.235,0,0,0,6.12,2.359.7.7,0,0,1,.608.691c0,1.115,0,3.674-.007,5.579a9.27,9.27,0,0,1-5.43,8.442,7.837,7.837,0,0,1,1.921,1.793h5.291a.7.7,0,0,0,.7-.7V45.889A12.155,12.155,0,0,0,78.171,33.778Z" transform="translate(-58.065 -6.598)" fill="#f7931e"/>
      <g id="Grupo_1206309" data-name="Grupo 1206309" transform="translate(7.935 27.18)" opacity="0.1">
        <path id="Trazado_1048884" data-name="Trazado 1048884" d="M68.525,61.347V45.89A12.15,12.15,0,0,1,79.433,33.844a12.3,12.3,0,0,0-1.262-.065A12.154,12.154,0,0,0,66,45.89V61.347a.7.7,0,0,0,.7.7h2.525A.7.7,0,0,1,68.525,61.347Z" transform="translate(-66 -33.779)" fill="#37005e"/>
      </g>
      <g id="Grupo_1206310" data-name="Grupo 1206310" transform="translate(12.255 53.359)">
        <path id="Trazado_1048885" data-name="Trazado 1048885" d="M114.039,251.823a9.06,9.06,0,0,1-2.063.652V253.5a1.984,1.984,0,0,1-3.968,0v-1.151a9.081,9.081,0,0,1-2.084-.821,7.757,7.757,0,0,0-3.991,6.775v3.432h2.87a9.444,9.444,0,0,1-.763-3.727,1.8,1.8,0,1,1,3.607,0,5.9,5.9,0,0,0,5.891,5.891h4v-5.6A7.749,7.749,0,0,0,114.039,251.823Z" transform="translate(-101.933 -251.528)" fill="#fcdb80"/>
        <path id="Trazado_1048886" data-name="Trazado 1048886" d="M140.951,356.511a.553.553,0,0,0,.006-.08A.611.611,0,0,1,140.951,356.511Z" transform="translate(-136.26 -343.819)" fill="#fcdb80"/>
        <path id="Trazado_1048887" data-name="Trazado 1048887" d="M143.51,361.942a9.474,9.474,0,0,1-6.988-3.073.611.611,0,0,1-.265.248.6.6,0,0,1,.344.541v1.8a.6.6,0,0,0,0,1.2v1.8a.586.586,0,0,1-.007.073h10.92v-2.6Z" transform="translate(-131.904 -345.964)" fill="#fcdb80"/>
      </g>
      <g id="Grupo_1206311" data-name="Grupo 1206311" transform="translate(12.255 53.36)" opacity="0.1">
        <path id="Trazado_1048888" data-name="Trazado 1048888" d="M105.923,251.529a7.757,7.757,0,0,0-3.991,6.775v3.432h2.432V258.3a7.738,7.738,0,0,1,3.026-6.138A9.1,9.1,0,0,1,105.923,251.529Z" transform="translate(-101.932 -251.529)" fill="#37005e"/>
      </g>
      <path id="Trazado_1048889" data-name="Trazado 1048889" d="M154.733,258.646a9.111,9.111,0,0,1-2.272-.287v1.151a1.984,1.984,0,0,0,3.968,0v-1.024A9.136,9.136,0,0,1,154.733,258.646Z" transform="translate(-134.131 -204.178)" fill="#ffb98a"/>
      <path id="Trazado_1048890" data-name="Trazado 1048890" d="M104.115,128.965a9.233,9.233,0,0,1-9.189-9.255v-5.1a.7.7,0,0,1,.232-.519.7.7,0,0,1,.471-.181.68.68,0,0,1,.071,0,14.674,14.674,0,0,0,1.474.074,14.249,14.249,0,0,0,8.582-2.892.706.706,0,0,1,.827-.02,14.235,14.235,0,0,0,6.12,2.359.7.7,0,0,1,.608.691c0,1.115,0,3.674-.007,5.579A9.233,9.233,0,0,1,104.115,128.965Z" transform="translate(-83.512 -74.497)" fill="#ffd5b3"/>
      <g id="Grupo_1206312" data-name="Grupo 1206312" transform="translate(11.413 39.416)" opacity="0.1">
        <path id="Trazado_1048891" data-name="Trazado 1048891" d="M106.536,150.009a9.233,9.233,0,0,1-9.189-9.255v-5.1c0-.01,0-.019,0-.029-.058,0-.117,0-.175,0a14.672,14.672,0,0,1-1.474-.074.68.68,0,0,0-.071,0,.705.705,0,0,0-.471.181.7.7,0,0,0-.232.519v5.1a9.233,9.233,0,0,0,9.189,9.255,9.079,9.079,0,0,0,3.36-.644A9.129,9.129,0,0,1,106.536,150.009Z" transform="translate(-94.924 -135.553)" fill="#37005e"/>
      </g>
      <g id="Grupo_1206313" data-name="Grupo 1206313" transform="translate(34.047 54.855)">
        <path id="Trazado_1048892" data-name="Trazado 1048892" d="M285.935,267.839v-3.87h-.946a1.809,1.809,0,0,0-1.8,1.8v1.167a1.809,1.809,0,0,0,1.8,1.8h1A7.319,7.319,0,0,1,285.935,267.839Z" transform="translate(-283.186 -263.969)" fill="#ffb98a"/>
        <path id="Trazado_1048893" data-name="Trazado 1048893" d="M426.613,263.97h-.946c0,1.005,0,2.617-.006,3.87a7.342,7.342,0,0,1-.058.9h1.01a1.809,1.809,0,0,0,1.8-1.8v-1.167A1.809,1.809,0,0,0,426.613,263.97Z" transform="translate(-408.48 -263.97)" fill="#ffb98a"/>
      </g>
      <path id="Trazado_1048894" data-name="Trazado 1048894" d="M313.268,253.128a7.25,7.25,0,0,1-7.215-7.267v-4a.551.551,0,0,1,.552-.55l.056,0a11.524,11.524,0,0,0,1.157.059,11.187,11.187,0,0,0,6.738-2.271.555.555,0,0,1,.649-.015,11.178,11.178,0,0,0,4.806,1.853.55.55,0,0,1,.477.543c0,.876,0,2.885,0,4.381A7.25,7.25,0,0,1,313.268,253.128Z" transform="translate(-269.256 -187.135)" fill="#ffd5b3"/>
      <g id="Grupo_1206314" data-name="Grupo 1206314" transform="translate(36.796 54.174)" opacity="0.1">
        <path id="Trazado_1048895" data-name="Trazado 1048895" d="M315.786,269.521a7.25,7.25,0,0,1-7.215-7.267v-3.918c-.25.017-.5.028-.753.028a11.519,11.519,0,0,1-1.157-.059l-.056,0a.551.551,0,0,0-.552.55v4a7.25,7.25,0,0,0,7.215,7.267,7.13,7.13,0,0,0,2.887-.609Q315.971,269.521,315.786,269.521Z" transform="translate(-306.052 -258.302)" fill="#37005e"/>
      </g>
      <path id="Trazado_1048896" data-name="Trazado 1048896" d="M160.462,208.417a2.285,2.285,0,0,1-2.282-2.282V204.5a.326.326,0,0,1,.326-.326h3.912a.326.326,0,0,1,.326.326v1.63A2.285,2.285,0,0,1,160.462,208.417Z" transform="translate(-139.162 -156.512)" fill="#ff6a76"/>
      <path id="Trazado_1048897" data-name="Trazado 1048897" d="M315.072,383.3v-2.545a.562.562,0,0,0-.562-.562h-5.054a4.1,4.1,0,0,0-2.92,1.223,4.1,4.1,0,0,0-2.92-1.223h-5.054a.562.562,0,0,0-.562.562V383.3Z" transform="translate(-262.172 -311.365)" fill="#d4e9ed"/>
      <g id="Grupo_1206315" data-name="Grupo 1206315" transform="translate(35.828 68.829)" opacity="0.1">
        <path id="Trazado_1048898" data-name="Trazado 1048898" d="M300.4,383.3v-2.545a.562.562,0,0,1,.562-.562h-2.4a.562.562,0,0,0-.562.562V383.3Z" transform="translate(-298 -380.194)" fill="#37005e"/>
      </g>
      <path id="Trazado_1048899" data-name="Trazado 1048899" d="M251.729,354.431h-4.268v3.607h2.284c.661,0,1.2-.406,1.2-.9a.851.851,0,0,1,.781-.9.911.911,0,0,0,0-1.8Z" transform="translate(-217.709 -288.7)" fill="#ffd5b3"/>
      <path id="Trazado_1048900" data-name="Trazado 1048900" d="M128.959,298.126a5.9,5.9,0,0,1-5.891-5.891,1.8,1.8,0,0,0-3.607,0,9.444,9.444,0,0,0,.763,3.727h1.226a.6.6,0,0,1,.6.6v1.8a.592.592,0,0,1-.08.293,9.474,9.474,0,0,0,6.988,3.074h5.891v-3.607Z" transform="translate(-105.098 -232.394)" fill="#ffc12e"/>
      <path id="Trazado_1048901" data-name="Trazado 1048901" d="M43.338,387.907a.58.58,0,0,0,.007-.073v-1.8a.6.6,0,0,0-.6-.6H30.6a.6.6,0,0,0-.6.6v1.8a.606.606,0,0,0,.007.073Z" transform="translate(-26.393 -315.972)" fill="#a8da7c"/>
      <g id="Grupo_1206316" data-name="Grupo 1206316" transform="translate(3.607 69.458)" opacity="0.1">
        <path id="Trazado_1048902" data-name="Trazado 1048902" d="M33.614,387.907a.579.579,0,0,1-.007-.073v-1.8a.6.6,0,0,1,.6-.6H30.6a.6.6,0,0,0-.6.6v1.8a.606.606,0,0,0,.007.073Z" transform="translate(-30 -385.43)" fill="#37005e"/>
      </g>
      <path id="Trazado_1048903" data-name="Trazado 1048903" d="M43.345,362.836a.6.6,0,0,1-.6.6H30.6a.6.6,0,0,1-.6-.6v-1.8a.6.6,0,0,1,.6-.6H42.744a.6.6,0,0,1,.6.6Z" transform="translate(-26.393 -293.978)" fill="#30a1d0"/>
      <g id="Grupo_1206317" data-name="Grupo 1206317" transform="translate(3.607 66.453)" opacity="0.1">
        <path id="Trazado_1048904" data-name="Trazado 1048904" d="M33.607,362.836v-1.8a.6.6,0,0,1,.6-.6H30.6a.6.6,0,0,0-.6.6v1.8a.6.6,0,0,0,.6.6h3.607A.6.6,0,0,1,33.607,362.836Z" transform="translate(-30 -360.431)" fill="#37005e"/>
      </g>
      <path id="Trazado_1048905" data-name="Trazado 1048905" d="M42.744,336.431H30.6a.6.6,0,0,0-.6.6v1.8a.6.6,0,0,0,.344.541.591.591,0,0,1,.257-.06H42.744a.591.591,0,0,1,.257.06.6.6,0,0,0,.344-.541v-1.8A.6.6,0,0,0,42.744,336.431Z" transform="translate(-26.393 -272.864)" fill="#ff6a76"/>
      <g id="Grupo_1206318" data-name="Grupo 1206318" transform="translate(3.607 63.567)" opacity="0.1">
        <path id="Trazado_1048906" data-name="Trazado 1048906" d="M30.344,339.377a.591.591,0,0,1,.257-.06h3.25a.6.6,0,0,1-.245-.481v-1.8a.6.6,0,0,1,.6-.6H30.6a.6.6,0,0,0-.6.6v1.8A.6.6,0,0,0,30.344,339.377Z" transform="translate(-30 -336.431)" fill="#37005e"/>
      </g>
      <path id="Trazado_1048907" data-name="Trazado 1048907" d="M19.937,436.151v4.457a.6.6,0,0,0,.6.6H76.1a.6.6,0,0,0,.6-.6v-4.457Z" transform="translate(-17.54 -360.595)" fill="#ff484e"/>
      <g id="Grupo_1206319" data-name="Grupo 1206319" transform="translate(2.397 75.556)" opacity="0.1">
        <path id="Trazado_1048908" data-name="Trazado 1048908" d="M23.672,440.609v-4.457H19.937v4.457a.6.6,0,0,0,.6.6h3.735A.6.6,0,0,1,23.672,440.609Z" transform="translate(-19.937 -436.152)" fill="#37005e"/>
      </g>
      <path id="Trazado_1048909" data-name="Trazado 1048909" d="M67.254,409.054a.6.6,0,0,1-.6.6H8.1a.6.6,0,0,1-.6-.6v-2.419a.6.6,0,0,1,.6-.6H66.652a.6.6,0,0,1,.6.6Z" transform="translate(-6.598 -334.099)" fill="#ff6a76"/>
      <g id="Grupo_1206320" data-name="Grupo 1206320" transform="translate(0.902 71.935)" opacity="0.1">
        <path id="Trazado_1048910" data-name="Trazado 1048910" d="M11.167,409.054v-2.419a.6.6,0,0,1,.6-.6H8.1a.6.6,0,0,0-.6.6v2.419a.6.6,0,0,0,.6.6h3.667A.6.6,0,0,1,11.167,409.054Z" transform="translate(-7.5 -406.034)" fill="#37005e"/>
      </g>
      <path id="Trazado_1048911" data-name="Trazado 1048911" d="M167.046,170.273h.336a1.415,1.415,0,0,0,1.411-1.415v-.8a.9.9,0,0,0-1.8,0v.415a.9.9,0,0,0,.056,1.8Z" transform="translate(-146.169 -123.939)"/>
      <path id="Trazado_1048912" data-name="Trazado 1048912" d="M205.726,162.973a.9.9,0,0,0-.9.9v1.2a.9.9,0,0,0,1.8,0v-1.2A.9.9,0,0,0,205.726,162.973Z" transform="translate(-180.198 -120.26)"/>
      <path id="Trazado_1048913" data-name="Trazado 1048913" d="M135.4,162.973a.9.9,0,0,0-.9.9v1.2a.9.9,0,0,0,1.8,0v-1.2A.9.9,0,0,0,135.4,162.973Z" transform="translate(-118.329 -120.26)"/>
      <path id="Trazado_1048914" data-name="Trazado 1048914" d="M155.821,196.68h-3.912a1.229,1.229,0,0,0-1.228,1.228v1.63a3.184,3.184,0,0,0,6.368,0v-1.63A1.229,1.229,0,0,0,155.821,196.68Zm-.576,2.858a1.38,1.38,0,0,1-2.761,0v-1.054h2.761v1.054Z" transform="translate(-132.565 -149.915)"/>
      <path id="Trazado_1048915" data-name="Trazado 1048915" d="M357.009,288.878h.278a.9.9,0,0,0,.2-1.781v-.207a.9.9,0,1,0-1.8,0v.662A1.326,1.326,0,0,0,357.009,288.878Z" transform="translate(-312.922 -228.485)"/>
      <path id="Trazado_1048916" data-name="Trazado 1048916" d="M330.451,281.72a.9.9,0,0,0-.9.9v.989a.9.9,0,0,0,1.8,0v-.989A.9.9,0,0,0,330.451,281.72Z" transform="translate(-289.928 -224.731)"/>
      <path id="Trazado_1048917" data-name="Trazado 1048917" d="M388.539,281.72a.9.9,0,0,0-.9.9v.989a.9.9,0,0,0,1.8,0v-.989A.9.9,0,0,0,388.539,281.72Z" transform="translate(-341.032 -224.731)"/>
      <path id="Trazado_1048918" data-name="Trazado 1048918" d="M349.621,320.931h-3.126a.9.9,0,1,0,0,1.8h3.126a.9.9,0,1,0,0-1.8Z" transform="translate(-304.043 -259.227)"/>
      <path id="Trazado_1048919" data-name="Trazado 1048919" d="M60.054,71.034H53.8V69.39a1.465,1.465,0,0,0-1.463-1.463H51.065a7.389,7.389,0,0,0-1.829-2.956,8.184,8.184,0,0,0,2.691-4.44h.252a2.708,2.708,0,0,0,2.705-2.705V56.659a2.694,2.694,0,0,0-.686-1.8v-1.75a10.183,10.183,0,0,0-20.367,0v1.75a2.694,2.694,0,0,0-.686,1.8v1.167a2.688,2.688,0,0,0,.3,1.233h-.982a4.992,4.992,0,0,1-4.435-2.71h3.547a1.605,1.605,0,0,0,1.605-1.6V39.29a13.073,13.073,0,0,0-26.145,0V54.747a1.605,1.605,0,0,0,1.605,1.6H12.23a8.574,8.574,0,0,0-.877,3.786v2.53H4.208a1.5,1.5,0,0,0-1.5,1.5v1.8a1.491,1.491,0,0,0,.1.539,1.494,1.494,0,0,0-.1.543v1.8a1.494,1.494,0,0,0,.127.6,1.491,1.491,0,0,0-.127.6v.974H1.5a1.5,1.5,0,0,0-1.5,1.5v2.419a1.5,1.5,0,0,0,1.5,1.5v3.556a1.5,1.5,0,0,0,1.5,1.5H58.559a1.5,1.5,0,0,0,1.5-1.5V76.458a1.5,1.5,0,0,0,1.5-1.5V72.537A1.5,1.5,0,0,0,60.054,71.034Zm-8.055,0H36.73v-1.3h4.714a3.218,3.218,0,0,1,2.278.954.9.9,0,0,0,1.285,0,3.218,3.218,0,0,1,2.278-.954H52ZM17.727,69.459a1.494,1.494,0,0,0,.127-.6v-.536a10.337,10.337,0,0,0,6.007,1.918h3.1v.794h-9.11V70.06A1.489,1.489,0,0,0,17.727,69.459ZM33.9,66.633s0,0,0,0a1.753,1.753,0,0,0-1.561,1.719.546.546,0,0,1-.3.08H30.654v-1.8ZM28.767,70.24h3.269a1.973,1.973,0,0,0,2.1-1.8s0,0,0,0a1.812,1.812,0,0,0-.12-3.6H28.767v-1.04a10.341,10.341,0,0,0,3.695.68h5.785q.26.265.544.5a7.388,7.388,0,0,0-1.827,2.954H36.39a1.465,1.465,0,0,0-1.463,1.463v1.643H28.767V70.24Zm6.182-13.581a.9.9,0,0,1,.9-.9h.044v2.97H35.85a.9.9,0,0,1-.9-.9V56.659ZM49.133,67.927H47.285a5.034,5.034,0,0,0-2.92.943,5.034,5.034,0,0,0-2.92-.943H38.9A5.609,5.609,0,0,1,40.33,66,8.042,8.042,0,0,0,47.7,66,5.609,5.609,0,0,1,49.133,67.927Zm1.193-9.2a6.314,6.314,0,1,1-12.628,0V55.107c.288.02.577.03.864.03a12.1,12.1,0,0,0,7.084-2.306,12.093,12.093,0,0,0,4.686,1.819C50.333,55.833,50.328,58.03,50.326,58.725Zm2.755-.9a.9.9,0,0,1-.9.9h-.05c0-.51,0-1.833.006-2.97h.044a.9.9,0,0,1,.9.9ZM44.015,44.777a8.366,8.366,0,0,1,8.38,8.334v.852c-.071-.006-.143-.009-.216-.009h-.1a1.46,1.46,0,0,0-1.2-1.045,10.273,10.273,0,0,1-4.417-1.7,1.45,1.45,0,0,0-.824-.255,1.465,1.465,0,0,0-.882.3,10.281,10.281,0,0,1-6.192,2.087,10.6,10.6,0,0,1-1.067-.054,1.441,1.441,0,0,0-1.376.674H35.85c-.073,0-.144,0-.216.009v-.852A8.367,8.367,0,0,1,44.015,44.777ZM32.462,60.862h3.717a8.144,8.144,0,0,0,.726,1.8H32.462a8.53,8.53,0,0,1-3.695-.839V60.135c0-.126,0-.251-.009-.376A6.746,6.746,0,0,0,32.462,60.862ZM8.837,54.546V39.29a11.269,11.269,0,0,1,22.538,0V54.546H26.71a8.8,8.8,0,0,0-.72-.751,10.171,10.171,0,0,0,4.7-8.582.9.9,0,0,0-1.8,0,8.288,8.288,0,1,1-16.575,0V40.338c.447.039.9.058,1.346.058a15.159,15.159,0,0,0,9.015-2.991A15.147,15.147,0,0,0,28.9,39.811c0,.389,0,.751,0,1.461a.9.9,0,0,0,.9.9h0a.9.9,0,0,0,.9-.9c0-.819,0-1.176,0-1.643a1.61,1.61,0,0,0-1.388-1.582,13.33,13.33,0,0,1-5.731-2.209,1.608,1.608,0,0,0-1.884.046,13.343,13.343,0,0,1-8.036,2.707,13.72,13.72,0,0,1-1.377-.069,1.6,1.6,0,0,0-1.773,1.593v5.1a10.169,10.169,0,0,0,4.1,8.169,8.761,8.761,0,0,0-1.2,1.164Zm10.4.727a10.046,10.046,0,0,0,1.37.1c.267,0,.531-.014.794-.034a1.082,1.082,0,0,1-2.164,0Zm-6.075,4.862a6.852,6.852,0,0,1,3.13-5.743,9.976,9.976,0,0,0,1.141.46v.48a2.885,2.885,0,0,0,5.771,0v-.3a9.944,9.944,0,0,0,1.047-.345,6.843,6.843,0,0,1,2.718,5.454V64.83H25.248a.9.9,0,0,0,0,1.8h3.6v1.8H23.861a8.566,8.566,0,0,1-6.007-2.455s0-.006,0-.009v-1.8a1.5,1.5,0,0,0-1.5-1.5h-.609a8.559,8.559,0,0,1-.477-2.825.9.9,0,1,1,1.8,0,6.82,6.82,0,0,0,3.4,5.884.9.9,0,1,0,.9-1.561,5.012,5.012,0,0,1-2.5-4.323,2.705,2.705,0,0,0-5.41,0,10.364,10.364,0,0,0,.391,2.825h-.695v-2.53ZM4.509,64.469H16.05v1.2H4.509Zm0,3.006H16.05v1.082H4.509Zm0,2.885H16.05v.674H4.509ZM3.3,79.713V76.458H48.452a.9.9,0,1,0,0-1.8H1.8V72.837h57.95v1.817H53.021a.9.9,0,1,0,0,1.8h5.238v3.255Z"/>
    </g>
  </g>
</svg>
