<svg xmlns="http://www.w3.org/2000/svg" xmlns:xlink="http://www.w3.org/1999/xlink" width="108" height="108" viewBox="0 0 108 108">
  <defs>
    <filter id="Trazado_982547" x="0" y="0" width="108" height="108" filterUnits="userSpaceOnUse">
      <feOffset dy="3" input="SourceAlpha"/>
      <feGaussianBlur stdDeviation="3" result="blur"/>
      <feFlood flood-opacity="0.161"/>
      <feComposite operator="in" in2="blur"/>
      <feComposite in="SourceGraphic"/>
    </filter>
  </defs>
  <g id="Grupo_1206324" data-name="Grupo 1206324" transform="translate(-196 -3077.902)">
    <g id="Grupo_1202550" data-name="Grupo 1202550" transform="translate(-125.796 835.605)">
      <g id="Grupo_1202232" data-name="Grupo 1202232" transform="translate(330.796 2248.298)">
        <g id="Grupo_1201680" data-name="Grupo 1201680">
          <g id="Grupo_1201330" data-name="Grupo 1201330">
            <g id="Grupo_1172010" data-name="Grupo 1172010">
              <g id="Grupo_1171046" data-name="Grupo 1171046">
                <g id="Grupo_1148525" data-name="Grupo 1148525">
                  <g transform="matrix(1, 0, 0, 1, -9, -6)" filter="url(#Trazado_982547)">
                    <g id="Trazado_982547-2" data-name="Trazado 982547" transform="translate(9 6)" fill="#fdfbec">
                      <path d="M 45.00000381469727 88.5 C 39.12688064575195 88.5 33.43022918701172 87.35008239746094 28.06830406188965 85.08217620849609 C 22.88852882385254 82.89131927490234 18.23630332946777 79.75459289550781 14.24085426330566 75.7591552734375 C 10.24541664123535 71.76370239257812 7.108691215515137 67.11148071289062 4.917829036712646 61.93170547485352 C 2.64992880821228 56.56977844238281 1.500003814697266 50.87312698364258 1.500003814697266 45.00000381469727 C 1.500003814697266 39.12688064575195 2.64992880821228 33.43022918701172 4.917829036712646 28.06830406188965 C 7.108691215515137 22.88852882385254 10.24541664123535 18.23630332946777 14.24085426330566 14.24085426330566 C 18.23630332946777 10.24541664123535 22.88852882385254 7.108691215515137 28.06830406188965 4.917829036712646 C 33.43022918701172 2.64992880821228 39.12688064575195 1.500003814697266 45.00000381469727 1.500003814697266 C 50.87312698364258 1.500003814697266 56.56977844238281 2.64992880821228 61.93170547485352 4.917829036712646 C 67.11148071289062 7.108691215515137 71.76370239257812 10.24541664123535 75.7591552734375 14.24085426330566 C 79.75459289550781 18.23630332946777 82.89131927490234 22.88852882385254 85.08217620849609 28.06830406188965 C 87.35008239746094 33.43022918701172 88.5 39.12688064575195 88.5 45.00000381469727 C 88.5 50.87312698364258 87.35008239746094 56.56977844238281 85.08217620849609 61.93170547485352 C 82.89131927490234 67.11148071289062 79.75459289550781 71.76370239257812 75.7591552734375 75.7591552734375 C 71.76370239257812 79.75459289550781 67.11148071289062 82.89131927490234 61.93170547485352 85.08217620849609 C 56.56977844238281 87.35008239746094 50.87312698364258 88.5 45.00000381469727 88.5 Z" stroke="none"/>
                      <path d="M 45.00000381469727 3.000007629394531 C 39.32871627807617 3.000007629394531 33.82865905761719 4.110061645507812 28.65263366699219 6.299346923828125 C 23.65166473388672 8.414573669433594 19.15969085693359 11.44334411621094 15.30152130126953 15.30152130126953 C 11.44334411621094 19.15969085693359 8.414573669433594 23.65166473388672 6.299346923828125 28.65263366699219 C 4.110061645507812 33.82865905761719 3.000007629394531 39.32871627807617 3.000007629394531 45.00000381469727 C 3.000007629394531 50.67129135131836 4.110061645507812 56.17134857177734 6.299346923828125 61.34737396240234 C 8.414573669433594 66.34834289550781 11.44334411621094 70.84031677246094 15.30152130126953 74.698486328125 C 19.15969085693359 78.55666351318359 23.65166473388672 81.58543395996094 28.65263366699219 83.70066070556641 C 33.82865905761719 85.88994598388672 39.32871627807617 87 45.00000381469727 87 C 50.67129135131836 87 56.17134857177734 85.88994598388672 61.34737396240234 83.70066070556641 C 66.34834289550781 81.58543395996094 70.84031677246094 78.55666351318359 74.698486328125 74.698486328125 C 78.55666351318359 70.84031677246094 81.58543395996094 66.34834289550781 83.70066070556641 61.34737396240234 C 85.88994598388672 56.17134857177734 87 50.67129135131836 87 45.00000381469727 C 87 39.32871627807617 85.88994598388672 33.82865905761719 83.70066070556641 28.65263366699219 C 81.58543395996094 23.65166473388672 78.55666351318359 19.15969085693359 74.698486328125 15.30152130126953 C 70.84031677246094 11.44334411621094 66.34834289550781 8.414573669433594 61.34737396240234 6.299346923828125 C 56.17134857177734 4.110061645507812 50.67129135131836 3.000007629394531 45.00000381469727 3.000007629394531 M 45.00000381469727 7.62939453125e-06 C 69.85281372070312 7.62939453125e-06 90 20.14718627929688 90 45.00000381469727 C 90 69.85281372070312 69.85281372070312 90 45.00000381469727 90 C 20.14718627929688 90 7.62939453125e-06 69.85281372070312 7.62939453125e-06 45.00000381469727 C 7.62939453125e-06 20.14718627929688 20.14718627929688 7.62939453125e-06 45.00000381469727 7.62939453125e-06 Z" stroke="none" fill="#83793c"/>
                    </g>
                  </g>
                </g>
              </g>
            </g>
          </g>
        </g>
      </g>
    </g>
    <g id="black-lives-matter_5871619" transform="translate(221.112 3097.799)">
      <g id="Grupo_1206322" data-name="Grupo 1206322" transform="translate(0.845 3.343)">
        <path id="Trazado_1048920" data-name="Trazado 1048920" d="M89,305.233h4.92v11.681H89Z" transform="translate(-79.802 -271.917)" fill="#5f66ad"/>
        <path id="Trazado_1048921" data-name="Trazado 1048921" d="M415.431,285.713l.3,4.761,5.538-.353a22.511,22.511,0,0,0,4.005-7.031,3.656,3.656,0,0,0-6.906-2.4Z" transform="translate(-369.397 -247.966)" fill="#c7856a"/>
        <path id="Trazado_1048922" data-name="Trazado 1048922" d="M191.8,348.9l-5.842-4.408a15.24,15.24,0,0,1-4.5,3.5H159.392l-2.621,3.748,2.621,3.748h3.894a23.454,23.454,0,0,0-.954,6.776H186.76a22.864,22.864,0,0,0-1.391-8.074A22.655,22.655,0,0,0,191.8,348.9Z" transform="translate(-139.926 -306.744)" fill="#f2d48b"/>
        <path id="Trazado_1048923" data-name="Trazado 1048923" d="M89,305.233h4.92v4.479H89Z" transform="translate(-79.802 -271.917)" fill="#4c5694"/>
        <path id="Trazado_1048924" data-name="Trazado 1048924" d="M26.652,10H11.662A4.162,4.162,0,0,0,7.5,14.159V40.246a4.162,4.162,0,0,0,4.162,4.162h14.99a4.162,4.162,0,0,0,4.162-4.162V14.159A4.162,4.162,0,0,0,26.652,10Z" transform="translate(-7.5 -9.997)" fill="#e4e3f5"/>
        <path id="Trazado_1048925" data-name="Trazado 1048925" d="M191.224,67.673l-.013-.012,0-.009a6.976,6.976,0,0,0-6.016-8.271h-.011l0,0a6.975,6.975,0,0,0-9.731-3.163l0,0h0a6.978,6.978,0,0,0-9.734,3.161l-.015,0a6.977,6.977,0,0,0-6.01,8.272l0,.013A5.912,5.912,0,0,0,163.746,77.9h23.409a5.913,5.913,0,0,0,4.069-10.222Z" transform="translate(-140.829 -50.212)" fill="#5f66ad"/>
        <path id="Trazado_1048926" data-name="Trazado 1048926" d="M171.921,389.806a11.81,11.81,0,0,1,1.458-14.271H159.393l-2.621,3.748,2.621,3.748h3.894a23.454,23.454,0,0,0-.954,6.776Z" transform="translate(-139.927 -334.285)" fill="#f5c372"/>
        <path id="Trazado_1048927" data-name="Trazado 1048927" d="M175.941,72.275a10.486,10.486,0,0,1-4.348-16.8,6.973,6.973,0,0,0-5.883,4.033l-.015,0a6.977,6.977,0,0,0-6.01,8.272l0,.013a5.912,5.912,0,0,0,4.057,10.233h12.2V72.275Z" transform="translate(-140.827 -50.34)" fill="#4c5694"/>
        <path id="Trazado_1048928" data-name="Trazado 1048928" d="M206.3,148.728c-1.954-2.262-5.217-3.277-8.905-1.4a5.718,5.718,0,0,1-5.2,0c-3.555-1.81-6.8-1-8.816,1.3a15.2,15.2,0,1,0,22.924.1Z" transform="translate(-160.17 -130.953)" fill="#da9d81"/>
        <path id="Trazado_1048929" data-name="Trazado 1048929" d="M90.42,375.534v7.5H82.773a3.748,3.748,0,0,1,0-7.5H90.42Z" transform="translate(-70.955 -334.285)" fill="#c7856a"/>
        <path id="Trazado_1048930" data-name="Trazado 1048930" d="M184.227,158.515a17.958,17.958,0,0,1,4.707-12.145,6.558,6.558,0,0,0-5.56,2.262A15.2,15.2,0,0,0,192.54,173.7,18.01,18.01,0,0,1,184.227,158.515Z" transform="translate(-160.17 -130.96)" fill="#c7856a"/>
        <ellipse id="Elipse_12923" data-name="Elipse 12923" cx="3.482" cy="2.773" rx="3.482" ry="2.773" transform="translate(21.703 28.867)" fill="#e4e3f5"/>
        <ellipse id="Elipse_12924" data-name="Elipse 12924" cx="3.482" cy="2.773" rx="3.482" ry="2.773" transform="translate(40.574 28.867)" fill="#e4e3f5"/>
        <ellipse id="Elipse_12925" data-name="Elipse 12925" cx="1.848" cy="2.068" rx="1.848" ry="2.068" transform="translate(32.772 27.441)" fill="#303646"/>
        <path id="Trazado_1048931" data-name="Trazado 1048931" d="M10.785,23.27A25.922,25.922,0,0,1,14.418,10H11.662A4.162,4.162,0,0,0,7.5,14.159V40.246a4.162,4.162,0,0,0,4.162,4.162h9.95A26.01,26.01,0,0,1,10.785,23.27Z" transform="translate(-7.5 -9.997)" fill="#c9c9f5"/>
      </g>
      <g id="Grupo_1206323" data-name="Grupo 1206323" transform="translate(-0.001 2.497)">
        <path id="Trazado_1048932" data-name="Trazado 1048932" d="M293.109,245.668a2.923,2.923,0,1,0,2.694,2.914A2.814,2.814,0,0,0,293.109,245.668Zm0,4.136a1.246,1.246,0,1,1,1-1.222A1.129,1.129,0,0,1,293.109,249.8Z" transform="translate(-257.643 -218.227)"/>
        <path id="Trazado_1048933" data-name="Trazado 1048933" d="M233.517,239.3a2.4,2.4,0,0,0-2.4,2.4.846.846,0,1,0,1.693,0,.7.7,0,1,1,1.405,0,.846.846,0,1,0,1.693,0A2.4,2.4,0,0,0,233.517,239.3Z" transform="translate(-205.041 -212.579)"/>
        <path id="Trazado_1048934" data-name="Trazado 1048934" d="M356.924,241.7a.846.846,0,1,0,1.693,0,2.4,2.4,0,1,0-4.791,0,.846.846,0,1,0,1.693,0,.7.7,0,1,1,1.405,0Z" transform="translate(-313.898 -212.579)"/>
        <path id="Trazado_1048935" data-name="Trazado 1048935" d="M74.636,212.282l-1.121,6.212a.846.846,0,0,0,1.666.3l.595-3.294.984,3.335.009.03a.989.989,0,0,0,.939.675h.005a.989.989,0,0,0,.937-.685l.009-.029.95-3.332.632,3.309a.846.846,0,0,0,1.663-.318l-1.19-6.224a.99.99,0,0,0-1.913-.108l-.009.029-1.1,3.846-1.137-3.854-.009-.03a.991.991,0,0,0-1.913.138Z" transform="translate(-65.207 -187.887)"/>
        <path id="Trazado_1048936" data-name="Trazado 1048936" d="M94.245,126.7a.846.846,0,0,0-.846.846v6.373a.846.846,0,0,0,.7.834,5.787,5.787,0,0,0,.816.018c.342,0,.839,0,1.566-.006a.846.846,0,0,0-.009-1.693c-.422,0-.951,0-1.383.005v-5.532A.846.846,0,0,0,94.245,126.7Z" transform="translate(-82.859 -112.683)"/>
        <path id="Trazado_1048937" data-name="Trazado 1048937" d="M88.744,41.93H86.891a.846.846,0,0,0-.846.846v6.379a.847.847,0,0,0,.846.846h0s1.7-.008,2.173-.008a2.562,2.562,0,0,0,1.64-4.531,2.31,2.31,0,0,0-1.964-3.533Zm0,1.693a.621.621,0,1,1,0,1.243l-1.007,0V43.623Zm.324,4.679-1.33,0V46.561c.581,0,.294,0,1.33,0a.871.871,0,0,1,0,1.741Z" transform="translate(-76.335 -37.48)"/>
        <path id="Trazado_1048938" data-name="Trazado 1048938" d="M9.2,45.333a4.591,4.591,0,0,0,3.468,7.6H23.1a24.875,24.875,0,0,0-.693,5.929.846.846,0,0,0,.846.846H47.679a.846.846,0,0,0,.846-.846,24.067,24.067,0,0,0-1.2-7.69,23.4,23.4,0,0,0,6.046-5.133h0a23.273,23.273,0,0,0,4.155-7.3A4.492,4.492,0,0,0,51.369,33.2a16.156,16.156,0,0,0,.127-2.876,6.959,6.959,0,0,0,2.467-4.862A6.51,6.51,0,0,0,52.134,20.5a7.821,7.821,0,0,0-6.372-8.758,7.82,7.82,0,0,0-10.3-3.346,7.824,7.824,0,0,0-10.3,3.341c-.055.01-.109.022-.163.033V7.505A5.014,5.014,0,0,0,20,2.5H5.007A5.014,5.014,0,0,0,0,7.505v7.056a.846.846,0,0,0,1.693,0V7.505A3.319,3.319,0,0,1,5.007,4.19H20a3.319,3.319,0,0,1,3.315,3.315v4.809A7.833,7.833,0,0,0,18.8,20.505q-.244.26-.457.537A6.521,6.521,0,0,0,16.973,25.5a6.971,6.971,0,0,0,2.462,4.826q-.016.362-.016.726a15.963,15.963,0,0,0,1.088,5.818,3.337,3.337,0,0,1-.509.039H5.007a3.319,3.319,0,0,1-3.315-3.315V17.947a.846.846,0,1,0-1.693,0V33.592A5.014,5.014,0,0,0,5.007,38.6H9.2v6.733Zm.567,3.007a2.9,2.9,0,0,1,2.9-2.9h6.8v5.8h-6.8A2.9,2.9,0,0,1,9.763,48.34ZM45.88,50.049a.846.846,0,0,0-.384,1.039,21.749,21.749,0,0,1,1.323,6.931H24.112a22.352,22.352,0,0,1,.9-5.686.847.847,0,0,0-.811-1.09H21.157v-5.8h7.2a16.086,16.086,0,0,0,12.578.7.846.846,0,0,0,.507-1.084h0a.846.846,0,0,0-1.084-.507,14.356,14.356,0,0,1-15.67-22.975c1.929-2.193,4.843-2.6,7.8-1.1a6.6,6.6,0,0,0,5.971,0c2.977-1.516,5.924-1.068,7.881,1.2A14.357,14.357,0,0,1,43.143,43.18a.846.846,0,0,0-.262,1.168h0a.846.846,0,0,0,1.168.261,16.338,16.338,0,0,0,2.933-2.382l4.5,3.4a21.683,21.683,0,0,1-5.605,4.423ZM54.144,34.6a2.8,2.8,0,0,1,1.782,3.587,21.554,21.554,0,0,1-3.35,6.142L48.1,40.952a15.91,15.91,0,0,0,2.549-4.693A2.824,2.824,0,0,1,54.144,34.6ZM25.814,13.35l.015,0a.847.847,0,0,0,.667-.485,6.132,6.132,0,0,1,8.556-2.776.856.856,0,0,0,.83,0,6.128,6.128,0,0,1,8.55,2.778.846.846,0,0,0,.67.49h.011A6.13,6.13,0,0,1,50.4,20.627a.847.847,0,0,0,.255.787l.013.012a4.882,4.882,0,0,1,1.609,3.93,5.248,5.248,0,0,1-1.025,2.784,15.931,15.931,0,0,0-3.636-7.574,7.519,7.519,0,0,0-5.74-2.671,9.3,9.3,0,0,0-4.19,1.07,4.9,4.9,0,0,1-4.435,0,9.757,9.757,0,0,0-3.064-.991,7.416,7.416,0,0,0-6.772,2.482,15.914,15.914,0,0,0-3.731,7.679,5.187,5.187,0,0,1-1.02-2.747,4.96,4.96,0,0,1,1.624-3.977.846.846,0,0,0,.25-.78l0-.012a6.135,6.135,0,0,1,5.281-7.269Zm-4.587,25.1a16.158,16.158,0,0,0,4.435,5.3H15.808V38.6H20a4.991,4.991,0,0,0,1.231-.154Zm-7.112.154v5.147H12.664a4.606,4.606,0,0,0-1.776.355V38.6Z" transform="translate(0.001 -2.497)"/>
      </g>
    </g>
  </g>
</svg>
