<svg xmlns="http://www.w3.org/2000/svg" xmlns:xlink="http://www.w3.org/1999/xlink" width="108" height="108" viewBox="0 0 108 108">
  <defs>
    <filter id="Trazado_982547" x="0" y="0" width="108" height="108" filterUnits="userSpaceOnUse">
      <feOffset dy="3" input="SourceAlpha"/>
      <feGaussianBlur stdDeviation="3" result="blur"/>
      <feFlood flood-opacity="0.161"/>
      <feComposite operator="in" in2="blur"/>
      <feComposite in="SourceGraphic"/>
    </filter>
  </defs>
  <g id="Grupo_1206328" data-name="Grupo 1206328" transform="translate(-615.75 -3077.902)">
    <g id="Grupo_1202551" data-name="Grupo 1202551" transform="translate(293.954 835.605)">
      <g id="Grupo_1202232" data-name="Grupo 1202232" transform="translate(330.796 2248.298)">
        <g id="Grupo_1201680" data-name="Grupo 1201680">
          <g id="Grupo_1201330" data-name="Grupo 1201330">
            <g id="Grupo_1172010" data-name="Grupo 1172010">
              <g id="Grupo_1171046" data-name="Grupo 1171046">
                <g id="Grupo_1148525" data-name="Grupo 1148525">
                  <g transform="matrix(1, 0, 0, 1, -9, -6)" filter="url(#Trazado_982547)">
                    <g id="Trazado_982547-2" data-name="Trazado 982547" transform="translate(9 6)" fill="#fdfbec">
                      <path d="M 45.00000381469727 88.5 C 39.12688064575195 88.5 33.43022918701172 87.35008239746094 28.06830406188965 85.08217620849609 C 22.88852882385254 82.89131927490234 18.23630332946777 79.75459289550781 14.24085426330566 75.7591552734375 C 10.24541664123535 71.76370239257812 7.108691215515137 67.11148071289062 4.917829036712646 61.93170547485352 C 2.64992880821228 56.56977844238281 1.500003814697266 50.87312698364258 1.500003814697266 45.00000381469727 C 1.500003814697266 39.12688064575195 2.64992880821228 33.43022918701172 4.917829036712646 28.06830406188965 C 7.108691215515137 22.88852882385254 10.24541664123535 18.23630332946777 14.24085426330566 14.24085426330566 C 18.23630332946777 10.24541664123535 22.88852882385254 7.108691215515137 28.06830406188965 4.917829036712646 C 33.43022918701172 2.64992880821228 39.12688064575195 1.500003814697266 45.00000381469727 1.500003814697266 C 50.87312698364258 1.500003814697266 56.56977844238281 2.64992880821228 61.93170547485352 4.917829036712646 C 67.11148071289062 7.108691215515137 71.76370239257812 10.24541664123535 75.7591552734375 14.24085426330566 C 79.75459289550781 18.23630332946777 82.89131927490234 22.88852882385254 85.08217620849609 28.06830406188965 C 87.35008239746094 33.43022918701172 88.5 39.12688064575195 88.5 45.00000381469727 C 88.5 50.87312698364258 87.35008239746094 56.56977844238281 85.08217620849609 61.93170547485352 C 82.89131927490234 67.11148071289062 79.75459289550781 71.76370239257812 75.7591552734375 75.7591552734375 C 71.76370239257812 79.75459289550781 67.11148071289062 82.89131927490234 61.93170547485352 85.08217620849609 C 56.56977844238281 87.35008239746094 50.87312698364258 88.5 45.00000381469727 88.5 Z" stroke="none"/>
                      <path d="M 45.00000381469727 3.000007629394531 C 39.32871627807617 3.000007629394531 33.82865905761719 4.110061645507812 28.65263366699219 6.299346923828125 C 23.65166473388672 8.414573669433594 19.15969085693359 11.44334411621094 15.30152130126953 15.30152130126953 C 11.44334411621094 19.15969085693359 8.414573669433594 23.65166473388672 6.299346923828125 28.65263366699219 C 4.110061645507812 33.82865905761719 3.000007629394531 39.32871627807617 3.000007629394531 45.00000381469727 C 3.000007629394531 50.67129135131836 4.110061645507812 56.17134857177734 6.299346923828125 61.34737396240234 C 8.414573669433594 66.34834289550781 11.44334411621094 70.84031677246094 15.30152130126953 74.698486328125 C 19.15969085693359 78.55666351318359 23.65166473388672 81.58543395996094 28.65263366699219 83.70066070556641 C 33.82865905761719 85.88994598388672 39.32871627807617 87 45.00000381469727 87 C 50.67129135131836 87 56.17134857177734 85.88994598388672 61.34737396240234 83.70066070556641 C 66.34834289550781 81.58543395996094 70.84031677246094 78.55666351318359 74.698486328125 74.698486328125 C 78.55666351318359 70.84031677246094 81.58543395996094 66.34834289550781 83.70066070556641 61.34737396240234 C 85.88994598388672 56.17134857177734 87 50.67129135131836 87 45.00000381469727 C 87 39.32871627807617 85.88994598388672 33.82865905761719 83.70066070556641 28.65263366699219 C 81.58543395996094 23.65166473388672 78.55666351318359 19.15969085693359 74.698486328125 15.30152130126953 C 70.84031677246094 11.44334411621094 66.34834289550781 8.414573669433594 61.34737396240234 6.299346923828125 C 56.17134857177734 4.110061645507812 50.67129135131836 3.000007629394531 45.00000381469727 3.000007629394531 M 45.00000381469727 7.62939453125e-06 C 69.85281372070312 7.62939453125e-06 90 20.14718627929688 90 45.00000381469727 C 90 69.85281372070312 69.85281372070312 90 45.00000381469727 90 C 20.14718627929688 90 7.62939453125e-06 69.85281372070312 7.62939453125e-06 45.00000381469727 C 7.62939453125e-06 20.14718627929688 20.14718627929688 7.62939453125e-06 45.00000381469727 7.62939453125e-06 Z" stroke="none" fill="#83793c"/>
                    </g>
                  </g>
                </g>
              </g>
            </g>
          </g>
        </g>
      </g>
    </g>
    <g id="Filled_00000088101983472834059030000010513836911781552057_" transform="translate(613.163 3089.289)">
      <g id="Grupo_1206325" data-name="Grupo 1206325" transform="translate(30.301 7.5)">
        <path id="Trazado_1048939" data-name="Trazado 1048939" d="M43.108,71.408V47.76l-5.072-5.833L30.3,27.471h0a6.543,6.543,0,0,1,8.042,1.664l3.116,3.789h.254V14.474a2.853,2.853,0,0,1,2.853-2.853h0a2.853,2.853,0,0,1,2.853,2.853V10.353A2.853,2.853,0,0,1,50.272,7.5h0a2.853,2.853,0,0,1,2.853,2.853v2.726a2.853,2.853,0,0,1,2.853-2.853h0a2.853,2.853,0,0,1,2.853,2.853V17.01a2.853,2.853,0,0,1,2.853-2.853h0a2.853,2.853,0,0,1,2.853,2.853V36.724a18.679,18.679,0,0,1-3.193,10.445l-.484.718V71.408Z" transform="translate(-30.301 -7.5)" fill="#ffe5c2"/>
        <rect id="Rectángulo_418031" data-name="Rectángulo 418031" width="17.212" height="4.303" transform="translate(13.217 59.923)" fill="#fed2a4"/>
        <path id="Trazado_1048940" data-name="Trazado 1048940" d="M218.837,267.877v-5.415l-.008-.013A17.118,17.118,0,0,1,216.3,253.5V239.544a2.113,2.113,0,0,1,2.113-2.113h0a2.113,2.113,0,0,1,2.113,2.113v-2.912a2.113,2.113,0,0,1,2.113-2.113h0a2.113,2.113,0,0,1,2.113,2.113v-2.019a2.113,2.113,0,0,1,2.113-2.113h0a2.113,2.113,0,0,1,2.113,2.113v3.053a2.113,2.113,0,0,1,2.113-2.113h0a2.113,2.113,0,0,1,2.113,2.113v14.559h.188l1.747-2.66a5.5,5.5,0,0,1,6.471-2.148l.048.018-5.917,11.177-4.321,3.851v5.415Z" transform="translate(-192.716 -203.969)" fill="#ffe5c2"/>
        <rect id="Rectángulo_418032" data-name="Rectángulo 418032" width="12.586" height="3.804" transform="translate(26.121 60.104)" fill="#fed2a4"/>
        <path id="Trazado_1048941" data-name="Trazado 1048941" d="M396.592,128.621,395.3,132.44l2.414,3.234-4.033-.054-2.327,3.292-1.2-3.852-3.853-1.2,3.292-2.327-.054-4.033,3.234,2.414Z" transform="translate(-341.159 -112.284)" fill="#feef8f"/>
      </g>
      <g id="Grupo_1206326" data-name="Grupo 1206326" transform="translate(30.301 7.5)">
        <line id="Línea_1047" data-name="Línea 1047" y2="15.28" transform="translate(17.118 6.974)" fill="none" stroke="#000" stroke-miterlimit="10" stroke-width="1.2"/>
        <line id="Línea_1048" data-name="Línea 1048" y2="16.674" transform="translate(22.824 5.579)" fill="none" stroke="#000" stroke-miterlimit="10" stroke-width="1.2"/>
        <line id="Línea_1049" data-name="Línea 1049" y2="12.744" transform="translate(28.53 9.51)" fill="none" stroke="#000" stroke-miterlimit="10" stroke-width="1.2"/>
        <path id="Trazado_1048942" data-name="Trazado 1048942" d="M120.3,33.051V14.474a2.853,2.853,0,0,1,2.853-2.853h0a2.853,2.853,0,0,1,2.853,2.853V10.353A2.853,2.853,0,0,1,128.86,7.5h0a2.853,2.853,0,0,1,2.853,2.853v2.726a2.853,2.853,0,0,1,2.853-2.853h0a2.853,2.853,0,0,1,2.853,2.853V17.01a2.853,2.853,0,0,1,2.853-2.853h0a2.853,2.853,0,0,1,2.853,2.853V33.241" transform="translate(-108.889 -7.5)" fill="none" stroke="#000" stroke-miterlimit="10" stroke-width="1.2" stroke-dasharray="540 15"/>
        <path id="Trazado_1048943" data-name="Trazado 1048943" d="M43.108,203.958V180.31l-5.072-5.833L30.3,160.021h0a6.543,6.543,0,0,1,8.042,1.664l3.116,3.789a8.852,8.852,0,0,1,8.876,8.876" transform="translate(-30.301 -140.05)" fill="none" stroke="#000" stroke-miterlimit="10" stroke-width="1.2" stroke-dasharray="300 15"/>
        <line id="Línea_1050" data-name="Línea 1050" y2="11.365" transform="translate(36.265 33.697)" fill="none" stroke="#000" stroke-miterlimit="10" stroke-width="1.2"/>
        <line id="Línea_1051" data-name="Línea 1051" y2="12.398" transform="translate(32.039 32.663)" fill="none" stroke="#000" stroke-miterlimit="10" stroke-width="1.2"/>
        <line id="Línea_1052" data-name="Línea 1052" y2="9.487" transform="translate(27.812 35.575)" fill="none" stroke="#000" stroke-miterlimit="10" stroke-width="1.2"/>
        <path id="Trazado_1048944" data-name="Trazado 1048944" d="M231.422,267.878v-5.415l4.321-3.851,5.917-11.177-.048-.018a5.5,5.5,0,0,0-6.471,2.148l-1.747,2.66h-.188V237.666a2.113,2.113,0,0,0-2.113-2.113h0a2.113,2.113,0,0,0-2.113,2.113v-3.053a2.113,2.113,0,0,0-2.113-2.113h0a2.113,2.113,0,0,0-2.113,2.113v2.019a2.113,2.113,0,0,0-2.113-2.113h0a2.113,2.113,0,0,0-2.113,2.113v2.912a2.113,2.113,0,0,0-2.113-2.113h0a2.113,2.113,0,0,0-2.113,2.113V253.5a17.118,17.118,0,0,0,2.528,8.953l.008.013v5.415" transform="translate(-192.714 -203.97)" fill="none" stroke="#000" stroke-miterlimit="10" stroke-width="1.2" stroke-dasharray="350 15"/>
        <path id="Trazado_1048945" data-name="Trazado 1048945" d="M396.592,128.621,395.3,132.44l2.414,3.234-4.033-.054-2.327,3.292-1.2-3.852-3.853-1.2,3.292-2.327-.054-4.033,3.234,2.414Z" transform="translate(-341.159 -112.284)" fill="none" stroke="#000" stroke-miterlimit="10" stroke-width="1.2"/>
        <line id="Línea_1053" data-name="Línea 1053" x1="4.303" y2="3.227" transform="translate(42.262 25.5)" fill="none" stroke="#000" stroke-miterlimit="10" stroke-width="1.2"/>
        <line id="Línea_1054" data-name="Línea 1054" y2="3.227" transform="translate(39.034 24.424)" fill="none" stroke="#000" stroke-miterlimit="10" stroke-width="1.2"/>
        <line id="Línea_1055" data-name="Línea 1055" x1="4.303" transform="translate(43.337 33.03)" fill="none" stroke="#000" stroke-miterlimit="10" stroke-width="1.2"/>
      </g>
      <g id="Grupo_1206327" data-name="Grupo 1206327" transform="translate(46.745 49.662)">
        <line id="Línea_1056" data-name="Línea 1056" y2="5.706" transform="translate(0.167)" fill="none" stroke="#fff" stroke-miterlimit="10" stroke-width="1.2"/>
        <line id="Línea_1057" data-name="Línea 1057" y2="1.076" transform="translate(0 8.08)" fill="none" stroke="#fff" stroke-miterlimit="10" stroke-width="1.2"/>
      </g>
    </g>
  </g>
</svg>
