<svg xmlns="http://www.w3.org/2000/svg" xmlns:xlink="http://www.w3.org/1999/xlink" width="108" height="108" viewBox="0 0 108 108">
  <defs>
    <filter id="Trazado_982547" x="0" y="0" width="108" height="108" filterUnits="userSpaceOnUse">
      <feOffset dy="3" input="SourceAlpha"/>
      <feGaussianBlur stdDeviation="3" result="blur"/>
      <feFlood flood-opacity="0.161"/>
      <feComposite operator="in" in2="blur"/>
      <feComposite in="SourceGraphic"/>
    </filter>
  </defs>
  <g id="Grupo_1206346" data-name="Grupo 1206346" transform="translate(-196 -4180)">
    <g id="Grupo_1202558" data-name="Grupo 1202558" transform="translate(-125.796 1937.702)">
      <g id="Grupo_1202232" data-name="Grupo 1202232" transform="translate(330.796 2248.298)">
        <g id="Grupo_1201680" data-name="Grupo 1201680">
          <g id="Grupo_1201330" data-name="Grupo 1201330">
            <g id="Grupo_1172010" data-name="Grupo 1172010">
              <g id="Grupo_1171046" data-name="Grupo 1171046">
                <g id="Grupo_1148525" data-name="Grupo 1148525">
                  <g transform="matrix(1, 0, 0, 1, -9, -6)" filter="url(#Trazado_982547)">
                    <g id="Trazado_982547-2" data-name="Trazado 982547" transform="translate(9 6)" fill="#fdfbec">
                      <path d="M 45.00000381469727 88.5 C 39.12688064575195 88.5 33.43022918701172 87.35008239746094 28.06830406188965 85.08217620849609 C 22.88852882385254 82.89131927490234 18.23630332946777 79.75459289550781 14.24085426330566 75.7591552734375 C 10.24541664123535 71.76370239257812 7.108691215515137 67.11148071289062 4.917829036712646 61.93170547485352 C 2.64992880821228 56.56977844238281 1.500003814697266 50.87312698364258 1.500003814697266 45.00000381469727 C 1.500003814697266 39.12688064575195 2.64992880821228 33.43022918701172 4.917829036712646 28.06830406188965 C 7.108691215515137 22.88852882385254 10.24541664123535 18.23630332946777 14.24085426330566 14.24085426330566 C 18.23630332946777 10.24541664123535 22.88852882385254 7.108691215515137 28.06830406188965 4.917829036712646 C 33.43022918701172 2.64992880821228 39.12688064575195 1.500003814697266 45.00000381469727 1.500003814697266 C 50.87312698364258 1.500003814697266 56.56977844238281 2.64992880821228 61.93170547485352 4.917829036712646 C 67.11148071289062 7.108691215515137 71.76370239257812 10.24541664123535 75.7591552734375 14.24085426330566 C 79.75459289550781 18.23630332946777 82.89131927490234 22.88852882385254 85.08217620849609 28.06830406188965 C 87.35008239746094 33.43022918701172 88.5 39.12688064575195 88.5 45.00000381469727 C 88.5 50.87312698364258 87.35008239746094 56.56977844238281 85.08217620849609 61.93170547485352 C 82.89131927490234 67.11148071289062 79.75459289550781 71.76370239257812 75.7591552734375 75.7591552734375 C 71.76370239257812 79.75459289550781 67.11148071289062 82.89131927490234 61.93170547485352 85.08217620849609 C 56.56977844238281 87.35008239746094 50.87312698364258 88.5 45.00000381469727 88.5 Z" stroke="none"/>
                      <path d="M 45.00000381469727 3.000007629394531 C 39.32871627807617 3.000007629394531 33.82865905761719 4.110061645507812 28.65263366699219 6.299346923828125 C 23.65166473388672 8.414573669433594 19.15969085693359 11.44334411621094 15.30152130126953 15.30152130126953 C 11.44334411621094 19.15969085693359 8.414573669433594 23.65166473388672 6.299346923828125 28.65263366699219 C 4.110061645507812 33.82865905761719 3.000007629394531 39.32871627807617 3.000007629394531 45.00000381469727 C 3.000007629394531 50.67129135131836 4.110061645507812 56.17134857177734 6.299346923828125 61.34737396240234 C 8.414573669433594 66.34834289550781 11.44334411621094 70.84031677246094 15.30152130126953 74.698486328125 C 19.15969085693359 78.55666351318359 23.65166473388672 81.58543395996094 28.65263366699219 83.70066070556641 C 33.82865905761719 85.88994598388672 39.32871627807617 87 45.00000381469727 87 C 50.67129135131836 87 56.17134857177734 85.88994598388672 61.34737396240234 83.70066070556641 C 66.34834289550781 81.58543395996094 70.84031677246094 78.55666351318359 74.698486328125 74.698486328125 C 78.55666351318359 70.84031677246094 81.58543395996094 66.34834289550781 83.70066070556641 61.34737396240234 C 85.88994598388672 56.17134857177734 87 50.67129135131836 87 45.00000381469727 C 87 39.32871627807617 85.88994598388672 33.82865905761719 83.70066070556641 28.65263366699219 C 81.58543395996094 23.65166473388672 78.55666351318359 19.15969085693359 74.698486328125 15.30152130126953 C 70.84031677246094 11.44334411621094 66.34834289550781 8.414573669433594 61.34737396240234 6.299346923828125 C 56.17134857177734 4.110061645507812 50.67129135131836 3.000007629394531 45.00000381469727 3.000007629394531 M 45.00000381469727 7.62939453125e-06 C 69.85281372070312 7.62939453125e-06 90 20.14718627929688 90 45.00000381469727 C 90 69.85281372070312 69.85281372070312 90 45.00000381469727 90 C 20.14718627929688 90 7.62939453125e-06 69.85281372070312 7.62939453125e-06 45.00000381469727 C 7.62939453125e-06 20.14718627929688 20.14718627929688 7.62939453125e-06 45.00000381469727 7.62939453125e-06 Z" stroke="none" fill="#83793c"/>
                    </g>
                  </g>
                </g>
              </g>
            </g>
          </g>
        </g>
      </g>
    </g>
    <g id="son_5443229" transform="translate(225.423 4200)">
      <g id="Grupo_1206344" data-name="Grupo 1206344">
        <g id="Grupo_1206330" data-name="Grupo 1206330">
          <path id="Trazado_1048946" data-name="Trazado 1048946" d="M25,12H23a14.9,14.9,0,0,1-4.74-.77A14.963,14.963,0,0,1,14,9l-2,3L9,10,5,12v3H4a3,3,0,0,0-3,3V12A10.994,10.994,0,0,1,12,1h6A10.994,10.994,0,0,1,29,12v6a3,3,0,0,0-3-3H25Z" fill="#656d78"/>
        </g>
        <g id="Grupo_1206331" data-name="Grupo 1206331">
          <path id="Trazado_1048947" data-name="Trazado 1048947" d="M4,21H5.01A8.769,8.769,0,0,0,11,29v1.19a2,2,0,0,1-1.8,1.99l-.07.01-.93.09a7.931,7.931,0,0,0-3.37,1.13A7.949,7.949,0,0,1,1,26.61V18a3,3,0,0,0,3,3Z" fill="#656d78"/>
        </g>
        <g id="Grupo_1206332" data-name="Grupo 1206332">
          <path id="Trazado_1048948" data-name="Trazado 1048948" d="M20.76,32.35l2.39.48A6.925,6.925,0,0,0,23,34.28a7.237,7.237,0,0,0,.77,3.26l.89,1.78A3,3,0,0,0,26,45h1.02A7.23,7.23,0,0,0,31,51v2l-.98.12a9.3,9.3,0,0,0-3.88,1.41,2.673,2.673,0,0,0-.31-.36A4.025,4.025,0,0,0,23,53H21v-.15a1.854,1.854,0,0,0-3.51-.83L17,53v8H12A10.994,10.994,0,0,1,1,50V40.24a8.013,8.013,0,0,1,3.83-6.83A7.932,7.932,0,0,1,8.2,32.28l.93-.09.93,1.4A3.162,3.162,0,0,0,12.69,35a3.156,3.156,0,0,1,2.24.93L15,36l.07-.07A3.156,3.156,0,0,1,17.31,35a3.162,3.162,0,0,0,2.63-1.41Z" fill="#75b1f2"/>
        </g>
        <g id="Grupo_1206333" data-name="Grupo 1206333">
          <path id="Trazado_1048949" data-name="Trazado 1048949" d="M48,61H23a3.994,3.994,0,0,0,3.14-6.47,9.3,9.3,0,0,1,3.88-1.41L31,53l4,4,4-4,.98.12A9.286,9.286,0,0,1,48,61Z" fill="#fcd770"/>
        </g>
        <g id="Grupo_1206334" data-name="Grupo 1206334">
          <path id="Trazado_1048950" data-name="Trazado 1048950" d="M43,36H40.39A27.99,27.99,0,0,1,30,34l-2.11,1.41A1.981,1.981,0,0,0,27,37.07V39H26a3.008,3.008,0,0,0-1.34.32l-.89-1.78A7.237,7.237,0,0,1,23,34.28a6.925,6.925,0,0,1,.15-1.45c1.33-2.98,1.64-3.35,1.98-3.7A7.212,7.212,0,0,1,29,27.12,6.7,6.7,0,0,1,30.28,27H31a4,4,0,0,0,4,4h2a4.025,4.025,0,0,0,2.83-1.17,3.963,3.963,0,0,0,1.16-2.72H41a7.285,7.285,0,0,1,5.23,10.43l-.89,1.78A3.008,3.008,0,0,0,44,39H43Z" fill="#b27946"/>
        </g>
        <g id="Grupo_1206335" data-name="Grupo 1206335">
          <path id="Trazado_1048951" data-name="Trazado 1048951" d="M26,15a3,3,0,0,1,0,6H24.99c.01-.11.01-.21.01-.32V15Z" fill="#f0d0b4"/>
        </g>
        <g id="Grupo_1206336" data-name="Grupo 1206336">
          <path id="Trazado_1048952" data-name="Trazado 1048952" d="M20.76,32.35l-.15-.03A2,2,0,0,1,19,30.36V29a8.769,8.769,0,0,0,5.99-8H26a3,3,0,0,0,3-3v9.12a7.212,7.212,0,0,0-3.87,2.01c-.34.35-.65.72-1.98,3.7Z" fill="#656d78"/>
        </g>
        <g id="Grupo_1206337" data-name="Grupo 1206337">
          <path id="Trazado_1048953" data-name="Trazado 1048953" d="M25,15v5.68c0,.11,0,.21-.01.32A8.769,8.769,0,0,1,19,29v1.36a2,2,0,0,0,1.61,1.96l.15.03-.82,1.24A3.162,3.162,0,0,1,17.31,35a3.156,3.156,0,0,0-2.24.93L15,36l-.07-.07A3.156,3.156,0,0,0,12.69,35a3.162,3.162,0,0,1-2.63-1.41l-.93-1.4.07-.01A2,2,0,0,0,11,30.19V29a8.769,8.769,0,0,1-5.99-8C5,20.89,5,20.79,5,20.68V12l4-2,3,2,2-3a14.963,14.963,0,0,0,4.26,2.23A14.9,14.9,0,0,0,23,12h2Z" fill="#f0d0b4"/>
        </g>
        <g id="Grupo_1206338" data-name="Grupo 1206338">
          <path id="Trazado_1048954" data-name="Trazado 1048954" d="M5,20.68c0,.11,0,.21.01.32H4a3,3,0,0,1,0-6H5Z" fill="#f0d0b4"/>
        </g>
        <g id="Grupo_1206339" data-name="Grupo 1206339">
          <path id="Trazado_1048955" data-name="Trazado 1048955" d="M26.14,54.53A3.994,3.994,0,0,1,23,61H17V53l.49-.98a1.854,1.854,0,0,1,3.51.83V53h2a4.025,4.025,0,0,1,2.83,1.17A2.672,2.672,0,0,1,26.14,54.53Z" fill="#f0d0b4"/>
        </g>
        <g id="Grupo_1206340" data-name="Grupo 1206340">
          <path id="Trazado_1048956" data-name="Trazado 1048956" d="M45.34,39.32A3,3,0,0,1,44,45H42.98c.01-.16.02-.31.02-.47V39h1a3.008,3.008,0,0,1,1.34.32Z" fill="#f0d0b4"/>
        </g>
        <g id="Grupo_1206341" data-name="Grupo 1206341">
          <path id="Trazado_1048957" data-name="Trazado 1048957" d="M43,36v8.53c0,.16-.01.31-.02.47a7.148,7.148,0,0,1-1.06,3.33A7.383,7.383,0,0,1,39,51v2l-4,4-4-4V51a7.23,7.23,0,0,1-3.98-6c-.01-.16-.02-.31-.02-.47V37.07a1.981,1.981,0,0,1,.89-1.66L30,34a27.99,27.99,0,0,0,10.39,2Z" fill="#f0d0b4"/>
        </g>
        <g id="Grupo_1206342" data-name="Grupo 1206342">
          <path id="Trazado_1048958" data-name="Trazado 1048958" d="M27,44.53c0,.16.01.31.02.47H26a3,3,0,0,1,0-6h1Z" fill="#f0d0b4"/>
        </g>
        <g id="Grupo_1206343" data-name="Grupo 1206343">
          <path id="Trazado_1048959" data-name="Trazado 1048959" d="M41,27a.41.41,0,0,1-.01.11,3.963,3.963,0,0,1-1.16,2.72A4.025,4.025,0,0,1,37,31H35a4,4,0,0,1-4-4,2.015,2.015,0,0,1,2-2h6A2.006,2.006,0,0,1,41,27Z" fill="#f0d0b4"/>
        </g>
      </g>
      <g id="Grupo_1206345" data-name="Grupo 1206345">
        <circle id="Elipse_12926" data-name="Elipse 12926" cx="1" cy="1" r="1" transform="translate(10 14)"/>
        <circle id="Elipse_12927" data-name="Elipse 12927" cx="1" cy="1" r="1" transform="translate(18 14)"/>
        <path id="Trazado_1048960" data-name="Trazado 1048960" d="M16.447,20.1l-1.134-.566A9.526,9.526,0,0,0,16,16H14a7.505,7.505,0,0,1-.789,3.342l-.553,1.1,2.9,1.447Z"/>
        <path id="Trazado_1048961" data-name="Trazado 1048961" d="M18.789,23.658l.1-.211-1.789-.9-.1.212a2.236,2.236,0,0,1-4,0l-.1-.211-1.789.9.1.211a4.236,4.236,0,0,0,7.578,0Z"/>
        <circle id="Elipse_12928" data-name="Elipse 12928" cx="1" cy="1" r="1" transform="translate(30 38)"/>
        <circle id="Elipse_12929" data-name="Elipse 12929" cx="1" cy="1" r="1" transform="translate(38 38)"/>
        <path id="Trazado_1048962" data-name="Trazado 1048962" d="M37,44.764a2.236,2.236,0,0,1-4,0l-.1-.211-1.789.9.1.211a4.236,4.236,0,0,0,7.578,0l.1-.211-1.789-.9Z"/>
        <path id="Trazado_1048963" data-name="Trazado 1048963" d="M36.447,42.1l-1.224-.612.725-2.177-1.9-.632-1.275,3.823L35.553,43.9Z"/>
        <path id="Trazado_1048964" data-name="Trazado 1048964" d="M48.99,60.858a10.283,10.283,0,0,0-8.883-8.728L40,52.117v-.525A8.166,8.166,0,0,0,43.854,46H44a3.983,3.983,0,0,0,2.618-7l.508-1.016a8.283,8.283,0,0,0-5.219-11.692A3,3,0,0,0,39,24H33a2.994,2.994,0,0,0-2.817,2c-.062,0-.122.007-.183.009V12A12.013,12.013,0,0,0,18,0H12A12.013,12.013,0,0,0,0,12V26.615a9,9,0,0,0,3.142,6.791A8.968,8.968,0,0,0,0,40.24V50A12.013,12.013,0,0,0,12,62H49.153ZM38.553,50.105,38,50.382v2.2l-3,3-3-3v-2.2l-.553-.276A6.2,6.2,0,0,1,28,44.528V37.07a1,1,0,0,1,.445-.832l1.677-1.117A28.826,28.826,0,0,0,40.385,37H42v7.528A6.2,6.2,0,0,1,38.553,50.105ZM44,44V40a2,2,0,0,1,0,4ZM33,26h6a1,1,0,0,1,1,1,3,3,0,0,1-3,3H35a3,3,0,0,1-3-3A1,1,0,0,1,33,26Zm2,6h2a4.991,4.991,0,0,0,4.789-3.642,6.274,6.274,0,0,1,3.548,8.732l-.5,1A3.973,3.973,0,0,0,44,38V36a4.212,4.212,0,0,0-2.342-3.789l-.211-.1-.9,1.789.212.1a2.227,2.227,0,0,1,1,1H40.385a26.825,26.825,0,0,1-10.014-1.929l-.488-.195-2.547,1.7A2.993,2.993,0,0,0,26,37.07V38a3.973,3.973,0,0,0-.836.091l-.5-1a6.276,6.276,0,0,1,5.44-9.081A5.008,5.008,0,0,0,35,32ZM24,42a2,2,0,0,1,2-2v4A2,2,0,0,1,24,42ZM22.43,31.666,20.8,31.341a1,1,0,0,1-.8-.981v-.668A9.755,9.755,0,0,0,25.9,22H26a3.959,3.959,0,0,0,2-.556v4.883a8.308,8.308,0,0,0-5.57,5.339ZM11.316,28.052A7.768,7.768,0,0,1,6,20.676V12.618l2.928-1.464,3.35,2.232L14.266,10.4A16.112,16.112,0,0,0,23,13h1v7.676a7.767,7.767,0,0,1-5.316,7.376L18,28.279V30.36A3,3,0,0,0,19.268,32.8l-.161.242a2.157,2.157,0,0,1-1.8.963A4.133,4.133,0,0,0,15,34.7a4.133,4.133,0,0,0-2.309-.7,2.156,2.156,0,0,1-1.8-.962l-.238-.357A2.976,2.976,0,0,0,12,30.19V28.279ZM2,18a2,2,0,0,1,2-2v4A2,2,0,0,1,2,18Zm24-2a2,2,0,0,1,0,4ZM12,2h6A10.011,10.011,0,0,1,28,12v2.556A3.959,3.959,0,0,0,26,14V12a5.894,5.894,0,0,0-4.726-5.765L20.2,6.02,19.8,7.98l1.078.216A3.891,3.891,0,0,1,23.868,11H23a14.087,14.087,0,0,1-8.4-2.8l-.846-.635-2.031,3.048L9.073,8.845,6,10.382a2.4,2.4,0,0,1,.707-1.675L5.293,7.293A4.384,4.384,0,0,0,4,10.414V14a3.959,3.959,0,0,0-2,.556V12A10.011,10.011,0,0,1,12,2ZM2,26.615V21.444A3.959,3.959,0,0,0,4,22h.1A9.753,9.753,0,0,0,10,29.692v.5a1,1,0,0,1-.9.994l-.995.1a9.026,9.026,0,0,0-3.227.948A6.987,6.987,0,0,1,2,26.615ZM2,50V40.24a6.98,6.98,0,0,1,6.3-6.966l.322-.032.6.906A4.153,4.153,0,0,0,12.691,36a2.145,2.145,0,0,1,1.527.633l.782.781.781-.781A2.146,2.146,0,0,1,17.309,36a4.152,4.152,0,0,0,3.462-1.853l.455-.683.808.162c-.018.217-.034.434-.034.655a8.324,8.324,0,0,0,.874,3.7L23.382,39A3.983,3.983,0,0,0,26,46h.146A8.166,8.166,0,0,0,30,51.592v.525l-.107.014a10.148,10.148,0,0,0-3.579,1.154A4.96,4.96,0,0,0,23,52H21.869a2.855,2.855,0,0,0-5.277-.422l-.171.342L10,51.117v-9.7a4.384,4.384,0,0,0-1.293-3.121L7.293,39.707A2.4,2.4,0,0,1,8,41.414V51.586L6.293,53.293l1.414,1.414,1.654-1.654,6.639.83V60H12A10.011,10.011,0,0,1,2,50ZM18,60V53.236l.382-.764A.854.854,0,0,1,20,52.854V54h3a3,3,0,0,1,0,6Zm8.974,0a4.878,4.878,0,0,0,.547-5.1,8.2,8.2,0,0,1,2.62-.784l.5-.062L35,58.414l4.361-4.361.5.062A8.279,8.279,0,0,1,46.763,60Z"/>
      </g>
    </g>
  </g>
</svg>
