<svg xmlns="http://www.w3.org/2000/svg" xmlns:xlink="http://www.w3.org/1999/xlink" width="113" height="113" viewBox="0 0 113 113">
  <defs>
    <filter id="Trazado_982547" x="0" y="0" width="113" height="113" filterUnits="userSpaceOnUse">
      <feOffset dy="3" input="SourceAlpha"/>
      <feGaussianBlur stdDeviation="3" result="blur"/>
      <feFlood flood-opacity="0.161"/>
      <feComposite operator="in" in2="blur"/>
      <feComposite in="SourceGraphic"/>
    </filter>
  </defs>
  <g id="Grupo_1206520" data-name="Grupo 1206520" transform="translate(-586 -6351.825)">
    <g id="Grupo_1204078" data-name="Grupo 1204078" transform="translate(-0.06 2511.489)">
      <g id="Grupo_1203959" data-name="Grupo 1203959" transform="translate(0 1899.461)">
        <g id="Grupo_1203497" data-name="Grupo 1203497" transform="translate(595.061 1946.875)">
          <g id="Grupo_1172010" data-name="Grupo 1172010" transform="translate(0)">
            <g id="Grupo_1171046" data-name="Grupo 1171046">
              <g id="Grupo_1148525" data-name="Grupo 1148525">
                <g transform="matrix(1, 0, 0, 1, -9, -6)" filter="url(#Trazado_982547)">
                  <g id="Trazado_982547-2" data-name="Trazado 982547" transform="translate(9 6)" fill="#edf3fc">
                    <path d="M 47.5 93.5 C 41.28937149047852 93.5 35.26533508300781 92.28397369384766 29.59518623352051 89.88570404052734 C 24.11771965026855 87.56893157958984 19.19813346862793 84.25196075439453 14.97309303283691 80.02691650390625 C 10.74804019927979 75.80186462402344 7.431066513061523 70.88229370117188 5.114293098449707 65.40481567382812 C 2.716026782989502 59.73468017578125 1.5 53.71062850952148 1.5 47.5 C 1.5 41.28937149047852 2.716026782989502 35.26533508300781 5.114293098449707 29.59518623352051 C 7.431066513061523 24.11771965026855 10.74804019927979 19.19813346862793 14.97309303283691 14.97309303283691 C 19.19813346862793 10.74804019927979 24.11771965026855 7.431066513061523 29.59518623352051 5.114293098449707 C 35.26533508300781 2.716026782989502 41.28937149047852 1.5 47.5 1.5 C 53.71062850952148 1.5 59.73468017578125 2.716026782989502 65.40481567382812 5.114293098449707 C 70.88229370117188 7.431066513061523 75.80186462402344 10.74804019927979 80.02691650390625 14.97309303283691 C 84.25196075439453 19.19813346862793 87.56893157958984 24.11771965026855 89.88570404052734 29.59518623352051 C 92.28397369384766 35.26533508300781 93.5 41.28937149047852 93.5 47.5 C 93.5 53.71062850952148 92.28397369384766 59.73468017578125 89.88570404052734 65.40481567382812 C 87.56893157958984 70.88229370117188 84.25196075439453 75.80186462402344 80.02691650390625 80.02691650390625 C 75.80186462402344 84.25196075439453 70.88229370117188 87.56893157958984 65.40481567382812 89.88570404052734 C 59.73468017578125 92.28397369384766 53.71062850952148 93.5 47.5 93.5 Z" stroke="none"/>
                    <path d="M 47.5 3 C 41.49121475219727 3 35.66376876831055 4.176155090332031 30.17950439453125 6.495796203613281 C 24.88084411621094 8.736953735351562 20.12152099609375 11.94598388671875 16.03375244140625 16.03375244140625 C 11.94598388671875 20.12152099609375 8.736953735351562 24.88084411621094 6.495796203613281 30.17950439453125 C 4.176155090332031 35.66376876831055 3 41.49121475219727 3 47.5 C 3 53.50878524780273 4.176155090332031 59.33623123168945 6.495796203613281 64.82049560546875 C 8.736953735351562 70.11915588378906 11.94598388671875 74.87847900390625 16.03375244140625 78.96624755859375 C 20.12152099609375 83.05401611328125 24.88084411621094 86.26304626464844 30.17950439453125 88.50419616699219 C 35.66376876831055 90.82384490966797 41.49121475219727 92 47.5 92 C 53.50878524780273 92 59.33623123168945 90.82384490966797 64.82049560546875 88.50419616699219 C 70.11915588378906 86.26304626464844 74.87847900390625 83.05401611328125 78.96624755859375 78.96624755859375 C 83.05401611328125 74.87847900390625 86.26304626464844 70.11915588378906 88.50419616699219 64.82049560546875 C 90.82384490966797 59.33623123168945 92 53.50878524780273 92 47.5 C 92 41.49121475219727 90.82384490966797 35.66376876831055 88.50419616699219 30.17950439453125 C 86.26304626464844 24.88084411621094 83.05401611328125 20.12152099609375 78.96624755859375 16.03375244140625 C 74.87847900390625 11.94598388671875 70.11915588378906 8.736953735351562 64.82049560546875 6.495796203613281 C 59.33623123168945 4.176155090332031 53.50878524780273 3 47.5 3 M 47.5 0 C 73.7335205078125 0 95 21.2664794921875 95 47.5 C 95 73.7335205078125 73.7335205078125 95 47.5 95 C 21.2664794921875 95 0 73.7335205078125 0 47.5 C 0 21.2664794921875 21.2664794921875 0 47.5 0 Z" stroke="none" fill="#5692e8"/>
                  </g>
                </g>
              </g>
            </g>
          </g>
        </g>
      </g>
    </g>
    <g id="healthcare_2449846_2_" data-name="healthcare_2449846 (2)" transform="translate(595.46 6376.025)">
      <g id="Grupo_1206518" data-name="Grupo 1206518" transform="translate(20.54 0.861)">
        <path id="Trazado_1049063" data-name="Trazado 1049063" d="M237.522,420.477h-.8" transform="translate(-211.899 -373.066)" fill="none" stroke="#000" stroke-linecap="round" stroke-linejoin="round" stroke-miterlimit="10" stroke-width="15"/>
        <g id="Grupo_1206514" data-name="Grupo 1206514" transform="translate(2.789 38.064)">
          <g id="XMLID_395_">
            <g id="Grupo_1206513" data-name="Grupo 1206513">
              <path id="Trazado_1049064" data-name="Trazado 1049064" d="M81.89,346.841l9.317-5.422a2.568,2.568,0,0,1,2.841,4.267l-13.887,10.5a8.318,8.318,0,0,1-5.016,1.683H72.386a8.312,8.312,0,0,1-3.206-.644l-10.208-4.268H51.21l-6.376.02V341.993H53.9a10.015,10.015,0,0,1,7.081-2.933h.23a10.012,10.012,0,0,1,7.08,2.933l.59.589h7.591a5.671,5.671,0,0,1,5.327,3.721A1.565,1.565,0,0,1,81.89,346.841Z" transform="translate(-44.834 -339.06)" fill="#ffe6c4"/>
            </g>
            <path id="Trazado_1049065" data-name="Trazado 1049065" d="M94.2,362.185c-.049.043-.1.085-.151.125l-13.887,10.5a8.318,8.318,0,0,1-5.016,1.683H72.386a8.312,8.312,0,0,1-3.206-.644L59.247,369.7a1.492,1.492,0,0,0-.576-.116H51.21l-6.376.02v3.847l6.376-.02h7.761L69.179,377.7a8.312,8.312,0,0,0,3.206.644h2.761a8.318,8.318,0,0,0,5.016-1.683l13.887-10.5a2.569,2.569,0,0,0,.151-3.972Z" transform="translate(-44.834 -359.53)" fill="#fed3a7"/>
          </g>
        </g>
        <path id="Trazado_1049066" data-name="Trazado 1049066" d="M36.3,357.133v-3.983h.047v-7.772a1.819,1.819,0,0,0-1.819-1.819H28.04v15.8h6.486a1.819,1.819,0,0,0,1.819-1.819v-.457Z" transform="translate(-27.179 -304.979)" fill="#d4f2f6"/>
        <path id="Trazado_1049067" data-name="Trazado 1049067" d="M34.526,425.317H28.04v4.805h6.486a1.819,1.819,0,0,0,1.819-1.819V423.5A1.819,1.819,0,0,1,34.526,425.317Z" transform="translate(-27.179 -375.74)" fill="#a7e6ef"/>
        <g id="Grupo_1206515" data-name="Grupo 1206515" transform="translate(0 35.989)">
          <path id="Trazado_1049068" data-name="Trazado 1049068" d="M21.4,341.978a.861.861,0,0,1-.861-.861V321.842a.861.861,0,0,1,1.722,0v19.275A.861.861,0,0,1,21.4,341.978Z" transform="translate(-20.54 -320.981)" fill="#a7e6ef"/>
        </g>
        <path id="Trazado_1049069" data-name="Trazado 1049069" d="M115.885,10.9a11.6,11.6,0,0,0-16.407,0l-.293.293-.293-.293A11.6,11.6,0,0,0,82.485,27.3L97.162,41.982a2.861,2.861,0,0,0,4.046,0L115.885,27.3a11.6,11.6,0,0,0,0-16.407Z" transform="translate(-72.366 -7.5)" fill="#fd828a"/>
        <g id="Grupo_1206516" data-name="Grupo 1206516" transform="translate(6.721 0)">
          <path id="Trazado_1049070" data-name="Trazado 1049070" d="M89.6,27.307A11.605,11.605,0,0,1,94.246,8.058,11.6,11.6,0,0,0,82.485,27.307L97.162,41.984a2.861,2.861,0,0,0,4.046,0l1.535-1.535Z" transform="translate(-79.087 -7.502)" fill="#fd6773"/>
        </g>
        <circle id="Elipse_12936" data-name="Elipse 12936" cx="10.311" cy="10.311" r="10.311" transform="translate(16.513 6.881)" fill="#f9f7f8"/>
        <path id="Trazado_1049071" data-name="Trazado 1049071" d="M166.7,175.771q-.268-.268-.515-.55a10.323,10.323,0,0,0,8,8.032Z" transform="translate(-149.461 -155.966)" fill="#efedef"/>
        <g id="Grupo_1206517" data-name="Grupo 1206517" transform="translate(4.394 12.12)">
          <path id="Trazado_1049072" data-name="Trazado 1049072" d="M216.536,116.518h-3v-3a.441.441,0,0,0-.441-.441h-3.309a.441.441,0,0,0-.441.441v3h-3a.441.441,0,0,0-.441.441v3.309a.441.441,0,0,0,.441.441h3v3a.441.441,0,0,0,.441.441h3.309a.441.441,0,0,0,.441-.441v-3h3a.441.441,0,0,0,.441-.441v-3.309A.441.441,0,0,0,216.536,116.518Z" transform="translate(-189.012 -113.074)" fill="#fd828a"/>
          <path id="Trazado_1049073" data-name="Trazado 1049073" d="M386.017,243.485H384.1v-1.915a.49.49,0,0,0-.49-.49h-2.521a.49.49,0,0,0-.49.49v1.915h-1.915a.49.49,0,0,0-.49.49V246.5a.49.49,0,0,0,.49.49H380.6V248.9a.49.49,0,0,0,.49.49h2.521a.49.49,0,0,0,.49-.49v-1.915h1.915a.49.49,0,0,0,.49-.49v-2.521A.49.49,0,0,0,386.017,243.485Z" transform="translate(-341.532 -226.385)" fill="#fd828a"/>
          <path id="Trazado_1049074" data-name="Trazado 1049074" d="M59.3,243.485h1.915v-1.915a.49.49,0,0,1,.49-.49h2.521a.49.49,0,0,1,.49.49v1.915h1.915a.49.49,0,0,1,.49.49V246.5a.49.49,0,0,1-.49.49H64.719V248.9a.49.49,0,0,1-.49.49H61.708a.49.49,0,0,1-.49-.49v-1.915H59.3a.49.49,0,0,1-.49-.49v-2.521A.49.49,0,0,1,59.3,243.485Z" transform="translate(-58.814 -226.385)" fill="#fd828a"/>
        </g>
      </g>
      <g id="Grupo_1206519" data-name="Grupo 1206519" transform="translate(20.54 0)">
        <path id="Trazado_1049075" data-name="Trazado 1049075" d="M230.883,412.977h-.8a.861.861,0,1,0,0,1.722h.8a.861.861,0,1,0,0-1.722Z" transform="translate(-205.26 -365.566)"/>
        <path id="Trazado_1049076" data-name="Trazado 1049076" d="M73.648,325.463a3.414,3.414,0,0,0-4.378-.792l-8.364,4.867a6.56,6.56,0,0,0-5.944-3.821H47.728l-.337-.337a10.8,10.8,0,0,0-7.69-3.185h-.229a10.8,10.8,0,0,0-7.429,2.933h-1.49a2.684,2.684,0,0,0-2.667-2.416H22.262v-.87a.861.861,0,0,0-1.722,0v19.275a.861.861,0,0,0,1.722,0v-.882h5.625a2.684,2.684,0,0,0,2.667-2.416h6.74l10.048,4.2a9.129,9.129,0,0,0,3.54.71h2.76a9.23,9.23,0,0,0,5.535-1.858l13.887-10.5a3.428,3.428,0,0,0,.585-4.906Zm-.959,2.373A1.693,1.693,0,0,1,72.024,329L58.138,339.5a7.5,7.5,0,0,1-4.5,1.509h-2.76a7.415,7.415,0,0,1-2.875-.577L37.8,336.163a.862.862,0,0,0-.332-.067h-6.9V332.14a.861.861,0,0,0-1.722,0v5.414a.959.959,0,0,1-.958.958H22.262V324.433h5.625a.959.959,0,0,1,.958.958v3.08a.861.861,0,0,0,1.722,0V326.85h1.825A.861.861,0,0,0,33,326.6a9.093,9.093,0,0,1,6.472-2.681H39.7a9.093,9.093,0,0,1,6.472,2.681l.589.589a.861.861,0,0,0,.609.252h7.591a4.829,4.829,0,0,1,4.518,3.156.7.7,0,0,1-.661.947h-9.6a.861.861,0,1,0,0,1.722h9.6a2.429,2.429,0,0,0,2.366-1.9l8.95-5.208a1.707,1.707,0,0,1,2.553,1.677Z" transform="translate(-20.54 -284.13)"/>
        <path id="Trazado_1049077" data-name="Trazado 1049077" d="M89.914,35.952a3.722,3.722,0,0,0,5.264,0l4.588-4.588a.861.861,0,1,0-1.218-1.218L93.96,34.734a2,2,0,0,1-2.828,0L76.455,20.057A10.74,10.74,0,1,1,91.644,4.868l.293.293a.861.861,0,0,0,1.217,0l.293-.293a10.74,10.74,0,1,1,15.189,15.189l-7.459,7.459a.861.861,0,0,0,1.218,1.218l7.459-7.459A12.462,12.462,0,0,0,92.546,3.345a12.463,12.463,0,0,0-17.309,17.93Z" transform="translate(-65.727 0)"/>
        <path id="Trazado_1049078" data-name="Trazado 1049078" d="M159.537,73.222a.861.861,0,0,0-1.679.383,11.176,11.176,0,1,0-.182-3.974.861.861,0,0,0,1.707.226,9.45,9.45,0,1,1,9.367,10.7,9.343,9.343,0,0,1-5.932-2.093,9.487,9.487,0,0,1-3.282-5.245Z" transform="translate(-141.925 -53.058)"/>
        <path id="Trazado_1049079" data-name="Trazado 1049079" d="M206.454,105.575h-3.309a1.3,1.3,0,0,0-1.3,1.3v2.141H199.7a1.3,1.3,0,0,0-1.3,1.3v3.309a1.3,1.3,0,0,0,1.3,1.3h2.141v2.141a1.3,1.3,0,0,0,1.3,1.3h3.309a1.3,1.3,0,0,0,1.3-1.3v-2.141H209.9a1.3,1.3,0,0,0,1.3-1.3v-3.309a1.3,1.3,0,0,0-1.3-1.3h-2.141v-2.141A1.3,1.3,0,0,0,206.454,105.575Zm3.024,5.166v2.47H206.9a.861.861,0,0,0-.861.861v2.583h-2.47v-2.583a.861.861,0,0,0-.861-.861h-2.583v-2.47H202.7a.861.861,0,0,0,.861-.861V107.3h2.47v2.583a.861.861,0,0,0,.861.861Z" transform="translate(-177.98 -93.455)"/>
        <path id="Trazado_1049080" data-name="Trazado 1049080" d="M376.974,233.581h-2.521a1.352,1.352,0,0,0-1.351,1.351v1.054h-1.054a1.352,1.352,0,0,0-1.351,1.351v2.521a1.352,1.352,0,0,0,1.351,1.351H373.1v1.054a1.352,1.352,0,0,0,1.351,1.351h2.521a1.352,1.352,0,0,0,1.351-1.351v-1.054h1.054a1.352,1.352,0,0,0,1.351-1.351v-2.521a1.352,1.352,0,0,0-1.351-1.351h-1.054v-1.054A1.352,1.352,0,0,0,376.974,233.581Zm2.033,4.126v1.778h-1.543a.861.861,0,0,0-.861.861v1.543h-1.778v-1.543a.861.861,0,0,0-.861-.861H372.42v-1.778h1.543a.861.861,0,0,0,.861-.861V235.3H376.6v1.543a.861.861,0,0,0,.861.861Z" transform="translate(-330.499 -206.765)"/>
        <path id="Trazado_1049081" data-name="Trazado 1049081" d="M52.665,241.208h1.054v1.054a1.352,1.352,0,0,0,1.351,1.351H57.59a1.352,1.352,0,0,0,1.351-1.351v-1.054h1.054a1.352,1.352,0,0,0,1.351-1.351v-2.521a1.352,1.352,0,0,0-1.351-1.351H58.941v-1.054a1.352,1.352,0,0,0-1.351-1.351H55.069a1.352,1.352,0,0,0-1.351,1.351v1.054H52.665a1.352,1.352,0,0,0-1.351,1.351v2.521A1.352,1.352,0,0,0,52.665,241.208Zm.371-3.5h1.543a.861.861,0,0,0,.861-.861V235.3h1.778v1.543a.861.861,0,0,0,.861.861h1.543v1.778H58.08a.861.861,0,0,0-.861.861v1.543H55.44v-1.543a.861.861,0,0,0-.861-.861H53.036Z" transform="translate(-47.781 -206.765)"/>
      </g>
    </g>
  </g>
</svg>
