<svg xmlns="http://www.w3.org/2000/svg" xmlns:xlink="http://www.w3.org/1999/xlink" width="113" height="113" viewBox="0 0 113 113">
  <defs>
    <filter id="Trazado_982547" x="0" y="0" width="113" height="113" filterUnits="userSpaceOnUse">
      <feOffset dy="3" input="SourceAlpha"/>
      <feGaussianBlur stdDeviation="3" result="blur"/>
      <feFlood flood-opacity="0.161"/>
      <feComposite operator="in" in2="blur"/>
      <feComposite in="SourceGraphic"/>
    </filter>
  </defs>
  <g id="Grupo_1206528" data-name="Grupo 1206528" transform="translate(-902 -6351.489)">
    <g id="Grupo_1204079" data-name="Grupo 1204079" transform="translate(0 2511.489)">
      <g id="Grupo_1203960" data-name="Grupo 1203960" transform="translate(0.44 1899.125)">
        <g id="Grupo_1203499" data-name="Grupo 1203499" transform="translate(0 -197.72)">
          <g id="Grupo_1202591" data-name="Grupo 1202591" transform="translate(910.561 2144.596)">
            <g id="Grupo_1172010" data-name="Grupo 1172010" transform="translate(0)">
              <g id="Grupo_1171046" data-name="Grupo 1171046">
                <g id="Grupo_1148525" data-name="Grupo 1148525">
                  <g transform="matrix(1, 0, 0, 1, -9, -6)" filter="url(#Trazado_982547)">
                    <g id="Trazado_982547-2" data-name="Trazado 982547" transform="translate(9 6)" fill="#edf3fc">
                      <path d="M 47.5 93.5 C 41.28937149047852 93.5 35.26533508300781 92.28397369384766 29.59518623352051 89.88570404052734 C 24.11771965026855 87.56893157958984 19.19813346862793 84.25196075439453 14.97309303283691 80.02691650390625 C 10.74804019927979 75.80186462402344 7.431066513061523 70.88229370117188 5.114293098449707 65.40481567382812 C 2.716026782989502 59.73468017578125 1.5 53.71062850952148 1.5 47.5 C 1.5 41.28937149047852 2.716026782989502 35.26533508300781 5.114293098449707 29.59518623352051 C 7.431066513061523 24.11771965026855 10.74804019927979 19.19813346862793 14.97309303283691 14.97309303283691 C 19.19813346862793 10.74804019927979 24.11771965026855 7.431066513061523 29.59518623352051 5.114293098449707 C 35.26533508300781 2.716026782989502 41.28937149047852 1.5 47.5 1.5 C 53.71062850952148 1.5 59.73468017578125 2.716026782989502 65.40481567382812 5.114293098449707 C 70.88229370117188 7.431066513061523 75.80186462402344 10.74804019927979 80.02691650390625 14.97309303283691 C 84.25196075439453 19.19813346862793 87.56893157958984 24.11771965026855 89.88570404052734 29.59518623352051 C 92.28397369384766 35.26533508300781 93.5 41.28937149047852 93.5 47.5 C 93.5 53.71062850952148 92.28397369384766 59.73468017578125 89.88570404052734 65.40481567382812 C 87.56893157958984 70.88229370117188 84.25196075439453 75.80186462402344 80.02691650390625 80.02691650390625 C 75.80186462402344 84.25196075439453 70.88229370117188 87.56893157958984 65.40481567382812 89.88570404052734 C 59.73468017578125 92.28397369384766 53.71062850952148 93.5 47.5 93.5 Z" stroke="none"/>
                      <path d="M 47.5 3 C 41.49121475219727 3 35.66376876831055 4.176155090332031 30.17950439453125 6.495796203613281 C 24.88084411621094 8.736953735351562 20.12152099609375 11.94598388671875 16.03375244140625 16.03375244140625 C 11.94598388671875 20.12152099609375 8.736953735351562 24.88084411621094 6.495796203613281 30.17950439453125 C 4.176155090332031 35.66376876831055 3 41.49121475219727 3 47.5 C 3 53.50878524780273 4.176155090332031 59.33623123168945 6.495796203613281 64.82049560546875 C 8.736953735351562 70.11915588378906 11.94598388671875 74.87847900390625 16.03375244140625 78.96624755859375 C 20.12152099609375 83.05401611328125 24.88084411621094 86.26304626464844 30.17950439453125 88.50419616699219 C 35.66376876831055 90.82384490966797 41.49121475219727 92 47.5 92 C 53.50878524780273 92 59.33623123168945 90.82384490966797 64.82049560546875 88.50419616699219 C 70.11915588378906 86.26304626464844 74.87847900390625 83.05401611328125 78.96624755859375 78.96624755859375 C 83.05401611328125 74.87847900390625 86.26304626464844 70.11915588378906 88.50419616699219 64.82049560546875 C 90.82384490966797 59.33623123168945 92 53.50878524780273 92 47.5 C 92 41.49121475219727 90.82384490966797 35.66376876831055 88.50419616699219 30.17950439453125 C 86.26304626464844 24.88084411621094 83.05401611328125 20.12152099609375 78.96624755859375 16.03375244140625 C 74.87847900390625 11.94598388671875 70.11915588378906 8.736953735351562 64.82049560546875 6.495796203613281 C 59.33623123168945 4.176155090332031 53.50878524780273 3 47.5 3 M 47.5 0 C 73.7335205078125 0 95 21.2664794921875 95 47.5 C 95 73.7335205078125 73.7335205078125 95 47.5 95 C 21.2664794921875 95 0 73.7335205078125 0 47.5 C 0 21.2664794921875 21.2664794921875 0 47.5 0 Z" stroke="none" fill="#5692e8"/>
                    </g>
                  </g>
                </g>
              </g>
            </g>
          </g>
        </g>
      </g>
    </g>
    <g id="diversity_12505200" transform="translate(914.362 6347.295)">
      <g id="Grupo_1206523" data-name="Grupo 1206523" transform="translate(7.498 23.398)">
        <g id="Grupo_1206521" data-name="Grupo 1206521" transform="translate(25.826 0)">
          <path id="Trazado_1049082" data-name="Trazado 1049082" d="M211.191,175.711H196.128a1.52,1.52,0,0,1-1.52-1.52v-1.9a9,9,0,0,1,9-9h.1a9,9,0,0,1,9,9v1.9A1.52,1.52,0,0,1,211.191,175.711Z" transform="translate(-192.846 -142.659)" fill="#ff83b4"/>
          <circle id="Elipse_12937" data-name="Elipse 12937" cx="10.814" cy="10.814" r="10.814" fill="#ffddcf"/>
          <path id="Trazado_1049083" data-name="Trazado 1049083" d="M187.79,33.891a12.877,12.877,0,0,1,3.15-8.457,10.814,10.814,0,1,0,5.895,20.791A12.932,12.932,0,0,1,187.79,33.891Z" transform="translate(-182.655 -25.134)" fill="#ffcbbe"/>
        </g>
        <g id="Grupo_1206522" data-name="Grupo 1206522" transform="translate(38.704 14.036)">
          <path id="Trazado_1049084" data-name="Trazado 1049084" d="M298.535,270.907H283.472a1.52,1.52,0,0,1-1.52-1.52v-1.9a9,9,0,0,1,9-9h.1a9,9,0,0,1,9,9v1.9A1.52,1.52,0,0,1,298.535,270.907Z" transform="translate(-280.189 -237.855)" fill="#36d49b"/>
          <path id="Trazado_1049085" data-name="Trazado 1049085" d="M287.28,265.075a8.284,8.284,0,0,1,3.064-6.439,9,9,0,0,0-8.392,8.98v1.9a1.52,1.52,0,0,0,1.52,1.52h6.339A8.275,8.275,0,0,1,287.28,265.075Z" transform="translate(-280.189 -237.988)" fill="#00c780"/>
          <circle id="Elipse_12938" data-name="Elipse 12938" cx="10.814" cy="10.814" r="10.814" fill="#fed2a4"/>
          <path id="Trazado_1049086" data-name="Trazado 1049086" d="M275.134,129.087a12.877,12.877,0,0,1,3.15-8.457,10.814,10.814,0,1,0,5.895,20.791A12.932,12.932,0,0,1,275.134,129.087Z" transform="translate(-269.998 -120.33)" fill="#ffbd86"/>
        </g>
        <path id="Trazado_1049087" data-name="Trazado 1049087" d="M123.848,270.907H108.785a1.52,1.52,0,0,1-1.52-1.52v-1.9a9,9,0,0,1,9-9h.1a9,9,0,0,1,9,9v1.9A1.52,1.52,0,0,1,123.848,270.907Z" transform="translate(-92.555 -223.818)" fill="#3b5a9b"/>
        <path id="Trazado_1049088" data-name="Trazado 1049088" d="M112.594,265.075a8.284,8.284,0,0,1,3.064-6.439,9,9,0,0,0-8.392,8.98v1.9a1.52,1.52,0,0,0,1.52,1.52h6.339A8.274,8.274,0,0,1,112.594,265.075Z" transform="translate(-92.556 -223.951)" fill="#194391"/>
        <circle id="Elipse_12939" data-name="Elipse 12939" cx="10.814" cy="10.814" r="10.814" transform="translate(12.948 14.036)" fill="#db9e82"/>
        <path id="Trazado_1049089" data-name="Trazado 1049089" d="M405.868,265.259l-2.591,11.648-6.159-1.37,2.591-11.648a3.155,3.155,0,0,1,3.765-2.395h0A3.155,3.155,0,0,1,405.868,265.259Z" transform="translate(-339.671 -226.323)" fill="#ffbd86"/>
        <path id="Trazado_1049090" data-name="Trazado 1049090" d="M55.094,265.259l2.591,11.648,6.159-1.37-2.591-11.648a3.155,3.155,0,0,0-3.765-2.395h0A3.155,3.155,0,0,0,55.094,265.259Z" transform="translate(-48.011 -226.323)" fill="#ffbd86"/>
        <path id="Trazado_1049091" data-name="Trazado 1049091" d="M310.157,256.8h0a3.179,3.179,0,0,0-4.6.764l-5.54,8.494a5.274,5.274,0,0,1-2.161,1.894l-1.037.491a3.3,3.3,0,0,0-.32-1.466h0a3.065,3.065,0,0,0-4.031-1.583l-9.305,4.4a5.15,5.15,0,0,0-2.784,5.469l-2,9.784A3.419,3.419,0,0,0,280.781,289l4.859,1.3a2.956,2.956,0,0,0,3.691-2.317l1.242-6.066c.318-1.555,1.673-2.066,3.053-2.719l9.185-4.348a3.087,3.087,0,0,0,1.264-1.108l7.036-12.122A3.618,3.618,0,0,0,310.157,256.8Z" transform="translate(-238.377 -221.822)" fill="#fed2a4"/>
        <path id="Trazado_1049092" data-name="Trazado 1049092" d="M9,256.8H9a3.179,3.179,0,0,1,4.6.764l5.54,8.494a5.274,5.274,0,0,0,2.161,1.894l1.037.491a3.3,3.3,0,0,1,.32-1.466h0a3.065,3.065,0,0,1,4.031-1.583l9.305,4.4a5.15,5.15,0,0,1,2.784,5.469l2,9.784A3.419,3.419,0,0,1,38.374,289l-4.859,1.3a2.956,2.956,0,0,1-3.691-2.317l-1.242-6.066c-.318-1.555-1.673-2.066-3.053-2.719l-9.185-4.348a3.087,3.087,0,0,1-1.264-1.108L8.043,261.628A3.618,3.618,0,0,1,9,256.8Z" transform="translate(-7.498 -221.822)" fill="#fed2a4"/>
        <path id="Trazado_1049093" data-name="Trazado 1049093" d="M100.447,129.087a12.877,12.877,0,0,1,3.15-8.457,10.814,10.814,0,1,0,5.895,20.791A12.932,12.932,0,0,1,100.447,129.087Z" transform="translate(-82.363 -106.294)" fill="#c8866a"/>
      </g>
      <g id="Grupo_1206527" data-name="Grupo 1206527" transform="translate(7.498 23.398)">
        <path id="Trazado_1049094" data-name="Trazado 1049094" d="M359.852,329.628a3.377,3.377,0,0,1,.3,1.068,3.33,3.33,0,0,1,.019.4,2.95,2.95,0,0,1-1.653,2.654l-5.9,2.794" transform="translate(-301.732 -284.476)" fill="none" stroke="#000" stroke-linecap="round" stroke-linejoin="round" stroke-miterlimit="10" stroke-width="1.5"/>
        <path id="Trazado_1049095" data-name="Trazado 1049095" d="M296.648,267.347a3.335,3.335,0,0,0-.149-.373,3.066,3.066,0,0,0-4.031-1.582l-7.433,3.518-1.873.886a5.152,5.152,0,0,0-2.784,5.47l-2,9.783A3.418,3.418,0,0,0,280.783,289l4.86,1.3a2.955,2.955,0,0,0,3.691-2.316l1.243-6.066c.317-1.556,1.673-2.067,3.052-2.72l9.186-4.347a3.087,3.087,0,0,0,1.264-1.109l7.036-12.123a3.617,3.617,0,0,0-.955-4.827,3.179,3.179,0,0,0-4.6.764l-1.039,1.594h0l-4.5,6.9a5.274,5.274,0,0,1-2.162,1.893s-1.035.492-1.037.491a3.246,3.246,0,0,0-.019-.4" transform="translate(-238.379 -221.822)" fill="none" stroke="#000" stroke-linecap="round" stroke-linejoin="round" stroke-miterlimit="10" stroke-width="1.5"/>
        <path id="Trazado_1049096" data-name="Trazado 1049096" d="M410.557,263.657h0a3.155,3.155,0,0,0-6.1.231l-1.469,6.6s-.3,1.356-.3,1.356" transform="translate(-344.42 -226.321)" fill="none" stroke="#000" stroke-linecap="round" stroke-linejoin="round" stroke-miterlimit="10" stroke-width="1.5"/>
        <path id="Trazado_1049097" data-name="Trazado 1049097" d="M115.692,336.543l-5.9-2.794a2.95,2.95,0,0,1-1.653-2.654,3.325,3.325,0,0,1,.019-.4,3.381,3.381,0,0,1,.3-1.067" transform="translate(-93.298 -284.476)" fill="none" stroke="#000" stroke-linecap="round" stroke-linejoin="round" stroke-miterlimit="10" stroke-width="1.5"/>
        <path id="Trazado_1049098" data-name="Trazado 1049098" d="M21.211,277.161l-4.866-2.3a3.087,3.087,0,0,1-1.264-1.109L8.045,261.626A3.617,3.617,0,0,1,9,256.8a3.179,3.179,0,0,1,4.6.764l1.039,1.594h0l4.5,6.9A5.274,5.274,0,0,0,21.3,267.95l1.035.491h0a3.34,3.34,0,0,1,.32-1.467,3.066,3.066,0,0,1,4.031-1.582l7.433,3.518L36,269.8a5.152,5.152,0,0,1,2.784,5.47l2,9.783A3.418,3.418,0,0,1,38.376,289l-4.86,1.3a2.955,2.955,0,0,1-3.691-2.316l-1.243-6.066a3.353,3.353,0,0,0-2.177-2.307" transform="translate(-7.5 -221.822)" fill="none" stroke="#000" stroke-linecap="round" stroke-linejoin="round" stroke-miterlimit="10" stroke-width="1.5"/>
        <path id="Trazado_1049099" data-name="Trazado 1049099" d="M63.807,271.846h0l-.3-1.355-1.469-6.6a3.155,3.155,0,0,0-6.1-.231h0" transform="translate(-48.796 -226.321)" fill="none" stroke="#000" stroke-linecap="round" stroke-linejoin="round" stroke-miterlimit="10" stroke-width="1.5"/>
        <path id="Trazado_1049100" data-name="Trazado 1049100" d="M188.068,274.042h4.67a1.52,1.52,0,0,0,1.52-1.52v-1.9a9,9,0,0,0-5.923-8.46" transform="translate(-161.444 -226.954)" fill="none" stroke="#000" stroke-linecap="round" stroke-linejoin="round" stroke-miterlimit="10" stroke-width="1.5"/>
        <path id="Trazado_1049101" data-name="Trazado 1049101" d="M113.189,262.148h0a9.008,9.008,0,0,0-5.92,8.462v.5" transform="translate(-92.558 -226.946)" fill="none" stroke="#000" stroke-linecap="round" stroke-linejoin="round" stroke-miterlimit="10" stroke-width="1.5"/>
        <circle id="Elipse_12940" data-name="Elipse 12940" cx="10.814" cy="10.814" r="10.814" transform="translate(12.947 14.036)" fill="none" stroke="#000" stroke-linecap="round" stroke-linejoin="round" stroke-miterlimit="10" stroke-width="1.5"/>
        <path id="Trazado_1049102" data-name="Trazado 1049102" d="M288.138,274.042h-4.67a1.52,1.52,0,0,1-1.52-1.52v-1.9a9,9,0,0,1,5.923-8.46" transform="translate(-241.482 -226.954)" fill="none" stroke="#000" stroke-linecap="round" stroke-linejoin="round" stroke-miterlimit="10" stroke-width="1.5"/>
        <path id="Trazado_1049103" data-name="Trazado 1049103" d="M364.568,262.148h0a9.008,9.008,0,0,1,5.92,8.462v.5" transform="translate(-311.92 -226.946)" fill="none" stroke="#000" stroke-linecap="round" stroke-linejoin="round" stroke-miterlimit="10" stroke-width="1.5"/>
        <circle id="Elipse_12941" data-name="Elipse 12941" cx="10.814" cy="10.814" r="10.814" transform="translate(38.704 14.036)" fill="none" stroke="#000" stroke-linecap="round" stroke-linejoin="round" stroke-miterlimit="10" stroke-width="1.5"/>
        <line id="Línea_1058" data-name="Línea 1058" x1="11.663" transform="translate(30.808 33.053)" fill="none" stroke="#000" stroke-linecap="round" stroke-linejoin="round" stroke-miterlimit="10" stroke-width="1.5"/>
        <path id="Trazado_1049104" data-name="Trazado 1049104" d="M321.591,63.9a10.851,10.851,0,0,1,.545,8.4" transform="translate(-275.28 -57.925)" fill="none" stroke="#000" stroke-linecap="round" stroke-linejoin="round" stroke-miterlimit="10" stroke-width="1.5"/>
        <path id="Trazado_1049105" data-name="Trazado 1049105" d="M183.255,37.765A10.818,10.818,0,0,1,199.023,24.93" transform="translate(-156.832 -23.398)" fill="none" stroke="#000" stroke-linecap="round" stroke-linejoin="round" stroke-miterlimit="10" stroke-width="1.5"/>
        <path id="Trazado_1049106" data-name="Trazado 1049106" d="M237.948,167.848a10.887,10.887,0,0,0,5.323,0" transform="translate(-203.97 -146.55)" fill="none" stroke="#000" stroke-linecap="round" stroke-linejoin="round" stroke-miterlimit="10" stroke-width="1.5"/>
        <g id="Grupo_1206524" data-name="Grupo 1206524" transform="translate(17.126 25.308)">
          <line id="Línea_1059" data-name="Línea 1059" y2="1.275" fill="none" stroke="#000" stroke-linecap="round" stroke-linejoin="round" stroke-miterlimit="10" stroke-width="1.5"/>
          <line id="Línea_1060" data-name="Línea 1060" y2="1.275" transform="translate(13.27)" fill="none" stroke="#000" stroke-linecap="round" stroke-linejoin="round" stroke-miterlimit="10" stroke-width="1.5"/>
          <path id="Trazado_1049107" data-name="Trazado 1049107" d="M156.791,203.43a2.318,2.318,0,0,0,3.5,0" transform="translate(-151.905 -202.193)" fill="none" stroke="#000" stroke-linecap="round" stroke-linejoin="round" stroke-miterlimit="10" stroke-width="1.5"/>
        </g>
        <g id="Grupo_1206525" data-name="Grupo 1206525" transform="translate(30.005 8.323)">
          <line id="Línea_1061" data-name="Línea 1061" y2="1.275" fill="none" stroke="#000" stroke-linecap="round" stroke-linejoin="round" stroke-miterlimit="10" stroke-width="1.5"/>
          <line id="Línea_1062" data-name="Línea 1062" y2="1.275" transform="translate(13.27)" fill="none" stroke="#000" stroke-linecap="round" stroke-linejoin="round" stroke-miterlimit="10" stroke-width="1.5"/>
          <path id="Trazado_1049108" data-name="Trazado 1049108" d="M244.134,88.234a2.318,2.318,0,0,0,3.5,0" transform="translate(-239.248 -86.997)" fill="none" stroke="#000" stroke-linecap="round" stroke-linejoin="round" stroke-miterlimit="10" stroke-width="1.5"/>
        </g>
        <g id="Grupo_1206526" data-name="Grupo 1206526" transform="translate(42.883 25.422)">
          <line id="Línea_1063" data-name="Línea 1063" x1="0.001" y2="1.245" fill="none" stroke="#000" stroke-linecap="round" stroke-linejoin="round" stroke-miterlimit="10" stroke-width="1.5"/>
          <line id="Línea_1064" data-name="Línea 1064" x1="0.001" y2="1.245" transform="translate(13.269 0.013)" fill="none" stroke="#000" stroke-linecap="round" stroke-linejoin="round" stroke-miterlimit="10" stroke-width="1.5"/>
          <line id="Línea_1065" data-name="Línea 1065" x2="3.498" y2="0.003" transform="translate(4.885 1.802)" fill="none" stroke="#000" stroke-linecap="round" stroke-linejoin="round" stroke-miterlimit="10" stroke-width="1.5"/>
        </g>
      </g>
    </g>
  </g>
</svg>
