<svg xmlns="http://www.w3.org/2000/svg" width="39.006" height="35.742" viewBox="0 0 39.006 35.742">
  <g id="family_437522" transform="translate(0 -21.42)">
    <g id="Grupo_1204082" data-name="Grupo 1204082" transform="translate(8.487 33.824)">
      <g id="Grupo_1204081" data-name="Grupo 1204081">
        <path id="Trazado_1048183" data-name="Trazado 1048183" d="M114.94,184.358a.571.571,0,0,0-.8.084,1.062,1.062,0,0,1-1.724,0,.571.571,0,1,0-.888.72,2.2,2.2,0,0,0,3.5,0A.571.571,0,0,0,114.94,184.358Z" transform="translate(-111.397 -184.231)"/>
      </g>
    </g>
    <g id="Grupo_1204084" data-name="Grupo 1204084" transform="translate(7.181 30.559)">
      <g id="Grupo_1204083" data-name="Grupo 1204083" transform="translate(0 0)">
        <path id="Trazado_1048184" data-name="Trazado 1048184" d="M94.83,141.386a.571.571,0,0,0-.571.571v.653a.571.571,0,1,0,1.143,0v-.653A.571.571,0,0,0,94.83,141.386Z" transform="translate(-94.259 -141.386)"/>
      </g>
    </g>
    <g id="Grupo_1204086" data-name="Grupo 1204086" transform="translate(12.404 30.559)">
      <g id="Grupo_1204085" data-name="Grupo 1204085" transform="translate(0 0)">
        <path id="Trazado_1048185" data-name="Trazado 1048185" d="M163.382,141.386a.571.571,0,0,0-.571.571v.653a.571.571,0,1,0,1.143,0v-.653A.571.571,0,0,0,163.382,141.386Z" transform="translate(-162.811 -141.386)"/>
      </g>
    </g>
    <g id="Grupo_1204088" data-name="Grupo 1204088" transform="translate(27.418 37.088)">
      <g id="Grupo_1204087" data-name="Grupo 1204087">
        <path id="Trazado_1048186" data-name="Trazado 1048186" d="M363.44,227.2a.571.571,0,0,0-.8.084,1.062,1.062,0,0,1-1.724,0,.571.571,0,1,0-.887.72,2.2,2.2,0,0,0,3.5,0A.571.571,0,0,0,363.44,227.2Z" transform="translate(-359.898 -227.075)"/>
      </g>
    </g>
    <g id="Grupo_1204090" data-name="Grupo 1204090" transform="translate(26.113 33.824)">
      <g id="Grupo_1204089" data-name="Grupo 1204089">
        <path id="Trazado_1048187" data-name="Trazado 1048187" d="M343.33,184.231a.571.571,0,0,0-.571.571v.653a.571.571,0,0,0,1.143,0V184.8A.571.571,0,0,0,343.33,184.231Z" transform="translate(-342.759 -184.231)"/>
      </g>
    </g>
    <g id="Grupo_1204092" data-name="Grupo 1204092" transform="translate(31.335 33.824)">
      <g id="Grupo_1204091" data-name="Grupo 1204091">
        <path id="Trazado_1048188" data-name="Trazado 1048188" d="M411.882,184.231a.571.571,0,0,0-.571.571v.653a.571.571,0,0,0,1.143,0V184.8A.571.571,0,0,0,411.882,184.231Z" transform="translate(-411.311 -184.231)"/>
      </g>
    </g>
    <g id="Grupo_1204094" data-name="Grupo 1204094" transform="translate(0 21.42)">
      <g id="Grupo_1204093" data-name="Grupo 1204093" transform="translate(0 0)">
        <path id="Trazado_1048189" data-name="Trazado 1048189" d="M37.416,45.123l-4.476-1.791a.75.75,0,0,1-.069-.034,11.824,11.824,0,0,0,4.621-1.933.571.571,0,0,0,.2-.523,74.022,74.022,0,0,1-.647-9.059,7.752,7.752,0,1,0-15.5,0c0,1.171-.053,2.6-.14,3.96l-1.247.624-3.661-1.831-.032-.014a6.4,6.4,0,0,0,.33-1.6,1.876,1.876,0,0,0,.671-3.215v-3.8a3.18,3.18,0,0,0-1.4-2.623,2.512,2.512,0,0,0-2.435-1.865H8.405a5.147,5.147,0,0,0-5.141,5.141V29.71a1.876,1.876,0,0,0,.671,3.215,6.444,6.444,0,0,0,2.593,4.688v1.579L1.8,40.61A2.514,2.514,0,0,0,0,43.033V49.41a.571.571,0,0,0,.571.571H.653v6.61a.571.571,0,1,0,1.143,0v-6.61H3.917v6.61a.571.571,0,1,0,1.143,0V46.739a2.522,2.522,0,0,0-.425-1.4L3.658,43.87a.571.571,0,1,0-.951.634l.977,1.465a1.383,1.383,0,0,1,.233.769v2.1H1.143V43.033A1.378,1.378,0,0,1,2.131,41.7l1.962-.588a6.448,6.448,0,0,0,9.326,4.178,1.875,1.875,0,0,0,1.514.77h.081v.081a5.144,5.144,0,0,0,2.611,4.473v.932a.081.081,0,0,1-.056.077l-2.131.71a2.527,2.527,0,0,0-1.73,2.4v1.852a.571.571,0,0,0,1.143,0V54.738a1.385,1.385,0,0,1,.948-1.316l.627-.209a4.488,4.488,0,0,0,7.458,0l.627.209a1.385,1.385,0,0,1,.948,1.316v1.852a.571.571,0,1,0,1.143,0V54.738a2.526,2.526,0,0,0-1.73-2.4l-2.131-.71a.081.081,0,0,1-.056-.077v-.932A5.162,5.162,0,0,0,25.1,47.535a5.793,5.793,0,0,0,9.706-2.223l2.181.872a1.38,1.38,0,0,1,.872,1.288v2.672H35.742V49.41a.571.571,0,1,0-1.143,0v7.181a.571.571,0,1,0,1.143,0v-5.3H37.21v5.3a.571.571,0,1,0,1.143,0v-5.3h.081a.571.571,0,0,0,.571-.571V47.472A2.517,2.517,0,0,0,37.416,45.123ZM22.686,31.784a6.61,6.61,0,1,1,13.219,0,75.019,75.019,0,0,0,.612,8.874,12.232,12.232,0,0,1-4.039,1.558v-.909a6.4,6.4,0,0,0,.867-.589,6.432,6.432,0,0,0,2.4-5.016c0-3.23-2.336-3.693-4.594-4.142a9.166,9.166,0,0,1-4.107-1.527.571.571,0,0,0-.928.446c0,.015-.025,1.519-2.178,2.057a.571.571,0,0,0,.277,1.109,3.781,3.781,0,0,0,2.838-2.222,11.967,11.967,0,0,0,3.876,1.258c2.414.479,3.674.831,3.674,3.021a5.289,5.289,0,0,1-1.972,4.127,5.3,5.3,0,0,1-6.418.185A6.456,6.456,0,0,0,24.644,37.6V35.048a.571.571,0,0,0-.827-.511l-1.234.617C22.651,33.964,22.686,32.832,22.686,31.784Zm.816,4.189V38.04l-2.068-1.034Zm-6.691,0,2.068,1.034L16.81,38.04Zm-3.1,6.256v.543a1.877,1.877,0,0,0-.653,1.416,5.3,5.3,0,0,1-7.866-3.4L6.6,40.363a3.834,3.834,0,0,0,7.163,1.024A6.425,6.425,0,0,0,13.709,42.229ZM7.671,39.617V38.293a6.438,6.438,0,0,0,5.385,0v1.324a2.693,2.693,0,0,1-5.385.007S7.671,39.619,7.671,39.617Zm2.693-1.876a5.31,5.31,0,0,1-5.3-5.3.571.571,0,0,0-.571-.571.734.734,0,1,1,0-1.469H5.794a.571.571,0,0,0,.542-.391l.524-1.573c1.313-.03,5.383-.214,7.676-1.36a.571.571,0,0,0-.511-1.022C11.566,27.28,6.5,27.3,6.447,27.3a.571.571,0,0,0-.542.391l-.523,1.568H4.488l-.081,0V26.561a4,4,0,0,1,4-4h5.223a1.377,1.377,0,0,1,1.363,1.169.571.571,0,0,0,.284.408,2.04,2.04,0,0,1,1.046,1.768v3.348l-.081,0h-.653a.571.571,0,1,0,0,1.143h.653a.734.734,0,0,1,0,1.469.571.571,0,0,0-.571.571A5.31,5.31,0,0,1,10.364,37.74ZM14.2,39.618v-2a6.5,6.5,0,0,0,1.469-1.518V37.6A6.456,6.456,0,0,0,14.2,39.776C14.2,39.724,14.2,39.671,14.2,39.618Zm8.545,13.216a3.343,3.343,0,0,1-5.177,0l.364-.121a1.223,1.223,0,0,0,.837-1.161V51.1a5.115,5.115,0,0,0,2.774,0v.455a1.222,1.222,0,0,0,.837,1.161Zm1.981-7.912a.571.571,0,0,0-.571.571v.568s0,.01,0,.015v.07a4,4,0,1,1-8,0v-.653a.571.571,0,0,0-.571-.571h-.653a.735.735,0,0,1-.734-.734.726.726,0,0,1,.369-.631.568.568,0,0,0,.135-.111c1.412-.041,5.991-.307,9-2.026a.571.571,0,0,0-.567-.992c-2.636,1.506-6.778,1.808-8.285,1.868v-.066a5.309,5.309,0,0,1,.9-2.96.57.57,0,0,0,.738.206l3.661-1.831,3.661,1.831a.568.568,0,0,0,.738-.206,5.309,5.309,0,0,1,.9,2.96v.834a.571.571,0,0,0,.284.494.726.726,0,0,1,.369.631.735.735,0,0,1-.734.734Zm4.57,3.264a4.657,4.657,0,0,1-3.9-2.122A1.872,1.872,0,0,0,26.6,42.771v-.543a6.425,6.425,0,0,0-.037-.685,6.443,6.443,0,0,0,4.769.27v.837a1.868,1.868,0,0,0,1.18,1.743l1.232.493A4.649,4.649,0,0,1,29.3,48.186Z" transform="translate(0 -21.42)"/>
      </g>
    </g>
    <g id="Grupo_1204096" data-name="Grupo 1204096" transform="translate(18.279 46.88)">
      <g id="Grupo_1204095" data-name="Grupo 1204095">
        <path id="Trazado_1048190" data-name="Trazado 1048190" d="M243.475,355.737a.571.571,0,0,0-.8.084,1.062,1.062,0,0,1-1.724,0,.571.571,0,0,0-.888.72,2.2,2.2,0,0,0,3.5,0A.572.572,0,0,0,243.475,355.737Z" transform="translate(-239.932 -355.61)"/>
      </g>
    </g>
    <g id="Grupo_1204098" data-name="Grupo 1204098" transform="translate(17.637 44.271)">
      <g id="Grupo_1204097" data-name="Grupo 1204097" transform="translate(0 0)">
        <circle id="Elipse_12913" data-name="Elipse 12913" cx="0.571" cy="0.571" r="0.571"/>
      </g>
    </g>
    <g id="Grupo_1204100" data-name="Grupo 1204100" transform="translate(21.522 44.271)">
      <g id="Grupo_1204099" data-name="Grupo 1204099" transform="translate(0 0)">
        <circle id="Elipse_12914" data-name="Elipse 12914" cx="0.571" cy="0.571" r="0.571"/>
      </g>
    </g>
  </g>
</svg>
