<svg xmlns="http://www.w3.org/2000/svg" xmlns:xlink="http://www.w3.org/1999/xlink" width="38.954" height="38.955" viewBox="0 0 38.954 38.955">
  <defs>
    <clipPath id="clip-path">
      <path id="path2481" d="M0-682.665H38.954v38.954H0Z" transform="translate(0 682.665)"/>
    </clipPath>
  </defs>
  <g id="g2475" transform="translate(0 682.665)">
    <g id="g2477" transform="translate(0 -682.665)">
      <g id="g2479" clip-path="url(#clip-path)">
        <g id="g2485" transform="translate(0.571 36.249)">
          <path id="path2487" d="M0,0H37.813" fill="none" stroke="#000" stroke-linecap="round" stroke-linejoin="round" stroke-miterlimit="10" stroke-width="1"/>
        </g>
        <g id="g2489" transform="translate(37.164 19.172)">
          <path id="path2491" d="M0,0V17.077" fill="none" stroke="#000" stroke-linecap="round" stroke-linejoin="round" stroke-miterlimit="10" stroke-width="1"/>
        </g>
        <g id="g2493" transform="translate(1.79 19.172)">
          <path id="path2495" d="M0-282.192v-17.077" transform="translate(0 299.269)" fill="none" stroke="#000" stroke-linecap="round" stroke-linejoin="round" stroke-miterlimit="10" stroke-width="1"/>
        </g>
        <g id="g2497" transform="translate(23.746 13.683)">
          <path id="path2499" d="M-201.566-90.7h2.44l-2.44-5.489h-12.2" transform="translate(213.763 96.193)" fill="none" stroke="#000" stroke-linecap="round" stroke-linejoin="round" stroke-miterlimit="10" stroke-width="1"/>
        </g>
        <g id="g2501" transform="translate(0.571 9.414)">
          <path id="path2503" d="M-241.878-70.548h-12.2l-2.44,5.489h9.148l9.758-9.758,9.758,9.758h4.269" transform="translate(256.515 74.817)" fill="none" stroke="#000" stroke-linecap="round" stroke-linejoin="round" stroke-miterlimit="10" stroke-width="1"/>
        </g>
      </g>
    </g>
    <g id="g2505" transform="translate(19.477 -679.96)">
      <path id="path2507" d="M0-110.86v-6.709" transform="translate(0 117.569)" fill="none" stroke="#000" stroke-linecap="round" stroke-linejoin="round" stroke-miterlimit="10" stroke-width="1"/>
    </g>
    <g id="g2509" transform="translate(19.477 -679.96)">
      <path id="path2511" d="M0,0H4.269V3.049H0" fill="none" stroke="#000" stroke-linecap="round" stroke-linejoin="round" stroke-miterlimit="10" stroke-width="1"/>
    </g>
    <g id="g2513" transform="translate(0 -682.665)">
      <g id="g2515" clip-path="url(#clip-path)">
        <g id="g2521" transform="translate(15.818 16.733)">
          <path id="path2523" d="M-120.938-60.47A3.659,3.659,0,0,1-124.6-56.81a3.659,3.659,0,0,1-3.659-3.659,3.659,3.659,0,0,1,3.659-3.659A3.659,3.659,0,0,1-120.938-60.47Z" transform="translate(128.257 64.129)" fill="none" stroke="#000" stroke-linecap="round" stroke-linejoin="round" stroke-miterlimit="10" stroke-width="1"/>
        </g>
        <g id="g2525" transform="translate(19.477 19.782)">
          <path id="path2527" d="M0-30.234v-1.22l1.22-.61" transform="translate(0 32.064)" fill="none" stroke="#000" stroke-linecap="round" stroke-linejoin="round" stroke-miterlimit="10" stroke-width="1"/>
        </g>
        <g id="g2529" transform="translate(19.477 28.321)">
          <path id="path2531" d="M0,0V5.489" fill="none" stroke="#000" stroke-linecap="round" stroke-linejoin="round" stroke-miterlimit="10" stroke-width="1"/>
        </g>
        <g id="g2533" transform="translate(14.598 33.81)">
          <path id="path2535" d="M0-40.312v-2.44H9.758v2.44" transform="translate(0 42.752)" fill="none" stroke="#000" stroke-linecap="round" stroke-linejoin="round" stroke-miterlimit="10" stroke-width="1"/>
        </g>
        <g id="g2537" transform="translate(15.818 28.321)">
          <path id="path2539" d="M-120.938-90.7v-5.489h-7.319V-90.7" transform="translate(128.257 96.193)" fill="none" stroke="#000" stroke-linecap="round" stroke-linejoin="round" stroke-miterlimit="10" stroke-width="1"/>
        </g>
        <g id="g2541" transform="translate(4.23 28.32)">
          <path id="path2543" d="M-60.471-60.47h4.879v-3.659h-8.538v3.659h1.22" transform="translate(64.131 64.129)" fill="none" stroke="#000" stroke-linecap="round" stroke-linejoin="round" stroke-miterlimit="10" stroke-width="1"/>
        </g>
        <path id="path2545" d="M74.129-289.577h8.538v-3.659H74.129Z" transform="translate(-69.899 315.458)" fill="none" stroke="#000" stroke-linecap="round" stroke-linejoin="round" stroke-miterlimit="10" stroke-width="1"/>
        <g id="g2547" transform="translate(8.499 22.222)">
          <path id="path2549" d="M0-60.47v-3.659" transform="translate(0 64.129)" fill="none" stroke="#000" stroke-linecap="round" stroke-linejoin="round" stroke-miterlimit="10" stroke-width="1"/>
        </g>
        <g id="g2551" transform="translate(8.499 28.32)">
          <path id="path2553" d="M0-60.47v-3.659" transform="translate(0 64.129)" fill="none" stroke="#000" stroke-linecap="round" stroke-linejoin="round" stroke-miterlimit="10" stroke-width="1"/>
        </g>
        <path id="path2555" d="M458.9-182.695h8.538v-3.659H458.9Z" transform="translate(-432.716 214.675)" fill="none" stroke="#000" stroke-linecap="round" stroke-linejoin="round" stroke-miterlimit="10" stroke-width="1"/>
        <path id="path2557" d="M458.9-289.577h8.538v-3.659H458.9Z" transform="translate(-432.716 315.458)" fill="none" stroke="#000" stroke-linecap="round" stroke-linejoin="round" stroke-miterlimit="10" stroke-width="1"/>
        <g id="g2559" transform="translate(30.455 22.222)">
          <path id="path2561" d="M0-60.47v-3.659" transform="translate(0 64.129)" fill="none" stroke="#000" stroke-linecap="round" stroke-linejoin="round" stroke-miterlimit="10" stroke-width="1"/>
        </g>
        <g id="g2563" transform="translate(30.455 28.32)">
          <path id="path2565" d="M0-60.47v-3.659" transform="translate(0 64.129)" fill="none" stroke="#000" stroke-linecap="round" stroke-linejoin="round" stroke-miterlimit="10" stroke-width="1"/>
        </g>
      </g>
    </g>
  </g>
</svg>
