<svg xmlns="http://www.w3.org/2000/svg" width="35.817" height="35.818" viewBox="0 0 35.817 35.818">
  <g id="community_417723" transform="translate(-0.01)">
    <g id="Grupo_1204106" data-name="Grupo 1204106" transform="translate(0.01)">
      <g id="Grupo_1204105" data-name="Grupo 1204105" transform="translate(0)">
        <path id="Trazado_1048191" data-name="Trazado 1048191" d="M172.321,7.611a2.943,2.943,0,0,0,1.306,1.618v.312l-2.313.906a3.2,3.2,0,0,0-2.024,3.1v2.015a.566.566,0,0,0,.566.566h1.437a.566.566,0,1,0,0-1.131h-.871v-1.45a2.088,2.088,0,0,1,1.271-2.035l.026-.01,2.119-.83,1.125,1.1a.566.566,0,0,0,.395.16h.009a.566.566,0,0,0,.4-.173l1.063-1.1,2.114.848.03.011a2.083,2.083,0,0,1,1.271,2.035V15h-7.152a.566.566,0,0,0,0,1.131h7.717a.569.569,0,0,0,.566-.569V13.548a3.2,3.2,0,0,0-2.021-3.1l-2.253-.9V9.229A2.943,2.943,0,0,0,178.4,7.61a1.592,1.592,0,0,0,.879-2.82v-1A3.8,3.8,0,0,0,175.49,0h-.269a3.8,3.8,0,0,0-3.792,3.792v.993a1.591,1.591,0,0,0,.892,2.825Zm6.226-1.92a.556.556,0,0,0,.063.015.46.46,0,0,1-.063.689Zm-2.582,4.226-.623.647-.585-.57V9.61a2.941,2.941,0,0,0,.348.021h.513a2.939,2.939,0,0,0,.348-.021ZM177.416,6.7a1.8,1.8,0,0,1-1.8,1.8H175.1a1.8,1.8,0,0,1-1.8-1.8V5.219a5.818,5.818,0,0,0,3.025-1.169,2.531,2.531,0,0,0,1.084,1.039V6.7Zm-4.856-2.91a2.664,2.664,0,0,1,2.661-2.661h.269a2.664,2.664,0,0,1,2.661,2.661v.357l-.029-.008-.014,0c-.782-.178-1.038-1.222-1.039-1.23a.566.566,0,0,0-1.01-.207c-1.017,1.406-3.286,1.422-3.315,1.422h0l-.058,0-.015,0-.041.006-.021.005-.033.008-.013,0V3.792Zm-.477,1.927a.556.556,0,0,0,.093-.023v.711a.461.461,0,0,1-.093-.689Z" transform="translate(-157.447)"/>
        <path id="Trazado_1048192" data-name="Trazado 1048192" d="M325.208,13.383a16.847,16.847,0,0,1,8.9,6.9.566.566,0,0,0,.952-.611,17.982,17.982,0,0,0-9.5-7.365.566.566,0,0,0-.352,1.075Z" transform="translate(-302.096 -11.421)"/>
        <path id="Trazado_1048193" data-name="Trazado 1048193" d="M38.993,19.941a.565.565,0,0,0,.781-.171,16.835,16.835,0,0,1,9.019-6.938.566.566,0,0,0-.344-1.077,17.968,17.968,0,0,0-9.627,7.405A.566.566,0,0,0,38.993,19.941Z" transform="translate(-36.023 -10.907)"/>
        <path id="Trazado_1048194" data-name="Trazado 1048194" d="M46.908,388.03a16.8,16.8,0,0,1-7.134-6.207.566.566,0,1,0-.952.611,17.926,17.926,0,0,0,7.613,6.624.566.566,0,1,0,.472-1.028Z" transform="translate(-36.024 -354.869)"/>
        <path id="Trazado_1048195" data-name="Trazado 1048195" d="M360.812,381.653a.566.566,0,0,0-.781.171,16.807,16.807,0,0,1-7.018,6.153.566.566,0,1,0,.48,1.024,17.936,17.936,0,0,0,7.49-6.566A.566.566,0,0,0,360.812,381.653Z" transform="translate(-328.014 -354.87)"/>
        <path id="Trazado_1048196" data-name="Trazado 1048196" d="M12.092,156.27v-2.011a3.2,3.2,0,0,0-2.021-3.1l-2.253-.9v-.316a2.943,2.943,0,0,0,1.306-1.619A1.591,1.591,0,0,0,10,145.5v-1a3.8,3.8,0,0,0-3.792-3.792H5.942A3.8,3.8,0,0,0,2.15,144.5v.993a1.591,1.591,0,0,0,.892,2.825,2.943,2.943,0,0,0,1.306,1.618v.312l-2.313.906a3.2,3.2,0,0,0-2.024,3.1v2.015a.566.566,0,0,0,.566.566H2.012a.566.566,0,1,0,0-1.131H1.141v-1.45a2.088,2.088,0,0,1,1.271-2.035l.026-.01,2.118-.83,1.125,1.1a.565.565,0,0,0,.394.16h.009a.565.565,0,0,0,.4-.173l1.063-1.1,2.114.848.026.01a2.088,2.088,0,0,1,1.275,2.037v1.45H3.809a.566.566,0,1,0,0,1.131h7.717A.569.569,0,0,0,12.092,156.27ZM9.268,146.4a.55.55,0,0,0,.063.015.46.46,0,0,1-.063.689v-.7Zm-6.371.718a.461.461,0,0,1-.093-.689.562.562,0,0,0,.093-.023Zm.567-2.285h0l-.058,0-.015,0-.041.006-.021.005-.033.008-.013,0V144.5a2.664,2.664,0,0,1,2.661-2.661h.269A2.664,2.664,0,0,1,8.872,144.5v.357l-.029-.008-.014,0c-.782-.178-1.038-1.222-1.039-1.23a.565.565,0,0,0-1.01-.207C5.761,144.818,3.492,144.834,3.464,144.834Zm3.222,5.793-.623.647-.585-.57v-.383a2.942,2.942,0,0,0,.348.021h.513a2.941,2.941,0,0,0,.348-.021v.306Zm-.348-1.416H5.826a1.8,1.8,0,0,1-1.8-1.8v-1.483h0a5.817,5.817,0,0,0,3.025-1.169A2.531,2.531,0,0,0,8.137,145.8v1.614A1.8,1.8,0,0,1,6.339,149.21Z" transform="translate(-0.01 -130.866)"/>
        <path id="Trazado_1048197" data-name="Trazado 1048197" d="M349.346,151.157l-2.253-.9v-.316a2.943,2.943,0,0,0,1.306-1.619,1.591,1.591,0,0,0,.879-2.82v-1a3.8,3.8,0,0,0-3.792-3.792h-.269a3.8,3.8,0,0,0-3.792,3.792v.993a1.591,1.591,0,0,0,.892,2.825,2.944,2.944,0,0,0,1.306,1.618v.312l-2.313.906a3.2,3.2,0,0,0-2.024,3.1v2.015a.566.566,0,0,0,.566.566h1.437a.566.566,0,1,0,0-1.131h-.871v-1.45a2.088,2.088,0,0,1,1.271-2.035l.026-.01,2.118-.83,1.125,1.1a.565.565,0,0,0,.395.16h.009a.565.565,0,0,0,.4-.173l1.063-1.1,2.114.848.026.01a2.088,2.088,0,0,1,1.275,2.037v1.45h-7.152a.566.566,0,0,0,0,1.131H350.8a.569.569,0,0,0,.566-.569v-2.011A3.2,3.2,0,0,0,349.346,151.157Zm-.8-4.758a.552.552,0,0,0,.063.015.46.46,0,0,1-.063.689Zm-6.371.718a.461.461,0,0,1-.093-.689.562.562,0,0,0,.093-.023Zm.567-2.285h0l-.058,0-.015,0-.041.006-.021.005-.033.008-.013,0V144.5a2.664,2.664,0,0,1,2.661-2.661h.269a2.664,2.664,0,0,1,2.661,2.661v.357l-.029-.008-.014,0c-.782-.178-1.038-1.222-1.039-1.23a.565.565,0,0,0-1.01-.207C345.036,144.817,342.767,144.833,342.739,144.833Zm3.222,5.793-.623.647-.585-.57v-.383a2.942,2.942,0,0,0,.348.021h.513a2.942,2.942,0,0,0,.348-.021Zm-.348-1.416H345.1a1.8,1.8,0,0,1-1.8-1.8v-1.483h0a5.822,5.822,0,0,0,3.025-1.169,2.531,2.531,0,0,0,1.085,1.039v1.614A1.8,1.8,0,0,1,345.614,149.209Z" transform="translate(-315.55 -130.865)"/>
        <path id="Trazado_1048198" data-name="Trazado 1048198" d="M179.348,291.89l-2.253-.9v-.316a2.943,2.943,0,0,0,1.306-1.619,1.592,1.592,0,0,0,.879-2.82v-1a3.8,3.8,0,0,0-3.792-3.792h-.269a3.8,3.8,0,0,0-3.792,3.792v.993a1.591,1.591,0,0,0,.892,2.825,2.943,2.943,0,0,0,1.306,1.619v.312l-2.313.906a3.2,3.2,0,0,0-2.024,3.1v2.015a.566.566,0,0,0,.566.566h1.437a.566.566,0,1,0,0-1.131h-.871v-1.45a2.088,2.088,0,0,1,1.271-2.035l.026-.01,2.118-.83,1.125,1.1a.565.565,0,0,0,.394.16h.009a.565.565,0,0,0,.4-.173l1.063-1.1,2.114.848.026.01a2.088,2.088,0,0,1,1.275,2.037v1.45h-7.152a.566.566,0,1,0,0,1.131H180.8a.569.569,0,0,0,.566-.569v-2.011A3.2,3.2,0,0,0,179.348,291.89Zm-.8-4.758a.558.558,0,0,0,.063.015.46.46,0,0,1-.063.689Zm-6.371.718a.461.461,0,0,1-.093-.689.563.563,0,0,0,.093-.023Zm.567-2.285h0l-.058,0-.018,0-.038.006-.026.007-.028.007-.014,0v-.362a2.664,2.664,0,0,1,2.661-2.661h.269a2.664,2.664,0,0,1,2.661,2.661v.357l-.028-.007-.016,0c-.782-.178-1.038-1.222-1.039-1.23a.566.566,0,0,0-1.01-.207C175.038,285.549,172.769,285.565,172.741,285.565Zm3.223,5.793-.623.647-.585-.57v-.383a2.939,2.939,0,0,0,.348.021h.513a2.95,2.95,0,0,0,.348-.021Zm-.348-1.416H175.1a1.8,1.8,0,0,1-1.8-1.8v-1.483h0a5.818,5.818,0,0,0,3.025-1.169,2.531,2.531,0,0,0,1.084,1.039v1.614A1.8,1.8,0,0,1,175.616,289.942Z" transform="translate(-157.445 -261.753)"/>
      </g>
    </g>
  </g>
</svg>
