<svg xmlns="http://www.w3.org/2000/svg" xmlns:xlink="http://www.w3.org/1999/xlink" width="108" height="108" viewBox="0 0 108 108">
  <defs>
    <filter id="Trazado_982547" x="0" y="0" width="108" height="108" filterUnits="userSpaceOnUse">
      <feOffset dy="3" input="SourceAlpha"/>
      <feGaussianBlur stdDeviation="3" result="blur"/>
      <feFlood flood-opacity="0.161"/>
      <feComposite operator="in" in2="blur"/>
      <feComposite in="SourceGraphic"/>
    </filter>
  </defs>
  <g id="Grupo_1206546" data-name="Grupo 1206546" transform="translate(-196 -7926.921)">
    <g id="Grupo_1204116" data-name="Grupo 1204116" transform="translate(-125.796 5684.623)">
      <g id="Grupo_1202232" data-name="Grupo 1202232" transform="translate(330.796 2248.298)">
        <g id="Grupo_1201680" data-name="Grupo 1201680">
          <g id="Grupo_1201330" data-name="Grupo 1201330">
            <g id="Grupo_1172010" data-name="Grupo 1172010">
              <g id="Grupo_1171046" data-name="Grupo 1171046">
                <g id="Grupo_1148525" data-name="Grupo 1148525">
                  <g transform="matrix(1, 0, 0, 1, -9, -6)" filter="url(#Trazado_982547)">
                    <g id="Trazado_982547-2" data-name="Trazado 982547" transform="translate(9 6)" fill="#fdfbec">
                      <path d="M 45.00000381469727 88.5 C 39.12688064575195 88.5 33.43022918701172 87.35008239746094 28.06830406188965 85.08217620849609 C 22.88852882385254 82.89131927490234 18.23630332946777 79.75459289550781 14.24085426330566 75.7591552734375 C 10.24541664123535 71.76370239257812 7.108691215515137 67.11148071289062 4.917829036712646 61.93170547485352 C 2.64992880821228 56.56977844238281 1.500003814697266 50.87312698364258 1.500003814697266 45.00000381469727 C 1.500003814697266 39.12688064575195 2.64992880821228 33.43022918701172 4.917829036712646 28.06830406188965 C 7.108691215515137 22.88852882385254 10.24541664123535 18.23630332946777 14.24085426330566 14.24085426330566 C 18.23630332946777 10.24541664123535 22.88852882385254 7.108691215515137 28.06830406188965 4.917829036712646 C 33.43022918701172 2.64992880821228 39.12688064575195 1.500003814697266 45.00000381469727 1.500003814697266 C 50.87312698364258 1.500003814697266 56.56977844238281 2.64992880821228 61.93170547485352 4.917829036712646 C 67.11148071289062 7.108691215515137 71.76370239257812 10.24541664123535 75.7591552734375 14.24085426330566 C 79.75459289550781 18.23630332946777 82.89131927490234 22.88852882385254 85.08217620849609 28.06830406188965 C 87.35008239746094 33.43022918701172 88.5 39.12688064575195 88.5 45.00000381469727 C 88.5 50.87312698364258 87.35008239746094 56.56977844238281 85.08217620849609 61.93170547485352 C 82.89131927490234 67.11148071289062 79.75459289550781 71.76370239257812 75.7591552734375 75.7591552734375 C 71.76370239257812 79.75459289550781 67.11148071289062 82.89131927490234 61.93170547485352 85.08217620849609 C 56.56977844238281 87.35008239746094 50.87312698364258 88.5 45.00000381469727 88.5 Z" stroke="none"/>
                      <path d="M 45.00000381469727 3.000007629394531 C 39.32871627807617 3.000007629394531 33.82865905761719 4.110061645507812 28.65263366699219 6.299346923828125 C 23.65166473388672 8.414573669433594 19.15969085693359 11.44334411621094 15.30152130126953 15.30152130126953 C 11.44334411621094 19.15969085693359 8.414573669433594 23.65166473388672 6.299346923828125 28.65263366699219 C 4.110061645507812 33.82865905761719 3.000007629394531 39.32871627807617 3.000007629394531 45.00000381469727 C 3.000007629394531 50.67129135131836 4.110061645507812 56.17134857177734 6.299346923828125 61.34737396240234 C 8.414573669433594 66.34834289550781 11.44334411621094 70.84031677246094 15.30152130126953 74.698486328125 C 19.15969085693359 78.55666351318359 23.65166473388672 81.58543395996094 28.65263366699219 83.70066070556641 C 33.82865905761719 85.88994598388672 39.32871627807617 87 45.00000381469727 87 C 50.67129135131836 87 56.17134857177734 85.88994598388672 61.34737396240234 83.70066070556641 C 66.34834289550781 81.58543395996094 70.84031677246094 78.55666351318359 74.698486328125 74.698486328125 C 78.55666351318359 70.84031677246094 81.58543395996094 66.34834289550781 83.70066070556641 61.34737396240234 C 85.88994598388672 56.17134857177734 87 50.67129135131836 87 45.00000381469727 C 87 39.32871627807617 85.88994598388672 33.82865905761719 83.70066070556641 28.65263366699219 C 81.58543395996094 23.65166473388672 78.55666351318359 19.15969085693359 74.698486328125 15.30152130126953 C 70.84031677246094 11.44334411621094 66.34834289550781 8.414573669433594 61.34737396240234 6.299346923828125 C 56.17134857177734 4.110061645507812 50.67129135131836 3.000007629394531 45.00000381469727 3.000007629394531 M 45.00000381469727 7.62939453125e-06 C 69.85281372070312 7.62939453125e-06 90 20.14718627929688 90 45.00000381469727 C 90 69.85281372070312 69.85281372070312 90 45.00000381469727 90 C 20.14718627929688 90 7.62939453125e-06 69.85281372070312 7.62939453125e-06 45.00000381469727 C 7.62939453125e-06 20.14718627929688 20.14718627929688 7.62939453125e-06 45.00000381469727 7.62939453125e-06 Z" stroke="none" fill="#83793c"/>
                    </g>
                  </g>
                </g>
              </g>
            </g>
          </g>
        </g>
      </g>
    </g>
    <g id="vindication_12201222" transform="translate(217.197 7948.117)">
      <g id="Grupo_1206545" data-name="Grupo 1206545" transform="translate(4.686 4.687)">
        <circle id="Elipse_12942" data-name="Elipse 12942" cx="7.102" cy="7.102" r="7.102" transform="translate(4.994 0)" fill="#009ef9"/>
        <path id="Trazado_1049123" data-name="Trazado 1049123" d="M115.826,10a7.1,7.1,0,1,1,0,14.2Z" transform="translate(-103.73 -10)" fill="#006df4" fill-rule="evenodd"/>
        <path id="Trazado_1049124" data-name="Trazado 1049124" d="M10,152.38H34.223V138.953a4.7,4.7,0,0,0-4.689-4.689H14.689A4.7,4.7,0,0,0,10,138.953Z" transform="translate(-10 -120.061)" fill="#009ef9" fill-rule="evenodd"/>
        <path id="Trazado_1049125" data-name="Trazado 1049125" d="M115.826,152.38h12.127V138.953a4.7,4.7,0,0,0-4.689-4.689h-7.438Z" transform="translate(-103.73 -120.061)" fill="#006df4" fill-rule="evenodd"/>
        <circle id="Elipse_12943" data-name="Elipse 12943" cx="7.102" cy="7.102" r="7.102" transform="translate(37.005 0)" fill="#ff4b00"/>
        <path id="Trazado_1049126" data-name="Trazado 1049126" d="M395.9,10a7.1,7.1,0,1,1,0,14.2Z" transform="translate(-351.789 -10)" fill="#ff2a00" fill-rule="evenodd"/>
        <path id="Trazado_1049127" data-name="Trazado 1049127" d="M290.07,152.38h24.223V138.953a4.7,4.7,0,0,0-4.689-4.689H294.759a4.7,4.7,0,0,0-4.689,4.689Z" transform="translate(-258.059 -120.061)" fill="#ff4b00" fill-rule="evenodd"/>
        <path id="Trazado_1049128" data-name="Trazado 1049128" d="M395.9,152.38h12.128V138.953a4.7,4.7,0,0,0-4.689-4.689H395.9V152.38Z" transform="translate(-351.789 -120.061)" fill="#ff2a00" fill-rule="evenodd"/>
        <circle id="Elipse_12944" data-name="Elipse 12944" cx="8.967" cy="8.967" r="8.967" transform="translate(15.413 16.869) rotate(-45)" fill="#93bf00"/>
        <g id="Grupo_1206544" data-name="Grupo 1206544" transform="translate(12.824 7.901)">
          <path id="Trazado_1049129" data-name="Trazado 1049129" d="M255.824,79.129a8.967,8.967,0,1,1,0,17.934Z" transform="translate(-240.551 -79.129)" fill="#779b00" fill-rule="evenodd"/>
          <path id="Trazado_1049130" data-name="Trazado 1049130" d="M122.2,258.906h30.585V241.953a5.938,5.938,0,0,0-5.921-5.921H128.123a5.938,5.938,0,0,0-5.921,5.921v16.954Z" transform="translate(-122.202 -218.098)" fill="#93bf00" fill-rule="evenodd"/>
          <path id="Trazado_1049131" data-name="Trazado 1049131" d="M255.824,258.906h15.313V241.953a5.938,5.938,0,0,0-5.921-5.921h-9.392Z" transform="translate(-240.551 -218.098)" fill="#779b00" fill-rule="evenodd"/>
          <path id="Trazado_1049132" data-name="Trazado 1049132" d="M196.14,341.845v-7.921H178.4v7.921a6.475,6.475,0,0,0,2.5,5.238v6.052H193.64v-6.052A6.475,6.475,0,0,0,196.14,341.845Z" transform="translate(-171.978 -304.802)" fill="#a85d27" fill-rule="evenodd"/>
        </g>
        <path id="Trazado_1049133" data-name="Trazado 1049133" d="M180.618,313.558a2.218,2.218,0,0,1,2.217,2.217v1.868a2.217,2.217,0,1,1-4.435,0v-1.868a2.218,2.218,0,0,1,2.217-2.217Z" transform="translate(-159.153 -278.862)" fill="#d88a55"/>
        <path id="Trazado_1049134" data-name="Trazado 1049134" d="M219.417,299.149a2.218,2.218,0,0,1,2.217,2.217v3.515a2.217,2.217,0,1,1-4.435,0v-3.514a2.218,2.218,0,0,1,2.217-2.217Z" transform="translate(-193.518 -266.1)" fill="#d88a55"/>
        <rect id="Rectángulo_418033" data-name="Rectángulo 418033" width="4.435" height="9.453" rx="2.217" transform="translate(28.117 31.545)" fill="#d88a55"/>
        <path id="Trazado_1049135" data-name="Trazado 1049135" d="M297.017,299.15a2.218,2.218,0,0,1,2.217,2.217v3.514a2.217,2.217,0,1,1-4.435,0v-3.514a2.218,2.218,0,0,1,2.217-2.217Z" transform="translate(-262.248 -266.101)" fill="#d88a55"/>
        <path id="Trazado_1049136" data-name="Trazado 1049136" d="M245.188,346.635a6.446,6.446,0,0,0,2.49-4.847l.01-6.2a2.177,2.177,0,0,0-2.172-2.172h-6.7a2.217,2.217,0,1,0,0,4.435h3.549a.887.887,0,0,1,.886.886v.872a.85.85,0,0,1-.145.486l-4.29,6.538v6.052h6.37v-6.052Z" transform="translate(-210.701 -296.453)" fill="#b56a35" fill-rule="evenodd"/>
      </g>
      <path id="Trazado_1049137" data-name="Trazado 1049137" d="M60.234,36.321H48.778a6.614,6.614,0,0,0-6.6-6.484H37.735a9.651,9.651,0,0,0,4.5-10.26h14a4.008,4.008,0,0,1,4,4V36.321ZM47.409,52.711V36.443a5.24,5.24,0,0,0-5.235-5.235H23.43A5.24,5.24,0,0,0,18.2,36.443V52.711h5.688a7.437,7.437,0,0,1-.635-3.08V41.6a2.9,2.9,0,0,1,4.534-2.4,2.9,2.9,0,0,1,4.469-1.621,2.9,2.9,0,0,1,5.538,0,2.9,2.9,0,0,1,4.568,2.375v3.515c0,.056,0,.112-.005.168s.007.127.005.19l-.009,5.7a.684.684,0,0,1,.009.106c0,.143,0,.283-.01.423v0c0,.04-.007.079-.009.119a7.314,7.314,0,0,1-.616,2.535h5.688Zm-8.923,7.524H27.119V54.869a.688.688,0,0,0-.258-.536,5.823,5.823,0,0,1-2.241-4.7v-3.7a2.9,2.9,0,0,0,3.749-.594,2.875,2.875,0,0,0,2.846.96,2.886,2.886,0,0,0,1.589.474h3.548a.2.2,0,0,1,.2.2v.872a.171.171,0,0,1-.033.11l-4.29,6.538a.686.686,0,1,0,1.147.752l4.29-6.538a1.526,1.526,0,0,0,.258-.862v-.872A1.573,1.573,0,0,0,36.351,45.4H32.8a1.528,1.528,0,0,1-.977-.352.286.286,0,0,0-.029-.026A1.531,1.531,0,0,1,32.8,42.338h6.7a1.48,1.48,0,0,1,1.051.439,1.464,1.464,0,0,1,.434,1.046L40.976,50A5.775,5.775,0,0,1,39.017,54.1l-.008.007c-.083.075-.167.145-.255.216l-.011.008c-.019.016-.039.033-.056.05a.069.069,0,0,1-.011.012l-.04.044-.01.015a.492.492,0,0,0-.032.044l-.01.017c-.009.016-.018.031-.026.047l-.009.02c-.007.016-.014.031-.02.048l-.008.021c-.005.016-.01.033-.015.05s0,.013-.005.02c-.005.023-.009.046-.013.069h0c0,.025,0,.049,0,.075,0,0,0,0,0,0v5.366Zm-10.8-16.767a1.532,1.532,0,0,1-3.063,0V41.6a1.532,1.532,0,0,1,3.063,0Zm4.435-2.417a2.9,2.9,0,0,0-2.022,3.868,1.534,1.534,0,0,1-1.041-1.451V39.953a1.532,1.532,0,0,1,3.064,0v1.1Zm4.055-3.606.005.007.02.02a1.524,1.524,0,0,1,.355.977v2.518H33.488V38.449a1.529,1.529,0,0,1,2.684-1Zm3.282.977a1.533,1.533,0,0,1,1.531,1.531v1.432a2.83,2.83,0,0,0-1.486-.418H37.923V39.953a1.533,1.533,0,0,1,1.531-1.531ZM5.372,23.579a4.006,4.006,0,0,1,4-4h13.96a9.652,9.652,0,0,0,4.494,10.26h-4.4a6.614,6.614,0,0,0-6.6,6.484H5.372Zm4.993-11.79a6.416,6.416,0,1,1,6.416,6.416,6.423,6.423,0,0,1-6.416-6.416Zm22.417,1.485a8.281,8.281,0,1,0,8.281,8.28A8.29,8.29,0,0,0,32.782,13.274Zm9.594-1.485a6.415,6.415,0,1,1,6.415,6.416,6.423,6.423,0,0,1-6.415-6.416Zm13.854,6.416H53.2a7.787,7.787,0,1,0-8.815,0h-2.55a9.652,9.652,0,0,0-18.1,0H21.188a7.788,7.788,0,1,0-8.815,0h-3A5.38,5.38,0,0,0,4,23.579V37.006a.686.686,0,0,0,.685.686H16.824V53.4a.685.685,0,0,0,.686.686H24.7a7.517,7.517,0,0,0,1.043,1.107v5.731a.685.685,0,0,0,.686.685H39.171a.684.684,0,0,0,.686-.685V55.19l.028-.024.131-.121c.056-.05.112-.1.166-.153l.1-.1c.06-.06.121-.121.178-.184.023-.024.043-.048.065-.073.066-.074.132-.149.2-.225l.025-.032c.053-.063.1-.127.153-.192h7.194a.685.685,0,0,0,.686-.686v-15.7H60.92a.687.687,0,0,0,.686-.686V23.579A5.381,5.381,0,0,0,56.23,18.2Z" fill="#242222" fill-rule="evenodd"/>
    </g>
  </g>
</svg>
