<svg xmlns="http://www.w3.org/2000/svg" xmlns:xlink="http://www.w3.org/1999/xlink" width="108" height="108" viewBox="0 0 108 108">
  <defs>
    <filter id="Trazado_982547" x="0" y="0" width="108" height="108" filterUnits="userSpaceOnUse">
      <feOffset dy="3" input="SourceAlpha"/>
      <feGaussianBlur stdDeviation="3" result="blur"/>
      <feFlood flood-opacity="0.161"/>
      <feComposite operator="in" in2="blur"/>
      <feComposite in="SourceGraphic"/>
    </filter>
  </defs>
  <g id="Grupo_1206564" data-name="Grupo 1206564" transform="translate(-616 -7926.921)">
    <g id="Grupo_1204117" data-name="Grupo 1204117" transform="translate(294.204 5684.623)">
      <g id="Grupo_1202232" data-name="Grupo 1202232" transform="translate(330.796 2248.298)">
        <g id="Grupo_1201680" data-name="Grupo 1201680">
          <g id="Grupo_1201330" data-name="Grupo 1201330">
            <g id="Grupo_1172010" data-name="Grupo 1172010">
              <g id="Grupo_1171046" data-name="Grupo 1171046">
                <g id="Grupo_1148525" data-name="Grupo 1148525">
                  <g transform="matrix(1, 0, 0, 1, -9, -6)" filter="url(#Trazado_982547)">
                    <g id="Trazado_982547-2" data-name="Trazado 982547" transform="translate(9 6)" fill="#fdfbec">
                      <path d="M 45.00000381469727 88.5 C 39.12688064575195 88.5 33.43022918701172 87.35008239746094 28.06830406188965 85.08217620849609 C 22.88852882385254 82.89131927490234 18.23630332946777 79.75459289550781 14.24085426330566 75.7591552734375 C 10.24541664123535 71.76370239257812 7.108691215515137 67.11148071289062 4.917829036712646 61.93170547485352 C 2.64992880821228 56.56977844238281 1.500003814697266 50.87312698364258 1.500003814697266 45.00000381469727 C 1.500003814697266 39.12688064575195 2.64992880821228 33.43022918701172 4.917829036712646 28.06830406188965 C 7.108691215515137 22.88852882385254 10.24541664123535 18.23630332946777 14.24085426330566 14.24085426330566 C 18.23630332946777 10.24541664123535 22.88852882385254 7.108691215515137 28.06830406188965 4.917829036712646 C 33.43022918701172 2.64992880821228 39.12688064575195 1.500003814697266 45.00000381469727 1.500003814697266 C 50.87312698364258 1.500003814697266 56.56977844238281 2.64992880821228 61.93170547485352 4.917829036712646 C 67.11148071289062 7.108691215515137 71.76370239257812 10.24541664123535 75.7591552734375 14.24085426330566 C 79.75459289550781 18.23630332946777 82.89131927490234 22.88852882385254 85.08217620849609 28.06830406188965 C 87.35008239746094 33.43022918701172 88.5 39.12688064575195 88.5 45.00000381469727 C 88.5 50.87312698364258 87.35008239746094 56.56977844238281 85.08217620849609 61.93170547485352 C 82.89131927490234 67.11148071289062 79.75459289550781 71.76370239257812 75.7591552734375 75.7591552734375 C 71.76370239257812 79.75459289550781 67.11148071289062 82.89131927490234 61.93170547485352 85.08217620849609 C 56.56977844238281 87.35008239746094 50.87312698364258 88.5 45.00000381469727 88.5 Z" stroke="none"/>
                      <path d="M 45.00000381469727 3.000007629394531 C 39.32871627807617 3.000007629394531 33.82865905761719 4.110061645507812 28.65263366699219 6.299346923828125 C 23.65166473388672 8.414573669433594 19.15969085693359 11.44334411621094 15.30152130126953 15.30152130126953 C 11.44334411621094 19.15969085693359 8.414573669433594 23.65166473388672 6.299346923828125 28.65263366699219 C 4.110061645507812 33.82865905761719 3.000007629394531 39.32871627807617 3.000007629394531 45.00000381469727 C 3.000007629394531 50.67129135131836 4.110061645507812 56.17134857177734 6.299346923828125 61.34737396240234 C 8.414573669433594 66.34834289550781 11.44334411621094 70.84031677246094 15.30152130126953 74.698486328125 C 19.15969085693359 78.55666351318359 23.65166473388672 81.58543395996094 28.65263366699219 83.70066070556641 C 33.82865905761719 85.88994598388672 39.32871627807617 87 45.00000381469727 87 C 50.67129135131836 87 56.17134857177734 85.88994598388672 61.34737396240234 83.70066070556641 C 66.34834289550781 81.58543395996094 70.84031677246094 78.55666351318359 74.698486328125 74.698486328125 C 78.55666351318359 70.84031677246094 81.58543395996094 66.34834289550781 83.70066070556641 61.34737396240234 C 85.88994598388672 56.17134857177734 87 50.67129135131836 87 45.00000381469727 C 87 39.32871627807617 85.88994598388672 33.82865905761719 83.70066070556641 28.65263366699219 C 81.58543395996094 23.65166473388672 78.55666351318359 19.15969085693359 74.698486328125 15.30152130126953 C 70.84031677246094 11.44334411621094 66.34834289550781 8.414573669433594 61.34737396240234 6.299346923828125 C 56.17134857177734 4.110061645507812 50.67129135131836 3.000007629394531 45.00000381469727 3.000007629394531 M 45.00000381469727 7.62939453125e-06 C 69.85281372070312 7.62939453125e-06 90 20.14718627929688 90 45.00000381469727 C 90 69.85281372070312 69.85281372070312 90 45.00000381469727 90 C 20.14718627929688 90 7.62939453125e-06 69.85281372070312 7.62939453125e-06 45.00000381469727 C 7.62939453125e-06 20.14718627929688 20.14718627929688 7.62939453125e-06 45.00000381469727 7.62939453125e-06 Z" stroke="none" fill="#83793c"/>
                    </g>
                  </g>
                </g>
              </g>
            </g>
          </g>
        </g>
      </g>
    </g>
    <g id="creative_7417530" transform="translate(641.313 7949.116)">
      <g id="Grupo_1206562" data-name="Grupo 1206562" transform="translate(0.925 0.925)">
        <g id="Grupo_1206547" data-name="Grupo 1206547" transform="translate(30.538 38.867)">
          <path id="Trazado_1049138" data-name="Trazado 1049138" d="M276.627,344l11.1,16.657H283.1l-4.936-7.4L272,344Z" transform="translate(-272 -344)" fill="#cf9e76"/>
        </g>
        <g id="Grupo_1206548" data-name="Grupo 1206548" transform="translate(25.911 38.867)">
          <path id="Trazado_1049139" data-name="Trazado 1049139" d="M235.7,353.254v7.4H232V344h3.7Z" transform="translate(-232 -344)" fill="#cf9e76"/>
        </g>
        <g id="Grupo_1206549" data-name="Grupo 1206549" transform="translate(9.254 38.867)">
          <path id="Trazado_1049140" data-name="Trazado 1049140" d="M103.732,344l-6.169,9.254-4.936,7.4H88L99.1,344Z" transform="translate(-88 -344)" fill="#cf9e76"/>
        </g>
        <g id="Grupo_1206550" data-name="Grupo 1206550" transform="translate(30.969 5.552)">
          <path id="Trazado_1049141" data-name="Trazado 1049141" d="M296.574,57.851V83.3l-3.7-1.388H275.72a3.688,3.688,0,0,0,.5-1.851,1.851,1.851,0,1,0,0-3.7l4-6a9.187,9.187,0,0,0,1.116-2.326h5.987V62.478l-2.288-.573a12.916,12.916,0,0,0-1.3-3.135l1.215-2.023L284.2,56h10.524A1.85,1.85,0,0,1,296.574,57.851Z" transform="translate(-275.72 -56)" fill="#f0d0b4"/>
        </g>
        <g id="Grupo_1206551" data-name="Grupo 1206551" transform="translate(3.702 5.552)">
          <path id="Trazado_1049142" data-name="Trazado 1049142" d="M60.854,81.911H40V57.851A1.85,1.85,0,0,1,41.851,56H52.375l-.747.747,1.215,2.023a12.918,12.918,0,0,0-1.3,3.135l-2.288.573V68.03h5.987a9.186,9.186,0,0,0,1.116,2.326l4,6a1.851,1.851,0,1,0,0,3.7A3.688,3.688,0,0,0,60.854,81.911Z" transform="translate(-40 -56)" fill="#f0d0b4"/>
        </g>
        <g id="Grupo_1206552" data-name="Grupo 1206552" transform="translate(51.823 32.852)">
          <path id="Trazado_1049143" data-name="Trazado 1049143" d="M458.835,293.063a1.335,1.335,0,0,1,0,2.5L456,296.627V292Z" transform="translate(-456 -292)" fill="#969faa"/>
        </g>
        <g id="Grupo_1206553" data-name="Grupo 1206553" transform="translate(7.403 31.464)">
          <path id="Trazado_1049144" data-name="Trazado 1049144" d="M72,280h3.7v7.4H72Z" transform="translate(-72 -280)" fill="#ffeaa7"/>
        </g>
        <g id="Grupo_1206554" data-name="Grupo 1206554" transform="translate(0 31.464)">
          <path id="Trazado_1049145" data-name="Trazado 1049145" d="M15.4,280v7.4H9.851A1.85,1.85,0,0,1,8,285.552v-3.7A1.85,1.85,0,0,1,9.851,280H15.4Z" transform="translate(-8 -280)" fill="#ccd1d9"/>
        </g>
        <g id="Grupo_1206555" data-name="Grupo 1206555" transform="translate(48.121 31.464)">
          <path id="Trazado_1049146" data-name="Trazado 1049146" d="M427.7,281.388v4.627L424,287.4V280Z" transform="translate(-424 -280)" fill="#ccd1d9"/>
        </g>
        <g id="Grupo_1206556" data-name="Grupo 1206556" transform="translate(11.105 31.464)">
          <path id="Trazado_1049147" data-name="Trazado 1049147" d="M141.016,280v7.4H104V280h13.451a3.7,3.7,0,0,0,6.413,0Z" transform="translate(-104 -280)" fill="#ef7385"/>
        </g>
        <g id="Grupo_1206557" data-name="Grupo 1206557" transform="translate(12.956)">
          <path id="Trazado_1049148" data-name="Trazado 1049148" d="M125.949,25.462c.013.04.024.081.038.12H120V20.03l2.288-.573a12.917,12.917,0,0,1,1.3-3.135L122.374,14.3l.747-.747,3.179-3.179,2.023,1.215a12.917,12.917,0,0,1,3.135-1.3L132.03,8h5.552l.573,2.288a12.917,12.917,0,0,1,3.135,1.3l2.023-1.215,3.179,3.179.747.747-1.215,2.023a12.918,12.918,0,0,1,1.3,3.135l2.288.573v5.552h-5.987a9.232,9.232,0,0,0-8.8-12.03h-.039a9.232,9.232,0,0,0-8.838,11.91Z" transform="translate(-120 -8)" fill="#b4dd7f"/>
        </g>
        <g id="Grupo_1206558" data-name="Grupo 1206558" transform="translate(24.06 29.613)">
          <path id="Trazado_1049149" data-name="Trazado 1049149" d="M216,264h7.4a3.7,3.7,0,1,1-7.4,0Z" transform="translate(-216 -264)" fill="#aab2bd"/>
        </g>
        <g id="Grupo_1206559" data-name="Grupo 1206559" transform="translate(22.21 25.911)">
          <path id="Trazado_1049150" data-name="Trazado 1049150" d="M209.254,232a1.851,1.851,0,1,1,0,3.7h-7.4a1.851,1.851,0,1,1,0-3.7h7.4Z" transform="translate(-200 -232)" fill="#ccd1d9"/>
        </g>
        <g id="Grupo_1206560" data-name="Grupo 1206560" transform="translate(18.508 5.552)">
          <path id="Trazado_1049151" data-name="Trazado 1049151" d="M186.508,65.234a9.263,9.263,0,0,1-1.551,5.122l-4,6H179.1l3.7-12.03-2.776.925L179.1,63.4l-1.851,1.851L175.4,63.4l-.925,1.851-2.776-.925,3.7,12.03h-1.851l-4-6a9.186,9.186,0,0,1-1.116-2.326c-.014-.039-.025-.08-.038-.12A9.232,9.232,0,0,1,177.234,56h.039a9.234,9.234,0,0,1,9.234,9.234Z" transform="translate(-168 -56)" fill="#ffeaa7"/>
        </g>
        <g id="Grupo_1206561" data-name="Grupo 1206561" transform="translate(22.21 12.956)">
          <path id="Trazado_1049152" data-name="Trazado 1049152" d="M211.1,120.925l-3.7,12.03h-3.7l-3.7-12.03,2.776.925L203.7,120l1.851,1.851L207.4,120l.925,1.851Z" transform="translate(-200 -120)" fill="#fcd770"/>
        </g>
      </g>
      <g id="Grupo_1206563" data-name="Grupo 1206563" transform="translate(0 0)">
        <path id="Trazado_1049153" data-name="Trazado 1049153" d="M55.908,33.974l-2.235-.838V8.329A2.779,2.779,0,0,0,50.9,5.552H40.756L37.338,2.134,35.152,3.445A13.814,13.814,0,0,0,32.8,2.473L32.186,0h-7l-.618,2.473a13.813,13.813,0,0,0-2.347.973L20.037,2.134,16.619,5.552H6.478A2.779,2.779,0,0,0,3.7,8.329V31.464H2.776A2.779,2.779,0,0,0,0,34.24v3.7a2.779,2.779,0,0,0,2.776,2.776H19.555L8.45,57.375H48.925L37.82,40.718H49.214l6.694-2.51a2.261,2.261,0,0,0,0-4.234ZM5.552,8.329A.926.926,0,0,1,6.478,7.4h8.8L16.4,9.268a13.813,13.813,0,0,0-.973,2.347l-2.473.618v6.275h1.851v-4.83l2.117-.529.141-.527a11.958,11.958,0,0,1,1.206-2.91l.273-.472L17.42,7.369l2.9-2.9L22.2,5.587l.472-.273a11.958,11.958,0,0,1,2.91-1.206l.527-.141.529-2.117h4.107l.529,2.117.527.141a11.958,11.958,0,0,1,2.91,1.206l.472.273,1.872-1.123,2.9,2.9L38.832,9.24l.273.472a11.958,11.958,0,0,1,1.206,2.91l.141.527,2.117.529v4.83h1.851V12.233l-2.473-.618a13.813,13.813,0,0,0-.973-2.347L42.093,7.4h8.8a.926.926,0,0,1,.925.925V32.442l-2.608-.978H33.221c.009-.045.017-.09.024-.136a2.775,2.775,0,0,0,.6-5l3.317-4.976a10.16,10.16,0,0,0-8.453-15.8h-.039a10.16,10.16,0,0,0-8.453,15.8l3.317,4.976a2.775,2.775,0,0,0,.6,5c.008.045.015.091.024.136H5.552ZM25.911,48.121h-4.44l4.44-6.66Zm-5.674,1.851h5.674v5.552H16.536Zm7.525-9.254h1.851V55.524H27.762Zm3.7,9.254h5.674l3.7,5.552H31.464Zm0-1.851v-6.66l4.44,6.66ZM12.956,38.867V33.315H24.988a4.622,4.622,0,0,0,7.4,0H48.121v5.552ZM11.1,33.315v5.552H9.254V33.315Zm21.284-3.7h-7.4a.925.925,0,1,1,0-1.851h7.4a.925.925,0,1,1,0,1.851Zm-2.776-3.7v-9.8l.672-.672.71,1.42,1.832-.611-2.972,9.658Zm-1.851,0H27.52l-2.972-9.658,1.832.611.71-1.42.672.672Zm4.132,0h-.1L35.653,13.36,31.933,14.6l-1.141-2.281-2.1,2.1-2.1-2.1L25.443,14.6l-3.721-1.24,3.862,12.551h-.1l-3.727-5.59A8.309,8.309,0,0,1,28.668,7.4h.039a8.309,8.309,0,0,1,6.913,12.918ZM31.3,31.464a2.776,2.776,0,0,1-5.234,0Zm18.667,2.261,1.851.694v3.344l-1.851.694ZM1.851,37.942v-3.7a.926.926,0,0,1,.925-.925H7.4v5.552H2.776A.926.926,0,0,1,1.851,37.942ZM21.78,40.718h2.4L14.311,55.524h-2.4ZM45.466,55.524h-2.4L33.193,40.718h2.4Zm9.792-19.05-1.585.594V35.113l1.585.594a.41.41,0,0,1,0,.768Z" transform="translate(0 0)"/>
        <circle id="Elipse_12945" data-name="Elipse 12945" cx="0.701" cy="0.701" r="0.701" transform="translate(7.656 27.987)"/>
        <ellipse id="Elipse_12946" data-name="Elipse 12946" cx="0.701" cy="1.052" rx="0.701" ry="1.052" transform="translate(7.656 23.78)"/>
        <ellipse id="Elipse_12947" data-name="Elipse 12947" cx="0.701" cy="1.052" rx="0.701" ry="1.052" transform="translate(7.656 20.275)"/>
        <circle id="Elipse_12948" data-name="Elipse 12948" cx="1.052" cy="1.052" r="1.052" transform="translate(40.605 20.275)"/>
        <ellipse id="Elipse_12949" data-name="Elipse 12949" cx="1.052" cy="0.701" rx="1.052" ry="0.701" transform="translate(44.111 27.987)"/>
        <circle id="Elipse_12950" data-name="Elipse 12950" cx="0.701" cy="0.701" r="0.701" transform="translate(48.317 27.987)"/>
        <ellipse id="Elipse_12951" data-name="Elipse 12951" cx="1.052" cy="0.701" rx="1.052" ry="0.701" transform="translate(40.605 27.987)"/>
        <path id="Trazado_1049154" data-name="Trazado 1049154" d="M384,176h5.552v1.851H384Z" transform="translate(-339.581 -155.641)"/>
        <path id="Trazado_1049155" data-name="Trazado 1049155" d="M352,208h9.254v1.851H352Z" transform="translate(-311.282 -183.94)"/>
      </g>
    </g>
  </g>
</svg>
