<svg xmlns="http://www.w3.org/2000/svg" xmlns:xlink="http://www.w3.org/1999/xlink" width="108" height="108" viewBox="0 0 108 108">
  <defs>
    <filter id="Trazado_982547" x="0" y="0" width="108" height="108" filterUnits="userSpaceOnUse">
      <feOffset dy="3" input="SourceAlpha"/>
      <feGaussianBlur stdDeviation="3" result="blur"/>
      <feFlood flood-opacity="0.161"/>
      <feComposite operator="in" in2="blur"/>
      <feComposite in="SourceGraphic"/>
    </filter>
  </defs>
  <g id="Grupo_1206566" data-name="Grupo 1206566" transform="translate(-1035.5 -7926.921)">
    <g id="Grupo_1204118" data-name="Grupo 1204118" transform="translate(713.704 5684.623)">
      <g id="Grupo_1202232" data-name="Grupo 1202232" transform="translate(330.796 2248.298)">
        <g id="Grupo_1201680" data-name="Grupo 1201680">
          <g id="Grupo_1201330" data-name="Grupo 1201330">
            <g id="Grupo_1172010" data-name="Grupo 1172010">
              <g id="Grupo_1171046" data-name="Grupo 1171046">
                <g id="Grupo_1148525" data-name="Grupo 1148525">
                  <g transform="matrix(1, 0, 0, 1, -9, -6)" filter="url(#Trazado_982547)">
                    <g id="Trazado_982547-2" data-name="Trazado 982547" transform="translate(9 6)" fill="#fdfbec">
                      <path d="M 45.00000381469727 88.5 C 39.12688064575195 88.5 33.43022918701172 87.35008239746094 28.06830406188965 85.08217620849609 C 22.88852882385254 82.89131927490234 18.23630332946777 79.75459289550781 14.24085426330566 75.7591552734375 C 10.24541664123535 71.76370239257812 7.108691215515137 67.11148071289062 4.917829036712646 61.93170547485352 C 2.64992880821228 56.56977844238281 1.500003814697266 50.87312698364258 1.500003814697266 45.00000381469727 C 1.500003814697266 39.12688064575195 2.64992880821228 33.43022918701172 4.917829036712646 28.06830406188965 C 7.108691215515137 22.88852882385254 10.24541664123535 18.23630332946777 14.24085426330566 14.24085426330566 C 18.23630332946777 10.24541664123535 22.88852882385254 7.108691215515137 28.06830406188965 4.917829036712646 C 33.43022918701172 2.64992880821228 39.12688064575195 1.500003814697266 45.00000381469727 1.500003814697266 C 50.87312698364258 1.500003814697266 56.56977844238281 2.64992880821228 61.93170547485352 4.917829036712646 C 67.11148071289062 7.108691215515137 71.76370239257812 10.24541664123535 75.7591552734375 14.24085426330566 C 79.75459289550781 18.23630332946777 82.89131927490234 22.88852882385254 85.08217620849609 28.06830406188965 C 87.35008239746094 33.43022918701172 88.5 39.12688064575195 88.5 45.00000381469727 C 88.5 50.87312698364258 87.35008239746094 56.56977844238281 85.08217620849609 61.93170547485352 C 82.89131927490234 67.11148071289062 79.75459289550781 71.76370239257812 75.7591552734375 75.7591552734375 C 71.76370239257812 79.75459289550781 67.11148071289062 82.89131927490234 61.93170547485352 85.08217620849609 C 56.56977844238281 87.35008239746094 50.87312698364258 88.5 45.00000381469727 88.5 Z" stroke="none"/>
                      <path d="M 45.00000381469727 3.000007629394531 C 39.32871627807617 3.000007629394531 33.82865905761719 4.110061645507812 28.65263366699219 6.299346923828125 C 23.65166473388672 8.414573669433594 19.15969085693359 11.44334411621094 15.30152130126953 15.30152130126953 C 11.44334411621094 19.15969085693359 8.414573669433594 23.65166473388672 6.299346923828125 28.65263366699219 C 4.110061645507812 33.82865905761719 3.000007629394531 39.32871627807617 3.000007629394531 45.00000381469727 C 3.000007629394531 50.67129135131836 4.110061645507812 56.17134857177734 6.299346923828125 61.34737396240234 C 8.414573669433594 66.34834289550781 11.44334411621094 70.84031677246094 15.30152130126953 74.698486328125 C 19.15969085693359 78.55666351318359 23.65166473388672 81.58543395996094 28.65263366699219 83.70066070556641 C 33.82865905761719 85.88994598388672 39.32871627807617 87 45.00000381469727 87 C 50.67129135131836 87 56.17134857177734 85.88994598388672 61.34737396240234 83.70066070556641 C 66.34834289550781 81.58543395996094 70.84031677246094 78.55666351318359 74.698486328125 74.698486328125 C 78.55666351318359 70.84031677246094 81.58543395996094 66.34834289550781 83.70066070556641 61.34737396240234 C 85.88994598388672 56.17134857177734 87 50.67129135131836 87 45.00000381469727 C 87 39.32871627807617 85.88994598388672 33.82865905761719 83.70066070556641 28.65263366699219 C 81.58543395996094 23.65166473388672 78.55666351318359 19.15969085693359 74.698486328125 15.30152130126953 C 70.84031677246094 11.44334411621094 66.34834289550781 8.414573669433594 61.34737396240234 6.299346923828125 C 56.17134857177734 4.110061645507812 50.67129135131836 3.000007629394531 45.00000381469727 3.000007629394531 M 45.00000381469727 7.62939453125e-06 C 69.85281372070312 7.62939453125e-06 90 20.14718627929688 90 45.00000381469727 C 90 69.85281372070312 69.85281372070312 90 45.00000381469727 90 C 20.14718627929688 90 7.62939453125e-06 69.85281372070312 7.62939453125e-06 45.00000381469727 C 7.62939453125e-06 20.14718627929688 20.14718627929688 7.62939453125e-06 45.00000381469727 7.62939453125e-06 Z" stroke="none" fill="#83793c"/>
                    </g>
                  </g>
                </g>
              </g>
            </g>
          </g>
        </g>
      </g>
    </g>
    <g id="partnership_9436142" transform="translate(1057.783 7948.813)">
      <g id="Grupo_1206565" data-name="Grupo 1206565" transform="translate(2.381 2.469)">
        <path id="Trazado_1049156" data-name="Trazado 1049156" d="M344.048,35.384l.059-6.7c.012-1.9-2.23-2.547-2.852-1.056l-.047-2.652c-.035-1.937-2.664-2.042-2.852-.822.047-1.866-.7-2.265-1.432-2.253a1.333,1.333,0,0,0-1.42,1.033,19.679,19.679,0,0,0-.153,2.042c-.364-1.7-2.969-1.643-3,.012-.106,4.765-.282,7.312-.552,10.809-1.538.012-3.85-.117-4.695-.047a16.144,16.144,0,0,1,2.441,3.063c2.594,2.5,2.958,3.509,2.922,5.681-.012,1.138-.211,31.478-.376,34.13,4.331.059,6.314.047,10.645.106-.117-2.359-.61-34.518-.458-35.457C344.06,40.782,343.954,39.562,344.048,35.384Z" transform="translate(-289.413 -20.032)" fill="#fedc97" fill-rule="evenodd"/>
        <path id="Trazado_1049157" data-name="Trazado 1049157" d="M423.949,72.28l.059-6.7a1.767,1.767,0,0,0-1.573-1.878q.423,12.676-3.991,16.76-.986,11.2-.786,35.1c1.479.012,2.981.023,5,.047-.117-2.359-.61-34.518-.458-35.457C423.96,77.678,423.855,76.458,423.949,72.28Z" transform="translate(-369.314 -56.928)" fill="#f7c688" fill-rule="evenodd"/>
        <path id="Trazado_1049158" data-name="Trazado 1049158" d="M181.07,165.2a10.27,10.27,0,1,1-10.27,10.27,10.273,10.273,0,0,1,10.27-10.27Z" transform="translate(-151.458 -146.515)" fill="#f6851f" fill-rule="evenodd"/>
        <path id="Trazado_1049159" data-name="Trazado 1049159" d="M236.6,198.945l5.868-3.145v11.619l-5.868-3.145v-5.328Z" transform="translate(-209.535 -173.524)" fill="#fdb614" fill-rule="evenodd"/>
        <path id="Trazado_1049160" data-name="Trazado 1049160" d="M209.1,260.5h1.937v4.636H209.1Z" transform="translate(-185.263 -230.63)" fill="#b45a35" fill-rule="evenodd"/>
        <path id="Trazado_1049161" data-name="Trazado 1049161" d="M200.384,218.8h2.922a.544.544,0,0,1,.458.587v5.035a.528.528,0,0,1-.458.587h-2.922a1.179,1.179,0,0,1-.986-1.291v-3.638A1.157,1.157,0,0,1,200.384,218.8Z" transform="translate(-176.7 -193.824)" fill="#b45a35" fill-rule="evenodd"/>
        <path id="Trazado_1049162" data-name="Trazado 1049162" d="M49.332,344.048l6.7.047c1.9.012,2.535-2.23,1.056-2.852l2.652-.047c1.937-.035,2.042-2.664.822-2.852,1.866.047,2.265-.7,2.253-1.432a1.333,1.333,0,0,0-1.033-1.42,16.886,16.886,0,0,0-2.042-.141c1.7-.364,1.643-2.969-.012-3-4.765-.106-7.312-.282-10.81-.552-.012-1.538.117-3.85.047-4.695a16.145,16.145,0,0,1-3.063,2.441c-2.5,2.594-3.509,2.958-5.681,2.922-1.138-.023-31.478-.211-34.119-.376-.059,4.331-.059,6.3-.106,10.645,2.359-.117,34.518-.61,35.457-.458,2.476,1.772,3.7,1.678,7.875,1.772Z" transform="translate(-6 -289.413)" fill="#b45a35" fill-rule="evenodd"/>
        <path id="Trazado_1049163" data-name="Trazado 1049163" d="M49.332,423.778l6.7.047a1.775,1.775,0,0,0,1.878-1.573q-12.693.423-16.76-4-11.2-.968-35.1-.786c-.012,1.467-.023,2.981-.047,5,2.359-.117,34.518-.61,35.457-.458C43.933,423.778,45.154,423.684,49.332,423.778Z" transform="translate(-6 -369.144)" fill="#80311a" fill-rule="evenodd"/>
        <path id="Trazado_1049164" data-name="Trazado 1049164" d="M40.058,49.332,40,56.034c-.012,1.9,2.23,2.547,2.852,1.056l.047,2.652c.035,1.937,2.664,2.042,2.852.822-.047,1.866.7,2.265,1.432,2.253a1.333,1.333,0,0,0,1.42-1.033,19.675,19.675,0,0,0,.153-2.042c.364,1.7,2.969,1.643,3-.012.106-4.765.282-7.312.54-10.81,1.538-.012,3.85.117,4.695.047A16.144,16.144,0,0,1,54.553,45.9c-2.594-2.5-2.958-3.509-2.922-5.681.012-1.138.211-31.478.364-34.119-4.331-.059-6.3-.047-10.633-.106.117,2.359.61,34.529.458,35.457-1.761,2.465-1.667,3.7-1.761,7.875Z" transform="translate(-36.009 -6)" fill="#fef0cf" fill-rule="evenodd"/>
        <path id="Trazado_1049165" data-name="Trazado 1049165" d="M40.058,49.332,40,56.034a1.767,1.767,0,0,0,1.573,1.878q-.423-12.693,3.99-16.76.986-11.2.786-35.1c-1.467-.012-2.969-.023-4.988-.047.117,2.359.61,34.529.458,35.457C40.058,43.921,40.152,45.154,40.058,49.332Z" transform="translate(-36.009 -6)" fill="#fdd7b9" fill-rule="evenodd"/>
        <path id="Trazado_1049166" data-name="Trazado 1049166" d="M35.3,40.058,28.594,40c-1.9-.012-2.535,2.23-1.056,2.852l-2.652.047c-1.937.035-2.042,2.664-.833,2.852-1.866-.047-2.265.7-2.253,1.432a1.333,1.333,0,0,0,1.033,1.42,16.89,16.89,0,0,0,2.042.141c-1.7.364-1.643,2.969.012,3,4.765.106,7.312.282,10.809.552.012,1.538-.117,3.85-.047,4.695a16.143,16.143,0,0,1,3.063-2.441c2.5-2.594,3.509-2.958,5.681-2.922.493.012,6.443.047,13.251.106l-.012-.012c.669-.059,2.289.012,3.685.035l1,.012c.258-3.321.423-5.8.528-10.117-9.237.141-19.178.246-19.694.164C40.706,40.058,39.474,40.152,35.3,40.058ZM74.578,51.912c2.019.035,3.462.059,3.944.094.059-4.331.059-6.314.106-10.645-.61.035-3.275.082-6.878.153l.035,2.089c.61-1.479,2.864-.833,2.852,1.056l-.059,6.7Z" transform="translate(-19.944 -36.009)" fill="#fab17a" fill-rule="evenodd"/>
        <path id="Trazado_1049167" data-name="Trazado 1049167" d="M37.6,109.558a1.276,1.276,0,0,0,1.256,1.162c4.765.106,7.312.282,10.809.552.012,1.538-.117,3.85-.047,4.695a16.144,16.144,0,0,1,3.063-2.441c2.5-2.594,3.509-2.958,5.681-2.922.493.012,6.443.047,13.251.106L71.6,110.7c.669-.059,2.289.012,3.685.035l1,.012c.106-1.4.2-2.641.282-3.944q-15,.035-21.279.587-1.338,1.884-17.687,2.171Zm50.961-2.723,3.955.035c-.012,1.2-.023,2.488-.047,4.1-.493-.035-1.925-.059-3.944-.094,0-.176.012-.352.012-.54Z" transform="translate(-33.891 -94.969)" fill="#f68f65" fill-rule="evenodd"/>
      </g>
      <path id="Trazado_1049168" data-name="Trazado 1049168" d="M10.081,8.842l5,.117c.833.023.822.951-.023.939L9.951,9.781,7.9,9.817c-.646,0-1.232-.035-1.573.587-.293.552-.129,1.3.235,1.338l7.746.176a.472.472,0,0,1-.012.939l-7.77-.176h-.07A2.28,2.28,0,0,0,4.963,13c-.469.376-.258,1.5.376,1.6a16.453,16.453,0,0,0,2,.141l7,.164a.471.471,0,1,1-.035.939l-6.925-.164a1.054,1.054,0,0,0-.751.681c-.211.575-.012,1.373.728,1.385,4.331.106,6.866.246,10.833.552a.473.473,0,0,1,.434.5c0,.305,0,.634-.012.986-.012.869-.012,1.725-.023,2.582a12.929,12.929,0,0,1,2.289-1.725,11.641,11.641,0,0,1,3.052-2.488,5.923,5.923,0,0,1,2.922-.528c.246,0,1.749.012,4.014.035,2.418.023,5.669.047,9.131.07.763-.082,3.228.035,4.354.035.246-3.333.387-5.681.481-9.178-2.852.035-18.567.27-19.3.141a.435.435,0,0,1-.211-.094c-2.171-1.549-3.357-1.573-6.784-1.643-2.465-.059-5.035-.047-7.5-.07-1.35,0-1.866,1.467-.951,1.925Zm29.8,9.812c-3.462-.035-6.655-.059-9.037-.07-2.277-.023-3.791-.035-4.014-.035a5.245,5.245,0,0,0-2.5.423A15.08,15.08,0,0,0,21.395,21.4a14.75,14.75,0,0,0-2.829,2.242c-.023,3.451-.059,6.666-.07,9.049-.012,2.265-.035,3.767-.035,4a5.1,5.1,0,0,0,.434,2.5,15.08,15.08,0,0,0,2.429,2.934,14.75,14.75,0,0,0,2.242,2.829c3.462.023,6.666.047,9.049.07,2.265.012,3.767.023,4,.035a5.245,5.245,0,0,0,2.5-.423,15.08,15.08,0,0,0,2.934-2.43,14.75,14.75,0,0,0,2.829-2.242c.023-3.474.059-6.678.07-9.049.012-2.265.035-3.767.035-4a5.1,5.1,0,0,0-.434-2.5,14.526,14.526,0,0,0-2.43-2.922,14.506,14.506,0,0,0-2.242-2.84ZM17.639,23.549c-.07-.34.035-3.4.035-4.354-3.333-.246-5.681-.387-9.178-.481.035,2.852.27,18.567.141,19.3a.435.435,0,0,1-.094.211C6.994,40.4,6.97,41.588,6.9,45.015c-.047,2.465-.047,5.035-.07,7.5a1.251,1.251,0,0,0,1.444,1.373.814.814,0,0,0,.469-.423l.129-5.528a.47.47,0,0,1,.939.012l-.129,5.645.035,2.054c.012.646-.035,1.232.587,1.573.552.293,1.3.129,1.338-.235l.188-8.11a.47.47,0,0,1,.939.023l-.176,8.11v.07a2.356,2.356,0,0,0,.317,1.491c.387.458,1.5.258,1.6-.376a16.453,16.453,0,0,0,.141-2l.176-7.418a.47.47,0,0,1,.939.012L15.6,56.153a1.052,1.052,0,0,0,.681.751c.575.211,1.373.012,1.385-.728.106-4.343.246-6.866.552-10.833a.473.473,0,0,1,.5-.434l3.568.035a13.367,13.367,0,0,1-1.725-2.277,11.931,11.931,0,0,1-2.5-3.052,6.083,6.083,0,0,1-.528-2.922c0-.246.012-1.749.035-3.99.012-2.406.047-5.669.07-9.155ZM7.569,18.69l-.235-.012A1.92,1.92,0,0,1,5.961,15.6c-.751-.059-1.326-.094-1.784-.728a1.993,1.993,0,0,1,.2-2.606A2.355,2.355,0,0,1,5.4,11.824,2.11,2.11,0,0,1,7.322,8.889h.094C7.381,7.235,7.358,5.8,7.334,4.7c-.023-1.127-.047-1.9-.059-2.206A.469.469,0,0,1,7.745,2c2.16.023,3.732.047,5.317.059s3.145.023,5.293.059a.468.468,0,0,1,.493.493c-.047.845-.07,2.347-.082,3.462,3.439.07,4.706.129,7.019,1.749.258.094,16.7-.129,19.072-.164l.012-.235a1.927,1.927,0,0,1,3.075-1.385c.059-.739.094-1.326.728-1.784a1.994,1.994,0,0,1,2.606.2,2.293,2.293,0,0,1,.446,1.021A2.11,2.11,0,0,1,54.657,7.4v.094c1.655-.035,3.087-.059,4.19-.082s1.89-.047,2.195-.059a.469.469,0,0,1,.493.469c-.023,2.171-.035,3.744-.047,5.317s-.023,3.145-.059,5.293a.474.474,0,0,1-.493.493c-.845-.059-2.347-.07-3.462-.082-.07,3.451-.129,4.718-1.749,7.019-.094.258.129,16.7.164,19.072h.235A1.92,1.92,0,0,1,57.5,48.008c.751.059,1.326.094,1.784.728a2.01,2.01,0,0,1-.2,2.617,2.355,2.355,0,0,1-1.021.446,2.11,2.11,0,0,1-1.925,2.934h-.094c.035,1.655.059,3.087.082,4.19s.047,1.89.059,2.195a.469.469,0,0,1-.469.493c-2.171-.023-3.744-.035-5.328-.059s-3.145-.023-5.293-.047a.474.474,0,0,1-.493-.493c.047-.845.07-2.347.082-3.462-3.439-.07-4.706-.129-7.019-1.749-.258-.094-16.7.129-19.072.164l-.012.235A1.92,1.92,0,0,1,15.5,57.573c-.059.739-.094,1.326-.728,1.784a1.994,1.994,0,0,1-2.606-.2,2.355,2.355,0,0,1-.446-1.021A2.11,2.11,0,0,1,8.79,56.212v-.094c-1.655.023-3.087.059-4.19.082-1.127.023-1.9.047-2.206.059a.469.469,0,0,1-.493-.469c.035-2.171.035-3.744.059-5.328s.023-3.145.059-5.293a.474.474,0,0,1,.493-.493c.845.047,2.347.07,3.462.082.07-3.439.129-4.718,1.749-7.019.106-.246-.117-16.678-.153-19.049Zm.775-9.812.5-.012A2.143,2.143,0,0,1,11.031,5.99l6.713.059h.07l.07-3.016L8.214,2.939ZM57.485,17.9l3,.059.094-9.671-5.927.129.012.5a2.139,2.139,0,0,1,2.864,2.183l-.047,6.713Zm-2.793-7.734L54.563,15.7a.47.47,0,0,1-.939-.012l.129-5.645-.047-2.617c-.023-1.408-1.854-1.35-1.913-.775l-.188,8.11a.47.47,0,0,1-.939-.012l.188-8.122v-.07a2.356,2.356,0,0,0-.317-1.491c-.387-.458-1.5-.258-1.6.387A16.431,16.431,0,0,0,48.8,7.434l-.176,7.418a.47.47,0,0,1-.939-.023l.164-7.347a1.07,1.07,0,0,0-.681-.763c-.575-.211-1.373-.012-1.385.728-.106,4.343-.246,6.866-.552,10.833a.472.472,0,0,1-.5.434c-.657,0-1.42-.012-2.171-.035-.516-.012-1.009-.023-1.444-.035a13.006,13.006,0,0,1,1.761,2.324,11.931,11.931,0,0,1,2.5,3.052A6.057,6.057,0,0,1,45.9,26.94c0,.235-.012,1.737-.035,3.99-.012,2.418-.047,5.681-.07,9.155.082.775-.035,3.228-.035,4.354,3.333.246,5.681.387,9.178.481-.035-2.84-.27-18.567-.141-19.3a.435.435,0,0,1,.094-.211c1.549-2.171,1.573-3.357,1.643-6.784.047-2.465.047-5.035.07-7.511.012-1.35-1.455-1.866-1.913-.951ZM53.377,54.78l-5.528-.129a.47.47,0,0,1,.023-.939l5.645.129,2.054-.035c.646-.012,1.232.035,1.573-.587.293-.54.129-1.3-.235-1.338l-8.11-.188a.47.47,0,0,1,.023-.939l8.122.188h.07a2.356,2.356,0,0,0,1.491-.317c.469-.376.258-1.5-.376-1.6a16.452,16.452,0,0,0-2-.141l-7.418-.176a.47.47,0,0,1,.012-.939l7.359.164a1.031,1.031,0,0,0,.751-.681c.211-.575.012-1.361-.728-1.385-4.331-.106-6.866-.258-10.833-.552a.48.48,0,0,1-.434-.5c0-.646.023-1.42.035-2.16.012-.516.023-1.009.035-1.444a13.452,13.452,0,0,1-2.324,1.761,11.736,11.736,0,0,1-3.052,2.5,5.921,5.921,0,0,1-2.922.516c-.246,0-1.749-.012-3.99-.035-2.406-.023-5.669-.047-9.155-.07a.5.5,0,0,1-.188,0l-4.167-.035c-.246,3.333-.387,5.681-.481,9.178,2.852-.047,18.567-.27,19.3-.153a.435.435,0,0,1,.211.094c2.171,1.549,3.357,1.573,6.784,1.643,2.465.059,5.035.047,7.5.07,1.338.023,1.854-1.444.951-1.9ZM8.79,55.191l-.012-.5A2.139,2.139,0,0,1,5.914,52.5l.047-6.713v-.082l-3-.059L2.851,55.32ZM55.1,54.745l-.5.012A2.142,2.142,0,0,1,52.4,57.62l-6.713-.047h-.082l-.059,3.016,9.671.094ZM26.066,26.976h2.922a.832.832,0,0,1,.634.293l5.458-2.922a.47.47,0,0,1,.692.411V28.1a2.9,2.9,0,0,1,0,4.929v3.345a.464.464,0,0,1-.728.387l-5.422-2.911c-.305.329-.6.293-.986.293v2.829a.471.471,0,0,1-.469.469H26.23a.471.471,0,0,1-.469-.469V34.1a1.727,1.727,0,0,1-1.15-1.725V28.736a1.626,1.626,0,0,1,1.455-1.761Zm3.85,1.2v4.765l4.929,2.641V25.532Zm-2.23,5.962h-1v2.371h1Zm1.256-6.22H26.066c-.317,0-.528.458-.528.822v3.638c0,.364.2.822.528.822h2.875a.347.347,0,0,0,.023-.117V28.032A.136.136,0,0,0,28.941,27.915Zm9.483,3.11a.469.469,0,0,1,0-.939h.962a.469.469,0,0,1,0,.939Zm-.5-2.488a.472.472,0,0,1-.54-.775l.986-.681a.472.472,0,0,1,.54.775Zm-.54,4.777a.472.472,0,0,1,.54-.775l.833.575a.472.472,0,1,1-.54.775Zm-1.6-1.514a1.962,1.962,0,0,0,0-2.476ZM31.993,20.685A10.739,10.739,0,1,1,21.254,31.424,10.744,10.744,0,0,1,31.993,20.685ZM38.918,24.5a9.8,9.8,0,1,0,0,13.861,9.8,9.8,0,0,0,0-13.861Z" transform="translate(0 0)"/>
    </g>
  </g>
</svg>
