<svg xmlns="http://www.w3.org/2000/svg" xmlns:xlink="http://www.w3.org/1999/xlink" width="108" height="108" viewBox="0 0 108 108">
  <defs>
    <filter id="Trazado_904820" x="0" y="0" width="108" height="108" filterUnits="userSpaceOnUse">
      <feOffset dy="3" input="SourceAlpha"/>
      <feGaussianBlur stdDeviation="3" result="blur"/>
      <feFlood flood-opacity="0.161"/>
      <feComposite operator="in" in2="blur"/>
      <feComposite in="SourceGraphic"/>
    </filter>
  </defs>
  <g id="Grupo_1206304" data-name="Grupo 1206304" transform="translate(-619.477 -448.608)">
    <g id="Grupo_1201662" data-name="Grupo 1201662" transform="translate(628.477 454.608)">
      <g id="Grupo_1173585" data-name="Grupo 1173585" transform="translate(0 0)">
        <g id="Grupo_1173428" data-name="Grupo 1173428">
          <g id="Grupo_1171958" data-name="Grupo 1171958">
            <g id="Grupo_1167341" data-name="Grupo 1167341">
              <g id="Grupo_1166792" data-name="Grupo 1166792">
                <g transform="matrix(1, 0, 0, 1, -9, -6)" filter="url(#Trazado_904820)">
                  <g id="Trazado_904820-2" data-name="Trazado 904820" transform="translate(9 6)" fill="#fdfbec">
                    <path d="M 44.99999618530273 88.49999237060547 C 39.12687301635742 88.49999237060547 33.43022155761719 87.35006713867188 28.06829643249512 85.08216857910156 C 22.88852119445801 82.89130401611328 18.23629570007324 79.75457763671875 14.24084663391113 75.75914001464844 C 10.24540901184082 71.76369476318359 7.108683586120605 67.11146545410156 4.917821407318115 61.93169403076172 C 2.649921178817749 56.56976699829102 1.499996185302734 50.87311553955078 1.499996185302734 44.99999237060547 C 1.499996185302734 39.12686920166016 2.649921178817749 33.43021774291992 4.917821407318115 28.06829261779785 C 7.108683586120605 22.88851737976074 10.24540901184082 18.23630523681641 14.24084663391113 14.24085521697998 C 18.23629570007324 10.24540519714355 22.88852119445801 7.108692169189453 28.06829643249512 4.917829990386963 C 33.43022155761719 2.649929761886597 39.12687301635742 1.500004887580872 44.99999618530273 1.500004887580872 C 50.87311935424805 1.500004887580872 56.56977081298828 2.649929761886597 61.93169784545898 4.917829990386963 C 67.11147308349609 7.108692169189453 71.76369476318359 10.24540519714355 75.75914764404297 14.24085521697998 C 79.75458526611328 18.23630523681641 82.89131164550781 22.88851737976074 85.08216857910156 28.06829261779785 C 87.35007476806641 33.43021774291992 88.5 39.12686920166016 88.5 44.99999237060547 C 88.5 50.87311553955078 87.35007476806641 56.56976699829102 85.08216857910156 61.93169403076172 C 82.89131164550781 67.11146545410156 79.75458526611328 71.76369476318359 75.75914764404297 75.75914001464844 C 71.76369476318359 79.75457763671875 67.11147308349609 82.89130401611328 61.93169784545898 85.08216857910156 C 56.56977081298828 87.35006713867188 50.87311935424805 88.49999237060547 44.99999618530273 88.49999237060547 Z" stroke="none"/>
                    <path d="M 44.99999618530273 2.999992370605469 C 39.32870864868164 2.999992370605469 33.82865142822266 4.11004638671875 28.65262603759766 6.299331665039062 C 23.65165710449219 8.414566040039062 19.15968322753906 11.44333648681641 15.301513671875 15.30150604248047 C 11.44333648681641 19.15967559814453 8.414566040039062 23.65164947509766 6.299339294433594 28.65262222290039 C 4.110054016113281 33.82864761352539 2.999992370605469 39.32870483398438 2.999992370605469 44.99999237060547 C 2.999992370605469 50.67127990722656 4.110054016113281 56.17132186889648 6.299339294433594 61.34736633300781 C 8.414566040039062 66.34833526611328 11.44333648681641 70.84029388427734 15.301513671875 74.69846343994141 C 19.15968322753906 78.55663299560547 23.65165710449219 81.58540344238281 28.65262603759766 83.70063781738281 C 33.82865142822266 85.88992309570312 39.32870864868164 86.99997711181641 44.99999618530273 86.99997711181641 C 50.67128372192383 86.99997711181641 56.17134094238281 85.88992309570312 61.34736633300781 83.70063781738281 C 66.34834289550781 81.58540344238281 70.84030914306641 78.55663299560547 74.69847869873047 74.69846343994141 C 78.55665588378906 70.84029388427734 81.58542633056641 66.34833526611328 83.70065307617188 61.34736633300781 C 85.88993835449219 56.17132186889648 87 50.67127990722656 87 44.99999237060547 C 87 39.32870483398438 85.88993835449219 33.82864761352539 83.70065307617188 28.65262222290039 C 81.58542633056641 23.65164947509766 78.55665588378906 19.15967559814453 74.69847869873047 15.30150604248047 C 70.84030914306641 11.44333648681641 66.34834289550781 8.414566040039062 61.34736633300781 6.299331665039062 C 56.17134094238281 4.11004638671875 50.67128372192383 2.999992370605469 44.99999618530273 2.999992370605469 M 44.99999618530273 -7.62939453125e-06 C 69.85281372070312 -7.62939453125e-06 90 20.14717864990234 90 44.99999237060547 C 90 69.85279083251953 69.85281372070312 89.99997711181641 44.99999618530273 89.99997711181641 C 20.14717864990234 89.99997711181641 -7.62939453125e-06 69.85279083251953 -7.62939453125e-06 44.99999237060547 C -7.62939453125e-06 20.14717864990234 20.14717864990234 -7.62939453125e-06 44.99999618530273 -7.62939453125e-06 Z" stroke="none" fill="#83793c"/>
                  </g>
                </g>
              </g>
            </g>
          </g>
        </g>
      </g>
    </g>
    <g id="family_547501" transform="translate(645.403 471.514)">
      <path id="Trazado_1048801" data-name="Trazado 1048801" d="M273.056,33.824h-4.8a1.326,1.326,0,0,1-1.322-1.322l-.661-11.2s-1.07-9.281,4.479-10.5c0,0,2.256-4.391,9.482-2.984a4.427,4.427,0,0,1,.453.137c10.324,3.363,7.345,14.312,6.917,24.552a1.326,1.326,0,0,1-1.322,1.322h-5.111" transform="translate(-236.995 -6.687)" fill="#7f7369"/>
      <path id="Trazado_1048802" data-name="Trazado 1048802" d="M273.891,33.8V32.224a7.927,7.927,0,0,1-1.179-.633c-.192-.124-.381-.258-.55-.387-3.875-2.971-3.181-7.257-3.261-7.822V19.957c0-.029,0-.057,0-.086-.05-2.64.359-8.179,4.558-9.1a6.988,6.988,0,0,1,5.449-3.184c-6.208-.682-8.155,3.175-8.166,3.184-3.734.821-4.646,5.375-4.557,9.195q0,.08,0,.155c.022.707.073,1.151.073,1.151l.661,11.2a1.326,1.326,0,0,0,1.322,1.322Z" transform="translate(-236.994 -6.66)" fill="#72655a"/>
      <path id="Trazado_1048803" data-name="Trazado 1048803" d="M31.809,256.921a5.786,5.786,0,0,1,.021-.594l1.544-13.8c.378-2.64.161-4.2,1.408-5.711a5.69,5.69,0,0,0-1.288-1.118l-.04-.01c-1.338-.8-2.465-.835-4.952-1.519h0l-2.543-1.217h0v-3.038a8.329,8.329,0,0,1-6.631.017h0l-.011,3.033h0l-2.532,1.2h0c-2.471.68-3.611.716-4.952,1.519l-.04.01a4.879,4.879,0,0,0-2.374,3.955l-.848,7.574h0c-1.072,9.732-1.039,8.949-1.039,9.7a2.941,2.941,0,0,0,3.043,3.1h0c.5,0,24.056,0,24.205,0A2.928,2.928,0,0,1,31.809,256.921Z" transform="translate(-6.707 -204.679)" fill="#dd9a5e"/>
      <g id="Grupo_1206293" data-name="Grupo 1206293" transform="translate(0.825 25.251)">
        <path id="Trazado_1048804" data-name="Trazado 1048804" d="M10.264,297.035c-.011-.643,0-.288,1.039-9.7.914-9.2.674-10.074,1.924-11.6a4.825,4.825,0,0,1,.793-.767,7.382,7.382,0,0,0-2.2.834l-.04.01a4.879,4.879,0,0,0-2.374,3.955l-.848,7.574c-1.04,9.445-1.05,9.055-1.039,9.7a2.929,2.929,0,0,0,3.043,3.1h2.742A2.931,2.931,0,0,1,10.264,297.035Z" transform="translate(-7.52 -270.045)" fill="#d38d54"/>
        <path id="Trazado_1048805" data-name="Trazado 1048805" d="M117.741,235.7V230.73a8.113,8.113,0,0,1-2.731-.659L115,233.1h0Z" transform="translate(-103.213 -230.071)" fill="#d38d54"/>
      </g>
      <path id="Trazado_1048806" data-name="Trazado 1048806" d="M259.074,259.01c-1.936-17.147-1.827-16.663-2-17.5a4.755,4.755,0,0,0-2.24-3.129l-.04-.01c-1.409-.844-2.433-.809-7.187-2.076a.719.719,0,0,1-.307-.661v-2.693a8.333,8.333,0,0,1-6.631-.014v2.707a.72.72,0,0,1-.307.661c-4.723,1.258-5.773,1.229-7.187,2.076l-.04.01a4.869,4.869,0,0,0-2.374,3.955c-1.956,17.63-1.9,16.62-1.887,17.27v0a2.941,2.941,0,0,0,3.043,3.1h24.136C258.124,262.708,259.26,261.166,259.074,259.01Z" transform="translate(-203.771 -207.363)" fill="#eab883"/>
      <path id="Trazado_1048807" data-name="Trazado 1048807" d="M231.615,296.11v0a5.784,5.784,0,0,1,.021-.594c1.933-18.1,1.814-17.585,2-18.488a4.743,4.743,0,0,1,2.193-3.1,8.937,8.937,0,0,0-2.655.948l-.04.01a4.87,4.87,0,0,0-2.374,3.955c-1.956,17.63-1.9,16.62-1.887,17.27v0a2.941,2.941,0,0,0,3.043,3.1h2.742A2.941,2.941,0,0,1,231.615,296.11Z" transform="translate(-203.772 -243.865)" fill="#d8a373"/>
      <g id="Grupo_1206294" data-name="Grupo 1206294" transform="translate(25.099 25.564)">
        <path id="Trazado_1048808" data-name="Trazado 1048808" d="M266.517,249.908c-.892-7.916-.842-7.723-.982-8.4a4.762,4.762,0,0,0-2.24-3.129l-.04-.01c-1.409-.844-2.433-.809-7.187-2.076a.72.72,0,0,1-.307-.661v-2.693h0v-.014a8.258,8.258,0,0,1-6.631,0v.014h0v2.693a.719.719,0,0,1-.307.661c-4.723,1.258-5.773,1.229-7.187,2.076l-.04.01a4.909,4.909,0,0,0-2.374,3.955l-.847,7.572,5.341.56a.538.538,0,0,1,.481.562l-.587,11.679h17.7l-.615-11.634a.584.584,0,0,1,.522-.612Z" transform="translate(-237.332 -232.928)" fill="#d83d3d"/>
        <path id="Trazado_1048809" data-name="Trazado 1048809" d="M235.254,388.327l-5.338-.56c-1.093,9.758-1.052,9.16-1.043,9.7v0a2.941,2.941,0,0,0,3.043,3.1h3.232l.587-11.679A.537.537,0,0,0,235.254,388.327Z" transform="translate(-228.871 -370.787)" fill="#d83d3d"/>
      </g>
      <path id="Trazado_1048810" data-name="Trazado 1048810" d="M239.222,278.838l-.847,7.572,2.655.279c.944-8.749.887-8.786,1.068-9.663a4.743,4.743,0,0,1,2.193-3.1,9.215,9.215,0,0,0-2.655.948l-.04.01A4.879,4.879,0,0,0,239.222,278.838Z" transform="translate(-212.234 -243.866)" fill="#a82626"/>
      <g id="Grupo_1206295" data-name="Grupo 1206295" transform="translate(1.866 28.271)">
        <path id="Trazado_1048811" data-name="Trazado 1048811" d="M41.914,260.359l-.04-.01c-1.341-.8-2.486-.841-4.934-1.515l0,0L34.4,257.612l-.018.028s0-.007,0-.01l-3.316,3.123-3.307-3.128-2.532,1.2h0c-2.471.68-3.611.716-4.952,1.519l-.04.01a4.87,4.87,0,0,0-2.374,3.955l-.848,7.574,5.239.55a.625.625,0,0,1,.559.653l-.583,11.6h17.7l-.615-11.633a.586.586,0,0,1,.524-.613l1.4-.147.571-5.106c.38-2.661.161-4.184,1.4-5.7A5.781,5.781,0,0,0,41.914,260.359Z" transform="translate(-17.012 -257.612)" fill="#70bbef"/>
        <path id="Trazado_1048812" data-name="Trazado 1048812" d="M251.33,299.512l.024-.046Z" transform="translate(-225.634 -294.876)" fill="#70bbef"/>
        <path id="Trazado_1048813" data-name="Trazado 1048813" d="M244.015,300.753c-.624,1.267-.537,2.679-.846,4.844C243.476,303.455,243.391,302.025,244.015,300.753Z" transform="translate(-218.368 -296.022)" fill="#70bbef"/>
        <path id="Trazado_1048814" data-name="Trazado 1048814" d="M243.085,344.927l-.01.093Z" transform="translate(-218.284 -335.352)" fill="#70bbef"/>
        <path id="Trazado_1048815" data-name="Trazado 1048815" d="M221.338,402.011a5.784,5.784,0,0,1,.021-.594l.956-8.543h-1.407a.584.584,0,0,0-.5.608l.615,11.632h3.289A2.929,2.929,0,0,1,221.338,402.011Z" transform="translate(-198.103 -378.041)" fill="#70bbef"/>
      </g>
      <path id="Trazado_1048816" data-name="Trazado 1048816" d="M19.756,287.339c.914-9.2.674-10.074,1.924-11.6a4.825,4.825,0,0,1,.793-.767,7.389,7.389,0,0,0-2.2.834l-.04.01c-2.89,1.765-2.178,3.852-3.222,11.528l2.71.284Z" transform="translate(-15.148 -244.792)" fill="#4caee5"/>
      <path id="Trazado_1048817" data-name="Trazado 1048817" d="M318.835,237.632a6.854,6.854,0,0,0,5.878-3.45l-2.236-.557a.72.72,0,0,1-.307-.661v-3.022h0v-.014a8.258,8.258,0,0,1-6.631,0v.014h0v3.022a.72.72,0,0,1-.307.661l-2.269.565A6.853,6.853,0,0,0,318.835,237.632Z" transform="translate(-278.642 -204.693)" fill="#eab883"/>
      <path id="SVGCleanerId_0" d="M50.241,20.754c.033-2.474-.847-9.689,6.682-12.569A10.39,10.39,0,0,1,68.6,11.215h0c3.239,3.856,2.246,7.867,2.431,9.538" transform="translate(-44.717 -6.655)" fill="#4c4846"/>
      <g id="Grupo_1206296" data-name="Grupo 1206296" transform="translate(5.508 0.843)">
        <path id="SVGCleanerId_0_1_" d="M50.241,20.754c.033-2.474-.847-9.689,6.682-12.569A10.39,10.39,0,0,1,68.6,11.215h0c3.239,3.856,2.246,7.867,2.431,9.538" transform="translate(-50.224 -7.499)" fill="#4c4846"/>
      </g>
      <path id="Trazado_1048818" data-name="Trazado 1048818" d="M52.641,15.917A10.4,10.4,0,0,1,61.8,7.588a10.371,10.371,0,0,0-6.7,1.626c-4.9,3.182-4.675,7.465-4.73,11.574h2.073A24.31,24.31,0,0,1,52.641,15.917Z" transform="translate(-44.849 -6.689)" fill="#3f3b39"/>
      <g id="Grupo_1206297" data-name="Grupo 1206297" transform="translate(5.007 12.86)">
        <path id="Trazado_1048819" data-name="Trazado 1048819" d="M223.619,119.246a2.407,2.407,0,0,1-2.59,2.169v-4.337A2.407,2.407,0,0,1,223.619,119.246Z" transform="translate(-201.797 -117.077)" fill="#dd9a5e"/>
        <path id="Trazado_1048820" data-name="Trazado 1048820" d="M45.657,119.246a2.407,2.407,0,0,0,2.59,2.169v-4.337A2.407,2.407,0,0,0,45.657,119.246Z" transform="translate(-45.657 -117.077)" fill="#dd9a5e"/>
      </g>
      <g id="Grupo_1206298" data-name="Grupo 1206298" transform="translate(5.007 14.054)">
        <path id="Trazado_1048821" data-name="Trazado 1048821" d="M221.029,129.158v1.949c1.944,0,3.172-1.718,2.313-3.143A2.678,2.678,0,0,1,221.029,129.158Z" transform="translate(-201.797 -127.964)" fill="#d38d54"/>
        <path id="Trazado_1048822" data-name="Trazado 1048822" d="M45.933,127.964a1.879,1.879,0,0,0-.276.975,2.407,2.407,0,0,0,2.59,2.169v-1.949A2.677,2.677,0,0,1,45.933,127.964Z" transform="translate(-45.657 -127.964)" fill="#d38d54"/>
      </g>
      <path id="Trazado_1048823" data-name="Trazado 1048823" d="M84,79.821a1.186,1.186,0,0,0-1.372-1.133l-.2.031a32.22,32.22,0,0,1-9.854-.031,1.186,1.186,0,0,0-1.372,1.133,4.252,4.252,0,0,1-.149,1.028,3.241,3.241,0,0,1-.992,1.587,2.7,2.7,0,0,1-.778.487v5.042A8.322,8.322,0,0,0,85.692,89.89c.3-1.286.224-1.808.224-6.966A3.287,3.287,0,0,1,84,79.821Z" transform="translate(-61.677 -70.026)" fill="#edae6b"/>
      <path id="Trazado_1048824" data-name="Trazado 1048824" d="M72.04,89.837c-.1-.822-.065-.984-.07-5.916a1.181,1.181,0,0,1,.412-.9,3.128,3.128,0,0,0,.543-.472,3.418,3.418,0,0,0,.5-.714c.009-.017.056-.11.082-.166.651-1.407.067-2.121.87-2.745-.626-.063-1.233-.141-1.814-.231a1.186,1.186,0,0,0-1.372,1.133,4.262,4.262,0,0,1-.149,1.028,3.24,3.24,0,0,1-.992,1.587,2.7,2.7,0,0,1-.778.487v5.042a8.436,8.436,0,0,0,2.235,5.674,8.077,8.077,0,0,0,.861.8,8.268,8.268,0,0,0,3.178,1.591C75.532,96.02,72.33,92.243,72.04,89.837Z" transform="translate(-61.676 -70.027)" fill="#dd9a5e"/>
      <path id="Trazado_1048825" data-name="Trazado 1048825" d="M148.487,257.613l-3.335,3.14,1.8,1.814a.811.811,0,0,0,1.214-.072l2.864-3.666Z" transform="translate(-129.234 -229.342)" fill="#dadada"/>
      <g id="Grupo_1206299" data-name="Grupo 1206299" transform="translate(15.918 28.271)">
        <path id="Trazado_1048826" data-name="Trazado 1048826" d="M149.769,258.226l-1.28-.613-3.335,3.14,1.191,1.2Z" transform="translate(-145.153 -257.613)" fill="#ceccca"/>
        <path id="Trazado_1048827" data-name="Trazado 1048827" d="M163.8,304.33a.812.812,0,0,0,.475.058Z" transform="translate(-161.759 -299.207)" fill="#ceccca"/>
      </g>
      <path id="Trazado_1048828" data-name="Trazado 1048828" d="M94.121,257.727l3.307,3.128-1.8,1.814a.811.811,0,0,1-1.214-.072l-2.864-3.666Z" transform="translate(-81.509 -229.443)" fill="#dadada"/>
      <path id="Trazado_1048829" data-name="Trazado 1048829" d="M104.968,260.843l1.14,1.213,1.191-1.2-3.307-3.128-1.356.635Z" transform="translate(-91.382 -229.443)" fill="#ceccca"/>
      <path id="Trazado_1048830" data-name="Trazado 1048830" d="M318.294,234.639V230.6a8.205,8.205,0,0,1-2.755-.674v3.036a.719.719,0,0,1-.307.661l-2.269.565a7.2,7.2,0,0,0,2.229,2.345l2.356-.866S318.294,235.3,318.294,234.639Z" transform="translate(-278.642 -204.693)" fill="#d8a373"/>
      <path id="Trazado_1048831" data-name="Trazado 1048831" d="M306.738,96.657a.878.878,0,0,1,.837.876v.629h0a14.37,14.37,0,0,1-.123,2.649,8.329,8.329,0,0,1-12.709,5.56c-.193-.125-.382-.259-.55-.387-3.882-2.976-3.179-7.248-3.261-7.822v-3h0v-.421a1.034,1.034,0,0,1,.824-1.01,6.661,6.661,0,0,0,3.469-1.994.759.759,0,0,1,1.138.037A14.05,14.05,0,0,0,306.738,96.657Z" transform="translate(-259.026 -81.44)" fill="#f7cf9c"/>
      <path id="Trazado_1048832" data-name="Trazado 1048832" d="M296.123,117.37l-.059-.06c-.06-.06-.121-.121-.179-.183l-.023-.025,0,0-.016-.017c-.051-.054-.1-.11-.149-.166-2.826-3.239-1.9-6.277-2.083-8.7v-3.212a6.457,6.457,0,0,1-1.918.751,1.034,1.034,0,0,0-.824,1.01v3.426a8.724,8.724,0,0,0,3.611,8.076c.125.087.288.19.305.2a8.3,8.3,0,0,0,5.775,1.146A15.144,15.144,0,0,1,296.123,117.37Z" transform="translate(-258.961 -93.472)" fill="#eab883"/>
      <g id="Grupo_1206300" data-name="Grupo 1206300" transform="translate(32.746 29.489)">
        <path id="Trazado_1048833" data-name="Trazado 1048833" d="M374,269.112l-1.6-.4a6.854,6.854,0,0,1-5.878,3.45S374.029,279.679,374,269.112Z" transform="translate(-359.068 -268.713)" fill="#b72c2c"/>
        <path id="Trazado_1048834" data-name="Trazado 1048834" d="M298.611,269.112l1.6-.4a6.854,6.854,0,0,0,5.878,3.45S298.578,279.679,298.611,269.112Z" transform="translate(-298.611 -268.713)" fill="#b72c2c"/>
      </g>
      <g id="Grupo_1206301" data-name="Grupo 1206301" transform="translate(32.821 31.62)">
        <path id="Trazado_1048835" data-name="Trazado 1048835" d="M303.123,288.417c-1.326.706-2.854,1.043-3.833-.266.779,7.948,7.407,1.319,7.407,1.319A6.605,6.605,0,0,1,303.123,288.417Z" transform="translate(-299.29 -288.151)" fill="#a82626"/>
        <path id="Trazado_1048836" data-name="Trazado 1048836" d="M370.091,288.417c1.326.706,2.854,1.043,3.833-.266-.779,7.948-7.407,1.319-7.407,1.319A6.606,6.606,0,0,0,370.091,288.417Z" transform="translate(-359.144 -288.151)" fill="#a82626"/>
      </g>
      <path id="Trazado_1048837" data-name="Trazado 1048837" d="M205.6,253.89a6.859,6.859,0,0,0-11.963,4.557v2.108h13.7C207.205,259.47,207.927,256.448,205.6,253.89Z" transform="translate(-172.403 -223.984)" fill="#996123"/>
      <path id="Trazado_1048838" data-name="Trazado 1048838" d="M201.16,251.648a6.849,6.849,0,0,0-7.518,6.578c-.008.248,0,.167,0,2.347h1.347v-2.108A6.85,6.85,0,0,1,201.16,251.648Z" transform="translate(-172.402 -224.001)" fill="#8e551c"/>
      <g id="Grupo_1206302" data-name="Grupo 1206302" transform="translate(20.414 35.53)">
        <path id="Trazado_1048839" data-name="Trazado 1048839" d="M308.291,325.638a2.033,2.033,0,0,1-2.187,1.831v-3.662A2.033,2.033,0,0,1,308.291,325.638Z" transform="translate(-292.95 -323.807)" fill="#efd0a3"/>
        <path id="Trazado_1048840" data-name="Trazado 1048840" d="M186.152,325.638a2.033,2.033,0,0,0,2.187,1.831v-3.662A2.033,2.033,0,0,0,186.152,325.638Z" transform="translate(-186.152 -323.807)" fill="#efd0a3"/>
      </g>
      <g id="Grupo_1206303" data-name="Grupo 1206303" transform="translate(20.412 36.575)">
        <path id="Trazado_1048841" data-name="Trazado 1048841" d="M306.105,334.381v1.572c1.6,0,2.664-1.4,1.973-2.617A2.248,2.248,0,0,1,306.105,334.381Z" transform="translate(-292.949 -333.336)" fill="#e2bf91"/>
        <path id="Trazado_1048842" data-name="Trazado 1048842" d="M186.349,333.337c-.7,1.225.381,2.617,1.973,2.617v-1.572A2.248,2.248,0,0,1,186.349,333.337Z" transform="translate(-186.133 -333.337)" fill="#e2bf91"/>
      </g>
      <path id="Trazado_1048843" data-name="Trazado 1048843" d="M189.923,408.919c-.61-5.261-.578-5.263-.686-5.786a3.134,3.134,0,0,0-1.476-2.062l-.026-.006c-.927-.556-1.6-.531-4.737-1.368-.347-.157-.145-.831-.2-2.549a5.489,5.489,0,0,1-4.37.012v2.1a.474.474,0,0,1-.2.435c-3.13.834-3.808.812-4.737,1.368l-.026.006a3.21,3.21,0,0,0-1.565,2.606l-.6,5.242Z" transform="translate(-152.513 -353.573)" fill="#efd0a3"/>
      <path id="Trazado_1048844" data-name="Trazado 1048844" d="M189.923,431.692c-.61-5.261-.578-5.263-.686-5.786a3.156,3.156,0,0,0-1.476-2.062l-.026-.006c-.893-.535-1.589-.536-3.71-1.113a4.155,4.155,0,0,1-6.828,0c-2.14.581-2.821.58-3.71,1.113l-.026.006a3.2,3.2,0,0,0-1.565,2.606l-.6,5.242Z" transform="translate(-152.513 -376.346)" fill="#7ebc7e"/>
      <path id="Trazado_1048845" data-name="Trazado 1048845" d="M174.752,428.274a4.423,4.423,0,0,0-1.266.5l-.026.006a3.2,3.2,0,0,0-1.565,2.606l-.6,5.242h1.645l.6-6.01A3.178,3.178,0,0,1,174.752,428.274Z" transform="translate(-152.512 -381.287)" fill="#5eaa5e"/>
      <path id="Trazado_1048846" data-name="Trazado 1048846" d="M226.954,401.533l1.279-.318c.354-.16.138-.816.2-3.516a5.434,5.434,0,0,1-2.12-.447v2.1a.474.474,0,0,1-.2.435l-1.027.255h0A4.169,4.169,0,0,0,226.954,401.533Z" transform="translate(-200.403 -353.667)" fill="#e2bf91"/>
      <path id="Trazado_1048847" data-name="Trazado 1048847" d="M216.781,301.782c-.085-.02-.15-.042-.161-.045h0a3.783,3.783,0,0,1-2.128-2.016.382.382,0,0,0-.684.012c-.658,1.384-3.3,3.3-7.351,2.2a.288.288,0,0,0-.365.28v3.319a5.484,5.484,0,1,0,10.968,0v-3.319A.437.437,0,0,0,216.781,301.782Z" transform="translate(-183.491 -266.648)" fill="#fce3bb"/>
      <path id="Trazado_1048848" data-name="Trazado 1048848" d="M208.878,325.74c-.079-.606-.033-.82-.046-3.982a8.849,8.849,0,0,1-2.376-.329.288.288,0,0,0-.365.28v3.319a5.49,5.49,0,0,0,6.855,5.31A5.489,5.489,0,0,1,208.878,325.74Z" transform="translate(-183.49 -286.15)" fill="#efd0a3"/>
      <path id="Trazado_1048849" data-name="Trazado 1048849" d="M54.252,34.87a5.734,5.734,0,0,0-2.762-4.557c-1.266-.775-2.291-.9-7.14-2.1v-.253h4.84a2.147,2.147,0,0,0,2.145-2.118c.611-10.36.7-11.547.661-12.036a.822.822,0,0,0-1.645,0v.78c-.69,11.7-.661,11.182-.661,11.229a.507.507,0,0,1-.5.5h-4.84V26.1a9.36,9.36,0,0,0,3.658-3.356c1.581-2.551,1.361-4.707,1.363-6.795A1.543,1.543,0,0,0,47.885,14.4h0A13.151,13.151,0,0,1,37.842,9.654a1.371,1.371,0,0,0-2.11-.072,6.27,6.27,0,0,1-3.477,2.04,1.446,1.446,0,0,0-1.171,1.419c0,5.17-.006,4.885.007,5.248a9.164,9.164,0,0,0,4.982,7.792v.229h-4.91a.507.507,0,0,1-.5-.5c0-.048.028.45-.663-11.253,0-.015,0-.03,0-.045-.01-.085-.918-8.558,3.839-9.6a.822.822,0,0,0,.555-.427c.02-.038,2.049-3.827,8.594-2.552,2.605.5,6.5,3.6,7.235,8.165a.822.822,0,1,0,1.624-.26,11.786,11.786,0,0,0-3.021-6.178l-.058-.063A12.046,12.046,0,0,0,43.3.315c-2.206-.429-5.393-.592-8.045,1.075a7.189,7.189,0,0,0-2.117,2c-2.427.689-4.017,2.853-4.608,6.284a19.74,19.74,0,0,0-.168,5c.77,11.9.506,11.452.952,12.214a7.624,7.624,0,0,0-6.519,2l-.719-.179-2-.957V26.081a9.084,9.084,0,0,0,4.765-6.139,9.309,9.309,0,0,0,.221-2.006v-.008a3.1,3.1,0,0,0,2.589-2.9,2.709,2.709,0,0,0-.518-1.581A17.414,17.414,0,0,0,26.744,8.3a11.19,11.19,0,0,0-2.228-4.266l-.008-.01A11.215,11.215,0,0,0,4.7,11.238c0,.722,0,2.119,0,2.207-1.223,1.714-.179,3.994,2.072,4.484A9.164,9.164,0,0,0,11.8,26.1v1.631l-2.082,1c-2.269.635-4.029.8-5.377,1.8A5.579,5.579,0,0,0,1.9,34.878C-.056,52.527-.01,51.455,0,52.241a3.747,3.747,0,0,0,3.865,3.925h7.19a.822.822,0,1,0,0-1.645H7.968l.816-15.426a.822.822,0,0,0-1.643-.087L6.97,42.252l-4.2-.44.014-.122c.847-6.7.542-7.721,1.674-9.066l.009-.011c1.378-1.627,3.563-1.663,5.254-2.191l2.528,3.237A1.633,1.633,0,0,0,14.7,33.8l.394-.4v3.98a.822.822,0,1,0,1.645,0v-3.98l.394.4a1.633,1.633,0,0,0,1.159.483l.1,0a1.634,1.634,0,0,0,1.19-.625l1.156-1.479a10.459,10.459,0,0,0-.346,3.359c-1.577,1.477-.773,3.9,1.454,4.394a6.307,6.307,0,0,0,3.224,4.494v1c-2.9.781-5.183.814-6.216,3.274a3.066,3.066,0,0,0-.105.295c-.042.133-.082.29-.1.394-.127.613-.132,1-.615,5.131H14.9a.822.822,0,1,0,0,1.645H40.858a.822.822,0,1,0,0-1.645H38.121c-.447-3.28-.4-4.689-.777-5.7a4.264,4.264,0,0,0-3-2.583l-3.258-.811V44.412a6.314,6.314,0,0,0,3.2-4.48,2.864,2.864,0,0,0,2.236-2.15,2.365,2.365,0,0,0-.23-1.518,9.593,9.593,0,0,0,3.924-2.193c4.192,3.636,7.956,3.181,8.264-3.139.6.187,3.453.624,4.022,3.379.043.207.092.5.123.75l.755,6.749-4.162.437-.171-3.239a.822.822,0,0,0-1.643.087l.815,15.426H44.7a.822.822,0,1,0,0,1.645h7.583a3.758,3.758,0,0,0,2.751-1.072,4.062,4.062,0,0,0,1.115-2.855C56.155,51.545,56.212,52.521,54.252,34.87ZM6.832,43.892,6.3,54.52H3.868a2.109,2.109,0,0,1-2.221-2.3c-.01-.582.021-.385.944-8.779Zm28.888-13.9,1.067-.266a.831.831,0,0,0,.141-.049,1.506,1.506,0,0,0,.79-1.41V26.73a9.158,9.158,0,0,0,4.986.009v1.53a1.506,1.506,0,0,0,.79,1.41.823.823,0,0,0,.141.049l1.064.265A5.815,5.815,0,0,1,35.72,29.993Zm-1.353,8.164v-1.6a.977.977,0,0,1,.542.8A1,1,0,0,1,34.367,38.157Zm1.366-3.462a7.841,7.841,0,0,0-.425-2.756,7.545,7.545,0,0,0,2.957,1.567A6.029,6.029,0,0,1,35.733,34.695Zm-.975-11.628c-2.6-2.892-2.027-5.5-2.03-9.861a7.924,7.924,0,0,0,4.014-2.292,14.908,14.908,0,0,0,10.983,5.126c0,2.186.006,1.8-.007,2.237v0a7.439,7.439,0,0,1-2.688,5.421h0l-.095.077a7.513,7.513,0,0,1-8.772.466C36,24.131,34.944,23.244,34.758,23.066Zm1.315,5.144-2.74.682a7.039,7.039,0,0,0-1.2-.935h3.945Zm-4.019,1.736h0s.01,0,.009.008h0a5.99,5.99,0,0,1,1.918,3.372,7.072,7.072,0,0,1,.107,1.421,1.32,1.32,0,0,0-.733-.445,3,3,0,0,1-1.649-1.613,1.2,1.2,0,0,0-2.156.039c-.481,1.012-2.676,2.771-6.392,1.755a1.1,1.1,0,0,0-1.043.254l-.082.013c0-.54.006-.561.006-.55A6.036,6.036,0,0,1,32.054,29.946Zm-10.3,6.615v1.6A.86.86,0,0,1,21.755,36.561Zm-5.838-6.281-2.473-2.329V26.74a9.216,9.216,0,0,0,4.966-.006v1.2ZM25.06,16.212V13.84A1.217,1.217,0,0,1,25.06,16.212ZM6.516,9.435A9.756,9.756,0,0,1,9.561,4.082h0a9.409,9.409,0,0,1,2.383-1.554A9.524,9.524,0,0,1,22.272,4.082a9.741,9.741,0,0,1,2.883,4.647,12.259,12.259,0,0,1,.333,3.514,3.8,3.8,0,0,0-1.138-.206,2.3,2.3,0,0,1-.553-.448c-1.121-1.292-.17-2.293-1.373-3.3-.848-.708-1.66-.437-3.161-.241-6.991.754-8.393-.976-9.851.241a2,2,0,0,0-.719,1.522,2.38,2.38,0,0,1-1.207,2.223,3.81,3.81,0,0,0-1.138.206A13.553,13.553,0,0,1,6.516,9.435Zm.257,4.4v2.372A1.217,1.217,0,0,1,6.773,13.84Zm1.645,4.1V13.395a3.909,3.909,0,0,0,1.49-1.681,4.726,4.726,0,0,0,.43-1.9.363.363,0,0,1,.424-.341c8.685,1.156,10.708-.708,10.734.34a4.475,4.475,0,0,0,1.079,2.877,4.345,4.345,0,0,0,.84.7c0,.855,0,3.715,0,3.806a7.678,7.678,0,0,1-4.06,7.4h0a7.513,7.513,0,0,1-2.943.815c-.435.029-.864.01-.853.01A7.5,7.5,0,0,1,8.418,17.937Zm5.124,14.7L11.327,29.8l1.114-.533,2.3,2.163Zm4.749,0-1.2-1.206,2.31-2.175,1.112.532Zm9.469,12.54.059,0,.059,0a6.176,6.176,0,0,0,1.558-.148c.041.316-.18,1.235.507,1.734a3.325,3.325,0,0,1-3.74,0c.686-.5.468-1.426.507-1.728A6.325,6.325,0,0,0,27.76,45.174ZM24.343,47.3a4.975,4.975,0,0,0,7.461,0l.035.009a12.031,12.031,0,0,1,2.936.883c1.5.9,1.076,2.006,1.681,6.327H34.267l-.1-1.775a.822.822,0,1,0-1.642.09l.092,1.685H23.551l.092-1.685A.822.822,0,1,0,22,52.745l-.1,1.775H19.692c.545-4.675.314-5.508,1.68-6.327A11.545,11.545,0,0,1,24.343,47.3Zm5.7-4.2a4.664,4.664,0,0,1-6.6-3.616c-.07-.536-.025-.964-.039-3.25,3.611.747,6.128-.7,7.23-2.142a4.41,4.41,0,0,0,2.093,1.733c0,3.521.005,3.075-.008,3.32,0,.06-.007.117-.012.172A4.664,4.664,0,0,1,30.04,43.1Zm15.407-8.489c-.953.4-2.456-.5-3.3-1.108a7.706,7.706,0,0,0,4.3-3.073l.4.1C46.775,32.818,46.286,34.258,45.447,34.608Zm8.412,19.331c-.872.884-2.056.477-4,.582L49.3,43.891l4.258-.447.927,8.281A2.689,2.689,0,0,1,53.859,53.938Z"/>
    </g>
  </g>
</svg>
