<svg xmlns="http://www.w3.org/2000/svg" xmlns:xlink="http://www.w3.org/1999/xlink" width="113" height="113" viewBox="0 0 113 113">
  <defs>
    <filter id="Trazado_982547" x="0" y="0" width="113" height="113" filterUnits="userSpaceOnUse">
      <feOffset dy="3" input="SourceAlpha"/>
      <feGaussianBlur stdDeviation="3" result="blur"/>
      <feFlood flood-opacity="0.161"/>
      <feComposite operator="in" in2="blur"/>
      <feComposite in="SourceGraphic"/>
    </filter>
  </defs>
  <g id="Grupo_1206576" data-name="Grupo 1206576" transform="translate(-272 -9286.56)">
    <g id="Grupo_1204119" data-name="Grupo 1204119" transform="translate(0 5446.223)">
      <g id="Grupo_1203962" data-name="Grupo 1203962" transform="translate(0 1899.461)">
        <g id="Grupo_1203498" data-name="Grupo 1203498" transform="translate(0 -197.72)">
          <g id="Grupo_1202589" data-name="Grupo 1202589" transform="translate(281 2144.596)">
            <g id="Grupo_1172010" data-name="Grupo 1172010" transform="translate(0)">
              <g id="Grupo_1171046" data-name="Grupo 1171046">
                <g id="Grupo_1148525" data-name="Grupo 1148525">
                  <g transform="matrix(1, 0, 0, 1, -9, -6)" filter="url(#Trazado_982547)">
                    <g id="Trazado_982547-2" data-name="Trazado 982547" transform="translate(9 6)" fill="#edf3fc">
                      <path d="M 47.5 93.5 C 41.28937149047852 93.5 35.26533508300781 92.28397369384766 29.59518623352051 89.88570404052734 C 24.11771965026855 87.56893157958984 19.19813346862793 84.25196075439453 14.97309303283691 80.02691650390625 C 10.74804019927979 75.80186462402344 7.431066513061523 70.88229370117188 5.114293098449707 65.40481567382812 C 2.716026782989502 59.73468017578125 1.5 53.71062850952148 1.5 47.5 C 1.5 41.28937149047852 2.716026782989502 35.26533508300781 5.114293098449707 29.59518623352051 C 7.431066513061523 24.11771965026855 10.74804019927979 19.19813346862793 14.97309303283691 14.97309303283691 C 19.19813346862793 10.74804019927979 24.11771965026855 7.431066513061523 29.59518623352051 5.114293098449707 C 35.26533508300781 2.716026782989502 41.28937149047852 1.5 47.5 1.5 C 53.71062850952148 1.5 59.73468017578125 2.716026782989502 65.40481567382812 5.114293098449707 C 70.88229370117188 7.431066513061523 75.80186462402344 10.74804019927979 80.02691650390625 14.97309303283691 C 84.25196075439453 19.19813346862793 87.56893157958984 24.11771965026855 89.88570404052734 29.59518623352051 C 92.28397369384766 35.26533508300781 93.5 41.28937149047852 93.5 47.5 C 93.5 53.71062850952148 92.28397369384766 59.73468017578125 89.88570404052734 65.40481567382812 C 87.56893157958984 70.88229370117188 84.25196075439453 75.80186462402344 80.02691650390625 80.02691650390625 C 75.80186462402344 84.25196075439453 70.88229370117188 87.56893157958984 65.40481567382812 89.88570404052734 C 59.73468017578125 92.28397369384766 53.71062850952148 93.5 47.5 93.5 Z" stroke="none"/>
                      <path d="M 47.5 3 C 41.49121475219727 3 35.66376876831055 4.176155090332031 30.17950439453125 6.495796203613281 C 24.88084411621094 8.736953735351562 20.12152099609375 11.94598388671875 16.03375244140625 16.03375244140625 C 11.94598388671875 20.12152099609375 8.736953735351562 24.88084411621094 6.495796203613281 30.17950439453125 C 4.176155090332031 35.66376876831055 3 41.49121475219727 3 47.5 C 3 53.50878524780273 4.176155090332031 59.33623123168945 6.495796203613281 64.82049560546875 C 8.736953735351562 70.11915588378906 11.94598388671875 74.87847900390625 16.03375244140625 78.96624755859375 C 20.12152099609375 83.05401611328125 24.88084411621094 86.26304626464844 30.17950439453125 88.50419616699219 C 35.66376876831055 90.82384490966797 41.49121475219727 92 47.5 92 C 53.50878524780273 92 59.33623123168945 90.82384490966797 64.82049560546875 88.50419616699219 C 70.11915588378906 86.26304626464844 74.87847900390625 83.05401611328125 78.96624755859375 78.96624755859375 C 83.05401611328125 74.87847900390625 86.26304626464844 70.11915588378906 88.50419616699219 64.82049560546875 C 90.82384490966797 59.33623123168945 92 53.50878524780273 92 47.5 C 92 41.49121475219727 90.82384490966797 35.66376876831055 88.50419616699219 30.17950439453125 C 86.26304626464844 24.88084411621094 83.05401611328125 20.12152099609375 78.96624755859375 16.03375244140625 C 74.87847900390625 11.94598388671875 70.11915588378906 8.736953735351562 64.82049560546875 6.495796203613281 C 59.33623123168945 4.176155090332031 53.50878524780273 3 47.5 3 M 47.5 0 C 73.7335205078125 0 95 21.2664794921875 95 47.5 C 95 73.7335205078125 73.7335205078125 95 47.5 95 C 21.2664794921875 95 0 73.7335205078125 0 47.5 C 0 21.2664794921875 21.2664794921875 0 47.5 0 Z" stroke="none" fill="#5692e8"/>
                    </g>
                  </g>
                </g>
              </g>
            </g>
          </g>
        </g>
      </g>
    </g>
    <g id="_360-feedback_14752908" data-name="360-feedback_14752908" transform="translate(289.509 9304.069)">
      <g id="Grupo_1206568" data-name="Grupo 1206568" transform="translate(7.607 7.5)">
        <path id="Trazado_1049169" data-name="Trazado 1049169" d="M219.529,296.538a2.962,2.962,0,0,1-2.324-2.891v-4.414h-7.9v4.414a2.962,2.962,0,0,1-2.324,2.891l.518,3.3c-.782.173,5.357,5.888,8.674,4.991C219.266,303.986,219.529,296.538,219.529,296.538Z" transform="translate(-181.808 -253.531)" fill="#bb5d4c"/>
        <path id="Trazado_1049170" data-name="Trazado 1049170" d="M132.189,350.748a12.626,12.626,0,0,0-4.221-1.784l-9.509-2.1c-.662-.146-3.573,6.046-6.3,6.042-2.865,0-5.553-6.2-6.248-6.042l-9.509,2.1a18.746,18.746,0,0,0-5.157,2.159L95,359.33l11.888,4.488,14.6-.077,11.423-9.4.465-3.018Z" transform="translate(-80.737 -303.858)" fill="#bbf49b"/>
        <path id="Trazado_1049171" data-name="Trazado 1049171" d="M175.8,335.724l-5.974-5.408a.379.379,0,0,1-.072-.475l1.484-2.507a2.252,2.252,0,0,1,3.731-.215l5.73,7.546-3.238,1.345A1.574,1.574,0,0,1,175.8,335.724Z" transform="translate(-149.257 -285.841)" fill="#9be69d"/>
        <path id="Trazado_1049172" data-name="Trazado 1049172" d="M261.4,335.724l5.974-5.408a.379.379,0,0,0,.072-.475l-1.484-2.507a2.252,2.252,0,0,0-3.731-.215l-5.73,7.546,3.238,1.345A1.574,1.574,0,0,0,261.4,335.724Z" transform="translate(-225.052 -285.841)" fill="#9be69d"/>
        <g id="Grupo_1206567" data-name="Grupo 1206567" transform="translate(0.539 12.69)">
          <path id="Trazado_1049173" data-name="Trazado 1049173" d="M31.335,127.41a28.722,28.722,0,0,0-.228,4.124l2.716,2.331L35.8,130.6a24.223,24.223,0,0,1,.189-2.6,23.853,23.853,0,0,1,8.4-15.342l-3.56-3.12A28.529,28.529,0,0,0,31.335,127.41Z" transform="translate(-28.756 -109.295)" fill="#afe6f2"/>
          <path id="Trazado_1049174" data-name="Trazado 1049174" d="M395.636,125.135l-1.943-.025a.412.412,0,0,1-.4-.349,28.605,28.605,0,0,0-9.576-17.115l-2.963,3.64a23.933,23.933,0,0,1,7.732,13.257.414.414,0,0,1-.409.5l-1.925-.024a.412.412,0,0,0-.341.652l3.138,4.4.89,3.354,2.69-.413,1.143-3.765,2.3-3.472A.413.413,0,0,0,395.636,125.135Z" transform="translate(-334.1 -107.646)" fill="#afe6f2"/>
          <path id="Trazado_1049175" data-name="Trazado 1049175" d="M72.14,257.893a28.607,28.607,0,0,1-56.773,5.051.412.412,0,0,0-.4-.343L13,262.578a.412.412,0,0,1-.339-.64l4.531-6.831a.413.413,0,0,1,.68-.011l4.954,6.949a.412.412,0,0,1-.341.652l-1.882-.023a.414.414,0,0,0-.408.505,23.915,23.915,0,0,0,47.062-2.239q.144-1.133.18-2.255l1.815,2.546a.413.413,0,0,0,.68-.011Z" transform="translate(-12.591 -236.26)" fill="#9adbef"/>
        </g>
        <path id="Trazado_1049176" data-name="Trazado 1049176" d="M164.631,44.514c0,4.608-4.586,6.078-7.956,8.712l-13.918.375-2.986-2.888a33.468,33.468,0,0,1,.239-3.873,14.794,14.794,0,0,1,14.512-15.061,14.014,14.014,0,0,1,4.114.614C162.5,34.377,164.631,40.879,164.631,44.514Z" transform="translate(-123.085 -28.702)" fill="#90809e"/>
        <path id="Trazado_1049177" data-name="Trazado 1049177" d="M285.769,51.069a35.241,35.241,0,0,1,.331,3.968l-2.413,2.142-10.275.277a14.387,14.387,0,0,0,1.961-20.834A15,15,0,0,1,285.769,51.069Z" transform="translate(-239.822 -32.932)" fill="#7f688c"/>
        <path id="Trazado_1049178" data-name="Trazado 1049178" d="M159.569,184.825H138.3a4.963,4.963,0,0,1-4.963-4.963v-1.254a2.337,2.337,0,0,1,2.337-2.337H162.2a2.337,2.337,0,0,1,2.337,2.337v1.254A4.963,4.963,0,0,1,159.569,184.825Z" transform="translate(-117.5 -154.884)" fill="#bb5d4c"/>
        <path id="Trazado_1049179" data-name="Trazado 1049179" d="M196.23,158.9l-2.344,1.825a6.168,6.168,0,0,1-7.579,0l-2.344-1.825a9.051,9.051,0,0,1-3.49-7.141v-8.882a3.546,3.546,0,0,1,4.672-3.362l2.177.728a8.749,8.749,0,0,0,5.55,0l2.177-.728a3.546,3.546,0,0,1,4.672,3.362v8.882A9.051,9.051,0,0,1,196.23,158.9Z" transform="translate(-158.66 -122.623)" fill="#c96d59"/>
        <path id="Trazado_1049180" data-name="Trazado 1049180" d="M346.17,17.684a10.031,10.031,0,0,1,16.3-7.984c1.826,2.376,3.151,4.682,3.151,7.849a9.483,9.483,0,0,1-10.29,9.686.374.374,0,0,0-.158.023l-4.536,1.95a.675.675,0,0,1-.914-.631l-.346-3.634a.38.38,0,0,0-.112-.269c-.059-.059-.281-.188-.338-.249A9.983,9.983,0,0,1,346.17,17.684Z" transform="translate(-303.359 -7.5)" fill="#f3f7fe"/>
        <path id="Trazado_1049181" data-name="Trazado 1049181" d="M385.229,32.686a10.036,10.036,0,0,1-10.658,10,.374.374,0,0,0-.158.023l-5.288,2.007a.675.675,0,0,1-.915-.63V40.035a.384.384,0,0,0-.112-.269c-.06-.06-.118-.119-.176-.18A10.858,10.858,0,0,0,381.466,24.86,10,10,0,0,1,385.229,32.686Z" transform="translate(-322.356 -22.66)" fill="#e8edf9"/>
        <path id="Trazado_1049182" data-name="Trazado 1049182" d="M27.557,17.6a12.829,12.829,0,0,0-1.232-6.157A10.021,10.021,0,0,0,8.339,17.526,9.886,9.886,0,0,0,10.4,23.608a11.388,11.388,0,0,0,8.7,3.506.374.374,0,0,1,.158.023l4.792,2.042a.675.675,0,0,0,.914-.631l.027-3.82a.38.38,0,0,1,.112-.269A9.468,9.468,0,0,0,27.557,17.6Z" transform="translate(-8.339 -7.5)" fill="#f3f7fe"/>
        <path id="Trazado_1049183" data-name="Trazado 1049183" d="M42.6,44.835a9.986,9.986,0,0,1-2.931,6.921.384.384,0,0,0-.112.269v4.056a.675.675,0,0,1-.915.63L33.357,54.7a.373.373,0,0,0-.158-.023,10,10,0,0,1-8.6-3.922A10.858,10.858,0,0,0,40.526,38.59,9.967,9.967,0,0,1,42.6,44.835Z" transform="translate(-22.54 -34.65)" fill="#e8edf9"/>
        <path id="Trazado_1049184" data-name="Trazado 1049184" d="M380.8,62.211l-2.7-2.7a1.628,1.628,0,0,1,0-2.3h0a1.63,1.63,0,0,1,2.3,0l1.28,1.278a.38.38,0,0,0,.538,0l4.545-4.557a1.63,1.63,0,0,1,2.305,0h0a1.627,1.627,0,0,1,0,2.3l-5.969,5.979A1.63,1.63,0,0,1,380.8,62.211Z" transform="translate(-330.83 -47.63)" fill="#bbf49b"/>
        <path id="Trazado_1049185" data-name="Trazado 1049185" d="M55.145,56.284a1.833,1.833,0,0,1-2.517-.1l-1.875-1.874a.38.38,0,0,0-.537,0L48.34,56.189a1.833,1.833,0,0,1-2.516.1,1.8,1.8,0,0,1-.064-2.6l1.911-1.91a.379.379,0,0,0,0-.537L45.8,49.362a1.83,1.83,0,0,1-.1-2.516,1.8,1.8,0,0,1,2.6-.062l1.911,1.91a.38.38,0,0,0,.537,0l1.875-1.874a1.833,1.833,0,0,1,2.517-.1,1.8,1.8,0,0,1,.062,2.6L53.3,51.236a.379.379,0,0,0,0,.537l1.911,1.91A1.8,1.8,0,0,1,55.145,56.284Z" transform="translate(-40.558 -41.346)" fill="#fc90a8"/>
      </g>
      <g id="Grupo_1206575" data-name="Grupo 1206575" transform="translate(7.501 7.5)">
        <g id="Grupo_1206571" data-name="Grupo 1206571" transform="translate(0.232 19.738)">
          <g id="Grupo_1206569" data-name="Grupo 1206569">
            <path id="Trazado_1049186" data-name="Trazado 1049186" d="M67.819,183.013q.039-.569.1-1.142a23.92,23.92,0,0,1,4.049-10.832" transform="translate(-60.408 -170.054)" fill="none" stroke="#000" stroke-linecap="round" stroke-linejoin="round" stroke-miterlimit="10" stroke-width="1.5"/>
            <path id="Trazado_1049187" data-name="Trazado 1049187" d="M30.246,177.993a29.018,29.018,0,0,1,.192-3.447,28.633,28.633,0,0,1,3.777-11.283" transform="translate(-27.596 -163.263)" fill="none" stroke="#000" stroke-linecap="round" stroke-linejoin="round" stroke-miterlimit="10" stroke-width="1.5"/>
            <path id="Trazado_1049188" data-name="Trazado 1049188" d="M417.5,163.322a28.552,28.552,0,0,1,3.562,9.954l3.073,0-5.6,9.536-5.5-9.544h3.245a23.916,23.916,0,0,0-3.813-9.083" transform="translate(-361.389 -163.315)" fill="none" stroke="#000" stroke-linecap="round" stroke-linejoin="round" stroke-miterlimit="10" stroke-width="1.5"/>
            <path id="Trazado_1049189" data-name="Trazado 1049189" d="M375.722,308.395a23.955,23.955,0,0,0,8.751-15.917q.059-.509.1-1.018" transform="translate(-329.294 -275.215)" fill="none" stroke="#000" stroke-linecap="round" stroke-linejoin="round" stroke-miterlimit="10" stroke-width="1.5"/>
            <path id="Trazado_1049190" data-name="Trazado 1049190" d="M55.422,292.812a28.7,28.7,0,0,0,54.012-9.921,29.033,29.033,0,0,0,.191-3.021" transform="translate(-49.582 -265.094)" fill="none" stroke="#000" stroke-linecap="round" stroke-linejoin="round" stroke-miterlimit="10" stroke-width="1.5"/>
            <path id="Trazado_1049191" data-name="Trazado 1049191" d="M13.449,255.839a28.448,28.448,0,0,1-1.034-4.089l-3.083,0,5.6-9.536,5.5,9.544-3.229,0a23.983,23.983,0,0,0,34.867,16.1" transform="translate(-9.332 -232.206)" fill="none" stroke="#000" stroke-linecap="round" stroke-linejoin="round" stroke-miterlimit="10" stroke-width="1.5"/>
          </g>
          <g id="Grupo_1206570" data-name="Grupo 1206570" transform="translate(11.297 18.544)">
            <path id="Trazado_1049192" data-name="Trazado 1049192" d="M107.393,355.753l-4.687,1.035a12.641,12.641,0,0,0-4.226,1.786" transform="translate(-98.48 -349.905)" fill="none" stroke="#000" stroke-linecap="round" stroke-linejoin="round" stroke-miterlimit="10" stroke-width="1.5"/>
            <path id="Trazado_1049193" data-name="Trazado 1049193" d="M219.541,309.6v1.885a2.961,2.961,0,0,1-.839,2.067" transform="translate(-203.468 -309.604)" fill="none" stroke="#000" stroke-linecap="round" stroke-linejoin="round" stroke-miterlimit="10" stroke-width="1.5"/>
            <path id="Trazado_1049194" data-name="Trazado 1049194" d="M346.168,356.173l4.446.982a12.636,12.636,0,0,1,4.226,1.786" transform="translate(-314.781 -350.272)" fill="none" stroke="#000" stroke-linecap="round" stroke-linejoin="round" stroke-miterlimit="10" stroke-width="1.5"/>
            <path id="Trazado_1049195" data-name="Trazado 1049195" d="M287.758,309.6v1.885a2.961,2.961,0,0,0,.84,2.067" transform="translate(-263.773 -309.604)" fill="none" stroke="#000" stroke-linecap="round" stroke-linejoin="round" stroke-miterlimit="10" stroke-width="1.5"/>
            <line id="Línea_1066" data-name="Línea 1066" y2="9.384" transform="translate(20.029 10.607)" fill="none" stroke="#000" stroke-linecap="round" stroke-linejoin="round" stroke-miterlimit="10" stroke-width="1.5"/>
            <path id="Trazado_1049196" data-name="Trazado 1049196" d="M175.027,336.157l-6.212-5.623,1.644-2.777a2.255,2.255,0,0,1,3.736-.215l5.737,7.556-3.242,1.346A1.576,1.576,0,0,1,175.027,336.157Z" transform="translate(-159.902 -324.491)" fill="none" stroke="#000" stroke-linecap="round" stroke-linejoin="round" stroke-miterlimit="10" stroke-width="1.5"/>
            <path id="Trazado_1049197" data-name="Trazado 1049197" d="M261.447,336.157l6.212-5.623-1.644-2.777a2.255,2.255,0,0,0-3.736-.215l-5.737,7.556,3.242,1.346A1.576,1.576,0,0,0,261.447,336.157Z" transform="translate(-236.513 -324.491)" fill="none" stroke="#000" stroke-linecap="round" stroke-linejoin="round" stroke-miterlimit="10" stroke-width="1.5"/>
          </g>
        </g>
        <g id="Grupo_1206572" data-name="Grupo 1206572" transform="translate(15.874 3.081)">
          <path id="Trazado_1049198" data-name="Trazado 1049198" d="M188.686,37.578a14.206,14.206,0,0,0-22.852,0" transform="translate(-161.645 -31.814)" fill="none" stroke="#000" stroke-linecap="round" stroke-linejoin="round" stroke-miterlimit="10" stroke-width="1.5"/>
          <path id="Trazado_1049199" data-name="Trazado 1049199" d="M332.243,176.492h3.368a2.408,2.408,0,0,1,2.409,2.409v1.043a5.115,5.115,0,0,1-5.115,5.115h-.865" transform="translate(-306.788 -158.159)" fill="none" stroke="#000" stroke-linecap="round" stroke-linejoin="round" stroke-miterlimit="10" stroke-width="1.5"/>
          <path id="Trazado_1049200" data-name="Trazado 1049200" d="M138.754,185.058h-.865a5.115,5.115,0,0,1-5.115-5.115V178.9a2.409,2.409,0,0,1,2.409-2.409h3.571" transform="translate(-132.774 -158.159)" fill="none" stroke="#000" stroke-linecap="round" stroke-linejoin="round" stroke-miterlimit="10" stroke-width="1.5"/>
          <path id="Trazado_1049201" data-name="Trazado 1049201" d="M191.9,140.56q.24-.065.476-.144l2.179-.729a3.551,3.551,0,0,1,4.677,3.367v8.894a9.064,9.064,0,0,1-3.495,7.151l-2.347,1.828a6.175,6.175,0,0,1-7.588,0l-2.347-1.828a9.064,9.064,0,0,1-3.495-7.151v-8.894a3.551,3.551,0,0,1,4.677-3.367l2.179.729q.312.1.629.185" transform="translate(-173.984 -125.855)" fill="none" stroke="#000" stroke-linecap="round" stroke-linejoin="round" stroke-miterlimit="10" stroke-width="1.5"/>
          <path id="Trazado_1049202" data-name="Trazado 1049202" d="M234.988,256.2a5.4,5.4,0,0,0,5.347,0" transform="translate(-222.036 -227.767)" fill="none" stroke="#000" stroke-linecap="round" stroke-linejoin="round" stroke-miterlimit="10" stroke-width="1.5"/>
        </g>
        <g id="Grupo_1206574" data-name="Grupo 1206574" transform="translate(0 0)">
          <path id="Trazado_1049203" data-name="Trazado 1049203" d="M23.58,9.542A10.022,10.022,0,1,0,18.1,27.534a.674.674,0,0,1,.28.041l5.229,1.985a.675.675,0,0,0,.914-.631V24.992a.673.673,0,0,1,.195-.469,9.982,9.982,0,0,0,1.731-11.575" transform="translate(-7.501 -7.5)" fill="none" stroke="#000" stroke-linecap="round" stroke-linejoin="round" stroke-miterlimit="10" stroke-width="1.5"/>
          <path id="Trazado_1049204" data-name="Trazado 1049204" d="M346.17,17.684a10.032,10.032,0,1,1,9.467,9.85.674.674,0,0,0-.28.041l-5.229,1.985a.675.675,0,0,1-.914-.631V24.992a.673.673,0,0,0-.195-.469A9.985,9.985,0,0,1,346.17,17.684Z" transform="translate(-303.253 -7.5)" fill="none" stroke="#000" stroke-linecap="round" stroke-linejoin="round" stroke-miterlimit="10" stroke-width="1.5"/>
          <path id="Trazado_1049205" data-name="Trazado 1049205" d="M55.168,56.136a1.8,1.8,0,0,1-2.547,0l-2.182-2.181-2.182,2.181a1.8,1.8,0,0,1-2.547-2.546l2.182-2.181L45.71,49.229a1.8,1.8,0,0,1,2.547-2.546l2.182,2.181,2.182-2.181a1.8,1.8,0,1,1,2.547,2.546L52.986,51.41l2.182,2.181A1.8,1.8,0,0,1,55.168,56.136Z" transform="translate(-40.407 -41.257)" fill="none" stroke="#000" stroke-linecap="round" stroke-linejoin="round" stroke-miterlimit="10" stroke-width="1.5"/>
          <g id="Grupo_1206573" data-name="Grupo 1206573" transform="translate(46.926 5.831)">
            <path id="Trazado_1049206" data-name="Trazado 1049206" d="M381,62.283l-2.7-2.7a1.63,1.63,0,0,1,0-2.307h0a1.631,1.631,0,0,1,2.306,0l1.551,1.549,4.82-4.832a1.632,1.632,0,0,1,2.308,0h0a1.63,1.63,0,0,1,0,2.3L383.3,62.281A1.631,1.631,0,0,1,381,62.283Z" transform="translate(-377.815 -53.513)" fill="none" stroke="#000" stroke-linecap="round" stroke-linejoin="round" stroke-miterlimit="10" stroke-width="1.5"/>
          </g>
        </g>
      </g>
    </g>
  </g>
</svg>
