<svg xmlns="http://www.w3.org/2000/svg" xmlns:xlink="http://www.w3.org/1999/xlink" width="113" height="113" viewBox="0 0 113 113">
  <defs>
    <filter id="Trazado_982547" x="0" y="0" width="113" height="113" filterUnits="userSpaceOnUse">
      <feOffset dy="3" input="SourceAlpha"/>
      <feGaussianBlur stdDeviation="3" result="blur"/>
      <feFlood flood-opacity="0.161"/>
      <feComposite operator="in" in2="blur"/>
      <feComposite in="SourceGraphic"/>
    </filter>
    <clipPath id="clip-path">
      <path id="path2463" d="M0-682.665H61.031v61.031H0Z" transform="translate(0 682.665)"/>
    </clipPath>
  </defs>
  <g id="Grupo_1206577" data-name="Grupo 1206577" transform="translate(-586.06 -9286.56)">
    <g id="Grupo_1204120" data-name="Grupo 1204120" transform="translate(0 5446.223)">
      <g id="Grupo_1203959" data-name="Grupo 1203959" transform="translate(0 1899.461)">
        <g id="Grupo_1203497" data-name="Grupo 1203497" transform="translate(595.061 1946.875)">
          <g id="Grupo_1172010" data-name="Grupo 1172010" transform="translate(0)">
            <g id="Grupo_1171046" data-name="Grupo 1171046">
              <g id="Grupo_1148525" data-name="Grupo 1148525">
                <g transform="matrix(1, 0, 0, 1, -9, -6)" filter="url(#Trazado_982547)">
                  <g id="Trazado_982547-2" data-name="Trazado 982547" transform="translate(9 6)" fill="#edf3fc">
                    <path d="M 47.5 93.5 C 41.28937149047852 93.5 35.26533508300781 92.28397369384766 29.59518623352051 89.88570404052734 C 24.11771965026855 87.56893157958984 19.19813346862793 84.25196075439453 14.97309303283691 80.02691650390625 C 10.74804019927979 75.80186462402344 7.431066513061523 70.88229370117188 5.114293098449707 65.40481567382812 C 2.716026782989502 59.73468017578125 1.5 53.71062850952148 1.5 47.5 C 1.5 41.28937149047852 2.716026782989502 35.26533508300781 5.114293098449707 29.59518623352051 C 7.431066513061523 24.11771965026855 10.74804019927979 19.19813346862793 14.97309303283691 14.97309303283691 C 19.19813346862793 10.74804019927979 24.11771965026855 7.431066513061523 29.59518623352051 5.114293098449707 C 35.26533508300781 2.716026782989502 41.28937149047852 1.5 47.5 1.5 C 53.71062850952148 1.5 59.73468017578125 2.716026782989502 65.40481567382812 5.114293098449707 C 70.88229370117188 7.431066513061523 75.80186462402344 10.74804019927979 80.02691650390625 14.97309303283691 C 84.25196075439453 19.19813346862793 87.56893157958984 24.11771965026855 89.88570404052734 29.59518623352051 C 92.28397369384766 35.26533508300781 93.5 41.28937149047852 93.5 47.5 C 93.5 53.71062850952148 92.28397369384766 59.73468017578125 89.88570404052734 65.40481567382812 C 87.56893157958984 70.88229370117188 84.25196075439453 75.80186462402344 80.02691650390625 80.02691650390625 C 75.80186462402344 84.25196075439453 70.88229370117188 87.56893157958984 65.40481567382812 89.88570404052734 C 59.73468017578125 92.28397369384766 53.71062850952148 93.5 47.5 93.5 Z" stroke="none"/>
                    <path d="M 47.5 3 C 41.49121475219727 3 35.66376876831055 4.176155090332031 30.17950439453125 6.495796203613281 C 24.88084411621094 8.736953735351562 20.12152099609375 11.94598388671875 16.03375244140625 16.03375244140625 C 11.94598388671875 20.12152099609375 8.736953735351562 24.88084411621094 6.495796203613281 30.17950439453125 C 4.176155090332031 35.66376876831055 3 41.49121475219727 3 47.5 C 3 53.50878524780273 4.176155090332031 59.33623123168945 6.495796203613281 64.82049560546875 C 8.736953735351562 70.11915588378906 11.94598388671875 74.87847900390625 16.03375244140625 78.96624755859375 C 20.12152099609375 83.05401611328125 24.88084411621094 86.26304626464844 30.17950439453125 88.50419616699219 C 35.66376876831055 90.82384490966797 41.49121475219727 92 47.5 92 C 53.50878524780273 92 59.33623123168945 90.82384490966797 64.82049560546875 88.50419616699219 C 70.11915588378906 86.26304626464844 74.87847900390625 83.05401611328125 78.96624755859375 78.96624755859375 C 83.05401611328125 74.87847900390625 86.26304626464844 70.11915588378906 88.50419616699219 64.82049560546875 C 90.82384490966797 59.33623123168945 92 53.50878524780273 92 47.5 C 92 41.49121475219727 90.82384490966797 35.66376876831055 88.50419616699219 30.17950439453125 C 86.26304626464844 24.88084411621094 83.05401611328125 20.12152099609375 78.96624755859375 16.03375244140625 C 74.87847900390625 11.94598388671875 70.11915588378906 8.736953735351562 64.82049560546875 6.495796203613281 C 59.33623123168945 4.176155090332031 53.50878524780273 3 47.5 3 M 47.5 0 C 73.7335205078125 0 95 21.2664794921875 95 47.5 C 95 73.7335205078125 73.7335205078125 95 47.5 95 C 21.2664794921875 95 0 73.7335205078125 0 47.5 C 0 21.2664794921875 21.2664794921875 0 47.5 0 Z" stroke="none" fill="#5692e8"/>
                  </g>
                </g>
              </g>
            </g>
          </g>
        </g>
      </g>
    </g>
    <g id="g2457" transform="translate(612.545 9992.209)">
      <g id="g2459" transform="translate(0 -682.665)">
        <g id="g2461" clip-path="url(#clip-path)">
          <g id="g2467" transform="translate(23.926 36.113)">
            <path id="path2469" d="M-120.938,0a1.5,1.5,0,0,0-1.532,1.5,1.5,1.5,0,0,0-1.5-1.5,1.5,1.5,0,0,0-1.5,1.5A1.5,1.5,0,0,0-127.009,0a1.536,1.536,0,0,0-1.475,1.553V7.529h-2.861A1.467,1.467,0,0,0-132.812,9v.013a1.454,1.454,0,0,0,1.454,1.454,2.873,2.873,0,0,1,2.873,2.873h9.022V1.551A1.536,1.536,0,0,0-120.938,0" transform="translate(132.812 0.003)" fill="#ffdfcf"/>
          </g>
          <g id="g2471" transform="translate(23.926 36.113)">
            <path id="path2473" d="M-135.969-130.327v-11.242a1.537,1.537,0,0,0-1.476-1.553,1.5,1.5,0,0,0-1.532,1.5,1.5,1.5,0,0,0-1.5-1.5,1.5,1.5,0,0,0-1.063.441,1.5,1.5,0,0,0-.44,1.062,1.5,1.5,0,0,0-1.532-1.5,1.537,1.537,0,0,0-1.476,1.553v5.978h-2.861a1.467,1.467,0,0,0-1.467,1.467v.012a1.454,1.454,0,0,0,1.454,1.454,2.866,2.866,0,0,1,2.032.842,2.866,2.866,0,0,1,.841,2.032h8.154" transform="translate(149.318 143.123)" fill="none" stroke="#000" stroke-linecap="round" stroke-linejoin="round" stroke-miterlimit="10" stroke-width="1"/>
          </g>
          <g id="g2475" transform="translate(34.268 37.617)">
            <path id="path2477" d="M0,0V4.759" fill="none" stroke="#000" stroke-linecap="round" stroke-linejoin="round" stroke-miterlimit="10" stroke-width="1"/>
          </g>
          <g id="g2479" transform="translate(31.261 37.617)">
            <path id="path2481" d="M0,0V4.759" fill="none" stroke="#000" stroke-linecap="round" stroke-linejoin="round" stroke-miterlimit="10" stroke-width="1"/>
          </g>
          <path id="path2483" d="M325.054-118.839h-9.022v-10.686h9.022Z" transform="translate(-287.779 178.976)" fill="#7bacdf"/>
          <path id="path2485" d="M319.351-118.839h-3.319v-10.686h3.319Z" transform="translate(-287.779 178.976)" fill="#5f99d7"/>
          <g id="g2487" transform="translate(28.254 49.451)">
            <path id="path2489" d="M0-45.141v-4.432H8.154" transform="translate(0 49.573)" fill="none" stroke="#000" stroke-linecap="round" stroke-linejoin="round" stroke-miterlimit="10" stroke-width="1"/>
          </g>
          <g id="g2491" transform="translate(28.254 60.137)">
            <path id="path2493" d="M-91.885,0h-9.021" transform="translate(100.906)" fill="none" stroke="#000" stroke-linecap="round" stroke-linejoin="round" stroke-miterlimit="10" stroke-width="1"/>
          </g>
          <g id="g2495" transform="translate(31.897 47.551)">
            <path id="path2497" d="M-167.486,0h-5.888a10.556,10.556,0,0,0-10.556,10.556v2.03h27v-2.03A10.556,10.556,0,0,0-167.486,0" transform="translate(183.929)" fill="#faf7f7"/>
          </g>
          <g id="g2499" transform="translate(31.897 47.551)">
            <path id="path2501" d="M-170.925-.061a10.554,10.554,0,0,0-10.22,10.549v2.03h-6.561v-2.03A10.555,10.555,0,0,1-177.15-.067h5.887c.113,0,.225,0,.337.006" transform="translate(187.706 0.067)" fill="#dedbee"/>
          </g>
          <g id="g2503" transform="translate(31.897 47.665)">
            <path id="path2505" d="M-207.2-6.423a10.556,10.556,0,0,1,6.656,9.811v2.03h-27V3.389a10.557,10.557,0,0,1,9.006-10.442" transform="translate(227.545 7.053)" fill="none" stroke="#000" stroke-linecap="round" stroke-linejoin="round" stroke-miterlimit="10" stroke-width="1"/>
          </g>
          <g id="g2507" transform="translate(40.759 45.703)">
            <path id="path2509" d="M-95.694-4.2l.872.642A3.7,3.7,0,0,1-93.371.055l-.638,3.682L-98.242-.2l-4.233,3.933-2.084-3.46a3.7,3.7,0,0,1,.975-4.887" transform="translate(105.089 4.611)" fill="#dedbee"/>
          </g>
          <g id="g2511" transform="translate(39.571 19.566)">
            <path id="path2513" d="M-170.986-33.316v4.435L-183.4-19.289l-4.373-2.054V-33.316a3.27,3.27,0,0,1,3.271-3.271h10.245a3.27,3.27,0,0,1,3.271,3.271" transform="translate(187.773 36.587)" fill="#7a6d79"/>
          </g>
          <g id="g2515" transform="translate(39.571 19.566)">
            <path id="path2517" d="M-104.816,0a3.051,3.051,0,0,0-3.05,3.044c-.008,4.353-.044,11.862-.194,12.082h-6.973c.011-.015-.015-.058-.073-.125V3.271A3.27,3.27,0,0,1-111.836,0Z" transform="translate(115.106 0)" fill="#685e68"/>
          </g>
          <g id="g2519" transform="translate(39.261 27.273)">
            <path id="path2521" d="M-174.144,0V10.475a7.141,7.141,0,0,1-5.482,6.946l-.138.031c-.1.023-.2.043-.3.06l-.117.019-.163.024V20a2.856,2.856,0,0,1-2.547,2.839,2.834,2.834,0,0,1-1.112-.1l-.093-.029a6.031,6.031,0,0,1-4.326-5.785V10.908H-189a2.235,2.235,0,0,1-1.582-.656,2.228,2.228,0,0,1-.656-1.582,2.217,2.217,0,0,1,.31-1.134A2.234,2.234,0,0,1-189,6.434h1.415a1.547,1.547,0,0,0,1.547-1.547v-2.3A2.582,2.582,0,0,1-183.666.01a2.044,2.044,0,0,1,.21-.01Z" transform="translate(191.241 0)" fill="#d78878"/>
          </g>
          <g id="g2523" transform="translate(39.261 27.282)">
            <path id="path2525" d="M-118.3-177.348l-.138.031c-.1.023-.2.043-.3.06l-.117.019-.163.024a7.137,7.137,0,0,1-.937.061,7.1,7.1,0,0,1-1.61-.182v5.41a2.834,2.834,0,0,1-1.112-.1l-.093-.029a6.031,6.031,0,0,1-4.326-5.785v-6.021h-.577a2.235,2.235,0,0,1-1.582-.656,2.228,2.228,0,0,1-.656-1.582,2.216,2.216,0,0,1,.31-1.134,2.234,2.234,0,0,1,1.927-1.1h1.415a1.547,1.547,0,0,0,1.547-1.547v-2.3a2.581,2.581,0,0,1,2.376-2.575v12.112a5.5,5.5,0,0,0,4.04,5.3" transform="translate(129.92 194.76)" fill="#ca6e59"/>
          </g>
          <g id="g2527" transform="translate(45.338 43.745)">
            <path id="path2529" d="M0,0A7.082,7.082,0,0,0,1.822.843a7.154,7.154,0,0,0,2.056.3,7.047,7.047,0,0,0,.937-.062" fill="none" stroke="#000" stroke-linecap="round" stroke-linejoin="round" stroke-miterlimit="10" stroke-width="1"/>
          </g>
          <g id="g2531" transform="translate(39.261 27.272)">
            <path id="path2533" d="M-174.141,0V10.475a7.141,7.141,0,0,1-6.2,7.079V20A2.854,2.854,0,0,1-184,22.742l-.093-.028a6.031,6.031,0,0,1-4.327-5.784V10.908H-189a2.233,2.233,0,0,1-1.581-.655,2.231,2.231,0,0,1-.655-1.581,2.222,2.222,0,0,1,.309-1.134A2.237,2.237,0,0,1-189,6.435h1.416a1.547,1.547,0,0,0,1.547-1.547v-2.3A2.585,2.585,0,0,1-183.454,0Z" transform="translate(191.238)" fill="none" stroke="#000" stroke-linecap="round" stroke-linejoin="round" stroke-miterlimit="10" stroke-width="1"/>
          </g>
          <g id="g2535" transform="translate(54.117 32.722)">
            <path id="path2537" d="M0,0V1.106" fill="none" stroke="#000" stroke-linecap="round" stroke-linejoin="round" stroke-miterlimit="10" stroke-width="1"/>
          </g>
          <g id="g2539" transform="translate(48.904 32.722)">
            <path id="path2541" d="M0,0V1.106" fill="none" stroke="#000" stroke-linecap="round" stroke-linejoin="round" stroke-miterlimit="10" stroke-width="1"/>
          </g>
          <g id="g2543" transform="translate(51.64 32.797)">
            <path id="path2545" d="M0,0A3.645,3.645,0,0,0,1.4,2.87,1,1,0,0,1,.782,4.662" fill="none" stroke="#000" stroke-linecap="round" stroke-linejoin="round" stroke-miterlimit="10" stroke-width="1"/>
          </g>
          <g id="g2547" transform="translate(40.759 45.703)">
            <path id="path2549" d="M-95.694-4.2l.872.642A3.7,3.7,0,0,1-93.371.055l-.638,3.682L-98.242-.2l-4.233,3.933-2.084-3.46a3.7,3.7,0,0,1,.975-4.887" transform="translate(105.089 4.611)" fill="none" stroke="#000" stroke-linecap="round" stroke-linejoin="round" stroke-miterlimit="10" stroke-width="1"/>
          </g>
          <g id="g2551" transform="translate(55.065 20.231)">
            <path id="path2553" d="M0,0A3.265,3.265,0,0,1,1.293,2.606V7.041" fill="none" stroke="#000" stroke-linecap="round" stroke-linejoin="round" stroke-miterlimit="10" stroke-width="1"/>
          </g>
          <g id="g2555" transform="translate(39.57 19.566)">
            <path id="path2557" d="M0-155.263v-11.972a3.272,3.272,0,0,1,3.271-3.271h8.16" transform="translate(0 170.506)" fill="none" stroke="#000" stroke-linecap="round" stroke-linejoin="round" stroke-miterlimit="10" stroke-width="1"/>
          </g>
          <g id="g2559" transform="translate(47.33 29.813)">
            <path id="path2561" d="M0-1.669l2.049-.164" transform="translate(0 1.833)" fill="none" stroke="#000" stroke-linecap="round" stroke-linejoin="round" stroke-miterlimit="10" stroke-width="1"/>
          </g>
          <g id="g2563" transform="translate(53.396 29.813)">
            <path id="path2565" d="M-20.873-1.669l-2.049-.164" transform="translate(22.923 1.833)" fill="none" stroke="#000" stroke-linecap="round" stroke-linejoin="round" stroke-miterlimit="10" stroke-width="1"/>
          </g>
          <g id="g2567" transform="translate(49.027 39.815)">
            <path id="path2569" d="M-28.389-9.185a4.415,4.415,0,0,1-2.787-.9" transform="translate(31.176 10.087)" fill="none" stroke="#000" stroke-linecap="round" stroke-linejoin="round" stroke-miterlimit="10" stroke-width="1"/>
          </g>
          <g id="g2571" transform="translate(2.135 47.551)">
            <path id="path2573" d="M-167.487,0h-5.888A10.556,10.556,0,0,0-183.93,10.556v2.03h27v-2.03A10.556,10.556,0,0,0-167.487,0" transform="translate(183.93)" fill="#7bacdf"/>
          </g>
          <g id="g2575" transform="translate(2.135 47.551)">
            <path id="path2577" d="M-171.132-.073a10.555,10.555,0,0,0-10.2,10.548v2.03h-6.6v-2.03A10.556,10.556,0,0,1-177.378-.08h5.888q.179,0,.358.007" transform="translate(187.933 0.08)" fill="#5f99d7"/>
          </g>
          <g id="g2579" transform="translate(2.135 48.12)">
            <path id="path2581" d="M-72.6,0a10.561,10.561,0,0,0-7.128,9.987v2.03h4.517" transform="translate(79.733)" fill="none" stroke="#000" stroke-linecap="round" stroke-linejoin="round" stroke-miterlimit="10" stroke-width="1"/>
          </g>
          <g id="g2583" transform="translate(10.823 47.706)">
            <path id="path2585" d="M-97.4,0a10.556,10.556,0,0,1,8.748,10.4v2.03h-18.31" transform="translate(106.96)" fill="none" stroke="#000" stroke-linecap="round" stroke-linejoin="round" stroke-miterlimit="10" stroke-width="1"/>
          </g>
          <g id="g2587" transform="translate(9.22 45.703)">
            <path id="path2589" d="M-95.695-4.2l.872.642A3.7,3.7,0,0,1-93.371.055l-.639,3.682L-98.242-.2l-4.233,3.933-2.084-3.46a3.7,3.7,0,0,1,.975-4.887" transform="translate(105.09 4.611)" fill="#5f99d7"/>
          </g>
          <g id="g2591" transform="translate(7.722 26.999)">
            <path id="path2593" d="M-174.141,0V10.749a7.141,7.141,0,0,1-5.483,6.946,6.54,6.54,0,0,1-.721.134v2.45A2.854,2.854,0,0,1-184,23.015l-.093-.028a6.031,6.031,0,0,1-4.327-5.784V11.181H-189a2.233,2.233,0,0,1-1.581-.655,2.231,2.231,0,0,1-.655-1.581,2.229,2.229,0,0,1,.382-1.251c.211-.312-.142-2.183.2-2.356.3-.156.355.036.721.036h.577L-188.425,0Z" transform="translate(191.238)" fill="#ffdfcf"/>
          </g>
          <g id="g2595" transform="translate(7.722 26.999)">
            <path id="path2597" d="M-118.3-180.228a6.568,6.568,0,0,1-.721.133,7.026,7.026,0,0,1-.937.062,7.1,7.1,0,0,1-1.611-.183v5.411a2.839,2.839,0,0,1-1.112-.1l-.093-.028a6.031,6.031,0,0,1-4.327-5.784v-6.022h-.577a2.233,2.233,0,0,1-1.581-.655,2.231,2.231,0,0,1-.655-1.581,2.228,2.228,0,0,1,.382-1.251c.211-.312-.142-2.183.2-2.356.3-.156.355.036.721.036h.577l.937-5.374h4.071l.691,1.659v10.736a5.5,5.5,0,0,0,4.039,5.3" transform="translate(129.91 197.922)" fill="#ffcebf"/>
          </g>
          <g id="g2599" transform="translate(13.799 43.745)">
            <path id="path2601" d="M0,0A7.081,7.081,0,0,0,1.822.843a7.154,7.154,0,0,0,2.056.3,7.049,7.049,0,0,0,.937-.062" fill="none" stroke="#000" stroke-linecap="round" stroke-linejoin="round" stroke-miterlimit="10" stroke-width="1"/>
          </g>
          <g id="g2603" transform="translate(5.172 19.197)">
            <path id="path2605" d="M-255.063-55.8a2.27,2.27,0,0,1-1.02,1.9A19.462,19.462,0,0,1-270.331-51l-1.308-.241-.6,2.643a2.346,2.346,0,0,1-2.288,1.829h-.8a2.233,2.233,0,0,0-1.926,1.1h0l-.757-.757a7.171,7.171,0,0,1-2.1-5.074,7.159,7.159,0,0,1,.213-1.733,7.176,7.176,0,0,1,6.956-5.44,7.207,7.207,0,0,1,.923.06,17.713,17.713,0,0,0,9.819-1.546l2.005-.946a1.867,1.867,0,0,1,.792-.176,1.877,1.877,0,0,1,1.632.95,1.875,1.875,0,0,1-.673,2.539,2.256,2.256,0,0,1,1.1-.284,2.271,2.271,0,0,1,1.989,1.169,2.266,2.266,0,0,1,.286,1.1" transform="translate(280.105 61.279)" fill="#7a6d79"/>
          </g>
          <g id="g2607" transform="translate(5.172 21.805)">
            <path id="path2609" d="M-52.873-55.414a7.159,7.159,0,0,0-.213,1.733,7.17,7.17,0,0,0,1.594,4.51,2.349,2.349,0,0,1-.991.219h-.8a2.234,2.234,0,0,0-1.926,1.1h0l-.757-.757a7.172,7.172,0,0,1-2.1-5.074,7.158,7.158,0,0,1,.213-1.733,7.176,7.176,0,0,1,6.956-5.44,7.2,7.2,0,0,1,.923.06,17.6,17.6,0,0,0,2.361.144,7.177,7.177,0,0,0-5.262,5.236" transform="translate(58.064 60.855)" fill="#685e68"/>
          </g>
          <g id="g2611" transform="translate(7.722 28.73)">
            <path id="path2613" d="M-174.141,0V9.018a7.141,7.141,0,0,1-6.2,7.079v2.45A2.854,2.854,0,0,1-184,21.284l-.093-.028a6.031,6.031,0,0,1-4.327-5.784V9.45H-189a2.232,2.232,0,0,1-1.581-.655,2.23,2.23,0,0,1-.655-1.581,2.224,2.224,0,0,1,.309-1.135A2.237,2.237,0,0,1-189,4.977h.577" transform="translate(191.238)" fill="none" stroke="#000" stroke-linecap="round" stroke-linejoin="round" stroke-miterlimit="10" stroke-width="1"/>
          </g>
          <g id="g2615" transform="translate(5.172 19.197)">
            <path id="path2617" d="M-54.628-147.791h.218a2.345,2.345,0,0,0,2.287-1.828l.6-2.644,1.308.241a19.456,19.456,0,0,0,14.248-2.9,2.274,2.274,0,0,0,.734-3,2.274,2.274,0,0,0-3.158-.845l-.87.522.87-.522a1.876,1.876,0,0,0,.742-2.579,1.876,1.876,0,0,0-2.424-.774l-2.006.946a17.715,17.715,0,0,1-9.818,1.545,7.174,7.174,0,0,0-7.878,5.381,7.173,7.173,0,0,0,1.888,6.807l.758.758" transform="translate(59.991 162.301)" fill="none" stroke="#000" stroke-linecap="round" stroke-linejoin="round" stroke-miterlimit="10" stroke-width="1"/>
          </g>
          <g id="g2619" transform="translate(22.578 32.722)">
            <path id="path2621" d="M0,0V1.106" fill="none" stroke="#000" stroke-linecap="round" stroke-linejoin="round" stroke-miterlimit="10" stroke-width="1"/>
          </g>
          <g id="g2623" transform="translate(17.364 32.722)">
            <path id="path2625" d="M0,0V1.106" fill="none" stroke="#000" stroke-linecap="round" stroke-linejoin="round" stroke-miterlimit="10" stroke-width="1"/>
          </g>
          <g id="g2627" transform="translate(20.101 29.728)">
            <path id="path2629" d="M0,0V3.069a3.645,3.645,0,0,0,1.4,2.87,1,1,0,0,1,.092,1.5,1,1,0,0,1-.709.294" fill="none" stroke="#000" stroke-linecap="round" stroke-linejoin="round" stroke-miterlimit="10" stroke-width="1"/>
          </g>
          <g id="g2631" transform="translate(9.22 45.703)">
            <path id="path2633" d="M-95.695-4.2l.872.642A3.7,3.7,0,0,1-93.371.055l-.639,3.682L-98.242-.2l-4.233,3.933-2.084-3.46a3.7,3.7,0,0,1,.975-4.887" transform="translate(105.09 4.611)" fill="none" stroke="#000" stroke-linecap="round" stroke-linejoin="round" stroke-miterlimit="10" stroke-width="1"/>
          </g>
          <g id="g2635" transform="translate(14.757 38.503)">
            <path id="path2637" d="M-27.209-31.312H-28.37a1.51,1.51,0,0,1-1.51-1.51v-.055a1.51,1.51,0,0,1,1.51-1.51h1.162a1.51,1.51,0,0,1,1.51,1.51v.055a1.51,1.51,0,0,1-1.51,1.51" transform="translate(29.88 34.387)" fill="#685e68"/>
          </g>
          <g id="g2639" transform="translate(14.757 38.503)">
            <path id="path2641" d="M-27.209-31.312H-28.37a1.51,1.51,0,0,1-1.51-1.51v-.055a1.51,1.51,0,0,1,1.51-1.51h1.162a1.51,1.51,0,0,1,1.51,1.51v.055A1.51,1.51,0,0,1-27.209-31.312Z" transform="translate(29.88 34.387)" fill="none" stroke="#000" stroke-linecap="round" stroke-linejoin="round" stroke-miterlimit="10" stroke-width="1"/>
          </g>
          <g id="g2643" transform="translate(16.067 50.116)">
            <path id="path2645" d="M0,0V10.02" fill="none" stroke="#000" stroke-linecap="round" stroke-linejoin="round" stroke-miterlimit="10" stroke-width="1"/>
          </g>
          <g id="g2647" transform="translate(3.552 0.894)">
            <path id="path2649" d="M-166.074,0H-180a2.378,2.378,0,0,0-2.378,2.378v8.629A2.378,2.378,0,0,0-180,13.385h5.187L-169.8,17.9a.816.816,0,0,0,1.351-.738l-.618-3.773h2.995a2.378,2.378,0,0,0,2.378-2.378V2.378A2.378,2.378,0,0,0-166.074,0" transform="translate(182.378)" fill="#bbec6c"/>
          </g>
          <g id="g2651" transform="translate(3.552 0.894)">
            <path id="path2653" d="M-190.291-86.652v2.5a2.378,2.378,0,0,1-2.378,2.378h-2.994l.619,3.773a.816.816,0,0,1-1.351.739l-5.013-4.512h-5.187a2.378,2.378,0,0,1-2.378-2.378v-8.629a2.378,2.378,0,0,1,2.378-2.378h13.926a2.378,2.378,0,0,1,2.378,2.378v1.962" transform="translate(208.973 95.16)" fill="none" stroke="#000" stroke-linecap="round" stroke-linejoin="round" stroke-miterlimit="10" stroke-width="1"/>
          </g>
          <g id="g2655" transform="translate(7.252 4.302)">
            <path id="path2657" d="M0,0H9.772" fill="none" stroke="#000" stroke-linecap="round" stroke-linejoin="round" stroke-miterlimit="10" stroke-width="1"/>
          </g>
          <g id="g2659" transform="translate(7.252 7.473)">
            <path id="path2661" d="M0,0H9.772" fill="none" stroke="#000" stroke-linecap="round" stroke-linejoin="round" stroke-miterlimit="10" stroke-width="1"/>
          </g>
          <g id="g2663" transform="translate(7.252 10.644)">
            <path id="path2665" d="M0,0H6.782" fill="none" stroke="#000" stroke-linecap="round" stroke-linejoin="round" stroke-miterlimit="10" stroke-width="1"/>
          </g>
        </g>
      </g>
    </g>
  </g>
</svg>
