<svg xmlns="http://www.w3.org/2000/svg" xmlns:xlink="http://www.w3.org/1999/xlink" width="113" height="113" viewBox="0 0 113 113">
  <defs>
    <filter id="Trazado_982547" x="0" y="0" width="113" height="113" filterUnits="userSpaceOnUse">
      <feOffset dy="3" input="SourceAlpha"/>
      <feGaussianBlur stdDeviation="3" result="blur"/>
      <feFlood flood-opacity="0.161"/>
      <feComposite operator="in" in2="blur"/>
      <feComposite in="SourceGraphic"/>
    </filter>
  </defs>
  <g id="Grupo_1206584" data-name="Grupo 1206584" transform="translate(-902 -9286.223)">
    <g id="Grupo_1204121" data-name="Grupo 1204121" transform="translate(0 5446.223)">
      <g id="Grupo_1203960" data-name="Grupo 1203960" transform="translate(0.44 1899.125)">
        <g id="Grupo_1203499" data-name="Grupo 1203499" transform="translate(0 -197.72)">
          <g id="Grupo_1202591" data-name="Grupo 1202591" transform="translate(910.561 2144.596)">
            <g id="Grupo_1172010" data-name="Grupo 1172010" transform="translate(0)">
              <g id="Grupo_1171046" data-name="Grupo 1171046">
                <g id="Grupo_1148525" data-name="Grupo 1148525">
                  <g transform="matrix(1, 0, 0, 1, -9, -6)" filter="url(#Trazado_982547)">
                    <g id="Trazado_982547-2" data-name="Trazado 982547" transform="translate(9 6)" fill="#edf3fc">
                      <path d="M 47.5 93.5 C 41.28937149047852 93.5 35.26533508300781 92.28397369384766 29.59518623352051 89.88570404052734 C 24.11771965026855 87.56893157958984 19.19813346862793 84.25196075439453 14.97309303283691 80.02691650390625 C 10.74804019927979 75.80186462402344 7.431066513061523 70.88229370117188 5.114293098449707 65.40481567382812 C 2.716026782989502 59.73468017578125 1.5 53.71062850952148 1.5 47.5 C 1.5 41.28937149047852 2.716026782989502 35.26533508300781 5.114293098449707 29.59518623352051 C 7.431066513061523 24.11771965026855 10.74804019927979 19.19813346862793 14.97309303283691 14.97309303283691 C 19.19813346862793 10.74804019927979 24.11771965026855 7.431066513061523 29.59518623352051 5.114293098449707 C 35.26533508300781 2.716026782989502 41.28937149047852 1.5 47.5 1.5 C 53.71062850952148 1.5 59.73468017578125 2.716026782989502 65.40481567382812 5.114293098449707 C 70.88229370117188 7.431066513061523 75.80186462402344 10.74804019927979 80.02691650390625 14.97309303283691 C 84.25196075439453 19.19813346862793 87.56893157958984 24.11771965026855 89.88570404052734 29.59518623352051 C 92.28397369384766 35.26533508300781 93.5 41.28937149047852 93.5 47.5 C 93.5 53.71062850952148 92.28397369384766 59.73468017578125 89.88570404052734 65.40481567382812 C 87.56893157958984 70.88229370117188 84.25196075439453 75.80186462402344 80.02691650390625 80.02691650390625 C 75.80186462402344 84.25196075439453 70.88229370117188 87.56893157958984 65.40481567382812 89.88570404052734 C 59.73468017578125 92.28397369384766 53.71062850952148 93.5 47.5 93.5 Z" stroke="none"/>
                      <path d="M 47.5 3 C 41.49121475219727 3 35.66376876831055 4.176155090332031 30.17950439453125 6.495796203613281 C 24.88084411621094 8.736953735351562 20.12152099609375 11.94598388671875 16.03375244140625 16.03375244140625 C 11.94598388671875 20.12152099609375 8.736953735351562 24.88084411621094 6.495796203613281 30.17950439453125 C 4.176155090332031 35.66376876831055 3 41.49121475219727 3 47.5 C 3 53.50878524780273 4.176155090332031 59.33623123168945 6.495796203613281 64.82049560546875 C 8.736953735351562 70.11915588378906 11.94598388671875 74.87847900390625 16.03375244140625 78.96624755859375 C 20.12152099609375 83.05401611328125 24.88084411621094 86.26304626464844 30.17950439453125 88.50419616699219 C 35.66376876831055 90.82384490966797 41.49121475219727 92 47.5 92 C 53.50878524780273 92 59.33623123168945 90.82384490966797 64.82049560546875 88.50419616699219 C 70.11915588378906 86.26304626464844 74.87847900390625 83.05401611328125 78.96624755859375 78.96624755859375 C 83.05401611328125 74.87847900390625 86.26304626464844 70.11915588378906 88.50419616699219 64.82049560546875 C 90.82384490966797 59.33623123168945 92 53.50878524780273 92 47.5 C 92 41.49121475219727 90.82384490966797 35.66376876831055 88.50419616699219 30.17950439453125 C 86.26304626464844 24.88084411621094 83.05401611328125 20.12152099609375 78.96624755859375 16.03375244140625 C 74.87847900390625 11.94598388671875 70.11915588378906 8.736953735351562 64.82049560546875 6.495796203613281 C 59.33623123168945 4.176155090332031 53.50878524780273 3 47.5 3 M 47.5 0 C 73.7335205078125 0 95 21.2664794921875 95 47.5 C 95 73.7335205078125 73.7335205078125 95 47.5 95 C 21.2664794921875 95 0 73.7335205078125 0 47.5 C 0 21.2664794921875 21.2664794921875 0 47.5 0 Z" stroke="none" fill="#5692e8"/>
                    </g>
                  </g>
                </g>
              </g>
            </g>
          </g>
        </g>
      </g>
    </g>
    <g id="clients_3696492" transform="translate(923.171 9305.293)">
      <g id="Grupo_1206580" data-name="Grupo 1206580" transform="translate(4.457 4.128)">
        <path id="Trazado_1049207" data-name="Trazado 1049207" d="M99.414,94.379v12.7H96.122a4.105,4.105,0,0,0-1.79.412l-2,.973a4.115,4.115,0,0,1-1.79.412H79.278a1.816,1.816,0,0,1-1.715-1.227H75.88a4.028,4.028,0,0,1-2.6-.955,4.009,4.009,0,0,0-2.6-.957h-.108v-12.7h1.947a4.1,4.1,0,0,0,2.923-1.227l.992-1.01a4.094,4.094,0,0,1,2.923-1.225h6.4a2.871,2.871,0,0,1,1.723.578h3.634a3.2,3.2,0,0,1,2.567,1.288L94.9,93.088a3.2,3.2,0,0,0,2.567,1.29h1.948Z" transform="translate(-54.433 -68.587)" fill="#ffb69f"/>
        <g id="Grupo_1206578" data-name="Grupo 1206578" transform="translate(2.064 0)">
          <path id="Trazado_1049208" data-name="Trazado 1049208" d="M70.683,46.012a2.535,2.535,0,0,0-.407-.291l-2.187-1.266a26.419,26.419,0,0,0,.4-14.2c-.121-.482-.254-.962-.4-1.434l2.187-1.266a2.512,2.512,0,0,0,.919-3.431l-3.242-5.616a2.508,2.508,0,0,0-3.431-.919l-2.2,1.268a26.2,26.2,0,0,0-13.531-7.813V8.511A2.511,2.511,0,0,0,46.283,6H39.8a2.511,2.511,0,0,0-2.511,2.511v2.537a26.2,26.2,0,0,0-13.531,7.813l-2.2-1.268a2.508,2.508,0,0,0-3.431.919l-3.242,5.616a2.514,2.514,0,0,0,.708,3.295q.1.072.211.136l2.187,1.266-.03.1,7.183-.023c.224-.515.467-1.02.733-1.509a19.492,19.492,0,1,1,.176,18.821q-.414-.735-.766-1.507l-7.695-.018L15.8,45.72a2.433,2.433,0,0,0-.585.467,2.509,2.509,0,0,0-.334,2.963l3.242,5.616a2.508,2.508,0,0,0,3.431.919l2.2-1.268A26.2,26.2,0,0,0,37.287,62.23v2.537A2.511,2.511,0,0,0,39.8,67.278h6.484a2.511,2.511,0,0,0,2.511-2.511V62.23a26.2,26.2,0,0,0,13.531-7.813l2.2,1.268a2.508,2.508,0,0,0,3.431-.919L71.2,49.151a2.514,2.514,0,0,0-.512-3.139Z" transform="translate(-14.548 -6)" fill="#72c2e9"/>
        </g>
        <g id="Grupo_1206579" data-name="Grupo 1206579" transform="translate(0 21.39)">
          <path id="Trazado_1049209" data-name="Trazado 1049209" d="M188.085,118.3l-1.75.005h-.148a.753.753,0,0,1-.756-.753v-14.31a.753.753,0,0,1,.756-.753l1.632.005,1.607,0A19.523,19.523,0,0,1,188.085,118.3Z" transform="translate(-140.451 -99.647)" fill="#f0c020"/>
          <path id="Trazado_1049210" data-name="Trazado 1049210" d="M192.122,102.513a19.523,19.523,0,0,1-1.341,15.8l-1.75.005c.153-.241.294-.485.432-.733a18.035,18.035,0,0,0,1.236-14.581c-.058-.168-.118-.334-.183-.5Z" transform="translate(-143.147 -99.662)" fill="#e8a61f"/>
          <path id="Trazado_1049211" data-name="Trazado 1049211" d="M233.248,102.6v15.734l-1.032,0-1.881.005a2.536,2.536,0,0,0-.407-.291l-2.187-1.266a26.418,26.418,0,0,0,.4-14.2l1.552.005Z" transform="translate(-172.135 -99.722)" fill="#f0c020"/>
          <path id="Trazado_1049212" data-name="Trazado 1049212" d="M232.215,118.339l-1.881.005a2.536,2.536,0,0,0-.407-.291l-2.187-1.266a26.418,26.418,0,0,0,.4-14.2l1.552.005a27.964,27.964,0,0,1-.181,13.476l1.17.678A3.965,3.965,0,0,1,232.215,118.339Z" transform="translate(-172.135 -99.722)" fill="#e8a61f"/>
          <path id="Trazado_1049213" data-name="Trazado 1049213" d="M18.921,91.338q-.109-.064-.211-.136l10.284-.033c-.266.49-.51.995-.733,1.509l-7.183.023.03-.1Z" transform="translate(-15.601 -91.17)" fill="#4ba5c8"/>
          <path id="Trazado_1049214" data-name="Trazado 1049214" d="M28.054,161.564l-10.834-.023a2.433,2.433,0,0,1,.585-.467l1.788-1.035,7.695.018Q27.639,160.83,28.054,161.564Z" transform="translate(-14.485 -142.744)" fill="#4ba5c8"/>
          <path id="Trazado_1049215" data-name="Trazado 1049215" d="M22.463,97.9v14.311a.753.753,0,0,1-.755.753l-2.575-.006-7.695-.018-5.108-.013V97.194l5.477-.015,7.183-.023,2.718-.008a.753.753,0,0,1,.756.753Z" transform="translate(-6.33 -95.647)" fill="#fc5d3d"/>
        </g>
      </g>
      <g id="Grupo_1206583" data-name="Grupo 1206583" transform="translate(12.992 5.035)">
        <g id="Grupo_1206581" data-name="Grupo 1206581" transform="translate(38.671)">
          <path id="Trazado_1049216" data-name="Trazado 1049216" d="M199.666,12.816c-1.028-.34-2.09-.637-2.686-3.2-.549,2.365-1.429,2.789-2.686,3.2,2.051.678,2.36,1.8,2.686,3.2C197.542,13.6,198.472,13.21,199.666,12.816Z" transform="translate(-194.294 -9.611)" fill="#f0c020"/>
        </g>
        <g id="Grupo_1206582" data-name="Grupo 1206582" transform="translate(0 53.055)">
          <path id="Trazado_1049217" data-name="Trazado 1049217" d="M45.685,224.073c-1.028-.34-2.09-.637-2.686-3.2-.549,2.365-1.429,2.789-2.686,3.2,2.051.678,2.36,1.8,2.686,3.2C43.561,224.855,44.491,224.467,45.685,224.073Z" transform="translate(-40.313 -220.868)" fill="#f0c020"/>
        </g>
      </g>
      <path id="Trazado_1049218" data-name="Trazado 1049218" d="M25.569,116.711h0l-8.05-.019a.628.628,0,0,1,0-1.256h0l7.42.017V105.3a.628.628,0,1,1,1.256,0v10.786A.628.628,0,0,1,25.569,116.711Zm-10.561-.024h-.551a.628.628,0,0,1,0-1.256h.551a.628.628,0,0,1,0,1.256Z" transform="translate(-7.49 -75.761)" fill="#ffcbc3"/>
      <path id="Trazado_1049219" data-name="Trazado 1049219" d="M79.176,102.072a22.714,22.714,0,0,1-13.445-4.36.628.628,0,1,1,.738-1.015A21.642,21.642,0,0,0,94.478,63.874a.628.628,0,1,1,.888-.888,22.9,22.9,0,0,1-16.19,39.086ZM63.732,96.08c-.251-.23-.5-.47-.746-.714a.628.628,0,1,1,.888-.888c.231.231.468.458.706.675a.628.628,0,1,1-.848.926Z" transform="translate(-44.163 -44.409)" fill="#c5e5fe"/>
      <circle id="Elipse_12952" data-name="Elipse 12952" cx="0.628" cy="0.628" r="0.628" transform="translate(28.921 24.488)"/>
      <path id="Trazado_1049220" data-name="Trazado 1049220" d="M19.962,42.084a.126.126,0,0,1-.126.126L4.459,42.172h0a.628.628,0,0,0,0,1.256l2.818.007a3,3,0,0,0-.543.456,3.139,3.139,0,0,0-.417,3.7l3.245,5.616a3.138,3.138,0,0,0,4.287,1.148l1.768-1.02a26.757,26.757,0,0,0,13.019,7.519v2.04a3.144,3.144,0,0,0,3.139,3.139h6.484a3.144,3.144,0,0,0,3.139-3.139V60.856a26.76,26.76,0,0,0,13.019-7.519l1.768,1.02a3.138,3.138,0,0,0,4.287-1.148l3.242-5.616a3.126,3.126,0,0,0,.157-2.828l1.7,0a.628.628,0,0,0,0-1.256h0l-2.7.007a3.372,3.372,0,0,0-.309-.208l-1.758-1.015a27.064,27.064,0,0,0,.45-13.274l4.312.011h0a.628.628,0,0,0,0-1.256l-4.621-.012c-.046-.173-.093-.345-.142-.514l1.755-1.017a3.143,3.143,0,0,0,1.15-4.287l-3.245-5.616a3.134,3.134,0,0,0-4.289-1.147L54.414,16.2a26.808,26.808,0,0,0-3.192-2.843.642.642,0,0,0-.879.121.624.624,0,0,0,.12.879,26.062,26.062,0,0,1,3.373,3.061.64.64,0,0,0,.776.118l2.2-1.269a1.88,1.88,0,0,1,2.572.691l3.242,5.616a1.882,1.882,0,0,1-.688,2.572l-2.187,1.268a.625.625,0,0,0-.287.731,25.757,25.757,0,0,1,0,15.257.622.622,0,0,0,.287.728l2.187,1.266a1.883,1.883,0,0,1,.688,2.574L59.384,52.58a1.886,1.886,0,0,1-2.574.688L54.612,52a.643.643,0,0,0-.776.116,25.455,25.455,0,0,1-13.208,7.627.624.624,0,0,0-.489.613v2.537a1.891,1.891,0,0,1-1.884,1.884H31.771a1.891,1.891,0,0,1-1.884-1.884V60.358a.623.623,0,0,0-.49-.613A25.454,25.454,0,0,1,16.19,52.118.644.644,0,0,0,15.414,52l-2.2,1.266a1.881,1.881,0,0,1-2.572-.688L7.4,46.965a1.882,1.882,0,0,1,.686-2.571l1.644-.953,7.132.017a20.146,20.146,0,0,0,21.8,11.1.627.627,0,0,0-.229-1.233,19.243,19.243,0,0,1-3.426.309A18.9,18.9,0,0,1,18.269,43.462l1.567,0a1.38,1.38,0,0,0,1.381-1.381v-.135a3.373,3.373,0,0,1,1.677.765,4.659,4.659,0,0,0,3.009,1.1h1.282A2.44,2.44,0,0,0,29.3,45.044H40.565a4.765,4.765,0,0,0,2.065-.475l2-.973a3.493,3.493,0,0,1,1.516-.349h2.662v.176a1.38,1.38,0,0,0,1.381,1.381h0l.791,0a19.068,19.068,0,0,1-7.932,7.036.627.627,0,0,0,.535,1.135A20.124,20.124,0,1,0,16.71,26.4l-6.416.019c-.058-.036-2.144-1.242-2.2-1.276A1.884,1.884,0,0,1,7.4,22.569l3.24-5.616a1.884,1.884,0,0,1,2.574-.691l2.2,1.269a.641.641,0,0,0,.776-.118A25.467,25.467,0,0,1,29.4,9.789a.624.624,0,0,0,.49-.613V6.639a1.891,1.891,0,0,1,1.884-1.884h6.484a1.891,1.891,0,0,1,1.884,1.884V9.176a.624.624,0,0,0,.489.613,25.427,25.427,0,0,1,5.668,2,.641.641,0,0,0,.842-.289.63.63,0,0,0-.287-.839l0,0a26.908,26.908,0,0,0-5.455-1.976V6.639A3.143,3.143,0,0,0,38.255,3.5H31.771a3.143,3.143,0,0,0-3.139,3.139V8.678A26.772,26.772,0,0,0,15.612,16.2l-1.768-1.017a3.137,3.137,0,0,0-4.289,1.147L6.313,21.941a3.143,3.143,0,0,0,1.148,4.287l.343.2-3.349.01a.628.628,0,0,0,0,1.256h0l15.377-.045h0a.126.126,0,0,1,.126.126V42.084Zm26.184-.092a4.75,4.75,0,0,0-2.065.475l-2,.972a3.505,3.505,0,0,1-1.517.349H29.3a1.181,1.181,0,0,1-1.18-1.258,1.22,1.22,0,0,1,1.262-1.111H35.92a.628.628,0,0,0,0-1.256c-12.671,0-7.8,0-8.955,0a1.185,1.185,0,0,1,.009-2.369h8.8a.628.628,0,1,0,0-1.256h-9.91a1.185,1.185,0,0,1,0-2.37c4.234,0-1.944,0,9.911,0a.628.628,0,1,0,0-1.256c-11.188,0-6.888,0-7.909,0a1.185,1.185,0,0,1,.012-2.369h7.879l.673,1.013a2.465,2.465,0,1,0,4.11-2.724L38.87,26.321h2.261A2.6,2.6,0,0,1,43.2,27.358L44.421,29a3.845,3.845,0,0,0,3.069,1.542h1.319V41.992H46.146Zm5.566,1.553-1.523,0a.125.125,0,0,1-.125-.126V29.113a.126.126,0,0,1,.126-.126l2.785.007A18.877,18.877,0,0,1,51.712,43.546ZM19.837,26.392h0L18.1,26.4a18.87,18.87,0,0,1,34.42,1.341l-2.331-.006h0a1.381,1.381,0,0,0-1.381,1.381v.176H47.49a2.588,2.588,0,0,1-2.064-1.037L44.2,26.607a3.847,3.847,0,0,0-3.071-1.542H37.7a3.489,3.489,0,0,0-1.919-.578H32.06a.628.628,0,0,0,0,1.256h3.717a2.221,2.221,0,0,1,1.343.452l0,0a2.222,2.222,0,0,1,.536.569l.008.012L39.5,29.531a1.21,1.21,0,0,1-2.017,1.337l-.86-1.3a.628.628,0,0,0-.523-.281H27.879a2.44,2.44,0,0,0-2.13,3.626,2.441,2.441,0,0,0-.8,4.7,2.44,2.44,0,0,0,2.024,3.8h.2a2.368,2.368,0,0,0-.308,1.036c0,.035,0,.07,0,.1H25.9a3.4,3.4,0,0,1-2.2-.8,4.632,4.632,0,0,0-2.491-1.074V29.207h1.319a4.753,4.753,0,0,0,3.37-1.416,9.362,9.362,0,0,1,1.592-1.5.632.632,0,0,0,.191-.869.643.643,0,0,0-.869-.188,10.151,10.151,0,0,0-1.811,1.675,3.487,3.487,0,0,1-2.474,1.04H21.218v-.178a1.381,1.381,0,0,0-1.381-1.382Z" transform="translate(0)"/>
      <path id="Trazado_1049221" data-name="Trazado 1049221" d="M180.379,36.868a.628.628,0,1,0,.864-.2A.627.627,0,0,0,180.379,36.868Z" transform="translate(-132.141 -24.764)"/>
      <path id="Trazado_1049222" data-name="Trazado 1049222" d="M149.722,199.441a.628.628,0,1,0,.789.4A.634.634,0,0,0,149.722,199.441Z" transform="translate(-108.928 -146.71)"/>
      <path id="Trazado_1049223" data-name="Trazado 1049223" d="M192.23,11.54c1.769.585,1.969,1.446,2.271,2.75a.628.628,0,0,0,1.223,0c.5-2.166,1.244-2.411,2.271-2.75a.628.628,0,0,0,0-1.192c-.983-.325-1.757-.532-2.272-2.751a.628.628,0,0,0-1.223,0c-.5,2.166-1.245,2.411-2.272,2.75A.628.628,0,0,0,192.23,11.54Zm2.885-1.918a3.5,3.5,0,0,0,1.145,1.329,3.4,3.4,0,0,0-1.133,1.282,3.551,3.551,0,0,0-1.2-1.274A3.4,3.4,0,0,0,195.115,9.622Z" transform="translate(-140.764 -2.705)"/>
      <path id="Trazado_1049224" data-name="Trazado 1049224" d="M40.52,225.547a.628.628,0,0,0,1.224,0c.5-2.166,1.244-2.411,2.271-2.75a.628.628,0,0,0,0-1.192c-.983-.325-1.757-.532-2.272-2.751a.628.628,0,0,0-1.223,0c-.5,2.166-1.245,2.411-2.272,2.75a.628.628,0,0,0,0,1.192C40.018,223.381,40.218,224.243,40.52,225.547Zm.614-4.668a3.5,3.5,0,0,0,1.145,1.329,3.4,3.4,0,0,0-1.133,1.282,3.551,3.551,0,0,0-1.2-1.274A3.4,3.4,0,0,0,41.134,220.879Z" transform="translate(-25.454 -160.906)"/>
    </g>
  </g>
</svg>
