<svg xmlns="http://www.w3.org/2000/svg" xmlns:xlink="http://www.w3.org/1999/xlink" width="113" height="113" viewBox="0 0 113 113">
  <defs>
    <filter id="Trazado_982547" x="0" y="0" width="113" height="113" filterUnits="userSpaceOnUse">
      <feOffset dy="3" input="SourceAlpha"/>
      <feGaussianBlur stdDeviation="3" result="blur"/>
      <feFlood flood-opacity="0.161"/>
      <feComposite operator="in" in2="blur"/>
      <feComposite in="SourceGraphic"/>
    </filter>
  </defs>
  <g id="Grupo_1206586" data-name="Grupo 1206586" transform="translate(-1217 -9286.56)">
    <g id="Grupo_1204122" data-name="Grupo 1204122" transform="translate(0 5446.223)">
      <g id="Grupo_1203961" data-name="Grupo 1203961" transform="translate(0.44 1899.461)">
        <g id="Grupo_1203500" data-name="Grupo 1203500" transform="translate(0 -197.72)">
          <g id="Grupo_1202592" data-name="Grupo 1202592" transform="translate(1225.561 2144.596)">
            <g id="Grupo_1172010" data-name="Grupo 1172010" transform="translate(0)">
              <g id="Grupo_1171046" data-name="Grupo 1171046">
                <g id="Grupo_1148525" data-name="Grupo 1148525">
                  <g transform="matrix(1, 0, 0, 1, -9, -6)" filter="url(#Trazado_982547)">
                    <g id="Trazado_982547-2" data-name="Trazado 982547" transform="translate(9 6)" fill="#edf3fc">
                      <path d="M 47.5 93.5 C 41.28937149047852 93.5 35.26533508300781 92.28397369384766 29.59518623352051 89.88570404052734 C 24.11771965026855 87.56893157958984 19.19813346862793 84.25196075439453 14.97309303283691 80.02691650390625 C 10.74804019927979 75.80186462402344 7.431066513061523 70.88229370117188 5.114293098449707 65.40481567382812 C 2.716026782989502 59.73468017578125 1.5 53.71062850952148 1.5 47.5 C 1.5 41.28937149047852 2.716026782989502 35.26533508300781 5.114293098449707 29.59518623352051 C 7.431066513061523 24.11771965026855 10.74804019927979 19.19813346862793 14.97309303283691 14.97309303283691 C 19.19813346862793 10.74804019927979 24.11771965026855 7.431066513061523 29.59518623352051 5.114293098449707 C 35.26533508300781 2.716026782989502 41.28937149047852 1.5 47.5 1.5 C 53.71062850952148 1.5 59.73468017578125 2.716026782989502 65.40481567382812 5.114293098449707 C 70.88229370117188 7.431066513061523 75.80186462402344 10.74804019927979 80.02691650390625 14.97309303283691 C 84.25196075439453 19.19813346862793 87.56893157958984 24.11771965026855 89.88570404052734 29.59518623352051 C 92.28397369384766 35.26533508300781 93.5 41.28937149047852 93.5 47.5 C 93.5 53.71062850952148 92.28397369384766 59.73468017578125 89.88570404052734 65.40481567382812 C 87.56893157958984 70.88229370117188 84.25196075439453 75.80186462402344 80.02691650390625 80.02691650390625 C 75.80186462402344 84.25196075439453 70.88229370117188 87.56893157958984 65.40481567382812 89.88570404052734 C 59.73468017578125 92.28397369384766 53.71062850952148 93.5 47.5 93.5 Z" stroke="none"/>
                      <path d="M 47.5 3 C 41.49121475219727 3 35.66376876831055 4.176155090332031 30.17950439453125 6.495796203613281 C 24.88084411621094 8.736953735351562 20.12152099609375 11.94598388671875 16.03375244140625 16.03375244140625 C 11.94598388671875 20.12152099609375 8.736953735351562 24.88084411621094 6.495796203613281 30.17950439453125 C 4.176155090332031 35.66376876831055 3 41.49121475219727 3 47.5 C 3 53.50878524780273 4.176155090332031 59.33623123168945 6.495796203613281 64.82049560546875 C 8.736953735351562 70.11915588378906 11.94598388671875 74.87847900390625 16.03375244140625 78.96624755859375 C 20.12152099609375 83.05401611328125 24.88084411621094 86.26304626464844 30.17950439453125 88.50419616699219 C 35.66376876831055 90.82384490966797 41.49121475219727 92 47.5 92 C 53.50878524780273 92 59.33623123168945 90.82384490966797 64.82049560546875 88.50419616699219 C 70.11915588378906 86.26304626464844 74.87847900390625 83.05401611328125 78.96624755859375 78.96624755859375 C 83.05401611328125 74.87847900390625 86.26304626464844 70.11915588378906 88.50419616699219 64.82049560546875 C 90.82384490966797 59.33623123168945 92 53.50878524780273 92 47.5 C 92 41.49121475219727 90.82384490966797 35.66376876831055 88.50419616699219 30.17950439453125 C 86.26304626464844 24.88084411621094 83.05401611328125 20.12152099609375 78.96624755859375 16.03375244140625 C 74.87847900390625 11.94598388671875 70.11915588378906 8.736953735351562 64.82049560546875 6.495796203613281 C 59.33623123168945 4.176155090332031 53.50878524780273 3 47.5 3 M 47.5 0 C 73.7335205078125 0 95 21.2664794921875 95 47.5 C 95 73.7335205078125 73.7335205078125 95 47.5 95 C 21.2664794921875 95 0 73.7335205078125 0 47.5 C 0 21.2664794921875 21.2664794921875 0 47.5 0 Z" stroke="none" fill="#5692e8"/>
                    </g>
                  </g>
                </g>
              </g>
            </g>
          </g>
        </g>
      </g>
    </g>
    <g id="joint-venture_18549604" transform="translate(1226.851 9298.52)">
      <path id="Trazado_1049225" data-name="Trazado 1049225" d="M166.762,164.241a7.069,7.069,0,0,1,5.649-.682,5.6,5.6,0,0,1,1.48.763,4.735,4.735,0,0,0,.872.5,2.252,2.252,0,0,0,2.118-.049.757.757,0,0,0,.336-.371.635.635,0,0,0-.1-.07,29.328,29.328,0,0,1-4.7-3.434c-.021-.021-.046-.042-.063-.063a3,3,0,0,0-3.672-.665,5.464,5.464,0,0,1-4.928-.007l-2.531,5.964,1.393.56,4.113-2.429c.01-.007.021-.01.031-.018Z" transform="translate(-126.244 -133.16)" fill="#f5d471"/>
      <path id="Trazado_1049226" data-name="Trazado 1049226" d="M333.286,132.31h0l3.9,9.216,2.286-.991-4.47-10.549-2.286.991.564,1.33Z" transform="translate(-276.565 -107.014)" fill="#3fd8d8"/>
      <path id="Trazado_1049227" data-name="Trazado 1049227" d="M124.593,129.816l-4.47,10.549,2.286.991,4.47-10.549Z" transform="translate(-90.217 -106.865)" fill="#33ccc4"/>
      <path id="Trazado_1049228" data-name="Trazado 1049228" d="M190.173,160.048a3,3,0,0,0-2.338-.2,25.773,25.773,0,0,0,3.745,2.667,2.009,2.009,0,0,1,.879,2.7c-.661,1.372-2.7,2.247-4.946,1.341a6.576,6.576,0,0,1-1.232-.686,3.712,3.712,0,0,0-.973-.522,5.143,5.143,0,0,0-4.1.525L176.9,168.41a.578.578,0,0,0-.27.361.587.587,0,0,0,.424.718.6.6,0,0,0,.448-.06l4.323-2.555a.988.988,0,1,1,1,1.7l-4.323,2.552a.592.592,0,0,0,.6,1.019l.665-.392,4.841-2.863a.989.989,0,0,1,1.008,1.7l-4.844,2.863a.59.59,0,0,0,.585,1.026c.231-.122.476-.273.71-.416.126-.073.252-.151.378-.224l1.271-.752a.988.988,0,1,1,1,1.7l-1.246.738a.588.588,0,0,0,.175,1.068.581.581,0,0,0,.445-.063l1.138-.672.07-.039c1.89-.91,8.316-4.638,9.4-5.733a3.958,3.958,0,0,1,2.027-3.735l.045-.021.777-.322-2.531-5.971a5.415,5.415,0,0,1-4.848.01Z" transform="translate(-139.728 -133.054)" fill="#fade89"/>
      <path id="Trazado_1049229" data-name="Trazado 1049229" d="M217.875,28.365l-3.528,3.528a.984.984,0,0,1-1.4,0l-1.985-1.985a.987.987,0,1,1,1.4-1.4l1.285,1.288,2.832-2.832a.987.987,0,1,1,1.4,1.4Zm-3.455-4.48a5.546,5.546,0,1,0,5.544,5.544,5.552,5.552,0,0,0-5.544-5.544Z" transform="translate(-168.011 -14.014)" fill="#d9eaf0"/>
      <path id="Trazado_1049230" data-name="Trazado 1049230" d="M287.436,362.823a7.117,7.117,0,0,1-4.659.007c-2.233.122-4.407,2.636-6.332,4.862-.7.809-1.358,1.572-2.027,2.24a.991.991,0,0,1-.7.291h-3.511a.984.984,0,0,0-.983.984v.844a.146.146,0,0,0,.14.143h5.579l2-2a.988.988,0,0,1,1.687.7v7.41l3.087,0v-7.5a3.952,3.952,0,0,1,3.948-3.945h6.6v-.388c0-2.009-1.936-3.644-4.316-3.644h-.518Z" transform="translate(-220.909 -311.101)" fill="#3fd8d8"/>
      <path id="Trazado_1049231" data-name="Trazado 1049231" d="M199.6,448.089c-.018.014-.035.031-.052.045a.155.155,0,0,1-.039.028c-.014.01-.024.021-.039.031l-.046.024a.347.347,0,0,1-.039.024l-.042.021c-.018.007-.028.014-.046.021a.2.2,0,0,1-.042.014.279.279,0,0,1-.049.018l-.039.01c-.021,0-.039.01-.056.014s-.031,0-.046.007a.267.267,0,0,0-.049.007.55.55,0,0,1-.077,0H183.309a.551.551,0,0,1-.077,0,.277.277,0,0,0-.049-.007c-.014,0-.031,0-.046-.007s-.035-.01-.052-.014l-.042-.01a.269.269,0,0,1-.049-.018.2.2,0,0,1-.042-.014c-.014-.007-.028-.014-.046-.021l-.042-.021a.4.4,0,0,1-.039-.024l-.046-.024c-.014-.01-.024-.021-.039-.031a.158.158,0,0,1-.039-.028c-.018-.014-.035-.031-.052-.045a.091.091,0,0,0-.021-.018l-.6-.606v5l18.2.025v-5.023l-.606.605a.092.092,0,0,0-.021.018Z" transform="translate(-144.478 -385.293)" fill="#d9eaf0"/>
      <path id="Trazado_1049232" data-name="Trazado 1049232" d="M361.3,266.814a5.138,5.138,0,1,0,5.138,5.138A5.146,5.146,0,0,0,361.3,266.814Z" transform="translate(-297.113 -226.947)" fill="#fade89"/>
      <path id="Trazado_1049233" data-name="Trazado 1049233" d="M386.439,413.437V420.9h11.337v-7.466a1.976,1.976,0,0,0-1.974-1.971H388.41A1.972,1.972,0,0,0,386.439,413.437Z" transform="translate(-323.649 -353.738)" fill="#bac1c9"/>
      <path id="Trazado_1049234" data-name="Trazado 1049234" d="M78.483,372.193a.146.146,0,0,0,.14-.143v-.844a.984.984,0,0,0-.983-.984H74.129a.991.991,0,0,1-.7-.291c-.669-.669-1.327-1.432-2.027-2.24-1.925-2.226-4.1-4.739-6.332-4.862a7.117,7.117,0,0,1-4.659-.007h-.518c-2.38,0-4.316,1.635-4.316,3.644v.388h6.6a3.952,3.952,0,0,1,3.948,3.945v7.466l3.087.007v-7.382a.988.988,0,0,1,1.687-.7l2,2h5.579Z" transform="translate(-33.642 -311.101)" fill="#3fd8d8"/>
      <path id="Trazado_1049235" data-name="Trazado 1049235" d="M42.551,411.466H35.159a1.975,1.975,0,0,0-1.974,1.971V420.9H44.522v-7.466a1.973,1.973,0,0,0-1.971-1.971Z" transform="translate(-14.014 -353.738)" fill="#bac1c9"/>
      <path id="Trazado_1049236" data-name="Trazado 1049236" d="M77.186,277.089a5.138,5.138,0,1,0-5.138-5.138A5.144,5.144,0,0,0,77.186,277.089Z" transform="translate(-48.078 -226.946)" fill="#fade89"/>
      <g id="Grupo_1206585" data-name="Grupo 1206585" transform="translate(17.197 7.897)">
        <path id="Trazado_1049237" data-name="Trazado 1049237" d="M64.19,263.076a5.138,5.138,0,1,1,5.138-5.138A5.146,5.146,0,0,1,64.19,263.076Zm7.172,5.222v.388h-6.6a3.952,3.952,0,0,0-3.948,3.945v7.5l-3.087,0v-7.41a.988.988,0,0,0-1.687-.7l-2,2H48.457a.146.146,0,0,1-.14-.143v-.844a.984.984,0,0,1,.983-.983h3.511a.991.991,0,0,0,.7-.291c.669-.668,1.33-1.432,2.027-2.24,1.925-2.226,4.1-4.739,6.332-4.862a7.118,7.118,0,0,0,4.659-.007h.518c2.38,0,4.316,1.635,4.316,3.644Zm.791,2.363a1.975,1.975,0,0,1,1.974,1.971V280.1H62.79v-7.466a1.973,1.973,0,0,1,1.971-1.971Zm-16.4,9.468-18.2-.025v-5l.6.606a.091.091,0,0,1,.021.018c.018.014.035.031.052.045a.155.155,0,0,0,.039.028c.014.01.024.021.039.031l.046.024a.339.339,0,0,0,.039.024l.042.021c.018.007.031.014.046.021a.2.2,0,0,0,.042.014.279.279,0,0,0,.049.018l.042.01c.018,0,.035.01.052.014s.031,0,.046.007a.27.27,0,0,1,.049.007.55.55,0,0,0,.077,0H54.466a.551.551,0,0,0,.077,0,.279.279,0,0,1,.049-.007c.014,0,.031,0,.046-.007s.035-.01.056-.014l.039-.01a.269.269,0,0,0,.049-.018.2.2,0,0,0,.042-.014c.018-.007.028-.014.046-.021l.042-.021a.39.39,0,0,0,.039-.024l.046-.024c.014-.01.024-.021.039-.031a.158.158,0,0,0,.039-.028c.018-.014.035-.031.052-.045a.091.091,0,0,1,.021-.018l.606-.606v5.023Zm-19.569-8.32a.985.985,0,0,0-.609.913V280.1l-3.087-.007v-7.466a3.952,3.952,0,0,0-3.948-3.945h-6.6V268.3c0-2.009,1.936-3.644,4.316-3.644h.518a7.117,7.117,0,0,0,4.659.007c2.233.122,4.407,2.636,6.332,4.862.7.809,1.358,1.572,2.027,2.24a.991.991,0,0,0,.7.291H44a.984.984,0,0,1,.983.983v.844a.146.146,0,0,1-.14.143H39.262l-2-2a.986.986,0,0,0-1.078-.214ZM30.508,280.1H19.171v-7.466a1.976,1.976,0,0,1,1.974-1.971h7.392a1.972,1.972,0,0,1,1.971,1.971V280.1ZM23.97,257.938a5.138,5.138,0,1,1,5.138,5.138A5.146,5.146,0,0,1,23.97,257.938Zm40.22-7.112a7.11,7.11,0,0,0-4.676,12.467c-2.065,1-3.847,3.059-5.471,4.939-.57.661-1.117,1.3-1.649,1.845H49.3a2.965,2.965,0,0,0-2.65,1.649A2.974,2.974,0,0,0,44,270.077H40.9c-.532-.549-1.074-1.183-1.649-1.845-1.624-1.88-3.406-3.938-5.471-4.939a7.113,7.113,0,1,0-9.657-.283,5.71,5.71,0,0,0-4.169,5.289v.57a3.949,3.949,0,0,0-2.762,3.763v8.453a.986.986,0,0,0,.987.987H31.5l30.682.042a.873.873,0,0,0,.273-.042H75.113a.986.986,0,0,0,.987-.987v-8.453a3.949,3.949,0,0,0-2.762-3.763v-.57a5.71,5.71,0,0,0-4.169-5.289,7.106,7.106,0,0,0-4.981-12.184Z" transform="translate(-17.197 -220.83)" fill="#030403"/>
        <path id="Trazado_1049238" data-name="Trazado 1049238" d="M131.255,119.733l2.531,5.971-.777.322c-.018.007-.031.014-.045.021a3.957,3.957,0,0,0-2.027,3.735c-1.082,1.1-7.508,4.823-9.4,5.733l-.07.039-1.138.672a.581.581,0,0,1-.445.063.588.588,0,0,1-.175-1.068l1.246-.739a.988.988,0,1,0-1-1.7l-1.271.752c-.126.073-.252.151-.378.224-.234.143-.479.294-.71.416a.59.59,0,0,1-.585-1.026l4.844-2.863a.989.989,0,0,0-1.008-1.7L116,131.448l-.665.392a.592.592,0,0,1-.6-1.019l4.323-2.552a.988.988,0,1,0-1-1.7l-4.323,2.555a.6.6,0,0,1-.448.06.587.587,0,0,1-.424-.718.578.578,0,0,1,.27-.361l4.309-2.545a5.142,5.142,0,0,1,4.1-.525,3.706,3.706,0,0,1,.973.522,6.576,6.576,0,0,0,1.232.686c2.251.907,4.284.031,4.946-1.341a2.009,2.009,0,0,0-.879-2.7,25.781,25.781,0,0,1-3.745-2.667,3,3,0,0,1,2.338.2,5.415,5.415,0,0,0,4.848-.01Zm3.15-4.011,4.47,10.549-2.286.991-3.9-9.216h0v0l-.564-1.33Zm-22.068,10.556-1.393-.56,2.531-5.964a5.464,5.464,0,0,0,4.928.007,3,3,0,0,1,3.672.665c.018.021.042.042.063.063a29.331,29.331,0,0,0,4.7,3.434.639.639,0,0,1,.1.07.759.759,0,0,1-.336.371,2.252,2.252,0,0,1-2.118.049,4.75,4.75,0,0,1-.871-.5,5.594,5.594,0,0,0-1.48-.763,7.07,7.07,0,0,0-5.649.682c-.01.007-.021.01-.031.018l-4.113,2.429Zm-4.183.963-2.286-.991,4.47-10.549,2.286.991Zm19.135-9.268a4.918,4.918,0,0,0-4.89.189,4.9,4.9,0,0,0-4.886-.164,3.527,3.527,0,0,1-3.269-.063l.252-.592a1.917,1.917,0,0,0-1.085-2.461l-2.307-1a2.043,2.043,0,0,0-1.547-.031,1.769,1.769,0,0,0-.983.956L104,125.6a1.919,1.919,0,0,0,1.085,2.461l2.307,1a2.034,2.034,0,0,0,.819.172,1.925,1.925,0,0,0,.728-.14,1.753,1.753,0,0,0,.983-.952l.255-.6.809.325c-.01.039-.024.073-.035.112A2.563,2.563,0,0,0,112.494,131a2.573,2.573,0,0,0,2.261,2.881,2.517,2.517,0,0,0,.346,1.082,2.589,2.589,0,0,0,2.408,1.25,2.594,2.594,0,0,0,.312.812,2.566,2.566,0,0,0,3.514.9l1.1-.651c.963-.469,3.493-1.876,5.656-3.185,1.3-.788,2.335-1.459,3.091-2,1.316-.941,1.736-1.442,1.726-2.062-.01-.525.056-1.778.879-2.188l.767-.318.27.637a1.764,1.764,0,0,0,.984.952,1.994,1.994,0,0,0,.728.14,2.07,2.07,0,0,0,.819-.172l2.307-1a1.913,1.913,0,0,0,1.085-2.457l-4.578-10.8a1.764,1.764,0,0,0-.983-.952,2.027,2.027,0,0,0-1.547.031l-2.31,1a1.92,1.92,0,0,0-1.082,2.461l.238.557a3.479,3.479,0,0,1-3.2.056Z" transform="translate(-93.159 -100.647)" fill="#030403"/>
        <path id="Trazado_1049239" data-name="Trazado 1049239" d="M200.382,20.963a5.546,5.546,0,1,1,5.544-5.548,5.553,5.553,0,0,1-5.544,5.548Zm0-13.066a7.52,7.52,0,1,0,7.522,7.518A7.529,7.529,0,0,0,200.382,7.9Z" transform="translate(-171.17 -7.897)" fill="#030403"/>
        <path id="Trazado_1049240" data-name="Trazado 1049240" d="M229.263,46.79l-2.832,2.832-1.285-1.288a.987.987,0,1,0-1.4,1.4l1.985,1.985a.984.984,0,0,0,1.4,0l3.528-3.528a.987.987,0,0,0-1.4-1.4Z" transform="translate(-197.993 -41.732)" fill="#030403"/>
      </g>
    </g>
  </g>
</svg>
