<svg xmlns="http://www.w3.org/2000/svg" xmlns:xlink="http://www.w3.org/1999/xlink" width="113" height="113" viewBox="0 0 113 113">
  <defs>
    <filter id="Trazado_982547" x="0" y="0.001" width="113" height="113" filterUnits="userSpaceOnUse">
      <feOffset dy="3" input="SourceAlpha"/>
      <feGaussianBlur stdDeviation="3" result="blur"/>
      <feFlood flood-opacity="0.161"/>
      <feComposite operator="in" in2="blur"/>
      <feComposite in="SourceGraphic"/>
    </filter>
  </defs>
  <g id="Grupo_1206597" data-name="Grupo 1206597" transform="translate(-902 -10824.489)">
    <g id="Grupo_1204127" data-name="Grupo 1204127" transform="translate(0 6984.49)">
      <g id="Grupo_1203960" data-name="Grupo 1203960" transform="translate(0.44 1899.125)">
        <g id="Grupo_1203499" data-name="Grupo 1203499" transform="translate(0 -197.72)">
          <g id="Grupo_1202591" data-name="Grupo 1202591" transform="translate(910.561 2144.596)">
            <g id="Grupo_1172010" data-name="Grupo 1172010" transform="translate(0)">
              <g id="Grupo_1171046" data-name="Grupo 1171046">
                <g id="Grupo_1148525" data-name="Grupo 1148525">
                  <g transform="matrix(1, 0, 0, 1, -9, -6)" filter="url(#Trazado_982547)">
                    <g id="Trazado_982547-2" data-name="Trazado 982547" transform="translate(9 6)" fill="#edf3fc">
                      <path d="M 47.5 93.5 C 41.28937149047852 93.5 35.26533508300781 92.28397369384766 29.59518623352051 89.88570404052734 C 24.11771965026855 87.56893157958984 19.19813346862793 84.25196075439453 14.97309303283691 80.02691650390625 C 10.74804019927979 75.80186462402344 7.431066513061523 70.88229370117188 5.114293098449707 65.40481567382812 C 2.716026782989502 59.73468017578125 1.5 53.71062850952148 1.5 47.5 C 1.5 41.28937149047852 2.716026782989502 35.26533508300781 5.114293098449707 29.59518623352051 C 7.431066513061523 24.11771965026855 10.74804019927979 19.19813346862793 14.97309303283691 14.97309303283691 C 19.19813346862793 10.74804019927979 24.11771965026855 7.431066513061523 29.59518623352051 5.114293098449707 C 35.26533508300781 2.716026782989502 41.28937149047852 1.5 47.5 1.5 C 53.71062850952148 1.5 59.73468017578125 2.716026782989502 65.40481567382812 5.114293098449707 C 70.88229370117188 7.431066513061523 75.80186462402344 10.74804019927979 80.02691650390625 14.97309303283691 C 84.25196075439453 19.19813346862793 87.56893157958984 24.11771965026855 89.88570404052734 29.59518623352051 C 92.28397369384766 35.26533508300781 93.5 41.28937149047852 93.5 47.5 C 93.5 53.71062850952148 92.28397369384766 59.73468017578125 89.88570404052734 65.40481567382812 C 87.56893157958984 70.88229370117188 84.25196075439453 75.80186462402344 80.02691650390625 80.02691650390625 C 75.80186462402344 84.25196075439453 70.88229370117188 87.56893157958984 65.40481567382812 89.88570404052734 C 59.73468017578125 92.28397369384766 53.71062850952148 93.5 47.5 93.5 Z" stroke="none"/>
                      <path d="M 47.5 3 C 41.49121475219727 3 35.66376876831055 4.176155090332031 30.17950439453125 6.495796203613281 C 24.88084411621094 8.736953735351562 20.12152099609375 11.94598388671875 16.03375244140625 16.03375244140625 C 11.94598388671875 20.12152099609375 8.736953735351562 24.88084411621094 6.495796203613281 30.17950439453125 C 4.176155090332031 35.66376876831055 3 41.49121475219727 3 47.5 C 3 53.50878524780273 4.176155090332031 59.33623123168945 6.495796203613281 64.82049560546875 C 8.736953735351562 70.11915588378906 11.94598388671875 74.87847900390625 16.03375244140625 78.96624755859375 C 20.12152099609375 83.05401611328125 24.88084411621094 86.26304626464844 30.17950439453125 88.50419616699219 C 35.66376876831055 90.82384490966797 41.49121475219727 92 47.5 92 C 53.50878524780273 92 59.33623123168945 90.82384490966797 64.82049560546875 88.50419616699219 C 70.11915588378906 86.26304626464844 74.87847900390625 83.05401611328125 78.96624755859375 78.96624755859375 C 83.05401611328125 74.87847900390625 86.26304626464844 70.11915588378906 88.50419616699219 64.82049560546875 C 90.82384490966797 59.33623123168945 92 53.50878524780273 92 47.5 C 92 41.49121475219727 90.82384490966797 35.66376876831055 88.50419616699219 30.17950439453125 C 86.26304626464844 24.88084411621094 83.05401611328125 20.12152099609375 78.96624755859375 16.03375244140625 C 74.87847900390625 11.94598388671875 70.11915588378906 8.736953735351562 64.82049560546875 6.495796203613281 C 59.33623123168945 4.176155090332031 53.50878524780273 3 47.5 3 M 47.5 0 C 73.7335205078125 0 95 21.2664794921875 95 47.5 C 95 73.7335205078125 73.7335205078125 95 47.5 95 C 21.2664794921875 95 0 73.7335205078125 0 47.5 C 0 21.2664794921875 21.2664794921875 0 47.5 0 Z" stroke="none" fill="#5692e8"/>
                    </g>
                  </g>
                </g>
              </g>
            </g>
          </g>
        </g>
      </g>
    </g>
    <g id="Layer_3" data-name="Layer 3" transform="translate(926 10846)">
      <path id="Trazado_1049322" data-name="Trazado 1049322" d="M37,33H59V55H37Z" fill="#c49a6c"/>
      <path id="Trazado_1049323" data-name="Trazado 1049323" d="M54,55H35v6H61V55H54Z" fill="#8b5e3c"/>
      <path id="Trazado_1049324" data-name="Trazado 1049324" d="M37,15l-5,3V31a2.006,2.006,0,0,1-2,2H5a2.006,2.006,0,0,1-2-2V5A2.006,2.006,0,0,1,5,3H30a2.006,2.006,0,0,1,2,2v7Z" fill="#ffde55"/>
      <path id="Trazado_1049325" data-name="Trazado 1049325" d="M44,13V10a1,1,0,0,1,1-1h6a1,1,0,0,1,1,1v3a4,4,0,0,1-8,0Z" fill="#ffb8a5"/>
      <path id="Trazado_1049326" data-name="Trazado 1049326" d="M44,47V44a1,1,0,0,1,1-1h6a1,1,0,0,1,1,1v3a4,4,0,0,1-8,0Z" fill="#ffb8a5"/>
      <path id="Trazado_1049327" data-name="Trazado 1049327" d="M27,47V44a1,1,0,0,1,1-1h6a1,1,0,0,1,1,1v3a4,4,0,0,1-8,0Z" fill="#ffb8a5"/>
      <path id="Trazado_1049328" data-name="Trazado 1049328" d="M10,47V44a1,1,0,0,1,1-1h6a1,1,0,0,1,1,1v3a4,4,0,0,1-8,0Z" fill="#ffb8a5"/>
      <path id="Trazado_1049329" data-name="Trazado 1049329" d="M54,10V7a4,4,0,0,0-4-4H49a2,2,0,0,0-2,2,3.409,3.409,0,0,0-2.411-1A2.587,2.587,0,0,0,42,6.588V10Z" fill="#58595b"/>
      <path id="Trazado_1049330" data-name="Trazado 1049330" d="M43.44,19.03A5.115,5.115,0,0,1,44,19a4,4,0,0,0,8,0,5.115,5.115,0,0,1,.56.03A6,6,0,0,1,58,25v2H38V25a6,6,0,0,1,5.44-5.97Z" fill="#ed1c24"/>
      <path id="Trazado_1049331" data-name="Trazado 1049331" d="M48,23a4,4,0,0,1-4-4h1a1,1,0,0,0,1-1V16.46a3.974,3.974,0,0,0,4,0V18a1,1,0,0,0,1,1h1A4,4,0,0,1,48,23Z" fill="#ffac96"/>
      <path id="Trazado_1049332" data-name="Trazado 1049332" d="M31,57a4,4,0,0,1-4-4h1a1,1,0,0,0,1-1V50.46a3.974,3.974,0,0,0,4,0V52a1,1,0,0,0,1,1h1A4,4,0,0,1,31,57Z" fill="#ffac96"/>
      <path id="Trazado_1049333" data-name="Trazado 1049333" d="M43.44,53.03A5.115,5.115,0,0,1,44,53a4,4,0,0,0,8,0,5.115,5.115,0,0,1,.56.03A6,6,0,0,1,58,59v2H38V59A6,6,0,0,1,43.44,53.03Z" fill="#ffcd00"/>
      <path id="Trazado_1049334" data-name="Trazado 1049334" d="M48,57a4,4,0,0,1-4-4h1a1,1,0,0,0,1-1V50.46a3.974,3.974,0,0,0,4,0V52a1,1,0,0,0,1,1h1A4,4,0,0,1,48,57Z" fill="#ffac96"/>
      <path id="Trazado_1049335" data-name="Trazado 1049335" d="M9.44,53.03A5.115,5.115,0,0,1,10,53a4,4,0,0,0,8,0,5.115,5.115,0,0,1,.56.03A6,6,0,0,1,24,59v2H4V59a6,6,0,0,1,5.44-5.97Z" fill="#7ed63e"/>
      <path id="Trazado_1049336" data-name="Trazado 1049336" d="M14,57a4,4,0,0,1-4-4h1a1,1,0,0,0,1-1V50.46a3.974,3.974,0,0,0,4,0V52a1,1,0,0,0,1,1h1A4,4,0,0,1,14,57Z" fill="#ffac96"/>
      <path id="Trazado_1049337" data-name="Trazado 1049337" d="M54,27H35v6H61V27H54Z" fill="#8b5e3c"/>
      <path id="Trazado_1049338" data-name="Trazado 1049338" d="M44.131,13.967a3.984,3.984,0,0,0,7.738,0L48,13Z" fill="#d1e7f8"/>
      <path id="Trazado_1049339" data-name="Trazado 1049339" d="M53.5,13a1.5,1.5,0,0,0,0-3H52v3Z" fill="#ffac96"/>
      <path id="Trazado_1049340" data-name="Trazado 1049340" d="M41,11.5A1.5,1.5,0,0,0,42.5,13H44V10H42.5A1.5,1.5,0,0,0,41,11.5Z" fill="#ffac96"/>
      <path id="Trazado_1049341" data-name="Trazado 1049341" d="M14,51a3.993,3.993,0,0,0,3.869-3.033L14,47l-3.869.967A3.993,3.993,0,0,0,14,51Z" fill="#d1e7f8"/>
      <path id="Trazado_1049342" data-name="Trazado 1049342" d="M19.5,47a1.5,1.5,0,0,0,0-3H18v3Z" fill="#ffac96"/>
      <path id="Trazado_1049343" data-name="Trazado 1049343" d="M8.5,44a1.5,1.5,0,0,0,0,3H10V44Z" fill="#ffac96"/>
      <path id="Trazado_1049344" data-name="Trazado 1049344" d="M27.131,47.967a3.984,3.984,0,0,0,7.738,0L31,47Z" fill="#d1e7f8"/>
      <path id="Trazado_1049345" data-name="Trazado 1049345" d="M36.5,47a1.5,1.5,0,0,0,0-3H35v3Z" fill="#ffac96"/>
      <path id="Trazado_1049346" data-name="Trazado 1049346" d="M25.5,44a1.5,1.5,0,0,0,0,3H27V44Z" fill="#ffac96"/>
      <path id="Trazado_1049347" data-name="Trazado 1049347" d="M44.131,47.967a3.984,3.984,0,0,0,7.738,0L48,47Z" fill="#d1e7f8"/>
      <path id="Trazado_1049348" data-name="Trazado 1049348" d="M8,44V37h5a2,2,0,0,1,2,2,3.409,3.409,0,0,1,2.411-1A2.587,2.587,0,0,1,20,40.588V44Z" fill="#414042"/>
      <path id="Trazado_1049349" data-name="Trazado 1049349" d="M54,44V37H49a2,2,0,0,0-2,2,3.409,3.409,0,0,0-2.411-1A2.587,2.587,0,0,0,42,40.588V44Z" fill="#414042"/>
      <path id="Trazado_1049350" data-name="Trazado 1049350" d="M25,44V41a4,4,0,0,1,4-4h1a2,2,0,0,1,2,2,3.409,3.409,0,0,1,2.411-1A2.587,2.587,0,0,1,37,40.588V44Z" fill="#58595b"/>
      <path id="Trazado_1049351" data-name="Trazado 1049351" d="M53.5,47a1.5,1.5,0,0,0,0-3H52v3Z" fill="#ffac96"/>
      <path id="Trazado_1049352" data-name="Trazado 1049352" d="M41,45.5A1.5,1.5,0,0,0,42.5,47H44V44H42.5A1.5,1.5,0,0,0,41,45.5Z" fill="#ffac96"/>
      <path id="Trazado_1049353" data-name="Trazado 1049353" d="M37,33H59v2H37Z" fill="#a97c50"/>
      <path id="Trazado_1049354" data-name="Trazado 1049354" d="M26.44,53.03A5.115,5.115,0,0,1,27,53a4,4,0,0,0,8,0,5.115,5.115,0,0,1,.56.03A6,6,0,0,1,41,59v2H21V59a6,6,0,0,1,5.44-5.97Z" fill="#006df0"/>
      <circle id="Elipse_12958" data-name="Elipse 12958" cx="2" cy="2" r="2" transform="translate(13 9)" fill="#ed1c24"/>
      <path id="Trazado_1049355" data-name="Trazado 1049355" d="M32,12V5a2.006,2.006,0,0,0-2-2H28V4A25,25,0,0,1,3,29v2a2.006,2.006,0,0,0,2,2H30a2.006,2.006,0,0,0,2-2V18l5-3Z" fill="#ffd422"/>
      <g id="Grupo_1206596" data-name="Grupo 1206596">
        <path id="Trazado_1049356" data-name="Trazado 1049356" d="M30,34a3,3,0,0,0,3-3V18.566l4.515-2.709a1,1,0,0,0,0-1.714L33,11.434V5a3,3,0,0,0-3-3H5A3,3,0,0,0,2,5V31a3,3,0,0,0,3,3ZM4,31V5A1,1,0,0,1,5,4H30a1,1,0,0,1,1,1v7a1,1,0,0,0,.485.857L35.057,15l-3.572,2.143A1,1,0,0,0,31,18V31a1,1,0,0,1-1,1H5a1,1,0,0,1-1-1Z" fill="#231f20"/>
        <path id="Trazado_1049357" data-name="Trazado 1049357" d="M61,34a1,1,0,0,0,1-1V27a1,1,0,0,0-1-1H59V25a7.008,7.008,0,0,0-7-7H51V16.97A5.013,5.013,0,0,0,52.9,14h.6A2.493,2.493,0,0,0,55,9.51V7a5,5,0,0,0-5-5H49a2.986,2.986,0,0,0-2.54,1.41A4.435,4.435,0,0,0,44.59,3,3.593,3.593,0,0,0,41,6.59V9.51A2.493,2.493,0,0,0,42.5,14h.6A5.013,5.013,0,0,0,45,16.97V18H44a7.008,7.008,0,0,0-7,7v1H35a1,1,0,0,0-1,1v6a1,1,0,0,0,1,1h1v3.39A3.557,3.557,0,0,0,34.41,37a4.435,4.435,0,0,0-1.87.41A2.986,2.986,0,0,0,30,36H29a5,5,0,0,0-5,5v2.51A2.493,2.493,0,0,0,25.5,48h.6A5.013,5.013,0,0,0,28,50.97V52H27a6.96,6.96,0,0,0-4.51,1.65A6.945,6.945,0,0,0,18,52H17V50.97A5.013,5.013,0,0,0,18.9,48h.6A2.493,2.493,0,0,0,21,43.51V40.59A3.593,3.593,0,0,0,17.41,37a4.434,4.434,0,0,0-1.86.42A3.012,3.012,0,0,0,13,36H8a1,1,0,0,0-1,1v6.51A2.493,2.493,0,0,0,8.5,48h.6A5.013,5.013,0,0,0,11,50.97V52H10a7.008,7.008,0,0,0-7,7v2a1,1,0,0,0,1,1H61a1,1,0,0,0,1-1V55a1,1,0,0,0-1-1H60V34ZM51,12.72l-2.76-.69a.975.975,0,0,0-.48,0L45,12.72V10h6ZM47,18v-.1a5.05,5.05,0,0,0,2,0V18a1.991,1.991,0,0,0,1.82,1.98,2.978,2.978,0,0,1-5.64,0A1.991,1.991,0,0,0,47,18Zm-1.5-3.34,2.5-.63,2.5.63a3,3,0,0,1-5,0ZM54,11.5a.5.5,0,0,1-.5.5H53V11h.5A.5.5,0,0,1,54,11.5ZM43,12h-.5a.5.5,0,0,1,0-1H43Zm.28-3H43V6.59A1.588,1.588,0,0,1,44.59,5a2.367,2.367,0,0,1,1.7.71,1,1,0,0,0,1.09.21A.987.987,0,0,0,48,5a1,1,0,0,1,1-1h1a3.009,3.009,0,0,1,3,3V9h-.28A2,2,0,0,0,51,8H45A2,2,0,0,0,43.28,9ZM39,25a4.994,4.994,0,0,1,4.12-4.91,5,5,0,0,0,9.76,0A4.994,4.994,0,0,1,57,25v1H55V25a1,1,0,0,0-2,0v1H43V25a1,1,0,0,0-2,0v1H39ZM36.5,45a.5.5,0,0,1,0,1H36V45ZM26,46h-.5a.5.5,0,0,1,0-1H26Zm.28-3H26V41a3.009,3.009,0,0,1,3-3h1a1,1,0,0,1,1,1,.987.987,0,0,0,.62.92,1,1,0,0,0,1.09-.21,2.367,2.367,0,0,1,1.7-.71A1.588,1.588,0,0,1,36,40.59V43h-.28A2,2,0,0,0,34,42H28A1.988,1.988,0,0,0,26.28,43ZM30,52v-.1a5.05,5.05,0,0,0,2,0V52a1.991,1.991,0,0,0,1.82,1.98,2.978,2.978,0,0,1-5.64,0A1.991,1.991,0,0,0,30,52Zm-1.5-3.34,2.5-.63,2.5.63a3,3,0,0,1-5,0Zm2.74-2.63a.975.975,0,0,0-.48,0L28,46.72V44h6v2.72ZM17,46.72l-2.76-.69a.975.975,0,0,0-.48,0L11,46.72V44h6ZM13,52v-.1a5.05,5.05,0,0,0,2,0V52a1.991,1.991,0,0,0,1.82,1.98,2.978,2.978,0,0,1-5.64,0A1.991,1.991,0,0,0,13,52Zm-1.5-3.34,2.5-.63,2.5.63a3,3,0,0,1-5,0ZM20,45.5a.5.5,0,0,1-.5.5H19V45h.5A.5.5,0,0,1,20,45.5ZM9,46H8.5a.5.5,0,0,1,0-1H9Zm.28-3H9V38h4a1,1,0,0,1,1,1,.987.987,0,0,0,.62.92,1,1,0,0,0,1.09-.21,2.425,2.425,0,0,1,1.7-.71A1.588,1.588,0,0,1,19,40.59V43h-.28A1.988,1.988,0,0,0,17,42H11a1.988,1.988,0,0,0-1.72,1ZM20,59v1H9V59a1,1,0,0,0-2,0v1H5V59a4.994,4.994,0,0,1,4.12-4.91,5,5,0,0,0,9.76-.01,5,5,0,0,1,2.28,1.07A6.982,6.982,0,0,0,20,59Zm20,1H38V59a1,1,0,0,0-2,0v1H26V59a1,1,0,0,0-2,0v1H22V59a4.994,4.994,0,0,1,4.12-4.91,5,5,0,0,0,9.76,0A4.994,4.994,0,0,1,40,59Zm17,0H55V59a1,1,0,0,0-2,0v1H42V59a7.015,7.015,0,0,0-1.16-3.86,5.091,5.091,0,0,1,2.28-1.06,5,5,0,0,0,9.76.01A4.994,4.994,0,0,1,57,59ZM53,43h-.28A2,2,0,0,0,51,42H45a2,2,0,0,0-1.72,1H43V40.59A1.588,1.588,0,0,1,44.59,39a2.367,2.367,0,0,1,1.7.71,1,1,0,0,0,1.09.21A.987.987,0,0,0,48,39a1,1,0,0,1,1-1h4Zm.5,2a.5.5,0,0,1,0,1H53V45ZM45,44h6v2.72l-2.76-.69a.975.975,0,0,0-.48,0L45,46.72Zm2,8v-.1a5.05,5.05,0,0,0,2,0V52a1.991,1.991,0,0,0,1.82,1.98,2.978,2.978,0,0,1-5.64,0A1.991,1.991,0,0,0,47,52Zm-1.5-3.34,2.5-.63,2.5.63a3,3,0,0,1-5,0ZM58,54H57c-.03,0-.06.02-.09.02A6.975,6.975,0,0,0,52,52H51V50.97A5.013,5.013,0,0,0,52.9,48h.6A2.493,2.493,0,0,0,55,43.51V37a1,1,0,0,0-1-1H49a2.986,2.986,0,0,0-2.54,1.41A4.435,4.435,0,0,0,44.59,37,3.593,3.593,0,0,0,41,40.59v2.92A2.493,2.493,0,0,0,42.5,48h.6A5.013,5.013,0,0,0,45,50.97V52H44a7,7,0,0,0-4.49,1.65A6.96,6.96,0,0,0,35,52H34V50.97A5.013,5.013,0,0,0,35.9,48h.6A2.493,2.493,0,0,0,38,43.51V34H58ZM43,45v1h-.5a.5.5,0,0,1,0-1ZM60,60H59V59a6.884,6.884,0,0,0-.69-3H60ZM36,32V28H60v4Z" fill="#231f20"/>
        <path id="Trazado_1049358" data-name="Trazado 1049358" d="M7,30H28a1,1,0,0,0,0-2H8V11a1,1,0,0,0-2,0V29A1,1,0,0,0,7,30Z" fill="#231f20"/>
        <path id="Trazado_1049359" data-name="Trazado 1049359" d="M10,27a1,1,0,0,0,.707-.293l1.563-1.563,2.414.805a1,1,0,0,0,1.211-.5L18.618,20H23a1,1,0,0,0,.814-.419l5-7a1,1,0,0,0-1.628-1.162L22.485,18H18a1,1,0,0,0-.9.553l-2.611,5.224-2.178-.726a1,1,0,0,0-1.023.242l-2,2A1,1,0,0,0,10,27Z" fill="#231f20"/>
        <path id="Trazado_1049360" data-name="Trazado 1049360" d="M11,12h1.184a2.746,2.746,0,0,0,.117.285l-.837.837a1,1,0,1,0,1.414,1.414l.837-.837a2.746,2.746,0,0,0,.285.117V15a1,1,0,0,0,2,0V13.816a2.746,2.746,0,0,0,.285-.117l.837.837a1,1,0,1,0,1.414-1.414l-.837-.837A2.746,2.746,0,0,0,17.816,12H19a1,1,0,0,0,0-2H17.816a2.746,2.746,0,0,0-.117-.285l.837-.837a1,1,0,1,0-1.414-1.414l-.837.837A2.746,2.746,0,0,0,16,8.184V7a1,1,0,0,0-2,0V8.184a2.746,2.746,0,0,0-.285.117l-.837-.837a1,1,0,1,0-1.414,1.414l.837.837a2.746,2.746,0,0,0-.117.285H11a1,1,0,0,0,0,2Zm5-1a1,1,0,1,1-1-1A1,1,0,0,1,16,11Z" fill="#231f20"/>
      </g>
    </g>
  </g>
</svg>
