<svg xmlns="http://www.w3.org/2000/svg" xmlns:xlink="http://www.w3.org/1999/xlink" width="113" height="113" viewBox="0 0 113 113">
  <defs>
    <filter id="Trazado_982547" x="0" y="0" width="113" height="113" filterUnits="userSpaceOnUse">
      <feOffset dy="3" input="SourceAlpha"/>
      <feGaussianBlur stdDeviation="3" result="blur"/>
      <feFlood flood-opacity="0.161"/>
      <feComposite operator="in" in2="blur"/>
      <feComposite in="SourceGraphic"/>
    </filter>
  </defs>
  <g id="Grupo_1206598" data-name="Grupo 1206598" transform="translate(-1217 -10816.826)">
    <g id="Grupo_1204128" data-name="Grupo 1204128" transform="translate(0 6976.49)">
      <g id="Grupo_1203961" data-name="Grupo 1203961" transform="translate(0.44 1899.461)">
        <g id="Grupo_1203500" data-name="Grupo 1203500" transform="translate(0 -197.72)">
          <g id="Grupo_1202592" data-name="Grupo 1202592" transform="translate(1225.561 2144.596)">
            <g id="Grupo_1172010" data-name="Grupo 1172010" transform="translate(0)">
              <g id="Grupo_1171046" data-name="Grupo 1171046">
                <g id="Grupo_1148525" data-name="Grupo 1148525">
                  <g transform="matrix(1, 0, 0, 1, -9, -6)" filter="url(#Trazado_982547)">
                    <g id="Trazado_982547-2" data-name="Trazado 982547" transform="translate(9 6)" fill="#edf3fc">
                      <path d="M 47.5 93.5 C 41.28937149047852 93.5 35.26533508300781 92.28397369384766 29.59518623352051 89.88570404052734 C 24.11771965026855 87.56893157958984 19.19813346862793 84.25196075439453 14.97309303283691 80.02691650390625 C 10.74804019927979 75.80186462402344 7.431066513061523 70.88229370117188 5.114293098449707 65.40481567382812 C 2.716026782989502 59.73468017578125 1.5 53.71062850952148 1.5 47.5 C 1.5 41.28937149047852 2.716026782989502 35.26533508300781 5.114293098449707 29.59518623352051 C 7.431066513061523 24.11771965026855 10.74804019927979 19.19813346862793 14.97309303283691 14.97309303283691 C 19.19813346862793 10.74804019927979 24.11771965026855 7.431066513061523 29.59518623352051 5.114293098449707 C 35.26533508300781 2.716026782989502 41.28937149047852 1.5 47.5 1.5 C 53.71062850952148 1.5 59.73468017578125 2.716026782989502 65.40481567382812 5.114293098449707 C 70.88229370117188 7.431066513061523 75.80186462402344 10.74804019927979 80.02691650390625 14.97309303283691 C 84.25196075439453 19.19813346862793 87.56893157958984 24.11771965026855 89.88570404052734 29.59518623352051 C 92.28397369384766 35.26533508300781 93.5 41.28937149047852 93.5 47.5 C 93.5 53.71062850952148 92.28397369384766 59.73468017578125 89.88570404052734 65.40481567382812 C 87.56893157958984 70.88229370117188 84.25196075439453 75.80186462402344 80.02691650390625 80.02691650390625 C 75.80186462402344 84.25196075439453 70.88229370117188 87.56893157958984 65.40481567382812 89.88570404052734 C 59.73468017578125 92.28397369384766 53.71062850952148 93.5 47.5 93.5 Z" stroke="none"/>
                      <path d="M 47.5 3 C 41.49121475219727 3 35.66376876831055 4.176155090332031 30.17950439453125 6.495796203613281 C 24.88084411621094 8.736953735351562 20.12152099609375 11.94598388671875 16.03375244140625 16.03375244140625 C 11.94598388671875 20.12152099609375 8.736953735351562 24.88084411621094 6.495796203613281 30.17950439453125 C 4.176155090332031 35.66376876831055 3 41.49121475219727 3 47.5 C 3 53.50878524780273 4.176155090332031 59.33623123168945 6.495796203613281 64.82049560546875 C 8.736953735351562 70.11915588378906 11.94598388671875 74.87847900390625 16.03375244140625 78.96624755859375 C 20.12152099609375 83.05401611328125 24.88084411621094 86.26304626464844 30.17950439453125 88.50419616699219 C 35.66376876831055 90.82384490966797 41.49121475219727 92 47.5 92 C 53.50878524780273 92 59.33623123168945 90.82384490966797 64.82049560546875 88.50419616699219 C 70.11915588378906 86.26304626464844 74.87847900390625 83.05401611328125 78.96624755859375 78.96624755859375 C 83.05401611328125 74.87847900390625 86.26304626464844 70.11915588378906 88.50419616699219 64.82049560546875 C 90.82384490966797 59.33623123168945 92 53.50878524780273 92 47.5 C 92 41.49121475219727 90.82384490966797 35.66376876831055 88.50419616699219 30.17950439453125 C 86.26304626464844 24.88084411621094 83.05401611328125 20.12152099609375 78.96624755859375 16.03375244140625 C 74.87847900390625 11.94598388671875 70.11915588378906 8.736953735351562 64.82049560546875 6.495796203613281 C 59.33623123168945 4.176155090332031 53.50878524780273 3 47.5 3 M 47.5 0 C 73.7335205078125 0 95 21.2664794921875 95 47.5 C 95 73.7335205078125 73.7335205078125 95 47.5 95 C 21.2664794921875 95 0 73.7335205078125 0 47.5 C 0 21.2664794921875 21.2664794921875 0 47.5 0 Z" stroke="none" fill="#5692e8"/>
                    </g>
                  </g>
                </g>
              </g>
            </g>
          </g>
        </g>
      </g>
    </g>
    <g id="Lesson-Online-Audio_Book-Headphone-Device" data-name="Lesson-Online-Audio Book-Headphone-Device" transform="translate(1244 10838)">
      <path id="Trazado_1049361" data-name="Trazado 1049361" d="M47,33h4V61H47Z" fill="#787680"/>
      <path id="Trazado_1049362" data-name="Trazado 1049362" d="M3,11V37a4,4,0,0,0,4,4H35a4,4,0,0,0,4-4V11Z" fill="#5aaae7"/>
      <path id="Trazado_1049363" data-name="Trazado 1049363" d="M47,29V57H33a4,4,0,0,0-4,4V33a4.01,4.01,0,0,1,4-4Z" fill="#e6e7e8"/>
      <path id="Trazado_1049364" data-name="Trazado 1049364" d="M61,27v6a2.006,2.006,0,0,1-2,2H55V25h4a2.006,2.006,0,0,1,2,2Z" fill="#ee8700"/>
      <path id="Trazado_1049365" data-name="Trazado 1049365" d="M47,57v4H29a3.995,3.995,0,0,1,4-4Z" fill="#898890"/>
      <path id="Trazado_1049366" data-name="Trazado 1049366" d="M39,7v4H3V7A4,4,0,0,1,7,3H35A4,4,0,0,1,39,7Z" fill="#ff5023"/>
      <path id="Trazado_1049367" data-name="Trazado 1049367" d="M37,27V37H33a2.006,2.006,0,0,1-2-2V29a2.006,2.006,0,0,1,2-2Z" fill="#c6c5ca"/>
      <path id="Trazado_1049368" data-name="Trazado 1049368" d="M37,25V35H33a2.006,2.006,0,0,1-2-2V27a2.006,2.006,0,0,1,2-2Z" fill="#ee8700"/>
      <path id="Trazado_1049369" data-name="Trazado 1049369" d="M29,33V61a3.995,3.995,0,0,0-4-4H11V29H25A4,4,0,0,1,29,33Z" fill="#e0e0e2"/>
      <path id="Trazado_1049370" data-name="Trazado 1049370" d="M29,61H11V57H25a4,4,0,0,1,4,4Z" fill="#898890"/>
      <path id="Trazado_1049371" data-name="Trazado 1049371" d="M15,33H25v6H15Z" fill="#ffa733"/>
      <path id="Trazado_1049372" data-name="Trazado 1049372" d="M7,33V61h4V33Z" fill="#787680"/>
      <path id="Trazado_1049373" data-name="Trazado 1049373" d="M47,29V45H39a2.006,2.006,0,0,1-2-2V29Z" fill="#c6c5ca"/>
      <rect id="Rectángulo_418034" data-name="Rectángulo 418034" width="18" height="26" rx="2" transform="translate(37 17)" fill="#ffa733"/>
      <path id="Trazado_1049374" data-name="Trazado 1049374" d="M41,21H51v6H41Z" fill="#e6e7e8"/>
      <circle id="Elipse_12959" data-name="Elipse 12959" cx="4" cy="4" r="4" transform="translate(42 31)" fill="#ffd422"/>
      <path id="Trazado_1049375" data-name="Trazado 1049375" d="M47,43h4v2H47Z" fill="#57565c"/>
      <path id="Trazado_1049376" data-name="Trazado 1049376" d="M46,30a5,5,0,1,0,5,5,5,5,0,0,0-5-5Zm0,8a3,3,0,1,1,3-3A3,3,0,0,1,46,38Z"/>
      <path id="Trazado_1049377" data-name="Trazado 1049377" d="M51,20H41a1,1,0,0,0-1,1v6a1,1,0,0,0,1,1H51a1,1,0,0,0,1-1V21A1,1,0,0,0,51,20Zm-1,6H42V22h8Z"/>
      <path id="Trazado_1049378" data-name="Trazado 1049378" d="M60,24.18V22A14.015,14.015,0,0,0,46,8a13.869,13.869,0,0,0-6,1.37V7a5,5,0,0,0-5-5H7A5,5,0,0,0,2,7V37a5.017,5.017,0,0,0,4,4.9V61a1,1,0,0,0,1,1H51a1,1,0,0,0,1-1V44h1a3.009,3.009,0,0,0,3-3V36h3a3.009,3.009,0,0,0,3-3V27a3.01,3.01,0,0,0-2-2.82ZM4,7A3.009,3.009,0,0,1,7,4H35a3.009,3.009,0,0,1,3,3v3H4ZM34,24V22a11.962,11.962,0,0,1,4-8.92v3.1A3.01,3.01,0,0,0,36,19v5Zm2,2v8H33a1,1,0,0,1-1-1V27a1,1,0,0,1,1-1ZM10,60H8V34h2Zm2,0V58H25a3.014,3.014,0,0,1,2.83,2Zm16-2.97A4.924,4.924,0,0,0,25,56H12V30H25a3.009,3.009,0,0,1,3,3Zm.99-27.01A4.966,4.966,0,0,0,25,28H11a1,1,0,0,0-1,1v3H7a1,1,0,0,0-1,1v6.82A3.01,3.01,0,0,1,4,37V12H36.22A13.939,13.939,0,0,0,32,22v2.18A3.01,3.01,0,0,0,30,27v2.01a5.087,5.087,0,0,0-1.01,1.01ZM46,60H30.17A3.014,3.014,0,0,1,33,58H46Zm0-4H33a4.924,4.924,0,0,0-3,1.03V33a3.009,3.009,0,0,0,3,3h3v5a3.009,3.009,0,0,0,3,3h7Zm4,4H48V44h2Zm4-19a1,1,0,0,1-1,1H39a1,1,0,0,1-1-1V19a1,1,0,0,1,1-1H53a1,1,0,0,1,1,1ZM53,16H40V11.62A11.983,11.983,0,0,1,58,22v2H56V19A3.009,3.009,0,0,0,53,16Zm7,17a1,1,0,0,1-1,1H56V26h3a1,1,0,0,1,1,1Z"/>
      <path id="Trazado_1049379" data-name="Trazado 1049379" d="M14,42H26v2H14Z"/>
      <path id="Trazado_1049380" data-name="Trazado 1049380" d="M14,46H26v2H14Z"/>
      <path id="Trazado_1049381" data-name="Trazado 1049381" d="M32,46H44v2H32Z"/>
      <path id="Trazado_1049382" data-name="Trazado 1049382" d="M14,50H26v2H14Z"/>
      <path id="Trazado_1049383" data-name="Trazado 1049383" d="M32,50H44v2H32Z"/>
      <path id="Trazado_1049384" data-name="Trazado 1049384" d="M15,40H25a1,1,0,0,0,1-1V33a1,1,0,0,0-1-1H15a1,1,0,0,0-1,1v6A1,1,0,0,0,15,40Zm1-6h8v4H16Z"/>
      <path id="Trazado_1049385" data-name="Trazado 1049385" d="M8,6h2V8H8Z"/>
      <path id="Trazado_1049386" data-name="Trazado 1049386" d="M12,6h2V8H12Z"/>
      <path id="Trazado_1049387" data-name="Trazado 1049387" d="M16,6h2V8H16Z"/>
      <path id="Trazado_1049388" data-name="Trazado 1049388" d="M8,14h2v2H8Z"/>
      <path id="Trazado_1049389" data-name="Trazado 1049389" d="M12,14H22v2H12Z"/>
      <path id="Trazado_1049390" data-name="Trazado 1049390" d="M8,18H22v2H8Z"/>
      <path id="Trazado_1049391" data-name="Trazado 1049391" d="M8,22H22v2H8Z"/>
    </g>
  </g>
</svg>
