<svg xmlns="http://www.w3.org/2000/svg" xmlns:xlink="http://www.w3.org/1999/xlink" width="113" height="113" viewBox="0 0 113 113">
  <defs>
    <filter id="Trazado_982547" x="0" y="0" width="113" height="113" filterUnits="userSpaceOnUse">
      <feOffset dy="3" input="SourceAlpha"/>
      <feGaussianBlur stdDeviation="3" result="blur"/>
      <feFlood flood-opacity="0.161"/>
      <feComposite operator="in" in2="blur"/>
      <feComposite in="SourceGraphic"/>
    </filter>
  </defs>
  <g id="Grupo_1206729" data-name="Grupo 1206729" transform="translate(-4462 -3870.467)">
    <g id="Grupo_1206728" data-name="Grupo 1206728">
      <g id="Grupo_1206224" data-name="Grupo 1206224" transform="translate(3668.51 2815.125)">
        <g id="Grupo_1202717" data-name="Grupo 1202717" transform="translate(0 -1644.681)">
          <g id="Grupo_1202072" data-name="Grupo 1202072" transform="translate(0 324.215)">
            <g id="Grupo_1178713" data-name="Grupo 1178713" transform="translate(0 886.374)">
              <g id="Grupo_1176922" data-name="Grupo 1176922" transform="translate(802.49 1495.435)">
                <g id="Grupo_1172322" data-name="Grupo 1172322" transform="translate(0 0)">
                  <g id="Grupo_1164700" data-name="Grupo 1164700">
                    <g id="Grupo_1160931" data-name="Grupo 1160931">
                      <g id="Grupo_1160749" data-name="Grupo 1160749">
                        <g id="Grupo_1158891" data-name="Grupo 1158891">
                          <g id="Grupo_1157406" data-name="Grupo 1157406">
                            <g id="Grupo_1155793" data-name="Grupo 1155793">
                              <g id="Grupo_1154704" data-name="Grupo 1154704">
                                <g id="Grupo_1150790" data-name="Grupo 1150790">
                                  <g id="Grupo_1154214" data-name="Grupo 1154214">
                                    <g id="Grupo_1152583" data-name="Grupo 1152583">
                                      <g id="Grupo_1146973" data-name="Grupo 1146973">
                                        <g id="Grupo_1146954" data-name="Grupo 1146954">
                                          <g transform="matrix(1, 0, 0, 1, -9, -6)" filter="url(#Trazado_982547)">
                                            <g id="Trazado_982547-2" data-name="Trazado 982547" transform="translate(9 6)" fill="#edf3fc">
                                              <path d="M 47.5000114440918 93.49987030029297 C 41.28938293457031 93.49987030029297 35.26534652709961 92.28384399414062 29.5951976776123 89.88558959960938 C 24.11773109436035 87.56881713867188 19.19814491271973 84.25183868408203 14.97310447692871 80.02680206298828 C 10.74805164337158 75.80176544189453 7.43107795715332 70.88218688964844 5.114304542541504 65.40472412109375 C 2.716038227081299 59.73458862304688 1.500011444091797 53.71054840087891 1.500011444091797 47.49993515014648 C 1.500011444091797 41.28932189941406 2.716038227081299 35.26528167724609 5.114304542541504 29.59514808654785 C 7.43107795715332 24.1176815032959 10.74805164337158 19.1981086730957 14.97310447692871 14.97306823730469 C 19.19814491271973 10.74802875518799 24.11773109436035 7.431055068969727 29.5951976776123 5.11428165435791 C 35.26534652709961 2.716028451919556 41.28938293457031 1.500001788139343 47.5000114440918 1.500001788139343 C 53.71063995361328 1.500001788139343 59.73467636108398 2.716028451919556 65.40482330322266 5.11428165435791 C 70.88229370117188 7.431055068969727 75.8018798828125 10.74802875518799 80.02691650390625 14.97306823730469 C 84.25196838378906 19.1981086730957 87.56894683837891 24.1176815032959 89.88571929931641 29.59514808654785 C 92.28398132324219 35.26528167724609 93.50001525878906 41.28932189941406 93.50001525878906 47.49993515014648 C 93.50001525878906 53.71054840087891 92.28398132324219 59.73458862304688 89.88571929931641 65.40472412109375 C 87.56894683837891 70.88218688964844 84.25196838378906 75.80176544189453 80.02691650390625 80.02680206298828 C 75.8018798828125 84.25183868408203 70.88229370117188 87.56881713867188 65.40482330322266 89.88558959960938 C 59.73467636108398 92.28384399414062 53.71063995361328 93.49987030029297 47.5000114440918 93.49987030029297 Z" stroke="none"/>
                                              <path d="M 47.5000114440918 3 C 41.49122619628906 3 35.66378021240234 4.1761474609375 30.17951965332031 6.495796203613281 C 24.880859375 8.7369384765625 20.12153625488281 11.94596862792969 16.03376770019531 16.03373718261719 C 11.94598388671875 20.12149047851562 8.736968994140625 24.88081359863281 6.495811462402344 30.17947387695312 C 4.176162719726562 35.66371917724609 3.000007629394531 41.49116516113281 3.000007629394531 47.49993515014648 C 3.000007629394531 53.50870513916016 4.176162719726562 59.33615112304688 6.495811462402344 64.82039642333984 C 8.736968994140625 70.11905670166016 11.94598388671875 74.87837982177734 16.03376770019531 78.96613311767578 C 20.12153625488281 83.05390167236328 24.880859375 86.26293182373047 30.17951965332031 88.50407409667969 C 35.66378021240234 90.82372283935547 41.49122619628906 91.99987030029297 47.5000114440918 91.99987030029297 C 53.50879669189453 91.99987030029297 59.33624267578125 90.82372283935547 64.82050323486328 88.50407409667969 C 70.11916351318359 86.26293182373047 74.87848663330078 83.05390167236328 78.96625518798828 78.96613311767578 C 83.05403900146484 74.87837982177734 86.2630615234375 70.11905670166016 88.50421142578125 64.82039642333984 C 90.82386016845703 59.33615112304688 92.00001525878906 53.50870513916016 92.00001525878906 47.49993515014648 C 92.00001525878906 41.49116516113281 90.82386016845703 35.66371917724609 88.50421142578125 30.17947387695312 C 86.2630615234375 24.88081359863281 83.05403900146484 20.12149047851562 78.96625518798828 16.03373718261719 C 74.87848663330078 11.94596862792969 70.11916351318359 8.7369384765625 64.82050323486328 6.495796203613281 C 59.33624267578125 4.1761474609375 53.50879669189453 3 47.5000114440918 3 M 47.5000114440918 0 C 73.73353576660156 0 95.00001525878906 21.26644134521484 95.00001525878906 47.49993515014648 C 95.00001525878906 73.73342895507812 73.73353576660156 94.99987030029297 47.5000114440918 94.99987030029297 C 21.26648712158203 94.99987030029297 7.62939453125e-06 73.73342895507812 7.62939453125e-06 47.49993515014648 C 7.62939453125e-06 21.26644134521484 21.26648712158203 0 47.5000114440918 0 Z" stroke="none" fill="#5692e8"/>
                                            </g>
                                          </g>
                                        </g>
                                      </g>
                                    </g>
                                  </g>
                                </g>
                              </g>
                            </g>
                          </g>
                        </g>
                      </g>
                    </g>
                  </g>
                </g>
              </g>
            </g>
          </g>
        </g>
      </g>
      <g id="sexual-harassment_9878950" transform="translate(4449.649 3881.469)">
        <rect id="Rectángulo_418058" data-name="Rectángulo 418058" width="34.346" height="4.598" transform="translate(53.39 19.385)" fill="#d8ecfe"/>
        <rect id="Rectángulo_418059" data-name="Rectángulo 418059" width="4.327" height="4.598" transform="translate(83.408 19.385)" fill="#c4e2ff"/>
        <path id="Trazado_1049682" data-name="Trazado 1049682" d="M119.861,348.546l4.057,20.876h36.312l4.057-20.876Z" transform="translate(-71.511 -295.394)" fill="#fed2a4"/>
        <path id="Trazado_1049683" data-name="Trazado 1049683" d="M385.084,348.546l-4.056,20.876h5.409l4.057-20.876Z" transform="translate(-297.718 -295.394)" fill="#ffbd86"/>
        <path id="Trazado_1049684" data-name="Trazado 1049684" d="M122.186,169.588c-17.644,0-25.286-9.21-25.286-9.21l8.113-29.748h34.346l8.113,29.748S139.83,169.588,122.186,169.588Z" transform="translate(-51.624 -106.648)" fill="#60b7ff"/>
        <path id="Trazado_1049685" data-name="Trazado 1049685" d="M246.559,130.629h-4.327a42.548,42.548,0,0,1,.942,9.77,29.136,29.136,0,0,1-22.507,28.37,45.132,45.132,0,0,0,8.719.818c17.644,0,25.286-9.21,25.286-9.21Z" transform="translate(-158.823 -106.647)" fill="#26a6fe"/>
        <g id="Grupo_1206726" data-name="Grupo 1206726" transform="translate(37.298 25.369)">
          <g id="Grupo_1206725" data-name="Grupo 1206725" transform="translate(0)">
            <path id="Trazado_1049686" data-name="Trazado 1049686" d="M52.649,168.206a2.154,2.154,0,0,0,.041-3.086l1.87,1.87a2.215,2.215,0,0,0,3.04.074,2.154,2.154,0,0,0,.041-3.086l1.392,1.392a2.215,2.215,0,0,0,3.04.074,2.154,2.154,0,0,0,.041-3.086l-1.426-1.426a2.154,2.154,0,0,0,3.086-.041,2.215,2.215,0,0,0-.074-3.04l-6.963-6.963a2.154,2.154,0,0,0,3.086-.041,2.215,2.215,0,0,0-.074-3.04l-2.193-2.193a17.4,17.4,0,0,0-5.969-3.9h0a10.475,10.475,0,0,0-11.22,2.349h0a10.475,10.475,0,0,0-1.186,13.4h0a11.194,11.194,0,0,0,1.266,1.513l9.162,9.162A2.215,2.215,0,0,0,52.649,168.206Z" transform="translate(-37.298 -140.992)" fill="#fed2a4"/>
            <path id="Trazado_1049687" data-name="Trazado 1049687" d="M63.587,143.658h0a17.4,17.4,0,0,1,5.969,3.9l2.193,2.193a2.24,2.24,0,0,1,.634,1.756,2.145,2.145,0,0,0,1.387-.662,2.215,2.215,0,0,0-.074-3.04L71.5,145.613a17.4,17.4,0,0,0-5.969-3.9h0a10.475,10.475,0,0,0-11.22,2.349h0A10.514,10.514,0,0,0,53.4,145.1,10.475,10.475,0,0,1,63.587,143.658Z" transform="translate(-51.245 -140.992)" fill="#ffbd86"/>
          </g>
        </g>
        <g id="Grupo_1206727" data-name="Grupo 1206727" transform="translate(58.934 7.5)">
          <circle id="Elipse_12970" data-name="Elipse 12970" cx="11.629" cy="11.629" r="11.629" transform="translate(0 0)" fill="#fd8087"/>
          <path id="Trazado_1049688" data-name="Trazado 1049688" d="M230.944,23.321a11.626,11.626,0,0,1-16.2,16.2,11.627,11.627,0,1,0,16.2-16.2Z" transform="translate(-212.628 -21.203)" fill="#fe646f"/>
          <path id="Trazado_1049689" data-name="Trazado 1049689" d="M253.188,51.244h0a2.028,2.028,0,0,0-2.868,0l-2.39,2.39-2.39-2.39a2.028,2.028,0,0,0-2.868,0h0a2.028,2.028,0,0,0,0,2.868l2.39,2.39-2.39,2.39a2.028,2.028,0,0,0,0,2.868h0a2.028,2.028,0,0,0,2.868,0l2.39-2.39,2.39,2.39a2.028,2.028,0,0,0,2.868,0h0a2.028,2.028,0,0,0,0-2.868L250.8,56.5l2.39-2.39A2.028,2.028,0,0,0,253.188,51.244Z" transform="translate(-236.3 -44.874)" fill="#d8ecfe"/>
        </g>
        <path id="Trazado_1049690" data-name="Trazado 1049690" d="M163.058,96.28H157.51v4.6h6.6" transform="translate(-104.12 -76.896)" fill="none" stroke="#000" stroke-linecap="round" stroke-linejoin="round" stroke-miterlimit="10" stroke-width="1.5"/>
        <path id="Trazado_1049691" data-name="Trazado 1049691" d="M365.815,96.28h5.548v4.6h-6.6" transform="translate(-283.628 -76.896)" fill="none" stroke="#000" stroke-linecap="round" stroke-linejoin="round" stroke-miterlimit="10" stroke-width="1.5"/>
        <line id="Línea_1105" data-name="Línea 1105" x1="1.21" y1="6.224" transform="translate(51.197 67.803)" fill="none" stroke="#000" stroke-linecap="round" stroke-linejoin="round" stroke-miterlimit="10" stroke-width="1.5"/>
        <path id="Trazado_1049692" data-name="Trazado 1049692" d="M424.746,377.06h0l-3.316,17.058" transform="translate(-332.712 -320.091)" fill="none" stroke="#000" stroke-linecap="round" stroke-linejoin="round" stroke-miterlimit="10" stroke-width="1.5"/>
        <line id="Línea_1106" data-name="Línea 1106" x1="1.211" y1="6.235" transform="translate(49.091 56.97)" fill="none" stroke="#000" stroke-linecap="round" stroke-linejoin="round" stroke-miterlimit="10" stroke-width="1.5"/>
        <path id="Trazado_1049693" data-name="Trazado 1049693" d="M143.386,240.98l4.085,14.977s-7.642,9.209-25.286,9.209S96.9,255.957,96.9,255.957l1.19-4.364" transform="translate(-51.624 -202.227)" fill="none" stroke="#000" stroke-linecap="round" stroke-linejoin="round" stroke-miterlimit="10" stroke-width="1.5"/>
        <line id="Línea_1107" data-name="Línea 1107" x1="2.796" y1="10.251" transform="translate(87.735 23.982)" fill="none" stroke="#000" stroke-linecap="round" stroke-linejoin="round" stroke-miterlimit="10" stroke-width="1.5"/>
        <line id="Línea_1108" data-name="Línea 1108" y1="2.581" x2="0.704" transform="translate(52.686 23.982)" fill="none" stroke="#000" stroke-linecap="round" stroke-linejoin="round" stroke-miterlimit="10" stroke-width="1.5"/>
        <path id="Trazado_1049694" data-name="Trazado 1049694" d="M52.649,168.206a2.154,2.154,0,0,0,.041-3.086l1.87,1.87a2.215,2.215,0,0,0,3.04.074,2.154,2.154,0,0,0,.041-3.086l1.392,1.392a2.215,2.215,0,0,0,3.04.074,2.154,2.154,0,0,0,.041-3.086l-1.426-1.426a2.154,2.154,0,0,0,3.086-.041,2.215,2.215,0,0,0-.074-3.04l-6.963-6.963a2.154,2.154,0,0,0,3.086-.041,2.215,2.215,0,0,0-.074-3.04l-2.193-2.193a17.4,17.4,0,0,0-5.969-3.9h0a10.475,10.475,0,0,0-11.22,2.349h0a10.475,10.475,0,0,0-1.186,13.4h0a11.194,11.194,0,0,0,1.266,1.513l9.162,9.162A2.215,2.215,0,0,0,52.649,168.206Z" transform="translate(0 -115.623)" fill="none" stroke="#000" stroke-linecap="round" stroke-linejoin="round" stroke-miterlimit="10" stroke-width="1.5"/>
        <line id="Línea_1109" data-name="Línea 1109" x2="6.417" y2="6.417" transform="translate(54.271 38.891)" fill="none" stroke="#000" stroke-linecap="round" stroke-linejoin="round" stroke-miterlimit="10" stroke-width="1.5"/>
        <line id="Línea_1110" data-name="Línea 1110" x2="6.417" y2="6.417" transform="translate(51.224 41.938)" fill="none" stroke="#000" stroke-linecap="round" stroke-linejoin="round" stroke-miterlimit="10" stroke-width="1.5"/>
        <line id="Línea_1111" data-name="Línea 1111" x1="3.023" y1="3.023" transform="translate(53.713 32.241)" fill="none" stroke="#000" stroke-linecap="round" stroke-linejoin="round" stroke-miterlimit="10" stroke-width="1.5"/>
        <line id="Línea_1112" data-name="Línea 1112" x1="4.513" y1="4.513" transform="translate(48.178 44.985)" fill="none" stroke="#000" stroke-linecap="round" stroke-linejoin="round" stroke-miterlimit="10" stroke-width="1.5"/>
        <line id="Línea_1113" data-name="Línea 1113" y2="11.088" transform="translate(70.562 62.94)" fill="none" stroke="#000" stroke-linecap="round" stroke-linejoin="round" stroke-miterlimit="10" stroke-width="1.5"/>
        <path id="Trazado_1049695" data-name="Trazado 1049695" d="M218.967,11.1a11.592,11.592,0,1,1-3.839-2.664" transform="translate(-139.996 0)" fill="none" stroke="#000" stroke-linecap="round" stroke-linejoin="round" stroke-miterlimit="10" stroke-width="1.5"/>
        <path id="Trazado_1049696" data-name="Trazado 1049696" d="M253.188,51.244h0a2.028,2.028,0,0,0-2.868,0l-2.39,2.39-2.39-2.39a2.028,2.028,0,0,0-2.868,0h0a2.028,2.028,0,0,0,0,2.868l2.39,2.39-2.39,2.39a2.028,2.028,0,0,0,0,2.868h0a2.028,2.028,0,0,0,2.868,0l2.39-2.39,2.39,2.39a2.028,2.028,0,0,0,2.868,0h0a2.028,2.028,0,0,0,0-2.868L250.8,56.5l2.39-2.39A2.028,2.028,0,0,0,253.188,51.244Z" transform="translate(-177.367 -37.374)" fill="none" stroke="#000" stroke-linecap="round" stroke-linejoin="round" stroke-miterlimit="10" stroke-width="1.5"/>
      </g>
    </g>
  </g>
</svg>
