<svg xmlns="http://www.w3.org/2000/svg" xmlns:xlink="http://www.w3.org/1999/xlink" width="113" height="113" viewBox="0 0 113 113">
  <defs>
    <filter id="Trazado_982547" x="0" y="0" width="113" height="113" filterUnits="userSpaceOnUse">
      <feOffset dy="3" input="SourceAlpha"/>
      <feGaussianBlur stdDeviation="3" result="blur"/>
      <feFlood flood-opacity="0.161"/>
      <feComposite operator="in" in2="blur"/>
      <feComposite in="SourceGraphic"/>
    </filter>
  </defs>
  <g id="Grupo_1206742" data-name="Grupo 1206742" transform="translate(-4462 -4217.468)">
    <g id="Grupo_1206226" data-name="Grupo 1206226" transform="translate(3668.51 3162.126)">
      <g id="Grupo_1202717" data-name="Grupo 1202717" transform="translate(0 -1644.681)">
        <g id="Grupo_1202072" data-name="Grupo 1202072" transform="translate(0 324.215)">
          <g id="Grupo_1178713" data-name="Grupo 1178713" transform="translate(0 886.374)">
            <g id="Grupo_1176922" data-name="Grupo 1176922" transform="translate(802.49 1495.435)">
              <g id="Grupo_1172322" data-name="Grupo 1172322" transform="translate(0 0)">
                <g id="Grupo_1164700" data-name="Grupo 1164700">
                  <g id="Grupo_1160931" data-name="Grupo 1160931">
                    <g id="Grupo_1160749" data-name="Grupo 1160749">
                      <g id="Grupo_1158891" data-name="Grupo 1158891">
                        <g id="Grupo_1157406" data-name="Grupo 1157406">
                          <g id="Grupo_1155793" data-name="Grupo 1155793">
                            <g id="Grupo_1154704" data-name="Grupo 1154704">
                              <g id="Grupo_1150790" data-name="Grupo 1150790">
                                <g id="Grupo_1154214" data-name="Grupo 1154214">
                                  <g id="Grupo_1152583" data-name="Grupo 1152583">
                                    <g id="Grupo_1146973" data-name="Grupo 1146973">
                                      <g id="Grupo_1146954" data-name="Grupo 1146954">
                                        <g transform="matrix(1, 0, 0, 1, -9, -6)" filter="url(#Trazado_982547)">
                                          <g id="Trazado_982547-2" data-name="Trazado 982547" transform="translate(9 6)" fill="#edf3fc">
                                            <path d="M 47.5000114440918 93.49987030029297 C 41.28938293457031 93.49987030029297 35.26534652709961 92.28384399414062 29.5951976776123 89.88558959960938 C 24.11773109436035 87.56881713867188 19.19814491271973 84.25183868408203 14.97310447692871 80.02680206298828 C 10.74805164337158 75.80176544189453 7.43107795715332 70.88218688964844 5.114304542541504 65.40472412109375 C 2.716038227081299 59.73458862304688 1.500011444091797 53.71054840087891 1.500011444091797 47.49993515014648 C 1.500011444091797 41.28932189941406 2.716038227081299 35.26528167724609 5.114304542541504 29.59514808654785 C 7.43107795715332 24.1176815032959 10.74805164337158 19.1981086730957 14.97310447692871 14.97306823730469 C 19.19814491271973 10.74802875518799 24.11773109436035 7.431055068969727 29.5951976776123 5.11428165435791 C 35.26534652709961 2.716028451919556 41.28938293457031 1.500001788139343 47.5000114440918 1.500001788139343 C 53.71063995361328 1.500001788139343 59.73467636108398 2.716028451919556 65.40482330322266 5.11428165435791 C 70.88229370117188 7.431055068969727 75.8018798828125 10.74802875518799 80.02691650390625 14.97306823730469 C 84.25196838378906 19.1981086730957 87.56894683837891 24.1176815032959 89.88571929931641 29.59514808654785 C 92.28398132324219 35.26528167724609 93.50001525878906 41.28932189941406 93.50001525878906 47.49993515014648 C 93.50001525878906 53.71054840087891 92.28398132324219 59.73458862304688 89.88571929931641 65.40472412109375 C 87.56894683837891 70.88218688964844 84.25196838378906 75.80176544189453 80.02691650390625 80.02680206298828 C 75.8018798828125 84.25183868408203 70.88229370117188 87.56881713867188 65.40482330322266 89.88558959960938 C 59.73467636108398 92.28384399414062 53.71063995361328 93.49987030029297 47.5000114440918 93.49987030029297 Z" stroke="none"/>
                                            <path d="M 47.5000114440918 3 C 41.49122619628906 3 35.66378021240234 4.1761474609375 30.17951965332031 6.495796203613281 C 24.880859375 8.7369384765625 20.12153625488281 11.94596862792969 16.03376770019531 16.03373718261719 C 11.94598388671875 20.12149047851562 8.736968994140625 24.88081359863281 6.495811462402344 30.17947387695312 C 4.176162719726562 35.66371917724609 3.000007629394531 41.49116516113281 3.000007629394531 47.49993515014648 C 3.000007629394531 53.50870513916016 4.176162719726562 59.33615112304688 6.495811462402344 64.82039642333984 C 8.736968994140625 70.11905670166016 11.94598388671875 74.87837982177734 16.03376770019531 78.96613311767578 C 20.12153625488281 83.05390167236328 24.880859375 86.26293182373047 30.17951965332031 88.50407409667969 C 35.66378021240234 90.82372283935547 41.49122619628906 91.99987030029297 47.5000114440918 91.99987030029297 C 53.50879669189453 91.99987030029297 59.33624267578125 90.82372283935547 64.82050323486328 88.50407409667969 C 70.11916351318359 86.26293182373047 74.87848663330078 83.05390167236328 78.96625518798828 78.96613311767578 C 83.05403900146484 74.87837982177734 86.2630615234375 70.11905670166016 88.50421142578125 64.82039642333984 C 90.82386016845703 59.33615112304688 92.00001525878906 53.50870513916016 92.00001525878906 47.49993515014648 C 92.00001525878906 41.49116516113281 90.82386016845703 35.66371917724609 88.50421142578125 30.17947387695312 C 86.2630615234375 24.88081359863281 83.05403900146484 20.12149047851562 78.96625518798828 16.03373718261719 C 74.87848663330078 11.94596862792969 70.11916351318359 8.7369384765625 64.82050323486328 6.495796203613281 C 59.33624267578125 4.1761474609375 53.50879669189453 3 47.5000114440918 3 M 47.5000114440918 0 C 73.73353576660156 0 95.00001525878906 21.26644134521484 95.00001525878906 47.49993515014648 C 95.00001525878906 73.73342895507812 73.73353576660156 94.99987030029297 47.5000114440918 94.99987030029297 C 21.26648712158203 94.99987030029297 7.62939453125e-06 73.73342895507812 7.62939453125e-06 47.49993515014648 C 7.62939453125e-06 21.26644134521484 21.26648712158203 0 47.5000114440918 0 Z" stroke="none" fill="#5692e8"/>
                                          </g>
                                        </g>
                                      </g>
                                    </g>
                                  </g>
                                </g>
                              </g>
                            </g>
                          </g>
                        </g>
                      </g>
                    </g>
                  </g>
                </g>
              </g>
            </g>
          </g>
        </g>
      </g>
    </g>
    <g id="documents_8306203" transform="translate(4465.635 4231.468)">
      <g id="Grupo_1206739" data-name="Grupo 1206739" transform="translate(22.559 7.5)">
        <path id="Trazado_1049705" data-name="Trazado 1049705" d="M108.158,326.293v.082a1.978,1.978,0,0,1-1.978,1.978H97.136s-4.527-.48-3.578-5.628l3.157-.655,9.465,2.243A1.979,1.979,0,0,1,108.158,326.293Z" transform="translate(-83.923 -279.881)" fill="#efedfe"/>
        <path id="Trazado_1049706" data-name="Trazado 1049706" d="M35.774,332.581H24.539a1.978,1.978,0,0,1-1.978-1.978v-.082a1.979,1.979,0,0,1,1.978-1.98l7.657-1.588A27.52,27.52,0,0,0,35.774,332.581Z" transform="translate(-22.561 -284.108)" fill="#dedef9"/>
        <path id="Trazado_1049707" data-name="Trazado 1049707" d="M94.849,298.46v.082a1.978,1.978,0,0,1-1.978,1.978H81.065s-4.965-1.7-2.139-5.176l4.19-.752,9.755,1.89A1.978,1.978,0,0,1,94.849,298.46Z" transform="translate(-70.613 -256.087)" fill="#dedef9"/>
        <path id="Trazado_1049708" data-name="Trazado 1049708" d="M33.013,305.38H24.539a1.978,1.978,0,0,1-1.978-1.978v-.082a1.978,1.978,0,0,1,1.978-1.978l6.334-1.137A22.569,22.569,0,0,0,33.013,305.38Z" transform="translate(-22.561 -260.947)" fill="#d2d2ff"/>
        <path id="Trazado_1049709" data-name="Trazado 1049709" d="M90.255,268.02v.082a1.979,1.979,0,0,1-1.978,1.98h-13.6s-3.561-1.67-.992-5.087l4.84-.892,9.755,1.939A1.978,1.978,0,0,1,90.255,268.02Z" transform="translate(-66.02 -229.687)" fill="#efedfe"/>
        <path id="Trazado_1049710" data-name="Trazado 1049710" d="M31.217,275.84H24.54a1.979,1.979,0,0,1-1.978-1.98v-.082A1.978,1.978,0,0,1,24.54,271.8l5.684-1.047A19.866,19.866,0,0,0,31.217,275.84Z" transform="translate(-22.562 -235.446)" fill="#dedef9"/>
        <path id="Trazado_1049711" data-name="Trazado 1049711" d="M88.219,237.571v.082a1.979,1.979,0,0,1-1.978,1.98h-14.5s-3.065-2.811.084-5.127l4.866-.9,9.553,1.99A1.978,1.978,0,0,1,88.219,237.571Z" transform="translate(-63.983 -203.278)" fill="#dedef9"/>
        <path id="Trazado_1049712" data-name="Trazado 1049712" d="M30.314,245.46H24.539a1.979,1.979,0,0,1-1.978-1.98V243.4a1.978,1.978,0,0,1,1.978-1.978l5.86-1.088A19.67,19.67,0,0,0,30.314,245.46Z" transform="translate(-22.561 -209.106)" fill="#d2d2ff"/>
        <path id="Trazado_1049713" data-name="Trazado 1049713" d="M90.82,205.176v.082a1.978,1.978,0,0,1-1.978,1.978H74.293s-2.705-2.747,1.322-5.625l3.37-.758,9.856,2.343A1.979,1.979,0,0,1,90.82,205.176Z" transform="translate(-66.585 -174.921)" fill="#efedfe"/>
        <path id="Trazado_1049714" data-name="Trazado 1049714" d="M31.591,206.5a21.27,21.27,0,0,0-1.322,5.625h-5.73a1.978,1.978,0,0,1-1.978-1.978v-.082a1.979,1.979,0,0,1,1.978-1.98Z" transform="translate(-22.561 -179.813)" fill="#dedef9"/>
        <path id="Trazado_1049715" data-name="Trazado 1049715" d="M98.41,176.682v.082a1.978,1.978,0,0,1-1.978,1.978H82.667c-1.99-3.918,2.63-5.806,2.63-5.806l1.683-.325,9.451,2.092A1.978,1.978,0,0,1,98.41,176.682Z" transform="translate(-74.175 -150.466)" fill="#dedef9"/>
        <path id="Trazado_1049716" data-name="Trazado 1049716" d="M33.684,175.032a24.23,24.23,0,0,0-2.63,5.806H24.539a1.978,1.978,0,0,1-1.978-1.978v-.082a1.978,1.978,0,0,1,1.978-1.978Z" transform="translate(-22.561 -152.563)" fill="#d2d2ff"/>
        <path id="Trazado_1049717" data-name="Trazado 1049717" d="M108.362,160.07v.082a1.979,1.979,0,0,1-1.978,1.98H94.251c-2.226-3.261,2.58-4.04,2.58-4.04h9.552A1.978,1.978,0,0,1,108.362,160.07Z" transform="translate(-84.126 -137.895)" fill="#efedfe"/>
        <path id="Trazado_1049718" data-name="Trazado 1049718" d="M35.267,158.092a25.448,25.448,0,0,0-2.58,4.04H24.54a1.979,1.979,0,0,1-1.978-1.98v-.082a1.978,1.978,0,0,1,1.978-1.978Z" transform="translate(-22.562 -137.895)" fill="#dedef9"/>
        <path id="Trazado_1049719" data-name="Trazado 1049719" d="M322.582,48.8a1.4,1.4,0,0,1-2.612.327l-.927-1.816c-.577-1.129-9.551-7.866-15.539-11.5-14.325-13.39,1.817-12.955,1.817-12.955q.889.306,1.791.573c4.223,1.255,10.641,3.99,13.806,9.506C324.118,38.517,323.453,44.948,322.582,48.8Z" transform="translate(-260.691 -20.8)" fill="#77728d"/>
        <path id="Trazado_1049720" data-name="Trazado 1049720" d="M267.479,22.516a17.062,17.062,0,0,0-4.772-2.308c-8.832-1.022-8.077-10.793-2.908-12.269a8.082,8.082,0,0,1,5.609.1q1.913.849,3.888,1.525C266.052,11.43,263.019,15.206,267.479,22.516Z" transform="translate(-224.666 -7.5)" fill="#6a647f"/>
        <path id="Trazado_1049721" data-name="Trazado 1049721" d="M273.686,368.358l.027,10.1-4.457,2.273-4.457-2.776v-13.18Z" transform="translate(-232.31 -316.856)" fill="#5c576e"/>
        <path id="Trazado_1049722" data-name="Trazado 1049722" d="M422.05,198a5.115,5.115,0,0,0-2.452-1.931,5.2,5.2,0,0,0-6.65,2.9,5,5,0,0,0,2.215,6.174,5.2,5.2,0,0,0,7.4-2.553A4.959,4.959,0,0,0,422.05,198Z" transform="translate(-360.293 -170.491)" fill="#ffcbbe"/>
        <path id="Trazado_1049723" data-name="Trazado 1049723" d="M183.416,376.5l3.5,2.273L192.8,376.5v-2.855a2.182,2.182,0,0,1,1.78-2.242,9.336,9.336,0,0,0,6.271-5l-9.044-3.888-8.387,1.868S177.254,370.442,183.416,376.5Z" transform="translate(-159.471 -314.901)" fill="#77728d"/>
        <path id="Trazado_1049724" data-name="Trazado 1049724" d="M223.518,263.344l-3.112,5.847-17.14-2.28.77-5.3q.158-.373.35-.736l3.113-5.846a9.106,9.106,0,0,1,12.221-3.753A8.884,8.884,0,0,1,223.518,263.344Z" transform="translate(-179.03 -217.689)" fill="#68a2df"/>
        <path id="Trazado_1049725" data-name="Trazado 1049725" d="M273.805,114.93a15.468,15.468,0,0,1-22.6,5.31c-12.311-18.7,2.06-24.708,2.06-24.708.133.019.267.036.4.051a61.634,61.634,0,0,1,8.073,1.381,10.613,10.613,0,0,1,6.512,4.808,12.207,12.207,0,0,0,3.395,3.778,10.4,10.4,0,0,1,1.62,1.353A7.43,7.43,0,0,1,273.805,114.93Z" transform="translate(-216.222 -83.725)" fill="#ffddcf"/>
        <path id="Trazado_1049726" data-name="Trazado 1049726" d="M240.088,116.186a16.176,16.176,0,0,1-5.661-18.842,15.928,15.928,0,0,1,4.139-6.148,1.346,1.346,0,0,1,1.377-.259,10.7,10.7,0,0,0,2.2.542C238.86,95.791,235.021,104.089,240.088,116.186Z" transform="translate(-205.107 -79.672)" fill="#ffcbbe"/>
        <path id="Trazado_1049727" data-name="Trazado 1049727" d="M230.533,466.8a2.536,2.536,0,1,0,0,5.049h8.357a2.636,2.636,0,0,0,2.751-2.5V466.8Z" transform="translate(-200.238 -405.196)" fill="#df8a57"/>
        <path id="Trazado_1049728" data-name="Trazado 1049728" d="M175.915,466.8a2.535,2.535,0,1,0,0,5.049h7.617a2.632,2.632,0,0,0,2.744-2.5V466.8Z" transform="translate(-152.951 -405.196)" fill="#eaaa83"/>
        <path id="Trazado_1049729" data-name="Trazado 1049729" d="M140.919,315.889a27.4,27.4,0,0,1-6.149-.711c-2.829-.656-4.681-3.092-4.137-5.441s3.28-3.72,6.109-3.064a14.9,14.9,0,0,0,3.865.379l3.108,4.153Z" transform="translate(-116.057 -266.407)" fill="#ffddcf"/>
        <path id="Trazado_1049730" data-name="Trazado 1049730" d="M219.71,294.793a23.816,23.816,0,0,1-13.781,4.115l-.311-8.836a12.87,12.87,0,0,0,7.015-2.238A5.99,5.99,0,0,1,220,288.6a3.9,3.9,0,0,1-.295,6.2Z" transform="translate(-181.067 -249.426)" fill="#93bce8"/>
      </g>
      <g id="Grupo_1206741" data-name="Grupo 1206741" transform="translate(22.559 7.5)">
        <path id="Trazado_1049731" data-name="Trazado 1049731" d="M258.512,18.679c-4.16-3.073-2.85-9.559,1.285-10.74a8.082,8.082,0,0,1,5.609.1,46.837,46.837,0,0,0,5.679,2.1c4.223,1.255,10.641,3.99,13.806,9.506,3.145,5.48,2.558,11.784,1.71,15.658" transform="translate(-224.664 -7.5)" fill="none" stroke="#000" stroke-linecap="round" stroke-linejoin="round" stroke-miterlimit="10" stroke-width="1"/>
        <path id="Trazado_1049732" data-name="Trazado 1049732" d="M40.328,342.832H24.539a1.978,1.978,0,0,1-1.978-1.978v-.082a1.979,1.979,0,0,1,1.978-1.98H37.054" transform="translate(-22.561 -294.359)" fill="none" stroke="#000" stroke-linecap="round" stroke-linejoin="round" stroke-miterlimit="10" stroke-width="1"/>
        <path id="Trazado_1049733" data-name="Trazado 1049733" d="M37.054,312.72H24.539a1.978,1.978,0,0,1-1.978-1.978v-.082a1.978,1.978,0,0,1,1.978-1.978H40.007" transform="translate(-22.561 -268.288)" fill="none" stroke="#000" stroke-linecap="round" stroke-linejoin="round" stroke-miterlimit="10" stroke-width="1"/>
        <path id="Trazado_1049734" data-name="Trazado 1049734" d="M43.852,282.6h.966a2.02,2.02,0,0,0,0-4.04H24.539a1.978,1.978,0,0,0-1.978,1.978v.082a1.979,1.979,0,0,0,1.978,1.98H40.007" transform="translate(-22.561 -242.207)" fill="none" stroke="#000" stroke-linecap="round" stroke-linejoin="round" stroke-miterlimit="10" stroke-width="1"/>
        <path id="Trazado_1049735" data-name="Trazado 1049735" d="M44.816,252.481H24.538a1.979,1.979,0,0,1-1.979-1.979v-.082a1.979,1.979,0,0,1,1.979-1.979H44.816a1.979,1.979,0,0,1,1.979,1.979v.082A1.979,1.979,0,0,1,44.816,252.481Z" transform="translate(-22.559 -216.127)" fill="none" stroke="#000" stroke-linecap="round" stroke-linejoin="round" stroke-miterlimit="10" stroke-width="1"/>
        <path id="Trazado_1049736" data-name="Trazado 1049736" d="M44.816,222.364H24.538a1.979,1.979,0,0,1-1.979-1.979V220.3a1.979,1.979,0,0,1,1.979-1.979H44.816A1.979,1.979,0,0,1,46.8,220.3v.082A1.979,1.979,0,0,1,44.816,222.364Z" transform="translate(-22.559 -190.049)" fill="none" stroke="#000" stroke-linecap="round" stroke-linejoin="round" stroke-miterlimit="10" stroke-width="1"/>
        <path id="Trazado_1049737" data-name="Trazado 1049737" d="M44.816,192.246H24.538a1.979,1.979,0,0,1-1.979-1.979v-.082a1.979,1.979,0,0,1,1.979-1.979H44.816a1.979,1.979,0,0,1,1.979,1.979v.082A1.979,1.979,0,0,1,44.816,192.246Z" transform="translate(-22.559 -163.971)" fill="none" stroke="#000" stroke-linecap="round" stroke-linejoin="round" stroke-miterlimit="10" stroke-width="1"/>
        <path id="Trazado_1049738" data-name="Trazado 1049738" d="M44.816,162.129H24.538a1.979,1.979,0,0,1-1.979-1.979v-.082a1.979,1.979,0,0,1,1.979-1.979H44.816a1.979,1.979,0,0,1,1.979,1.979v.082A1.979,1.979,0,0,1,44.816,162.129Z" transform="translate(-22.559 -137.892)" fill="none" stroke="#000" stroke-linecap="round" stroke-linejoin="round" stroke-miterlimit="10" stroke-width="1"/>
        <line id="Línea_1114" data-name="Línea 1114" x1="0.027" y1="10.098" transform="translate(41.376 51.502)" fill="none" stroke="#000" stroke-linecap="round" stroke-linejoin="round" stroke-miterlimit="10" stroke-width="1"/>
        <path id="Trazado_1049739" data-name="Trazado 1049739" d="M432.281,205.475a5.187,5.187,0,0,0,7.315-2.6,4.952,4.952,0,0,0-.33-4.305s0,0,0,0a5.14,5.14,0,0,0-3.8-2.508" transform="translate(-377.329 -170.772)" fill="none" stroke="#000" stroke-linecap="round" stroke-linejoin="round" stroke-miterlimit="10" stroke-width="1"/>
        <path id="Trazado_1049740" data-name="Trazado 1049740" d="M271.031,401.6v-2.854a2.18,2.18,0,0,1,1.78-2.241,9.335,9.335,0,0,0,6.271-5" transform="translate(-237.706 -340)" fill="none" stroke="#000" stroke-linecap="round" stroke-linejoin="round" stroke-miterlimit="10" stroke-width="1"/>
        <path id="Trazado_1049741" data-name="Trazado 1049741" d="M183.418,388.464c-6.163-6.058,0-12.118,0-12.118l.067-.015h0" transform="translate(-159.472 -326.865)" fill="none" stroke="#000" stroke-linecap="round" stroke-linejoin="round" stroke-miterlimit="10" stroke-width="1"/>
        <path id="Trazado_1049742" data-name="Trazado 1049742" d="M222.711,265.693l1.624-3.05a8.919,8.919,0,0,1,3.523-3.6" transform="translate(-195.867 -225.305)" fill="none" stroke="#000" stroke-linecap="round" stroke-linejoin="round" stroke-miterlimit="10" stroke-width="1"/>
        <path id="Trazado_1049743" data-name="Trazado 1049743" d="M216.531,310.829l15.361,2.043L235,307.024a8.8,8.8,0,0,0,.766-6.332" transform="translate(-190.516 -261.369)" fill="none" stroke="#000" stroke-linecap="round" stroke-linejoin="round" stroke-miterlimit="10" stroke-width="1"/>
        <path id="Trazado_1049744" data-name="Trazado 1049744" d="M262.69,109.457a15.57,15.57,0,0,1-19.057,7.191,16.078,16.078,0,0,1-9.206-20.724,15.9,15.9,0,0,1,4.789-6.713,10.35,10.35,0,0,0,3.336.9,61.631,61.631,0,0,1,8.073,1.381,10.613,10.613,0,0,1,6.511,4.808,12.209,12.209,0,0,0,3.395,3.778,10.4,10.4,0,0,1,1.62,1.353A7.431,7.431,0,0,1,262.69,109.457Z" transform="translate(-205.107 -78.253)" fill="none" stroke="#000" stroke-linecap="round" stroke-linejoin="round" stroke-miterlimit="10" stroke-width="1"/>
        <path id="Trazado_1049745" data-name="Trazado 1049745" d="M248.441,466.792h11.108v2.546a2.636,2.636,0,0,1-2.751,2.5h-8.357" transform="translate(-218.146 -405.192)" fill="none" stroke="#000" stroke-linecap="round" stroke-linejoin="round" stroke-miterlimit="10" stroke-width="1"/>
        <path id="Trazado_1049746" data-name="Trazado 1049746" d="M175.915,466.8a2.535,2.535,0,1,0,0,5.049h7.617a2.632,2.632,0,0,0,2.744-2.5V466.8Z" transform="translate(-152.951 -405.196)" fill="none" stroke="#000" stroke-linecap="round" stroke-linejoin="round" stroke-miterlimit="10" stroke-width="1"/>
        <path id="Trazado_1049747" data-name="Trazado 1049747" d="M140.9,315.9a27.441,27.441,0,0,1-6.148-.711c-2.69-.623-4.709-2.988-4.136-5.44.562-2.427,3.369-3.7,6.109-3.065a14.922,14.922,0,0,0,3.865.38" transform="translate(-116.042 -266.42)" fill="none" stroke="#000" stroke-linecap="round" stroke-linejoin="round" stroke-miterlimit="10" stroke-width="1"/>
        <path id="Trazado_1049748" data-name="Trazado 1049748" d="M219.713,294.792a23.865,23.865,0,0,1-13.782,4.115l-.31-8.836a12.875,12.875,0,0,0,7.014-2.237,5.988,5.988,0,0,1,7.371.76A3.9,3.9,0,0,1,219.713,294.792Z" transform="translate(-181.069 -249.424)" fill="none" stroke="#000" stroke-linecap="round" stroke-linejoin="round" stroke-miterlimit="10" stroke-width="1"/>
      </g>
    </g>
  </g>
</svg>
