<svg xmlns="http://www.w3.org/2000/svg" xmlns:xlink="http://www.w3.org/1999/xlink" width="108" height="108" viewBox="0 0 108 108">
  <defs>
    <filter id="Trazado_904820" x="0" y="0" width="108" height="108" filterUnits="userSpaceOnUse">
      <feOffset dy="3" input="SourceAlpha"/>
      <feGaussianBlur stdDeviation="3" result="blur"/>
      <feFlood flood-opacity="0.161"/>
      <feComposite operator="in" in2="blur"/>
      <feComposite in="SourceGraphic"/>
    </filter>
  </defs>
  <g id="Grupo_1206773" data-name="Grupo 1206773" transform="translate(-619 -7203.354)">
    <g id="Grupo_1206291" data-name="Grupo 1206291" transform="translate(628 7209.354)">
      <g id="Grupo_1173585" data-name="Grupo 1173585" transform="translate(0 0)">
        <g id="Grupo_1173428" data-name="Grupo 1173428">
          <g id="Grupo_1171958" data-name="Grupo 1171958">
            <g id="Grupo_1167341" data-name="Grupo 1167341">
              <g id="Grupo_1166792" data-name="Grupo 1166792">
                <g transform="matrix(1, 0, 0, 1, -9, -6)" filter="url(#Trazado_904820)">
                  <g id="Trazado_904820-2" data-name="Trazado 904820" transform="translate(9 6)" fill="#effbfe">
                    <path d="M 44.99999618530273 88.50006866455078 C 39.12687301635742 88.50006866455078 33.43022155761719 87.35014343261719 28.06829643249512 85.08222961425781 C 22.88852119445801 82.89136505126953 18.23629570007324 79.75465393066406 14.24084663391113 75.75919342041016 C 10.24540901184082 71.76374053955078 7.108683586120605 67.11151885986328 4.917821407318115 61.93174362182617 C 2.649921178817749 56.56980514526367 1.499996185302734 50.87315368652344 1.499996185302734 45.00003051757812 C 1.499996185302734 39.12690734863281 2.649921178817749 33.43024444580078 4.917821407318115 28.06831741333008 C 7.108683586120605 22.88854217529297 10.24540901184082 18.23631858825684 14.24084663391113 14.24086761474609 C 18.23629570007324 10.24541759490967 22.88852119445801 7.10869312286377 28.06829643249512 4.917830467224121 C 33.43022155761719 2.649930477142334 39.12687301635742 1.500005483627319 44.99999618530273 1.500005483627319 C 50.87311935424805 1.500005483627319 56.56977081298828 2.649930477142334 61.93169784545898 4.917830467224121 C 67.11147308349609 7.10869312286377 71.76369476318359 10.24541759490967 75.75914764404297 14.24086761474609 C 79.75458526611328 18.23631858825684 82.89131164550781 22.88854217529297 85.08216857910156 28.06831741333008 C 87.35007476806641 33.43024444580078 88.5 39.12690734863281 88.5 45.00003051757812 C 88.5 50.87315368652344 87.35007476806641 56.56980514526367 85.08216857910156 61.93174362182617 C 82.89131164550781 67.11151885986328 79.75458526611328 71.76374053955078 75.75914764404297 75.75919342041016 C 71.76369476318359 79.75465393066406 67.11147308349609 82.89136505126953 61.93169784545898 85.08222961425781 C 56.56977081298828 87.35014343261719 50.87311935424805 88.50006866455078 44.99999618530273 88.50006866455078 Z" stroke="none"/>
                    <path d="M 44.99999618530273 3 C 39.32870864868164 3 33.82865142822266 4.110061645507812 28.65262603759766 6.299346923828125 C 23.65165710449219 8.414573669433594 19.15968322753906 11.44334411621094 15.301513671875 15.301513671875 C 11.44333648681641 19.15969848632812 8.414566040039062 23.65165710449219 6.299339294433594 28.65264511108398 C 4.110054016113281 33.82867431640625 2.999992370605469 39.32873153686523 2.999992370605469 45.00003051757812 C 2.999992370605469 50.67131805419922 4.110054016113281 56.1713752746582 6.299339294433594 61.34741592407227 C 8.414566040039062 66.348388671875 11.44333648681641 70.84034729003906 15.301513671875 74.69853210449219 C 19.15968322753906 78.55671691894531 23.65165710449219 81.58548736572266 28.65262603759766 83.70071411132812 C 33.82865142822266 85.88999938964844 39.32870864868164 87.00006103515625 44.99999618530273 87.00006103515625 C 50.67128372192383 87.00006103515625 56.17134094238281 85.88999938964844 61.34736633300781 83.70071411132812 C 66.34834289550781 81.58548736572266 70.84030914306641 78.55671691894531 74.69847869873047 74.69853210449219 C 78.55665588378906 70.84034729003906 81.58542633056641 66.348388671875 83.70065307617188 61.34741592407227 C 85.88993835449219 56.1713752746582 87 50.67131805419922 87 45.00003051757812 C 87 39.32873153686523 85.88993835449219 33.82867431640625 83.70065307617188 28.65264511108398 C 81.58542633056641 23.65165710449219 78.55665588378906 19.15969848632812 74.69847869873047 15.301513671875 C 70.84030914306641 11.44334411621094 66.34834289550781 8.414573669433594 61.34736633300781 6.299346923828125 C 56.17134094238281 4.110061645507812 50.67128372192383 3 44.99999618530273 3 M 44.99999618530273 0 C 69.85281372070312 0 90 20.14718627929688 90 45.00003051757812 C 90 69.85284423828125 69.85281372070312 90.00006103515625 44.99999618530273 90.00006103515625 C 20.14717864990234 90.00006103515625 -7.62939453125e-06 69.85284423828125 -7.62939453125e-06 45.00003051757812 C -7.62939453125e-06 20.14718627929688 20.14717864990234 0 44.99999618530273 0 Z" stroke="none" fill="#497f88"/>
                  </g>
                </g>
              </g>
            </g>
          </g>
        </g>
      </g>
    </g>
    <g id="womens-day_14646076" transform="translate(590.328 7215.854)">
      <g id="Grupo_1206770" data-name="Grupo 1206770" transform="translate(56.131 7.5)">
        <path id="Trazado_1049881" data-name="Trazado 1049881" d="M307.137,17.514a9.954,9.954,0,0,1-1.092,4.531l-3.631,7.128-8.694-4.429-9.127-4.65,3.632-7.128A10,10,0,0,1,301.3,8.414c.128.057.254.118.379.182A10,10,0,0,1,307.137,17.514Z" transform="translate(-254.252 -7.504)" fill="#7d849a"/>
        <path id="Trazado_1049882" data-name="Trazado 1049882" d="M293.786,22.744a11.126,11.126,0,0,1-.065,2l-9.127-4.65,3.632-7.128A10,10,0,0,1,301.3,8.414C298.977,9.652,293.32,13.623,293.786,22.744Z" transform="translate(-254.252 -7.504)" fill="#616a84"/>
        <path id="Trazado_1049883" data-name="Trazado 1049883" d="M278.8,88.387a1.691,1.691,0,0,1-1.911,1.161,18.341,18.341,0,0,1-5.643-1.754,1.986,1.986,0,0,0-2.659.87L265.4,94.917,257,90.634l-2.288-1.166,3.187-6.253a1.987,1.987,0,0,0-.859-2.663,18.3,18.3,0,0,1-4.736-3.534,1.69,1.69,0,0,1,1.934-2.728,1.9,1.9,0,0,1,.219.134,21.622,21.622,0,0,0,2.591,1.651l.563.826,4.578,1.814,1.016-1.268a6,6,0,0,1,7.018,3.739,3.929,3.929,0,0,0,1.136,1.65,17.4,17.4,0,0,0,6.368,3.446,1.621,1.621,0,0,1,.238.1A1.689,1.689,0,0,1,278.8,88.387Z" transform="translate(-225.797 -65.262)" fill="#ffeab7"/>
        <path id="Trazado_1049884" data-name="Trazado 1049884" d="M266.081,77.469l-.762,2.758a4.008,4.008,0,0,0-3.286,2.275l-3.979,7.946s-.4.072-1.057.186l-2.288-1.166,3.187-6.253a1.987,1.987,0,0,0-.859-2.663,18.3,18.3,0,0,1-4.736-3.534,1.69,1.69,0,0,1,1.934-2.728,1.909,1.909,0,0,1,.219.134,17.4,17.4,0,0,0,6.53,3.126,3.949,3.949,0,0,0,2.005-.049A5.978,5.978,0,0,1,266.081,77.469Z" transform="translate(-225.797 -65.262)" fill="#fad989"/>
        <path id="Trazado_1049885" data-name="Trazado 1049885" d="M355.263,60.321a.123.123,0,0,0-.009.019,6.269,6.269,0,0,1-8.285,3.076,5.259,5.259,0,0,1-.652-.39l-1.133-2.8,1.493-5.443,1.652-.511a5.351,5.351,0,0,0,2.023.058,1.8,1.8,0,0,1,1.951.995,6.163,6.163,0,0,0,2.327,2.418A1.98,1.98,0,0,1,355.263,60.321Z" transform="translate(-306.795 -48.06)" fill="#ffd4bd"/>
        <path id="Trazado_1049886" data-name="Trazado 1049886" d="M337.311,59.611a6.346,6.346,0,0,1-1.891-7.854c.04-.086.081-.173.124-.258a2.01,2.01,0,0,1,2.5-1.036,7.857,7.857,0,0,0,1.283.394A15.763,15.763,0,0,0,337.311,59.611Z" transform="translate(-297.789 -44.646)" fill="#ffbf9d"/>
        <path id="Trazado_1049887" data-name="Trazado 1049887" d="M80.157,20.091l-8.7,4.432L62.337,29.17l-3.631-7.128A10,10,0,0,1,62.175,9.11a10.3,10.3,0,0,1,.9-.518,10,10,0,0,1,13.45,4.371Z" transform="translate(-57.417 -7.5)" fill="#db9e82"/>
        <path id="Trazado_1049888" data-name="Trazado 1049888" d="M71.459,35.035l-9.123,4.647-3.631-7.128a10,10,0,0,1,3.469-12.932c-.271,2.417-.7,11.827,8.791,13.675Z" transform="translate(-57.417 -18.012)" fill="#c8866a"/>
        <path id="Trazado_1049889" data-name="Trazado 1049889" d="M77.114,83.215,80.3,89.468l-7.346,3.743-3.348,1.707-3.186-6.254a1.987,1.987,0,0,0-2.659-.87,18.341,18.341,0,0,1-5.643,1.754,1.691,1.691,0,0,1-1.07-3.168,1.626,1.626,0,0,1,.238-.1,21.639,21.639,0,0,0,2.859-1.126h0l5.6-1.541-.881-2.626A6,6,0,0,1,72.021,77.5a3.949,3.949,0,0,0,2.005.049,17.4,17.4,0,0,0,6.53-3.126,1.9,1.9,0,0,1,.219-.134,1.69,1.69,0,0,1,1.934,2.728,18.3,18.3,0,0,1-4.736,3.534A1.987,1.987,0,0,0,77.114,83.215Z" transform="translate(-56.131 -65.262)" fill="#b18cd9"/>
        <path id="Trazado_1049890" data-name="Trazado 1049890" d="M72.956,121.268l-3.348,1.707-3.186-6.254a1.986,1.986,0,0,0-2.659-.87A18.342,18.342,0,0,1,58.12,117.6a1.691,1.691,0,0,1-1.07-3.168,1.627,1.627,0,0,1,.238-.1,17.4,17.4,0,0,0,6.368-3.446,3.929,3.929,0,0,0,1.136-1.65,6.009,6.009,0,0,1,2.129-2.781l2.389,2.065s-1.458,1.841,0,4.688l2.684,4.865S72.425,119.472,72.956,121.268Z" transform="translate(-56.131 -93.319)" fill="#996acc"/>
        <path id="Trazado_1049891" data-name="Trazado 1049891" d="M103.99,59.855l-1.944.246-5.922-4.373.449-1.745a5.764,5.764,0,0,0,1.814-2.071,1.8,1.8,0,0,1,1.951-.995,6.134,6.134,0,0,0,3.306-.453,2.01,2.01,0,0,1,2.5,1.036c.043.085.084.171.124.258A6.3,6.3,0,0,1,103.99,59.855Z" transform="translate(-90.813 -44.646)" fill="#ffddcf"/>
        <path id="Trazado_1049892" data-name="Trazado 1049892" d="M97.939,83.665c-.088.052-.178.1-.27.147a6.269,6.269,0,0,1-8.285-3.076.12.12,0,0,0-.009-.019,1.98,1.98,0,0,1,.634-2.578q.257-.161.513-.348A9.928,9.928,0,0,0,97.939,83.665Z" transform="translate(-84.761 -68.457)" fill="#ffcbbe"/>
        <path id="Trazado_1049893" data-name="Trazado 1049893" d="M134.324,195.151a22.019,22.019,0,0,1-28.552,21.008l-9.05-6.91-5.2-6.91A22.144,22.144,0,0,1,91,189.711l10.643-13.8,4.691-.558,2.623-1.947h0a22.17,22.17,0,0,1,2.8-.248c.186-.005.372-.008.559-.008a21.932,21.932,0,0,1,8.193,1.576l9.663,9.423,3.921,7.862h0A21.992,21.992,0,0,1,134.324,195.151Z" transform="translate(-85.783 -151.152)" fill="#c2eafb"/>
        <path id="Trazado_1049894" data-name="Trazado 1049894" d="M109.9,217.07a21.85,21.85,0,0,1-4.125-.859l-9.05-6.91-5.2-6.91A22.144,22.144,0,0,1,91,189.763l10.643-13.8a21.88,21.88,0,0,1,10.12-2.753C108.644,176.627,94.068,194.594,109.9,217.07Z" transform="translate(-85.783 -151.204)" fill="#a8e1f6"/>
        <path id="Trazado_1049895" data-name="Trazado 1049895" d="M310.813,202.307a9.243,9.243,0,0,1-6.065-3.833c-2.883-3.729-8.421-.633-10.342-6.578-1.07-3.31.859-5.537,2.824-6.874A22.022,22.022,0,0,1,310.813,202.307Z" transform="translate(-262.495 -161.445)" fill="#8ce09f"/>
        <path id="Trazado_1049896" data-name="Trazado 1049896" d="M179.907,415.791l-6.723-3.542,2.351-6.627C180.15,406.655,182.687,412.055,179.907,415.791Z" transform="translate(-157.638 -352.747)" fill="#8ce09f"/>
        <path id="Trazado_1049897" data-name="Trazado 1049897" d="M115.891,404.769a7.287,7.287,0,0,1-2.279,1.963,22.057,22.057,0,0,1-14.248-13.82,17.674,17.674,0,0,0,9.651,1.567,7.4,7.4,0,0,1,2.5.121A38.16,38.16,0,0,0,115.891,404.769Z" transform="translate(-93.622 -341.725)" fill="#55d47b"/>
        <path id="Trazado_1049898" data-name="Trazado 1049898" d="M106.747,202.81c-2.719,4.407-6.832,3.74-11.323,4.93a22.048,22.048,0,0,1,10.643-13.8C107.87,195.384,109.627,198.145,106.747,202.81Z" transform="translate(-90.206 -169.181)" fill="#55d47b"/>
        <g id="Grupo_1206769" data-name="Grupo 1206769" transform="translate(12.291 42.628)">
          <g id="Grupo_1206768" data-name="Grupo 1206768">
            <ellipse id="Elipse_12971" data-name="Elipse 12971" cx="3.841" cy="3.059" rx="3.841" ry="3.059" fill="#fff"/>
            <ellipse id="Elipse_12972" data-name="Elipse 12972" cx="3.841" cy="3.059" rx="3.841" ry="3.059" transform="translate(20.818)" fill="#fff"/>
          </g>
        </g>
      </g>
      <g id="Grupo_1206772" data-name="Grupo 1206772" transform="translate(56.131 7.5)">
        <path id="Trazado_1049899" data-name="Trazado 1049899" d="M292.024,18.153l2.646-5.19a10,10,0,1,1,17.819,9.079l-2.646,5.194" transform="translate(-260.695 -7.5)" fill="none" stroke="#000" stroke-linecap="round" stroke-linejoin="round" stroke-miterlimit="10" stroke-width="1.5"/>
        <path id="Trazado_1049900" data-name="Trazado 1049900" d="M256.474,96.772a18.077,18.077,0,0,0,4.632,3.434,1.987,1.987,0,0,1,.859,2.663l-2.068,4.056" transform="translate(-229.867 -84.916)" fill="none" stroke="#000" stroke-linecap="round" stroke-linejoin="round" stroke-miterlimit="10" stroke-width="1.5"/>
        <path id="Trazado_1049901" data-name="Trazado 1049901" d="M367.676,126.552l.044.113a3.928,3.928,0,0,0,1.136,1.65,18.5,18.5,0,0,0,6.606,3.545,1.691,1.691,0,0,1-1.07,3.168,18.341,18.341,0,0,1-5.643-1.754,1.987,1.987,0,0,0-2.659.87l-1.875,3.68" transform="translate(-323.297 -110.741)" fill="none" stroke="#000" stroke-linecap="round" stroke-linejoin="round" stroke-miterlimit="10" stroke-width="1.5"/>
        <path id="Trazado_1049902" data-name="Trazado 1049902" d="M257.094,74.424a1.685,1.685,0,0,1,1.967,0,17.4,17.4,0,0,0,6.53,3.126A3.949,3.949,0,0,0,267.6,77.5l.046-.012" transform="translate(-230.404 -65.261)" fill="none" stroke="#000" stroke-linecap="round" stroke-linejoin="round" stroke-miterlimit="10" stroke-width="1.5"/>
        <path id="Trazado_1049903" data-name="Trazado 1049903" d="M346.241,56.928a6.019,6.019,0,1,1-10.7-5.427,2.009,2.009,0,0,1,2.5-1.036,6.143,6.143,0,0,0,3.306.452,1.807,1.807,0,0,1,1.952.994,6.157,6.157,0,0,0,2.326,2.419A1.979,1.979,0,0,1,346.241,56.928Z" transform="translate(-297.783 -44.648)" fill="none" stroke="#000" stroke-linecap="round" stroke-linejoin="round" stroke-miterlimit="10" stroke-width="1.5"/>
        <path id="Trazado_1049904" data-name="Trazado 1049904" d="M59.034,15.582a10,10,0,0,1,18.722-2.619l2.646,5.19" transform="translate(-58.649 -7.5)" fill="none" stroke="#000" stroke-linecap="round" stroke-linejoin="round" stroke-miterlimit="10" stroke-width="1.5"/>
        <path id="Trazado_1049905" data-name="Trazado 1049905" d="M60.474,103.352c.347,1.222.479,1.354,3.357,7.006" transform="translate(-59.897 -90.622)" fill="none" stroke="#000" stroke-linecap="round" stroke-linejoin="round" stroke-miterlimit="10" stroke-width="1.5"/>
        <path id="Trazado_1049906" data-name="Trazado 1049906" d="M64.835,126.552l-.044.113a3.929,3.929,0,0,1-1.136,1.65,18.5,18.5,0,0,1-6.606,3.545,1.691,1.691,0,0,0,1.07,3.168,18.342,18.342,0,0,0,5.643-1.754,1.987,1.987,0,0,1,2.659.87l1.874,3.679" transform="translate(-56.131 -110.741)" fill="none" stroke="#000" stroke-linecap="round" stroke-linejoin="round" stroke-miterlimit="10" stroke-width="1.5"/>
        <path id="Trazado_1049907" data-name="Trazado 1049907" d="M175.424,77.49l.046.012a3.949,3.949,0,0,0,2.005.049,18.69,18.69,0,0,0,6.749-3.261,1.69,1.69,0,0,1,1.934,2.728,18.3,18.3,0,0,1-4.736,3.534,1.987,1.987,0,0,0-.859,2.663l2.068,4.057" transform="translate(-159.581 -65.262)" fill="none" stroke="#000" stroke-linecap="round" stroke-linejoin="round" stroke-miterlimit="10" stroke-width="1.5"/>
        <path id="Trazado_1049908" data-name="Trazado 1049908" d="M89.385,56.928a6.019,6.019,0,1,0,10.7-5.427,2.009,2.009,0,0,0-2.5-1.036,6.143,6.143,0,0,1-3.306.452,1.808,1.808,0,0,0-1.952.994,6.158,6.158,0,0,1-2.326,2.419A1.979,1.979,0,0,0,89.385,56.928Z" transform="translate(-84.761 -44.648)" fill="none" stroke="#000" stroke-linecap="round" stroke-linejoin="round" stroke-miterlimit="10" stroke-width="1.5"/>
        <path id="Trazado_1049909" data-name="Trazado 1049909" d="M126.772,211.736a21.97,21.97,0,0,0,7.328-19.725h0a22,22,0,1,0-11.133,22.4" transform="translate(-85.783 -151.148)" fill="none" stroke="#000" stroke-linecap="round" stroke-linejoin="round" stroke-miterlimit="10" stroke-width="1.5"/>
        <path id="Trazado_1049910" data-name="Trazado 1049910" d="M316.084,262.222c2.46,1.308,5.731.616,7.728,3.2a9.325,9.325,0,0,0,5.965,3.824" transform="translate(-281.56 -228.392)" fill="none" stroke="#000" stroke-linecap="round" stroke-linejoin="round" stroke-miterlimit="10" stroke-width="1.5"/>
        <path id="Trazado_1049911" data-name="Trazado 1049911" d="M294.3,191.946c-.794-3.045.985-5.133,2.839-6.424" transform="translate(-262.497 -161.879)" fill="none" stroke="#000" stroke-linecap="round" stroke-linejoin="round" stroke-miterlimit="10" stroke-width="1.5"/>
        <path id="Trazado_1049912" data-name="Trazado 1049912" d="M100.3,393.352a17.676,17.676,0,0,0,9.526,1.509c7.095-.837,11.369,8.261,4.711,12.185" transform="translate(-94.437 -342.107)" fill="none" stroke="#000" stroke-linecap="round" stroke-linejoin="round" stroke-miterlimit="10" stroke-width="1.5"/>
        <path id="Trazado_1049913" data-name="Trazado 1049913" d="M106.851,194.442c1.773,1.46,3.434,4.207.6,8.8-2.7,4.371-6.765,3.751-11.216,4.9" transform="translate(-90.908 -169.614)" fill="none" stroke="#000" stroke-linecap="round" stroke-linejoin="round" stroke-miterlimit="10" stroke-width="1.5"/>
        <g id="Grupo_1206771" data-name="Grupo 1206771" transform="translate(16.542 40.531)">
          <path id="Trazado_1049914" data-name="Trazado 1049914" d="M184.343,314.506a1.828,1.828,0,1,0-3.656,0" transform="translate(-180.687 -312.678)" fill="none" stroke="#000" stroke-linecap="round" stroke-linejoin="round" stroke-miterlimit="10" stroke-width="1.5"/>
          <path id="Trazado_1049915" data-name="Trazado 1049915" d="M303.731,314.506a1.828,1.828,0,1,1,3.656,0" transform="translate(-287.389 -312.678)" fill="none" stroke="#000" stroke-linecap="round" stroke-linejoin="round" stroke-miterlimit="10" stroke-width="1.5"/>
          <path id="Trazado_1049916" data-name="Trazado 1049916" d="M241.373,342.531a2.57,2.57,0,0,0,3.878,0" transform="translate(-233.313 -338.566)" fill="none" stroke="#000" stroke-linecap="round" stroke-linejoin="round" stroke-miterlimit="10" stroke-width="1.5"/>
        </g>
      </g>
    </g>
  </g>
</svg>
